<svg width="377" height="96" viewBox="0 0 377 96" fill="none" xmlns="http://www.w3.org/2000/svg">
<mask id="path-1-inside-1_46_6618" fill="white">
<path d="M2 0H377V96H2V0Z"/>
</mask>
<path d="M2 4H377V-4H2V4ZM377 92H2V100H377V92Z" fill="#151515" mask="url(#path-1-inside-1_46_6618)"/>
<path d="M159.986 26L155.08 37H153.408L151.12 31.39L148.282 37H146.61L143.178 28.618L141.132 27.43V26.748L144.894 24.9L145.73 28.222L148.414 34.756L150.57 30.114L149.954 28.618L147.908 27.43V26.748L151.67 24.9L152.506 28.222L155.124 34.58L157.764 28.42L154.706 26.198L155.146 25.318H159.986V26ZM165.274 37H159.136V36.318L161.094 34.778V28.354L159.136 26.99V26.308L162.898 24.9H163.734V35.35L165.714 36.12L165.274 37ZM162.326 18.3C162.766 18.3 163.126 18.4613 163.404 18.784C163.698 19.1067 163.844 19.51 163.844 19.994C163.844 20.3313 163.742 20.654 163.536 20.962C163.331 21.2553 163.074 21.49 162.766 21.666C162.458 21.842 162.158 21.93 161.864 21.93C161.424 21.93 161.058 21.7687 160.764 21.446C160.486 21.1233 160.346 20.72 160.346 20.236C160.346 19.8987 160.449 19.5833 160.654 19.29C160.86 18.982 161.116 18.74 161.424 18.564C161.732 18.388 162.033 18.3 162.326 18.3ZM171.977 37.044C171.64 37.1613 171.229 37.22 170.745 37.22C169.528 37.22 168.633 36.9047 168.061 36.274C167.504 35.6287 167.225 34.6387 167.225 33.304V26.88H164.849V25.978L169.029 21.116H169.865V25.978H173.825V26.88H169.865V33.568C169.865 34.756 170.437 35.35 171.581 35.35C171.889 35.35 172.182 35.284 172.461 35.152C172.754 35.02 173.114 34.7853 173.539 34.448L174.199 35.284L171.977 37.044ZM186.938 37H182.758V29.586C182.758 28.7793 182.634 28.2147 182.384 27.892C182.135 27.5693 181.688 27.408 181.042 27.408C180.558 27.408 180.074 27.496 179.59 27.672C179.121 27.848 178.564 28.1853 177.918 28.684V35.35L179.898 36.12L179.458 37H173.32V36.318L175.278 34.778V21.248L173.32 19.884V19.202L177.082 17.794H177.918V27.65L180.932 25.274C181.24 25.1567 181.644 25.098 182.142 25.098C183.14 25.098 183.932 25.406 184.518 26.022C185.105 26.6233 185.398 27.4447 185.398 28.486V35.35L187.378 36.12L186.938 37ZM197.598 37.044C197.26 37.1613 196.85 37.22 196.366 37.22C195.148 37.22 194.254 36.9047 193.682 36.274C193.124 35.6287 192.846 34.6387 192.846 33.304V26.88H190.47V25.978L194.65 21.116H195.486V25.978H199.446V26.88H195.486V33.568C195.486 34.756 196.058 35.35 197.202 35.35C197.51 35.35 197.803 35.284 198.082 35.152C198.375 35.02 198.734 34.7853 199.16 34.448L199.82 35.284L197.598 37.044ZM212.559 37H208.379V29.586C208.379 28.7793 208.254 28.2147 208.005 27.892C207.755 27.5693 207.308 27.408 206.663 27.408C206.179 27.408 205.695 27.496 205.211 27.672C204.741 27.848 204.184 28.1853 203.539 28.684V35.35L205.519 36.12L205.079 37H198.941V36.318L200.899 34.778V21.248L198.941 19.884V19.202L202.703 17.794H203.539V27.65L206.553 25.274C206.861 25.1567 207.264 25.098 207.763 25.098C208.76 25.098 209.552 25.406 210.139 26.022C210.725 26.6233 211.019 27.4447 211.019 28.486V35.35L212.999 36.12L212.559 37ZM220.286 37.044C219.699 37.1613 218.995 37.22 218.174 37.22C217.206 37.22 216.333 36.9707 215.556 36.472C214.793 35.9587 214.192 35.2693 213.752 34.404C213.326 33.5387 213.114 32.5853 213.114 31.544C213.114 30.4147 213.458 29.3587 214.148 28.376C214.837 27.3787 215.695 26.5867 216.722 26C217.763 25.3987 218.768 25.098 219.736 25.098C221.129 25.098 222.207 25.648 222.97 26.748C223.747 27.848 224.136 29.3 224.136 31.104H215.996C216.084 32.3507 216.421 33.37 217.008 34.162C217.609 34.954 218.423 35.35 219.45 35.35C220.403 35.35 221.76 34.6093 223.52 33.128L224.18 33.964L220.286 37.044ZM218.46 26.946C216.876 26.946 216.047 28.0313 215.974 30.202H221.122C220.99 29.41 220.85 28.8087 220.704 28.398C220.572 27.9727 220.33 27.628 219.978 27.364C219.64 27.0853 219.134 26.946 218.46 26.946Z" fill="#151515"/>
<path d="M152.458 59.017H149.228V53.288C149.228 52.6647 149.132 52.2283 148.939 51.979C148.746 51.7297 148.401 51.605 147.902 51.605C147.528 51.605 147.154 51.673 146.78 51.809C146.417 51.945 145.987 52.2057 145.488 52.591V57.742L147.018 58.337L146.678 59.017H141.935V58.49L143.448 57.3V52.489L141.935 51.605V51.078L144.842 49.65L145.403 51.86L147.817 49.939C148.055 49.8483 148.367 49.803 148.752 49.803C149.523 49.803 150.135 50.041 150.588 50.517C151.041 50.9817 151.268 51.6163 151.268 52.421V57.725L152.798 58.337L152.458 59.017ZM158.421 59.034C157.967 59.1247 157.423 59.17 156.789 59.17C156.041 59.17 155.366 58.9773 154.766 58.592C154.176 58.1953 153.712 57.6627 153.372 56.994C153.043 56.3253 152.879 55.5887 152.879 54.784C152.879 53.9113 153.145 53.0953 153.678 52.336C154.21 51.5653 154.873 50.9533 155.667 50.5C156.471 50.0353 157.248 49.803 157.996 49.803C159.072 49.803 159.905 50.228 160.495 51.078C161.095 51.928 161.396 53.05 161.396 54.444H155.106C155.174 55.4073 155.434 56.195 155.888 56.807C156.352 57.419 156.981 57.725 157.775 57.725C158.511 57.725 159.56 57.1527 160.92 56.008L161.43 56.654L158.421 59.034ZM157.01 51.231C155.786 51.231 155.145 52.0697 155.089 53.747H159.067C158.965 53.135 158.857 52.6703 158.744 52.353C158.642 52.0243 158.455 51.758 158.183 51.554C157.922 51.3387 157.531 51.231 157.01 51.231ZM175.754 50.5L171.963 59H170.671L168.903 54.665L166.71 59H165.418L162.766 52.523L161.185 51.605V51.078L164.092 49.65L164.738 52.217L166.812 57.266L168.478 53.679L168.002 52.523L166.421 51.605V51.078L169.328 49.65L169.974 52.217L171.997 57.13L174.037 52.37L171.674 50.653L172.014 49.973H175.754V50.5ZM185.133 49.82C185.507 49.82 185.835 49.922 186.119 50.126C186.402 50.33 186.623 50.6133 186.782 50.976L185.66 52.387H185.014C184.968 52.1037 184.883 51.9053 184.759 51.792C184.645 51.6673 184.487 51.605 184.283 51.605C184.033 51.605 183.767 51.673 183.484 51.809C183.212 51.9337 182.9 52.1773 182.549 52.54V57.606L184.929 58.337L184.589 59.017H178.996V58.49L180.509 57.3V52.489L178.996 51.605V51.078L181.903 49.65L182.43 51.741L184.198 49.939C184.436 49.8483 184.747 49.803 185.133 49.803V49.82ZM194.972 59H191.742V57.521L189.821 59.034C189.594 59.1247 189.311 59.17 188.971 59.17C187.996 59.17 187.288 58.9263 186.846 58.439C186.415 57.9517 186.2 57.368 186.2 56.688C186.2 56.28 186.347 55.8777 186.642 55.481C186.937 55.0843 187.356 54.7103 187.9 54.359H191.742V53.271C191.742 52.5343 191.544 52.013 191.147 51.707C190.762 51.401 190.229 51.248 189.549 51.248C188.846 51.248 187.985 51.673 186.965 52.523L186.455 51.877L188.903 49.939C189.356 49.8483 189.9 49.803 190.535 49.803C191.566 49.803 192.365 50.058 192.932 50.568C193.499 51.0667 193.782 51.7977 193.782 52.761V57.725L195.312 58.32L194.972 59ZM189.515 57.725C190.206 57.725 190.949 57.4077 191.742 56.773V55.056H188.733C188.586 55.2373 188.478 55.4187 188.41 55.6C188.353 55.7813 188.325 55.9797 188.325 56.195C188.325 56.6143 188.433 56.977 188.648 57.283C188.863 57.5777 189.152 57.725 189.515 57.725ZM205.667 59.017H202.437V53.288C202.437 52.6647 202.34 52.2283 202.148 51.979C201.955 51.7297 201.609 51.605 201.111 51.605C200.737 51.605 200.363 51.673 199.989 51.809C199.626 51.945 199.195 52.2057 198.697 52.591V57.742L200.227 58.337L199.887 59.017H195.144V58.49L196.657 57.3V52.489L195.144 51.605V51.078L198.051 49.65L198.612 51.86L201.026 49.939C201.264 49.8483 201.575 49.803 201.961 49.803C202.731 49.803 203.343 50.041 203.797 50.517C204.25 50.9817 204.477 51.6163 204.477 52.421V57.725L206.007 58.337L205.667 59.017ZM213.278 51.146C213.596 51.5993 213.754 52.1093 213.754 52.676C213.754 53.1747 213.613 53.6677 213.329 54.155C213.046 54.631 212.666 55.0503 212.19 55.413C211.714 55.7757 211.193 56.0477 210.626 56.229C210.32 56.535 210.167 56.858 210.167 57.198C210.167 57.3907 210.315 57.572 210.609 57.742C210.915 57.9007 211.363 58.0933 211.952 58.32C212.757 58.6373 213.375 58.9263 213.805 59.187C214.247 59.459 214.468 59.7877 214.468 60.173C214.468 60.513 214.247 60.9493 213.805 61.482C213.375 62.0147 212.836 62.4793 212.19 62.876C211.544 63.2727 210.921 63.471 210.32 63.471C209.686 63.471 208.932 63.3633 208.059 63.148C207.198 62.9327 206.478 62.7173 205.9 62.502V59.884H206.546C207.181 60.666 207.827 61.261 208.484 61.669C209.142 62.077 209.884 62.281 210.711 62.281C211.017 62.281 211.295 62.2187 211.544 62.094C211.805 61.9693 212.003 61.8107 212.139 61.618C212.287 61.4367 212.36 61.261 212.36 61.091C212.36 60.785 212.185 60.5187 211.833 60.292C211.482 60.0767 210.932 59.8103 210.184 59.493C209.47 59.1983 208.938 58.9433 208.586 58.728C208.246 58.5127 208.076 58.2633 208.076 57.98C208.076 57.708 208.258 57.4303 208.62 57.147C208.983 56.8637 209.414 56.6143 209.912 56.399C209.731 56.433 209.544 56.45 209.351 56.45C208.751 56.45 208.201 56.3197 207.702 56.059C207.204 55.787 206.807 55.43 206.512 54.988C206.229 54.546 206.087 54.0643 206.087 53.543C206.087 52.9197 206.303 52.319 206.733 51.741C207.164 51.163 207.719 50.6983 208.399 50.347C209.091 49.9843 209.793 49.803 210.507 49.803C211.301 49.803 211.998 50.0297 212.598 50.483H215.267L215.284 51.146H213.278ZM210.337 54.988C210.847 54.988 211.233 54.8633 211.493 54.614C211.765 54.3533 211.901 53.9737 211.901 53.475C211.901 52.795 211.68 52.2453 211.238 51.826C210.808 51.4067 210.235 51.197 209.521 51.197C209.023 51.197 208.637 51.3217 208.365 51.571C208.105 51.809 207.974 52.1773 207.974 52.676C207.974 53.3673 208.19 53.9283 208.62 54.359C209.062 54.7783 209.635 54.988 210.337 54.988ZM220.641 59.034C220.188 59.1247 219.644 59.17 219.009 59.17C218.261 59.17 217.587 58.9773 216.986 58.592C216.397 58.1953 215.932 57.6627 215.592 56.994C215.264 56.3253 215.099 55.5887 215.099 54.784C215.099 53.9113 215.366 53.0953 215.898 52.336C216.431 51.5653 217.094 50.9533 217.887 50.5C218.692 50.0353 219.468 49.803 220.216 49.803C221.293 49.803 222.126 50.228 222.715 51.078C223.316 51.928 223.616 53.05 223.616 54.444H217.326C217.394 55.4073 217.655 56.195 218.108 56.807C218.573 57.419 219.202 57.725 219.995 57.725C220.732 57.725 221.78 57.1527 223.14 56.008L223.65 56.654L220.641 59.034ZM219.23 51.231C218.006 51.231 217.366 52.0697 217.309 53.747H221.287C221.185 53.135 221.078 52.6703 220.964 52.353C220.862 52.0243 220.675 51.758 220.403 51.554C220.143 51.3387 219.752 51.231 219.23 51.231ZM147.307 70.803C148.055 70.803 148.724 71.0013 149.313 71.398C149.914 71.7833 150.378 72.3103 150.707 72.979C151.047 73.6477 151.217 74.3843 151.217 75.189C151.217 76.0617 150.951 76.8833 150.418 77.654C149.885 78.4133 149.217 79.0253 148.412 79.49C147.619 79.9433 146.848 80.17 146.1 80.17C145.352 80.17 144.678 79.9773 144.077 79.592C143.488 79.1953 143.023 78.6627 142.683 77.994C142.354 77.3253 142.19 76.5887 142.19 75.784C142.19 74.9113 142.456 74.0953 142.989 73.336C143.522 72.5653 144.185 71.9533 144.978 71.5C145.783 71.0353 146.559 70.803 147.307 70.803ZM146.321 72.231C145.04 72.231 144.4 73.1433 144.4 74.968C144.4 76.0447 144.632 76.9457 145.097 77.671C145.562 78.385 146.225 78.742 147.086 78.742C148.367 78.742 149.007 77.824 149.007 75.988C149.007 74.9227 148.775 74.033 148.31 73.319C147.845 72.5937 147.182 72.231 146.321 72.231ZM157.598 64.989C157.916 64.989 158.273 65.023 158.669 65.091C159.077 65.1477 159.366 65.21 159.536 65.278V67.896H158.89C158.607 67.4427 158.261 67.0857 157.853 66.825C157.445 66.553 157.032 66.417 156.612 66.417C156.091 66.417 155.694 66.6493 155.422 67.114C155.162 67.5787 155.031 68.2587 155.031 69.154V71.483H158.091V72.18H155.031V78.589L157.411 79.32L157.071 80H151.478V79.473L152.991 78.283V72.18H150.968V71.483H152.991V69.97C152.991 69.0973 153.229 68.2757 153.705 67.505C154.181 66.7343 154.776 66.1223 155.49 65.669C156.216 65.2157 156.918 64.989 157.598 64.989ZM165.89 80.187C165.278 80.187 164.711 80 164.19 79.626V82.924L166.57 83.655L166.23 84.335H160.637V83.808L162.15 82.618V73.489L160.637 72.605V72.078L163.544 70.65L164.105 72.86L166.536 70.939C166.899 70.8483 167.312 70.803 167.777 70.803C168.389 70.803 168.939 71.0013 169.426 71.398C169.925 71.7833 170.31 72.3103 170.582 72.979C170.865 73.6477 171.007 74.3843 171.007 75.189C171.007 76.0617 170.741 76.8833 170.208 77.654C169.675 78.4133 169.007 79.0253 168.202 79.49C167.409 79.9433 166.638 80.17 165.89 80.17V80.187ZM166.91 72.435C166.479 72.435 166.06 72.52 165.652 72.69C165.244 72.86 164.757 73.1943 164.19 73.693V76.566C164.19 77.1893 164.422 77.7107 164.887 78.13C165.352 78.5493 166.015 78.759 166.876 78.759C168.157 78.759 168.797 77.8467 168.797 76.022C168.797 75.0133 168.633 74.1633 168.304 73.472C167.975 72.7807 167.511 72.435 166.91 72.435ZM176.98 70.803C177.728 70.803 178.397 71.0013 178.986 71.398C179.587 71.7833 180.051 72.3103 180.38 72.979C180.72 73.6477 180.89 74.3843 180.89 75.189C180.89 76.0617 180.624 76.8833 180.091 77.654C179.558 78.4133 178.89 79.0253 178.085 79.49C177.292 79.9433 176.521 80.17 175.773 80.17C175.025 80.17 174.351 79.9773 173.75 79.592C173.161 79.1953 172.696 78.6627 172.356 77.994C172.027 77.3253 171.863 76.5887 171.863 75.784C171.863 74.9113 172.129 74.0953 172.662 73.336C173.195 72.5653 173.858 71.9533 174.651 71.5C175.456 71.0353 176.232 70.803 176.98 70.803ZM175.994 72.231C174.713 72.231 174.073 73.1433 174.073 74.968C174.073 76.0447 174.305 76.9457 174.77 77.671C175.235 78.385 175.898 78.742 176.759 78.742C178.04 78.742 178.68 77.824 178.68 75.988C178.68 74.9227 178.448 74.033 177.983 73.319C177.518 72.5937 176.855 72.231 175.994 72.231ZM186.328 80.034C186.068 80.1247 185.75 80.17 185.376 80.17C184.436 80.17 183.744 79.9263 183.302 79.439C182.872 78.9403 182.656 78.1753 182.656 77.144V72.18H180.82V71.483L184.05 67.726H184.696V71.483H187.756V72.18H184.696V77.348C184.696 78.266 185.138 78.725 186.022 78.725C186.26 78.725 186.487 78.674 186.702 78.572C186.929 78.47 187.207 78.2887 187.535 78.028L188.045 78.674L186.328 80.034ZM192.449 80H187.706V79.473L189.219 78.283V73.319L187.706 72.265V71.738L190.613 70.65H191.259V78.725L192.789 79.32L192.449 80ZM190.171 65.55C190.511 65.55 190.789 65.6747 191.004 65.924C191.231 66.1733 191.344 66.485 191.344 66.859C191.344 67.1197 191.265 67.369 191.106 67.607C190.948 67.8337 190.749 68.015 190.511 68.151C190.273 68.287 190.041 68.355 189.814 68.355C189.474 68.355 189.191 68.2303 188.964 67.981C188.749 67.7317 188.641 67.42 188.641 67.046C188.641 66.7853 188.721 66.5417 188.879 66.315C189.038 66.077 189.236 65.89 189.474 65.754C189.712 65.618 189.945 65.55 190.171 65.55ZM198.156 70.803C198.904 70.803 199.572 71.0013 200.162 71.398C200.762 71.7833 201.227 72.3103 201.556 72.979C201.896 73.6477 202.066 74.3843 202.066 75.189C202.066 76.0617 201.799 76.8833 201.267 77.654C200.734 78.4133 200.065 79.0253 199.261 79.49C198.467 79.9433 197.697 80.17 196.949 80.17C196.201 80.17 195.526 79.9773 194.926 79.592C194.336 79.1953 193.872 78.6627 193.532 77.994C193.203 77.3253 193.039 76.5887 193.039 75.784C193.039 74.9113 193.305 74.0953 193.838 73.336C194.37 72.5653 195.033 71.9533 195.827 71.5C196.631 71.0353 197.408 70.803 198.156 70.803ZM197.17 72.231C195.889 72.231 195.249 73.1433 195.249 74.968C195.249 76.0447 195.481 76.9457 195.946 77.671C196.41 78.385 197.073 78.742 197.935 78.742C199.215 78.742 199.856 77.824 199.856 75.988C199.856 74.9227 199.623 74.033 199.159 73.319C198.694 72.5937 198.031 72.231 197.17 72.231ZM213.182 80.017H209.952V74.288C209.952 73.6647 209.856 73.2283 209.663 72.979C209.47 72.7297 209.125 72.605 208.626 72.605C208.252 72.605 207.878 72.673 207.504 72.809C207.141 72.945 206.711 73.2057 206.212 73.591V78.742L207.742 79.337L207.402 80.017H202.659V79.49L204.172 78.3V73.489L202.659 72.605V72.078L205.566 70.65L206.127 72.86L208.541 70.939C208.779 70.8483 209.091 70.803 209.476 70.803C210.247 70.803 210.859 71.041 211.312 71.517C211.765 71.9817 211.992 72.6163 211.992 73.421V78.725L213.522 79.337L213.182 80.017ZM218.822 78.164C218.822 77.8467 218.646 77.5577 218.295 77.297C217.943 77.025 217.405 76.702 216.68 76.328C216.09 76.022 215.614 75.7557 215.252 75.529C214.889 75.3023 214.577 75.0417 214.317 74.747C214.067 74.441 213.943 74.1123 213.943 73.761C213.943 73.353 214.113 72.9167 214.453 72.452C214.793 71.9873 215.212 71.5963 215.711 71.279C216.209 70.9617 216.674 70.803 217.105 70.803C217.626 70.803 218.227 70.871 218.907 71.007C219.598 71.1317 220.097 71.2733 220.403 71.432V74.05H219.757C219.394 73.3473 218.975 72.8033 218.499 72.418C218.023 72.0213 217.535 71.823 217.037 71.823C216.685 71.823 216.402 71.9193 216.187 72.112C215.971 72.2933 215.864 72.5257 215.864 72.809C215.864 73.1603 216.045 73.4777 216.408 73.761C216.782 74.033 217.343 74.356 218.091 74.73C218.669 75.0247 219.133 75.2797 219.485 75.495C219.836 75.7103 220.131 75.9653 220.369 76.26C220.618 76.5433 220.743 76.8607 220.743 77.212C220.743 77.6313 220.561 78.0733 220.199 78.538C219.847 78.9913 219.411 79.3767 218.89 79.694C218.38 80.0113 217.909 80.17 217.479 80.17C216.923 80.17 216.26 80.1077 215.49 79.983C214.73 79.847 214.186 79.6997 213.858 79.541V76.923H214.504C214.9 77.6257 215.371 78.1753 215.915 78.572C216.459 78.9573 217.008 79.15 217.564 79.15C217.938 79.15 218.238 79.0537 218.465 78.861C218.703 78.6683 218.822 78.436 218.822 78.164Z" fill="#151515"/>
<path d="M244.81 22.638C245.071 22.638 245.365 22.666 245.692 22.722C246.028 22.7687 246.266 22.82 246.406 22.876V25.032H245.874C245.641 24.6587 245.356 24.3647 245.02 24.15C244.684 23.926 244.343 23.814 243.998 23.814C243.569 23.814 243.242 24.0053 243.018 24.388C242.803 24.7707 242.696 25.3307 242.696 26.068V27.986H245.216V28.56H242.696V33.838L244.656 34.44L244.376 35H239.77V34.566L241.016 33.586V28.56H239.35V27.986H241.016V26.74C241.016 26.0213 241.212 25.3447 241.604 24.71C241.996 24.0753 242.486 23.5713 243.074 23.198C243.671 22.8247 244.25 22.638 244.81 22.638ZM249.716 27.44C250.024 27.44 250.295 27.524 250.528 27.692C250.762 27.86 250.944 28.0933 251.074 28.392L250.15 29.554H249.618C249.581 29.3207 249.511 29.1573 249.408 29.064C249.315 28.9613 249.184 28.91 249.016 28.91C248.811 28.91 248.592 28.966 248.358 29.078C248.134 29.1807 247.878 29.3813 247.588 29.68V33.852L249.548 34.454L249.268 35.014H244.662V34.58L245.908 33.6V29.638L244.662 28.91V28.476L247.056 27.3L247.49 29.022L248.946 27.538C249.142 27.4633 249.399 27.426 249.716 27.426V27.44ZM255.086 27.426C255.702 27.426 256.253 27.5893 256.738 27.916C257.233 28.2333 257.615 28.6673 257.886 29.218C258.166 29.7687 258.306 30.3753 258.306 31.038C258.306 31.7567 258.087 32.4333 257.648 33.068C257.209 33.6933 256.659 34.1973 255.996 34.58C255.343 34.9533 254.708 35.14 254.092 35.14C253.476 35.14 252.921 34.9813 252.426 34.664C251.941 34.3373 251.558 33.8987 251.278 33.348C251.007 32.7973 250.872 32.1907 250.872 31.528C250.872 30.8093 251.091 30.1373 251.53 29.512C251.969 28.8773 252.515 28.3733 253.168 28C253.831 27.6173 254.47 27.426 255.086 27.426ZM254.274 28.602C253.219 28.602 252.692 29.3533 252.692 30.856C252.692 31.7427 252.883 32.4847 253.266 33.082C253.649 33.67 254.195 33.964 254.904 33.964C255.959 33.964 256.486 33.208 256.486 31.696C256.486 30.8187 256.295 30.086 255.912 29.498C255.529 28.9007 254.983 28.602 254.274 28.602ZM271.955 35H269.295V30.282C269.295 29.7687 269.215 29.4093 269.057 29.204C268.898 28.9987 268.613 28.896 268.203 28.896C267.913 28.896 267.629 28.952 267.349 29.064C267.069 29.1667 266.737 29.3767 266.355 29.694V33.95L267.615 34.44L267.335 35H264.675V30.282C264.675 29.7687 264.595 29.4093 264.437 29.204C264.278 28.9987 263.993 28.896 263.583 28.896C263.293 28.896 263.009 28.952 262.729 29.064C262.449 29.1667 262.117 29.3767 261.735 29.694V33.95L262.995 34.44L262.715 35H258.809V34.566L260.055 33.586V29.624L258.809 28.896V28.462L261.203 27.286L261.651 29.078L263.513 27.524C263.709 27.4493 263.965 27.412 264.283 27.412C264.824 27.412 265.272 27.5613 265.627 27.86C265.981 28.1493 266.205 28.5507 266.299 29.064L268.119 27.538C268.315 27.4633 268.571 27.426 268.889 27.426C269.523 27.426 270.027 27.622 270.401 28.014C270.774 28.3967 270.961 28.9193 270.961 29.582V33.95L272.235 34.44L271.955 35Z" fill="#151515"/>
<path d="M285.578 46.741C285.291 46.741 284.919 46.698 284.46 46.612C284.001 46.526 283.528 46.354 283.041 46.096C282.582 45.8667 282.195 45.494 281.88 44.978C281.565 44.462 281.407 43.774 281.407 42.914C281.407 42.1973 281.55 41.2657 281.837 40.119C282.124 38.9437 282.611 37.238 283.299 35.002C283.815 33.3107 284.317 31.648 284.804 30.014C285.32 28.3513 285.736 26.6313 286.051 24.854C286.395 23.0767 286.567 21.1847 286.567 19.178C286.567 18.0027 286.495 17.0137 286.352 16.211C286.209 15.4083 285.936 14.8063 285.535 14.405C285.162 13.975 284.632 13.76 283.944 13.76C283.256 13.76 282.654 13.9463 282.138 14.319C281.622 14.6917 281.192 15.1933 280.848 15.824C280.504 16.426 280.246 17.0997 280.074 17.845C279.902 18.5903 279.816 19.3357 279.816 20.081C279.816 21.3423 280.031 22.3887 280.461 23.22C279.056 23.22 278.039 22.8903 277.408 22.231C276.777 21.5717 276.462 20.7547 276.462 19.78C276.462 18.92 276.677 18.0313 277.107 17.114C277.537 16.1967 278.125 15.3653 278.87 14.62C279.644 13.846 280.533 13.2297 281.536 12.771C282.539 12.2837 283.614 12.04 284.761 12.04C286.71 12.04 288.187 12.7567 289.19 14.19C290.222 15.6233 290.738 17.6587 290.738 20.296C290.738 22.274 290.466 24.338 289.921 26.488C289.405 28.6093 288.746 30.9313 287.943 33.454C287.656 34.3713 287.312 35.389 286.911 36.507C286.538 37.5963 286.194 38.7287 285.879 39.904C285.592 41.0507 285.449 42.1973 285.449 43.344C285.449 43.8887 285.506 44.2613 285.621 44.462C285.764 44.6913 286.022 44.806 286.395 44.806C287.169 44.806 287.986 44.4763 288.846 43.817C289.735 43.1577 290.623 42.269 291.512 41.151C292.401 40.033 293.246 38.786 294.049 37.41C294.88 36.034 295.64 34.6293 296.328 33.196C297.016 31.734 297.589 30.358 298.048 29.068C298.507 27.7493 298.808 26.6027 298.951 25.628C300.04 25.628 300.886 25.929 301.488 26.531C302.09 27.133 302.391 27.7063 302.391 28.251C302.391 28.5377 302.262 29.025 302.004 29.713C301.775 30.401 301.373 31.4187 300.8 32.766C300.341 33.8553 299.868 35.0163 299.381 36.249C298.894 37.453 298.478 38.657 298.134 39.861C297.819 41.0363 297.661 42.14 297.661 43.172C297.661 43.7453 297.733 44.161 297.876 44.419C298.048 44.677 298.349 44.806 298.779 44.806C299.582 44.806 300.499 44.4047 301.531 43.602C302.592 42.828 303.681 41.7673 304.799 40.42C305.917 39.044 307.006 37.5103 308.067 35.819C309.128 34.099 310.088 32.3217 310.948 30.487C311.808 28.6523 312.482 26.8463 312.969 25.069C313.485 23.2917 313.743 21.672 313.743 20.21C313.743 18.6333 313.456 17.5153 312.883 16.856C312.338 16.1967 311.65 15.7237 310.819 15.437C311.335 14.6057 311.88 14.0037 312.453 13.631C313.055 13.2297 313.585 13.029 314.044 13.029C314.703 13.029 315.377 13.459 316.065 14.319C316.782 15.1503 317.14 16.469 317.14 18.275C317.14 19.7943 316.839 21.543 316.237 23.521C315.664 25.499 314.861 27.563 313.829 29.713C312.826 31.8343 311.665 33.9127 310.346 35.948C309.056 37.9547 307.666 39.775 306.175 41.409C304.713 43.043 303.237 44.333 301.746 45.279C300.255 46.2537 298.836 46.741 297.489 46.741C296.744 46.741 296.07 46.5833 295.468 46.268C294.895 45.9813 294.436 45.5513 294.092 44.978C293.777 44.4333 293.619 43.7883 293.619 43.043C293.619 42.699 293.662 42.3407 293.748 41.968C293.834 41.5953 293.934 41.2227 294.049 40.85C292.644 42.6273 291.225 44.0463 289.792 45.107C288.387 46.1963 286.983 46.741 285.578 46.741ZM318.501 44.29C317.239 44.29 316.293 43.9173 315.663 43.172C315.032 42.4267 314.717 41.5237 314.717 40.463C314.717 39.8037 314.831 38.9723 315.061 37.969C315.29 36.9657 315.605 35.9193 316.007 34.83C316.437 33.712 316.924 32.6657 317.469 31.691C318.013 30.7163 318.601 29.928 319.232 29.326C319.862 28.6953 320.493 28.38 321.124 28.38C321.468 28.38 321.769 28.4947 322.027 28.724C322.285 28.9247 322.414 29.2257 322.414 29.627C322.414 29.9997 322.184 30.5587 321.726 31.304C321.296 32.0493 320.78 32.9093 320.178 33.884C319.604 34.8587 319.088 35.8763 318.63 36.937C318.2 37.969 317.985 38.958 317.985 39.904C317.985 40.8213 318.142 41.4377 318.458 41.753C318.802 42.0397 319.289 42.183 319.92 42.183C320.894 42.183 321.955 41.6957 323.102 40.721C324.248 39.7463 325.438 38.0407 326.671 35.604L327.316 36.292C326.312 38.8147 325.037 40.7783 323.489 42.183C321.941 43.5877 320.278 44.29 318.501 44.29ZM323.575 24.897C323.03 24.897 322.528 24.768 322.07 24.51C321.64 24.2233 321.425 23.7933 321.425 23.22C321.425 22.532 321.797 21.9443 322.543 21.457C323.288 20.9697 324.062 20.726 324.865 20.726C325.381 20.726 325.811 20.8407 326.155 21.07C326.527 21.2993 326.714 21.715 326.714 22.317C326.714 22.919 326.384 23.5067 325.725 24.08C325.065 24.6247 324.349 24.897 323.575 24.897ZM329.472 44.978C328.21 44.978 327.193 44.6053 326.419 43.86C325.645 43.1147 325.258 41.9823 325.258 40.463C325.258 39.2877 325.473 37.8257 325.903 36.077C326.361 34.3283 326.935 32.5223 327.623 30.659C327.422 30.6017 327.178 30.5587 326.892 30.53C326.634 30.4727 326.376 30.3867 326.118 30.272V28.939C326.576 28.9963 326.949 29.0393 327.236 29.068C327.551 29.0967 327.866 29.1253 328.182 29.154C328.784 27.6347 329.429 26.1727 330.117 24.768C330.833 23.3347 331.536 22.059 332.224 20.941C332.94 19.823 333.614 18.9487 334.245 18.318C334.875 17.6587 335.434 17.329 335.922 17.329C336.208 17.329 336.481 17.4437 336.739 17.673C336.997 17.8737 337.126 18.1747 337.126 18.576C337.126 19.1493 336.825 19.9663 336.223 21.027C335.649 22.0877 334.933 23.3347 334.073 24.768C333.213 26.1727 332.381 27.6777 331.579 29.283C331.808 29.283 332.037 29.283 332.267 29.283C332.496 29.283 332.711 29.283 332.912 29.283C334.173 29.283 335.305 29.2687 336.309 29.24C337.341 29.1827 338.387 29.0967 339.448 28.982V30.401C337.871 30.5443 336.423 30.659 335.105 30.745C333.786 30.831 332.525 30.8883 331.321 30.917C331.235 30.917 331.149 30.917 331.063 30.917C330.977 30.917 330.891 30.917 330.805 30.917C330.203 32.3217 329.672 33.7693 329.214 35.26C328.784 36.722 328.569 38.1553 328.569 39.56C328.569 40.7353 328.755 41.5667 329.128 42.054C329.5 42.5413 330.088 42.785 330.891 42.785C332.324 42.785 333.786 42.14 335.277 40.85C336.796 39.5313 338.115 37.754 339.233 35.518L339.835 35.948C339.089 37.6393 338.158 39.173 337.04 40.549C335.95 41.925 334.761 43 333.471 43.774C332.181 44.5767 330.848 44.978 329.472 44.978ZM342.805 45.408C341.315 45.408 340.082 44.935 339.107 43.989C338.161 43.0717 337.688 41.6527 337.688 39.732C337.688 38.3273 337.961 36.9513 338.505 35.604C339.05 34.2567 339.781 33.0527 340.698 31.992C341.616 30.9027 342.633 30.0427 343.751 29.412C344.898 28.7813 346.059 28.466 347.234 28.466C348.438 28.466 349.298 28.767 349.814 29.369C350.359 29.971 350.631 30.6733 350.631 31.476C350.631 32.2787 350.431 33.067 350.029 33.841C349.657 34.5863 349.141 34.959 348.481 34.959C347.937 34.959 347.492 34.6867 347.148 34.142C347.435 33.9413 347.736 33.5687 348.051 33.024C348.367 32.4793 348.524 31.777 348.524 30.917C348.524 30.6877 348.467 30.5157 348.352 30.401C348.238 30.2577 348.023 30.186 347.707 30.186C346.991 30.186 346.231 30.5157 345.428 31.175C344.654 31.8057 343.923 32.637 343.235 33.669C342.576 34.6723 342.031 35.7473 341.601 36.894C341.2 38.012 340.999 39.044 340.999 39.99C340.999 40.7927 341.2 41.538 341.601 42.226C342.031 42.8853 342.848 43.215 344.052 43.215C345.142 43.215 346.274 42.8997 347.449 42.269C348.625 41.6383 349.728 40.764 350.76 39.646C351.792 38.4993 352.624 37.1377 353.254 35.561L354.114 36.335C353.426 38.0837 352.466 39.646 351.233 41.022C350.029 42.3693 348.682 43.43 347.191 44.204C345.729 45.0067 344.267 45.408 342.805 45.408ZM354.244 44.634C353.613 44.634 353.154 44.1467 352.868 43.172C352.61 42.1973 352.481 41.065 352.481 39.775C352.481 38.4563 352.696 36.8653 353.126 35.002C353.584 33.1387 354.186 31.175 354.932 29.111C355.706 27.047 356.551 25.026 357.469 23.048C358.415 21.07 359.375 19.2783 360.35 17.673C361.353 16.039 362.299 14.7347 363.188 13.76C364.105 12.7853 364.908 12.298 365.596 12.298C366.198 12.298 366.656 12.6277 366.972 13.287C367.287 13.9463 367.445 14.6343 367.445 15.351C367.445 16.125 367.258 17.0853 366.886 18.232C366.542 19.35 366.054 20.554 365.424 21.844C364.793 23.134 364.048 24.4097 363.188 25.671C362.356 26.9037 361.439 28.036 360.436 29.068C359.461 30.1 358.443 30.9313 357.383 31.562C357.01 32.5367 356.709 33.454 356.48 34.314C356.279 35.1453 356.136 35.9337 356.05 36.679C355.964 37.4243 355.921 38.1553 355.921 38.872C355.921 39.0153 355.921 39.173 355.921 39.345C355.949 39.4883 355.964 39.6317 355.964 39.775C356.078 39.603 356.265 39.1587 356.523 38.442C356.781 37.7253 357.125 36.894 357.555 35.948C358.013 34.9733 358.572 34.0273 359.232 33.11C359.891 32.164 360.665 31.39 361.554 30.788C362.442 30.1573 363.46 29.842 364.607 29.842C365.581 29.842 366.341 30.0713 366.886 30.53C367.43 30.96 367.817 31.5047 368.047 32.164C368.276 32.7947 368.391 33.4397 368.391 34.099C368.391 35.0163 368.233 35.8763 367.918 36.679C367.631 37.4817 367.33 38.2413 367.015 38.958C366.728 39.646 366.585 40.3053 366.585 40.936C366.585 41.452 366.699 41.8103 366.929 42.011C367.158 42.2117 367.43 42.312 367.746 42.312C368.376 42.312 369.107 41.9967 369.939 41.366C370.799 40.7353 371.644 39.904 372.476 38.872C373.336 37.8113 374.067 36.6503 374.669 35.389L375.357 36.12C374.697 37.5533 373.923 38.872 373.035 40.076C372.146 41.28 371.171 42.2403 370.111 42.957C369.05 43.6737 367.903 44.032 366.671 44.032C365.581 44.032 364.75 43.7453 364.177 43.172C363.603 42.5987 363.317 41.882 363.317 41.022C363.317 40.42 363.417 39.7607 363.618 39.044C363.847 38.2987 364.062 37.5533 364.263 36.808C364.463 36.0627 364.564 35.389 364.564 34.787C364.564 34.099 364.406 33.626 364.091 33.368C363.804 33.11 363.446 32.981 363.016 32.981C362.299 32.981 361.654 33.2677 361.081 33.841C360.507 34.3857 359.991 35.1023 359.533 35.991C359.074 36.8797 358.644 37.8257 358.243 38.829C357.841 39.8037 357.44 40.7353 357.039 41.624C356.637 42.5127 356.207 43.2293 355.749 43.774C355.319 44.3473 354.817 44.634 354.244 44.634ZM358.286 28.81C359.031 28.1507 359.748 27.3623 360.436 26.445C361.124 25.5277 361.754 24.5817 362.328 23.607C362.93 22.6037 363.446 21.6433 363.876 20.726C364.334 19.78 364.693 18.9343 364.951 18.189C365.209 17.4437 365.352 16.8703 365.381 16.469C365.381 16.4403 365.381 16.426 365.381 16.426C365.381 16.3973 365.381 16.3687 365.381 16.34C365.209 16.34 364.836 16.6983 364.263 17.415C363.718 18.103 363.073 19.049 362.328 20.253C361.611 21.4283 360.88 22.7613 360.135 24.252C359.418 25.7427 358.802 27.262 358.286 28.81Z" fill="#151515"/>
<path d="M239.578 83.741C239.291 83.741 238.919 83.698 238.46 83.612C238.001 83.526 237.528 83.354 237.041 83.096C236.582 82.8667 236.195 82.494 235.88 81.978C235.565 81.462 235.407 80.774 235.407 79.914C235.407 79.1973 235.55 78.2657 235.837 77.119C236.124 75.9437 236.611 74.238 237.299 72.002C237.815 70.3107 238.317 68.648 238.804 67.014C239.32 65.3513 239.736 63.6313 240.051 61.854C240.395 60.0767 240.567 58.1847 240.567 56.178C240.567 55.0027 240.495 54.0137 240.352 53.211C240.209 52.4083 239.936 51.8063 239.535 51.405C239.162 50.975 238.632 50.76 237.944 50.76C237.256 50.76 236.654 50.9463 236.138 51.319C235.622 51.6917 235.192 52.1933 234.848 52.824C234.504 53.426 234.246 54.0997 234.074 54.845C233.902 55.5903 233.816 56.3357 233.816 57.081C233.816 58.3423 234.031 59.3887 234.461 60.22C233.056 60.22 232.039 59.8903 231.408 59.231C230.777 58.5717 230.462 57.7547 230.462 56.78C230.462 55.92 230.677 55.0313 231.107 54.114C231.537 53.1967 232.125 52.3653 232.87 51.62C233.644 50.846 234.533 50.2297 235.536 49.771C236.539 49.2837 237.614 49.04 238.761 49.04C240.71 49.04 242.187 49.7567 243.19 51.19C244.222 52.6233 244.738 54.6587 244.738 57.296C244.738 59.274 244.466 61.338 243.921 63.488C243.405 65.6093 242.746 67.9313 241.943 70.454C241.656 71.3713 241.312 72.389 240.911 73.507C240.538 74.5963 240.194 75.7287 239.879 76.904C239.592 78.0507 239.449 79.1973 239.449 80.344C239.449 80.8887 239.506 81.2613 239.621 81.462C239.764 81.6913 240.022 81.806 240.395 81.806C241.169 81.806 241.986 81.4763 242.846 80.817C243.735 80.1577 244.623 79.269 245.512 78.151C246.401 77.033 247.246 75.786 248.049 74.41C248.88 73.034 249.64 71.6293 250.328 70.196C251.016 68.734 251.589 67.358 252.048 66.068C252.507 64.7493 252.808 63.6027 252.951 62.628C254.04 62.628 254.886 62.929 255.488 63.531C256.09 64.133 256.391 64.7063 256.391 65.251C256.391 65.5377 256.262 66.025 256.004 66.713C255.775 67.401 255.373 68.4187 254.8 69.766C254.341 70.8553 253.868 72.0163 253.381 73.249C252.894 74.453 252.478 75.657 252.134 76.861C251.819 78.0363 251.661 79.14 251.661 80.172C251.661 80.7453 251.733 81.161 251.876 81.419C252.048 81.677 252.349 81.806 252.779 81.806C253.582 81.806 254.499 81.4047 255.531 80.602C256.592 79.828 257.681 78.7673 258.799 77.42C259.917 76.044 261.006 74.5103 262.067 72.819C263.128 71.099 264.088 69.3217 264.948 67.487C265.808 65.6523 266.482 63.8463 266.969 62.069C267.485 60.2917 267.743 58.672 267.743 57.21C267.743 55.6333 267.456 54.5153 266.883 53.856C266.338 53.1967 265.65 52.7237 264.819 52.437C265.335 51.6057 265.88 51.0037 266.453 50.631C267.055 50.2297 267.585 50.029 268.044 50.029C268.703 50.029 269.377 50.459 270.065 51.319C270.782 52.1503 271.14 53.469 271.14 55.275C271.14 56.7943 270.839 58.543 270.237 60.521C269.664 62.499 268.861 64.563 267.829 66.713C266.826 68.8343 265.665 70.9127 264.346 72.948C263.056 74.9547 261.666 76.775 260.175 78.409C258.713 80.043 257.237 81.333 255.746 82.279C254.255 83.2537 252.836 83.741 251.489 83.741C250.744 83.741 250.07 83.5833 249.468 83.268C248.895 82.9813 248.436 82.5513 248.092 81.978C247.777 81.4333 247.619 80.7883 247.619 80.043C247.619 79.699 247.662 79.3407 247.748 78.968C247.834 78.5953 247.934 78.2227 248.049 77.85C246.644 79.6273 245.225 81.0463 243.792 82.107C242.387 83.1963 240.983 83.741 239.578 83.741ZM270.011 82.021C269.065 82.021 268.248 81.7057 267.56 81.075C266.843 80.4443 266.485 79.4983 266.485 78.237C266.485 77.2337 266.714 76.1443 267.173 74.969C267.631 73.7937 268.262 72.6327 269.065 71.486C269.867 70.3393 270.785 69.3073 271.817 68.39C272.849 67.444 273.952 66.6843 275.128 66.111C276.303 65.5377 277.478 65.251 278.654 65.251C279.886 65.251 280.933 65.5663 281.793 66.197C282.653 66.8277 283.083 67.659 283.083 68.691C283.083 69.465 282.81 70.024 282.266 70.368C281.721 70.712 281.076 70.8123 280.331 70.669C280.388 70.411 280.431 70.153 280.46 69.895C280.517 69.637 280.546 69.3647 280.546 69.078C280.546 68.5047 280.431 67.9887 280.202 67.53C279.972 67.0713 279.485 66.842 278.74 66.842C277.937 66.842 277.12 67.1143 276.289 67.659C275.457 68.2037 274.655 68.9203 273.881 69.809C273.135 70.669 272.462 71.6293 271.86 72.69C271.258 73.722 270.785 74.7397 270.441 75.743C270.097 76.7463 269.925 77.6493 269.925 78.452C269.925 79.3693 270.254 79.828 270.914 79.828C271.573 79.828 272.304 79.5127 273.107 78.882C273.909 78.2227 274.712 77.4057 275.515 76.431C276.346 75.4563 277.134 74.4673 277.88 73.464C278.625 72.432 279.27 71.5577 279.815 70.841C279.901 70.6977 280.015 70.626 280.159 70.626C280.273 70.6547 280.488 70.7263 280.804 70.841C281.148 70.927 281.463 71.0703 281.75 71.271C282.036 71.4717 282.18 71.7297 282.18 72.045C282.18 72.3317 282.051 72.7043 281.793 73.163C281.563 73.593 281.277 74.0803 280.933 74.625C280.617 75.141 280.331 75.6713 280.073 76.216C279.843 76.732 279.729 77.2337 279.729 77.721C279.729 78.0937 279.829 78.452 280.03 78.796C280.23 79.1113 280.56 79.269 281.019 79.269C281.707 79.269 282.667 78.7673 283.9 77.764C285.161 76.732 286.437 74.9977 287.727 72.561L288.544 73.378C287.856 74.926 287.024 76.302 286.05 77.506C285.104 78.6813 284.1 79.5987 283.04 80.258C281.979 80.946 280.904 81.29 279.815 81.29C278.639 81.29 277.765 80.9173 277.192 80.172C276.618 79.4267 276.303 78.624 276.246 77.764C276.246 77.7067 276.246 77.6637 276.246 77.635C276.246 77.6063 276.246 77.5777 276.246 77.549C275.099 78.925 274.038 80.0143 273.064 80.817C272.118 81.6197 271.1 82.021 270.011 82.021ZM289.332 81.978C288.071 81.978 287.053 81.6053 286.279 80.86C285.505 80.1147 285.118 78.9823 285.118 77.463C285.118 76.2877 285.333 74.8257 285.763 73.077C286.222 71.3283 286.795 69.5223 287.483 67.659C287.282 67.6017 287.039 67.5587 286.752 67.53C286.494 67.4727 286.236 67.3867 285.978 67.272V65.939C286.437 65.9963 286.809 66.0393 287.096 66.068C287.411 66.0967 287.727 66.1253 288.042 66.154C288.644 64.6347 289.289 63.1727 289.977 61.768C290.694 60.3347 291.396 59.059 292.084 57.941C292.801 56.823 293.474 55.9487 294.105 55.318C294.736 54.6587 295.295 54.329 295.782 54.329C296.069 54.329 296.341 54.4437 296.599 54.673C296.857 54.8737 296.986 55.1747 296.986 55.576C296.986 56.1493 296.685 56.9663 296.083 58.027C295.51 59.0877 294.793 60.3347 293.933 61.768C293.073 63.1727 292.242 64.6777 291.439 66.283C291.668 66.283 291.898 66.283 292.127 66.283C292.356 66.283 292.571 66.283 292.772 66.283C294.033 66.283 295.166 66.2687 296.169 66.24C297.201 66.1827 298.247 66.0967 299.308 65.982V67.401C297.731 67.5443 296.284 67.659 294.965 67.745C293.646 67.831 292.385 67.8883 291.181 67.917C291.095 67.917 291.009 67.917 290.923 67.917C290.837 67.917 290.751 67.917 290.665 67.917C290.063 69.3217 289.533 70.7693 289.074 72.26C288.644 73.722 288.429 75.1553 288.429 76.56C288.429 77.7353 288.615 78.5667 288.988 79.054C289.361 79.5413 289.948 79.785 290.751 79.785C292.184 79.785 293.646 79.14 295.137 77.85C296.656 76.5313 297.975 74.754 299.093 72.518L299.695 72.948C298.95 74.6393 298.018 76.173 296.9 77.549C295.811 78.925 294.621 80 293.331 80.774C292.041 81.5767 290.708 81.978 289.332 81.978ZM301.376 82.408C299.885 82.408 298.652 81.935 297.678 80.989C296.732 80.0717 296.259 78.6527 296.259 76.732C296.259 75.3273 296.531 73.9513 297.076 72.604C297.62 71.2567 298.351 70.0527 299.269 68.992C300.186 67.9027 301.204 67.0427 302.322 66.412C303.468 65.7813 304.629 65.466 305.805 65.466C307.009 65.466 307.869 65.767 308.385 66.369C308.929 66.971 309.202 67.6733 309.202 68.476C309.202 69.2787 309.001 70.067 308.6 70.841C308.227 71.5863 307.711 71.959 307.052 71.959C306.507 71.959 306.063 71.6867 305.719 71.142C306.005 70.9413 306.306 70.5687 306.622 70.024C306.937 69.4793 307.095 68.777 307.095 67.917C307.095 67.6877 307.037 67.5157 306.923 67.401C306.808 67.2577 306.593 67.186 306.278 67.186C305.561 67.186 304.801 67.5157 303.999 68.175C303.225 68.8057 302.494 69.637 301.806 70.669C301.146 71.6723 300.602 72.7473 300.172 73.894C299.77 75.012 299.57 76.044 299.57 76.99C299.57 77.7927 299.77 78.538 300.172 79.226C300.602 79.8853 301.419 80.215 302.623 80.215C303.712 80.215 304.844 79.8997 306.02 79.269C307.195 78.6383 308.299 77.764 309.331 76.646C310.363 75.4993 311.194 74.1377 311.825 72.561L312.685 73.335C311.997 75.0837 311.036 76.646 309.804 78.022C308.6 79.3693 307.252 80.43 305.762 81.204C304.3 82.0067 302.838 82.408 301.376 82.408ZM311.524 81.634C310.893 81.634 310.435 81.1467 310.148 80.172C309.89 79.1973 309.761 78.065 309.761 76.775C309.761 75.4563 309.976 73.8653 310.406 72.002C310.865 70.1387 311.467 68.175 312.212 66.111C312.986 64.047 313.832 62.026 314.749 60.048C315.695 58.07 316.655 56.2783 317.63 54.673C318.633 53.039 319.579 51.7347 320.468 50.76C321.385 49.7853 322.188 49.298 322.876 49.298C323.478 49.298 323.937 49.6277 324.252 50.287C324.567 50.9463 324.725 51.6343 324.725 52.351C324.725 53.125 324.539 54.0853 324.166 55.232C323.822 56.35 323.335 57.554 322.704 58.844C322.073 60.134 321.328 61.4097 320.468 62.671C319.637 63.9037 318.719 65.036 317.716 66.068C316.741 67.1 315.724 67.9313 314.663 68.562C314.29 69.5367 313.989 70.454 313.76 71.314C313.559 72.1453 313.416 72.9337 313.33 73.679C313.244 74.4243 313.201 75.1553 313.201 75.872C313.201 76.0153 313.201 76.173 313.201 76.345C313.23 76.4883 313.244 76.6317 313.244 76.775C313.359 76.603 313.545 76.1587 313.803 75.442C314.061 74.7253 314.405 73.894 314.835 72.948C315.294 71.9733 315.853 71.0273 316.512 70.11C317.171 69.164 317.945 68.39 318.834 67.788C319.723 67.1573 320.74 66.842 321.887 66.842C322.862 66.842 323.621 67.0713 324.166 67.53C324.711 67.96 325.098 68.5047 325.327 69.164C325.556 69.7947 325.671 70.4397 325.671 71.099C325.671 72.0163 325.513 72.8763 325.198 73.679C324.911 74.4817 324.61 75.2413 324.295 75.958C324.008 76.646 323.865 77.3053 323.865 77.936C323.865 78.452 323.98 78.8103 324.209 79.011C324.438 79.2117 324.711 79.312 325.026 79.312C325.657 79.312 326.388 78.9967 327.219 78.366C328.079 77.7353 328.925 76.904 329.756 75.872C330.616 74.8113 331.347 73.6503 331.949 72.389L332.637 73.12C331.978 74.5533 331.204 75.872 330.315 77.076C329.426 78.28 328.452 79.2403 327.391 79.957C326.33 80.6737 325.184 81.032 323.951 81.032C322.862 81.032 322.03 80.7453 321.457 80.172C320.884 79.5987 320.597 78.882 320.597 78.022C320.597 77.42 320.697 76.7607 320.898 76.044C321.127 75.2987 321.342 74.5533 321.543 73.808C321.744 73.0627 321.844 72.389 321.844 71.787C321.844 71.099 321.686 70.626 321.371 70.368C321.084 70.11 320.726 69.981 320.296 69.981C319.579 69.981 318.934 70.2677 318.361 70.841C317.788 71.3857 317.272 72.1023 316.813 72.991C316.354 73.8797 315.924 74.8257 315.523 75.829C315.122 76.8037 314.72 77.7353 314.319 78.624C313.918 79.5127 313.488 80.2293 313.029 80.774C312.599 81.3473 312.097 81.634 311.524 81.634ZM315.566 65.81C316.311 65.1507 317.028 64.3623 317.716 63.445C318.404 62.5277 319.035 61.5817 319.608 60.607C320.21 59.6037 320.726 58.6433 321.156 57.726C321.615 56.78 321.973 55.9343 322.231 55.189C322.489 54.4437 322.632 53.8703 322.661 53.469C322.661 53.4403 322.661 53.426 322.661 53.426C322.661 53.3973 322.661 53.3687 322.661 53.34C322.489 53.34 322.116 53.6983 321.543 54.415C320.998 55.103 320.353 56.049 319.608 57.253C318.891 58.4283 318.16 59.7613 317.415 61.252C316.698 62.7427 316.082 64.262 315.566 65.81ZM334.492 81.892C332.657 81.892 331.238 81.3903 330.235 80.387C329.26 79.4123 328.773 78.1797 328.773 76.689C328.773 75.4277 329.088 74.0947 329.719 72.69C330.378 71.2567 331.253 69.9237 332.342 68.691C333.431 67.4297 334.635 66.412 335.954 65.638C337.273 64.864 338.591 64.477 339.91 64.477C340.655 64.477 341.358 64.6777 342.017 65.079C342.705 65.4517 343.049 66.2113 343.049 67.358C343.049 68.4473 342.734 69.465 342.103 70.411C341.472 71.357 340.627 72.2027 339.566 72.948C338.505 73.6933 337.33 74.3097 336.04 74.797C334.779 75.2557 333.503 75.5567 332.213 75.7C332.184 75.8147 332.156 75.9437 332.127 76.087C332.127 76.2017 332.127 76.4023 332.127 76.689C332.127 76.8323 332.141 77.0903 332.17 77.463C332.227 77.807 332.356 78.1797 332.557 78.581C332.758 78.9823 333.087 79.3263 333.546 79.613C334.005 79.8997 334.635 80.043 335.438 80.043C336.642 80.043 337.846 79.7133 339.05 79.054C340.283 78.366 341.429 77.463 342.49 76.345C343.579 75.227 344.482 73.98 345.199 72.604L346.059 73.292C345.285 75.012 344.282 76.517 343.049 77.807C341.845 79.097 340.498 80.1003 339.007 80.817C337.545 81.5337 336.04 81.892 334.492 81.892ZM332.686 74.109C333.431 74.023 334.263 73.765 335.18 73.335C336.097 72.905 336.972 72.3603 337.803 71.701C338.663 71.0417 339.365 70.325 339.91 69.551C340.455 68.7483 340.727 67.9457 340.727 67.143C340.727 66.8277 340.67 66.6127 340.555 66.498C340.44 66.3833 340.254 66.326 339.996 66.326C339.337 66.326 338.649 66.5697 337.932 67.057C337.215 67.5157 336.513 68.132 335.825 68.906C335.137 69.6513 334.521 70.4827 333.976 71.4C333.431 72.3173 333.001 73.2203 332.686 74.109ZM350.824 81.118C349.764 81.118 348.904 80.8313 348.244 80.258C347.585 79.7133 347.255 78.968 347.255 78.022C347.255 77.2193 347.456 76.3593 347.857 75.442C348.259 74.5247 348.66 73.6217 349.061 72.733C349.491 71.8443 349.706 71.056 349.706 70.368C349.706 69.7087 349.491 69.164 349.061 68.734C348.631 68.2753 348.13 67.9027 347.556 67.616C346.926 69.1927 346.209 70.7263 345.406 72.217C344.632 73.679 344.002 74.8257 343.514 75.657L342.869 74.41C343.271 73.6647 343.801 72.604 344.46 71.228C345.12 69.852 345.75 68.3183 346.352 66.627C346.066 66.3403 345.922 65.9533 345.922 65.466C345.922 64.7207 346.152 64.0183 346.61 63.359C347.069 62.6997 347.513 62.37 347.943 62.37C348.287 62.37 348.531 62.5707 348.674 62.972C348.846 63.3447 348.932 63.6027 348.932 63.746C348.932 63.8893 348.861 64.1473 348.717 64.52C348.603 64.8927 348.517 65.165 348.459 65.337C348.488 65.6523 348.732 65.9677 349.19 66.283C349.678 66.5697 350.222 66.9137 350.824 67.315C351.426 67.7163 351.957 68.218 352.415 68.82C352.874 69.422 353.103 70.1817 353.103 71.099C353.103 71.9303 352.917 72.776 352.544 73.636C352.172 74.496 351.799 75.2987 351.426 76.044C351.054 76.7893 350.867 77.4343 350.867 77.979C350.867 78.3803 350.968 78.6527 351.168 78.796C351.398 78.9107 351.656 78.968 351.942 78.968C352.63 78.968 353.347 78.7673 354.092 78.366C354.838 77.936 355.569 77.3913 356.285 76.732C357.002 76.0727 357.633 75.3847 358.177 74.668C358.722 73.9227 359.138 73.249 359.424 72.647L360.456 73.421C359.912 74.6537 359.123 75.872 358.091 77.076C357.059 78.2513 355.913 79.226 354.651 80C353.39 80.7453 352.114 81.118 350.824 81.118ZM362.231 82.193C360.798 82.193 359.637 81.892 358.748 81.29C357.888 80.7167 357.272 79.9857 356.899 79.097C356.527 78.1797 356.34 77.248 356.34 76.302C356.34 75.4707 356.455 74.8257 356.684 74.367C356.914 73.9083 357.2 73.5787 357.544 73.378C357.888 73.1487 358.204 72.9767 358.49 72.862C358.806 72.7473 359.035 72.6183 359.178 72.475C359.895 71.7297 360.626 70.8697 361.371 69.895C362.145 68.8917 362.805 67.788 363.349 66.584V66.154C363.349 65.0073 363.536 64.2047 363.908 63.746C364.31 63.2587 364.768 63.015 365.284 63.015C365.628 63.015 365.872 63.101 366.015 63.273C366.187 63.445 366.288 63.6457 366.316 63.875C366.316 64.047 366.273 64.2477 366.187 64.477C366.13 64.7063 366.101 65.0217 366.101 65.423C366.101 66.283 366.302 67.272 366.703 68.39C367.133 69.4793 367.549 70.6403 367.95 71.873C368.38 73.1057 368.595 74.367 368.595 75.657C368.595 76.001 368.581 76.3163 368.552 76.603C368.524 76.8897 368.481 77.162 368.423 77.42C369.312 77.1907 370.186 76.7033 371.046 75.958C371.906 75.184 372.723 74.0517 373.497 72.561L374.013 72.948C373.469 74.582 372.68 75.9007 371.648 76.904C370.616 77.8787 369.412 78.4807 368.036 78.71C367.578 79.8853 366.818 80.7597 365.757 81.333C364.725 81.9063 363.55 82.193 362.231 82.193ZM361.93 80.301C362.504 80.301 363.034 80.1577 363.521 79.871C364.009 79.5843 364.396 79.1687 364.682 78.624C363.507 78.366 362.446 77.9073 361.5 77.248C360.554 76.5887 359.823 75.915 359.307 75.227C358.906 75.313 358.705 75.7 358.705 76.388C358.705 77.334 358.978 78.2227 359.522 79.054C360.067 79.8853 360.87 80.301 361.93 80.301ZM365.026 77.334C365.084 77.1333 365.112 76.904 365.112 76.646C365.141 76.3593 365.155 76.1443 365.155 76.001C365.127 74.711 364.955 73.4353 364.639 72.174C364.324 70.9127 364.009 69.6227 363.693 68.304C363.177 69.1927 362.575 70.153 361.887 71.185C361.199 72.217 360.554 73.0483 359.952 73.679C360.411 74.453 361.085 75.184 361.973 75.872C362.862 76.56 363.88 77.0473 365.026 77.334Z" fill="#151515"/>
<path d="M29.136 79.7387C31.2187 79.7387 32.832 79.1227 33.976 77.8907C35.0907 76.6294 35.648 75.0601 35.648 73.1827C35.648 71.3054 35.208 69.7654 34.328 68.5627C33.4187 67.3307 32.128 66.7147 30.456 66.7147C30.0747 66.7147 29.6933 66.8027 29.312 66.9787C28.9307 67.1547 28.74 67.3601 28.74 67.5947C28.74 67.8294 28.8867 67.9467 29.18 67.9467C29.2093 67.9467 29.3267 67.9027 29.532 67.8147C29.7373 67.7267 30.0747 67.6827 30.544 67.6827C31.0133 67.6827 31.468 67.8881 31.908 68.2987C32.3187 68.7094 32.524 69.2814 32.524 70.0147C32.524 70.7481 32.2893 71.3787 31.82 71.9067C31.3213 72.4054 30.6467 72.6547 29.796 72.6547C28.9453 72.6547 28.2267 72.3614 27.64 71.7747C27.024 71.1587 26.716 70.3667 26.716 69.3987C26.716 68.4307 27.0827 67.6094 27.816 66.9347C28.52 66.2601 29.4147 65.9227 30.5 65.9227C32.3187 65.9227 33.844 66.6414 35.076 68.0787C36.2787 69.4867 36.88 71.7307 36.88 74.8107C36.88 77.8907 36.2493 80.2667 34.988 81.9387C33.6973 83.6107 31.9667 84.4467 29.796 84.4467C27.596 84.4467 25.748 83.7721 24.252 82.4227C22.756 81.0734 21.7293 79.1374 21.172 76.6147L20.776 76.7467C20.3653 78.8587 19.5733 80.4574 18.4 81.5427C17.1973 82.6281 15.7893 83.1707 14.176 83.1707C11.9467 83.1707 10.1133 82.3201 8.676 80.6187C7.23867 78.8881 6.52 76.7174 6.52 74.1067C6.52 72.3467 6.88667 70.8214 7.62 69.5307C8.35333 68.2107 9.54133 67.5507 11.184 67.5507C12.2693 67.5507 13.1347 67.8734 13.78 68.5187C14.396 69.1347 14.704 69.8534 14.704 70.6747C14.704 71.4961 14.4547 72.2147 13.956 72.8307C13.4573 73.4467 12.7973 73.7547 11.976 73.7547C11.1547 73.7547 10.4947 73.5201 9.996 73.0507C9.49733 72.5521 9.248 71.9361 9.248 71.2027C9.248 70.2641 9.688 69.6187 10.568 69.2667C10.7733 69.2081 10.92 69.1494 11.008 69.0907C11.0667 69.0321 11.096 68.9294 11.096 68.7827C11.096 68.5187 10.964 68.3867 10.7 68.3867C9.79067 68.3867 9.04267 68.8561 8.456 69.7947C7.86933 70.7334 7.576 71.8921 7.576 73.2707C7.576 74.6494 8.148 75.9107 9.292 77.0547C10.4067 78.1987 11.9467 78.7707 13.912 78.7707C15.8773 78.7707 17.388 78.2721 18.444 77.2747C19.5 76.2774 20.028 74.9721 20.028 73.3587C20.028 72.5961 19.896 71.8921 19.632 71.2467L20.424 70.9827C22.1253 76.8201 25.0293 79.7387 29.136 79.7387ZM29.488 58.0502C30.368 58.3728 31.2333 58.5342 32.084 58.5342C32.9053 58.5342 33.536 58.3875 33.976 58.0942C34.416 57.7715 34.724 57.2728 34.9 56.5982C35.164 55.5715 35.296 54.2075 35.296 52.5062V51.7582L36 51.7582V64.7822H35.296C35.296 63.2275 34.8707 62.0542 34.02 61.2622C33.14 60.4408 31.776 59.7222 29.928 59.1062L9.204 51.9342C8.55867 51.7288 8.07467 51.5382 7.752 51.3622C6.93067 50.9515 6.52 50.2768 6.52 49.3382V49.2062L35.296 40.3182V37.1942L36 37.1942L36 48.4582L35.296 48.4582L35.296 45.2022L12.856 52.0662V52.3302L29.488 58.0502ZM20.336 59.1062C20.336 57.8448 20.732 56.4808 21.524 55.0142C22.316 53.5182 23.3573 52.2128 24.648 51.0982C27.1413 48.8688 29.7667 47.1822 32.524 46.0382L32.348 45.3342C28.388 46.8888 25.264 48.9568 22.976 51.5382C20.688 54.0902 19.544 56.7448 19.544 59.5022C19.544 61.0275 19.9693 62.2888 20.82 63.2862C21.6707 64.2542 22.6387 64.7382 23.724 64.7382C24.78 64.7382 25.6307 64.4302 26.276 63.8142C26.9213 63.1688 27.244 62.4502 27.244 61.6582C27.244 60.8368 26.98 60.1328 26.452 59.5462C25.924 58.9595 25.2493 58.6662 24.428 58.6662C23.6067 58.6662 22.976 58.8862 22.536 59.3262C22.096 59.7662 21.876 60.3088 21.876 60.9542C21.876 61.9808 22.3307 62.6702 23.24 63.0222C23.4747 63.1102 23.592 63.2568 23.592 63.4622C23.592 63.7555 23.4453 63.8728 23.152 63.8142C22.272 63.6968 21.5827 63.1982 21.084 62.3182C20.5853 61.4382 20.336 60.3675 20.336 59.1062ZM36 30.5615L35.296 30.5615V27.3495H7.664L7.4 28.0975C7.28266 28.4202 7.092 28.9482 6.828 29.6815C6.564 30.3855 6.35866 30.9722 6.212 31.4415C5.772 32.8495 5.552 34.0228 5.552 34.9615C5.552 35.9002 5.80133 36.6922 6.3 37.3375C6.76933 37.9828 7.32667 38.3055 7.972 38.3055C8.236 38.3055 8.368 38.1882 8.368 37.9535C8.368 37.7188 8.25067 37.5575 8.016 37.4695C7.10666 37.1175 6.652 36.4428 6.652 35.4455C6.652 34.8002 6.88666 34.2575 7.356 33.8175C7.82533 33.3482 8.47066 33.1135 9.292 33.1135C10.1133 33.1135 10.7733 33.4068 11.272 33.9935C11.7707 34.5802 12.02 35.2842 12.02 36.1055C12.02 36.9268 11.6973 37.6455 11.052 38.2615C10.4067 38.9068 9.512 39.2295 8.368 39.2295C7.19467 39.2295 6.22667 38.6722 5.464 37.5575C4.99467 36.8242 4.76 36.0028 4.76 35.0935C4.76 34.1548 4.892 33.2162 5.156 32.2775C5.39067 31.3095 5.75733 30.1802 6.256 28.8895C6.72533 27.5988 7.01867 26.7482 7.136 26.3375C8.51467 21.8495 9.204 18.7548 9.204 17.0535C9.204 15.3522 8.764 14.0175 7.884 13.0495C6.97467 12.0815 6.00667 11.5975 4.98 11.5975C3.95333 11.5975 3.176 11.8615 2.648 12.3895C2.09067 12.9175 1.812 13.3868 1.812 13.7975C1.812 14.2082 1.92933 14.4135 2.164 14.4135C2.39866 14.4135 2.56 14.2962 2.648 14.0615C3 13.1522 3.67466 12.6975 4.672 12.6975C5.31733 12.6975 5.87466 12.9322 6.344 13.4015C6.784 13.8708 7.004 14.5162 7.004 15.3375C7.004 16.1588 6.71067 16.8188 6.124 17.3175C5.53733 17.8162 4.83333 18.0655 4.012 18.0655C3.19066 18.0655 2.472 17.7428 1.856 17.0975C1.21067 16.4522 0.887998 15.6015 0.887998 14.5455C0.887998 13.4895 1.26933 12.6095 2.032 11.9055C2.76533 11.1722 3.748 10.8055 4.98 10.8055C6.212 10.8055 7.37066 11.3482 8.456 12.4335C9.512 13.4895 10.04 14.9122 10.04 16.7015C10.04 18.4615 9.71733 20.4855 9.072 22.7735H35.296V19.1215H36V30.5615Z" fill="#151515"/>
<path d="M60.336 83.143C60.696 83.275 61.05 83.341 61.398 83.341C61.734 83.341 61.992 83.281 62.172 83.161C62.352 83.029 62.478 82.825 62.55 82.549C62.658 82.129 62.712 81.571 62.712 80.875V80.569H63V85.897H62.712C62.712 85.261 62.538 84.781 62.19 84.457C61.83 84.121 61.272 83.827 60.516 83.575L52.038 80.641C51.774 80.557 51.576 80.479 51.444 80.407C51.108 80.239 50.94 79.963 50.94 79.579V79.525L62.712 75.889V74.611H63V79.219H62.712V77.887L53.532 80.695V80.803L60.336 83.143ZM56.592 83.575C56.592 83.059 56.754 82.501 57.078 81.901C57.402 81.289 57.828 80.755 58.356 80.299C59.376 79.387 60.45 78.697 61.578 78.229L61.506 77.941C59.886 78.577 58.608 79.423 57.672 80.479C56.736 81.523 56.268 82.609 56.268 83.737C56.268 84.361 56.442 84.877 56.79 85.285C57.138 85.681 57.534 85.879 57.978 85.879C58.41 85.879 58.758 85.753 59.022 85.501C59.286 85.237 59.418 84.943 59.418 84.619C59.418 84.283 59.31 83.995 59.094 83.755C58.878 83.515 58.602 83.395 58.266 83.395C57.93 83.395 57.672 83.485 57.492 83.665C57.312 83.845 57.222 84.067 57.222 84.331C57.222 84.751 57.408 85.033 57.78 85.177C57.876 85.213 57.924 85.273 57.924 85.357C57.924 85.477 57.864 85.525 57.744 85.501C57.384 85.453 57.102 85.249 56.898 84.889C56.694 84.529 56.592 84.091 56.592 83.575ZM61.434 73.5717C61.938 73.3677 62.328 72.9837 62.604 72.4197C62.88 71.8557 63.018 71.2017 63.018 70.4577C63.018 69.7017 62.808 69.0297 62.388 68.4417C61.968 67.8537 61.362 67.5597 60.57 67.5597C59.958 67.5597 59.448 67.7697 59.04 68.1897C58.632 68.6097 58.308 69.1197 58.068 69.7197C57.816 70.3077 57.552 70.9017 57.276 71.5017C57 72.0897 56.604 72.5937 56.088 73.0137C55.572 73.4337 54.936 73.6437 54.18 73.6437C53.184 73.6437 52.398 73.2957 51.822 72.5997C51.234 71.8917 50.94 71.0397 50.94 70.0437C50.94 69.0357 51.156 68.2377 51.588 67.6497C52.008 67.0617 52.542 66.7677 53.19 66.7677C53.598 66.7677 53.934 66.8997 54.198 67.1637C54.462 67.4157 54.594 67.7097 54.594 68.0457C54.594 68.3817 54.492 68.6697 54.288 68.9097C54.084 69.1497 53.814 69.2697 53.478 69.2697C53.142 69.2697 52.878 69.1797 52.686 68.9997C52.494 68.8077 52.398 68.5797 52.398 68.3157C52.398 67.8957 52.584 67.6137 52.956 67.4697C53.052 67.4337 53.1 67.3737 53.1 67.2897C53.1 67.1577 53.04 67.1037 52.92 67.1277C52.488 67.1877 52.11 67.4577 51.786 67.9377C51.45 68.4057 51.282 68.9997 51.282 69.7197C51.282 70.4277 51.48 71.0337 51.876 71.5377C52.26 72.0297 52.764 72.2757 53.388 72.2757C54 72.2757 54.51 72.0657 54.918 71.6457C55.326 71.2257 55.656 70.7217 55.908 70.1337C56.148 69.5337 56.406 68.9397 56.682 68.3517C56.958 67.7517 57.354 67.2417 57.87 66.8217C58.386 66.4017 59.022 66.1917 59.778 66.1917C60.93 66.1917 61.818 66.6117 62.442 67.4517C63.054 68.2917 63.36 69.2457 63.36 70.3137C63.36 71.3697 63.126 72.2577 62.658 72.9777C62.178 73.6857 61.53 74.0397 60.714 74.0397C60.306 74.0397 59.97 73.9137 59.706 73.6617C59.442 73.3977 59.31 73.0977 59.31 72.7617C59.31 72.4257 59.412 72.1377 59.616 71.8977C59.82 71.6577 60.09 71.5377 60.426 71.5377C60.762 71.5377 61.026 71.6337 61.218 71.8257C61.41 72.0057 61.506 72.2277 61.506 72.4917C61.506 72.9237 61.32 73.2117 60.948 73.3557C60.852 73.3917 60.804 73.4577 60.804 73.5537C60.804 73.6497 60.852 73.6977 60.948 73.6977C61.044 73.6977 61.206 73.6557 61.434 73.5717ZM51.3 46.9923H51.588V48.4863H62.712V46.9923H63L63 51.6723H62.712V50.3583H52.416V50.4843L60.174 55.0563C60.21 55.0923 60.33 55.1643 60.534 55.2723C60.906 55.4763 61.218 55.5783 61.47 55.5783C61.71 55.5783 61.914 55.5243 62.082 55.4163C62.25 55.2963 62.334 55.1463 62.334 54.9663C62.334 54.6183 62.148 54.4443 61.776 54.4443C61.548 54.4443 61.254 54.5343 60.894 54.7143L52.416 58.7103V58.8363H60.426C61.302 58.8363 61.902 58.6743 62.226 58.3503C62.55 58.0143 62.712 57.4083 62.712 56.5323V56.4063H63V61.5543H62.712C62.712 60.6783 62.55 60.0663 62.226 59.7183C61.89 59.3703 61.29 59.1963 60.426 59.1963H52.308C52.02 59.2203 51.828 59.3343 51.732 59.5383C51.624 59.7303 51.57 60.0063 51.57 60.3663V61.1763H51.3V57.0903L59.112 53.5083C60.216 52.9563 60.996 52.6803 61.452 52.6803C61.896 52.6803 62.244 52.8363 62.496 53.1483C62.748 53.4483 62.874 53.8263 62.874 54.2823C62.874 54.7263 62.754 55.1103 62.514 55.4343C62.274 55.7463 61.902 55.9023 61.398 55.9023C61.218 55.9023 61.086 55.8843 61.002 55.8483C60.906 55.8123 60.84 55.7883 60.804 55.7763C60.768 55.7643 60.714 55.7403 60.642 55.7043L60.48 55.6143C60.348 55.5543 60.246 55.5003 60.174 55.4523C59.958 55.3083 59.802 55.2123 59.706 55.1643L51.3 50.2683V46.9923ZM62.928 39.3112C62.928 38.5432 62.58 37.8952 61.884 37.3672C61.176 36.8272 60.306 36.4552 59.274 36.2512C58.23 36.0472 57.054 35.9452 55.746 35.9452C54.438 35.9452 53.394 36.1252 52.614 36.4852C51.834 36.8452 51.444 37.3852 51.444 38.1052C51.444 38.5012 51.552 38.8132 51.768 39.0412C51.984 39.2572 52.176 39.3652 52.344 39.3652C52.512 39.3652 52.596 39.3172 52.596 39.2212C52.596 39.1252 52.548 39.0592 52.452 39.0232C52.08 38.8792 51.894 38.6032 51.894 38.1952C51.894 37.9312 51.99 37.7092 52.182 37.5292C52.374 37.3372 52.638 37.2412 52.974 37.2412C53.31 37.2412 53.58 37.3612 53.784 37.6012C53.988 37.8412 54.09 38.1292 54.09 38.4652C54.09 38.8012 53.958 39.1012 53.694 39.3652C53.43 39.6172 53.094 39.7432 52.686 39.7432C52.266 39.7432 51.9 39.5932 51.588 39.2932C51.276 38.9932 51.12 38.6152 51.12 38.1592C51.12 36.4552 52.638 35.6032 55.674 35.6032C57.834 35.6032 59.49 35.8372 60.642 36.3052C61.83 36.7732 62.616 37.3972 63 38.1772C63.24 38.6332 63.36 39.2212 63.36 39.9412C63.36 40.6492 63.222 41.2972 62.946 41.8852C62.658 42.4612 62.238 42.9172 61.686 43.2532C60.678 43.8532 59.268 44.1532 57.456 44.1532H51.588V45.4672H51.3V40.7872H51.588V42.2812H57.456C59.148 42.2812 60.288 42.1972 60.876 42.0292C61.608 41.8252 62.106 41.5492 62.37 41.2012C62.742 40.7092 62.928 40.0792 62.928 39.3112ZM51.3 28.662C51.3 29.802 51.786 30.582 52.758 31.002C53.586 31.35 54.672 31.542 56.016 31.578C56.328 31.578 56.802 31.578 57.438 31.578C58.074 31.578 58.686 31.542 59.274 31.47C59.85 31.398 60.438 31.266 61.038 31.074C61.638 30.882 62.106 30.576 62.442 30.156C62.766 29.736 62.928 29.214 62.928 28.59C62.928 27.582 62.592 26.796 61.92 26.232C61.248 25.668 60.366 25.344 59.274 25.26L59.31 24.936C60.546 25.02 61.53 25.41 62.262 26.106C62.994 26.802 63.36 27.738 63.36 28.914C63.36 30.45 62.754 31.644 61.542 32.496C60.318 33.348 58.836 33.774 57.096 33.774C56.016 33.774 55.02 33.588 54.108 33.216C53.184 32.844 52.428 32.274 51.84 31.506C51.24 30.738 50.94 29.868 50.94 28.896C50.94 27.912 51.156 27.102 51.588 26.466C52.02 25.818 52.554 25.494 53.19 25.494C53.598 25.494 53.934 25.626 54.198 25.89C54.462 26.142 54.594 26.436 54.594 26.772C54.594 27.108 54.492 27.396 54.288 27.636C54.084 27.876 53.814 27.996 53.478 27.996C53.142 27.996 52.878 27.906 52.686 27.726C52.494 27.534 52.398 27.306 52.398 27.042C52.398 26.622 52.584 26.34 52.956 26.196C53.052 26.16 53.1 26.1 53.1 26.016C53.1 25.884 53.04 25.83 52.92 25.854C52.5 25.914 52.128 26.208 51.804 26.736C51.468 27.252 51.3 27.894 51.3 28.662ZM56.97 17.5361L57.006 18.3821C57.126 20.7341 57.468 22.3061 58.032 23.0981C58.572 23.8421 59.376 24.2141 60.444 24.2141C61.152 24.2141 61.716 24.0821 62.136 23.8181C62.544 23.5541 62.748 23.1821 62.748 22.7021C62.748 22.2581 62.406 22.0361 61.722 22.0361H51.588V23.3501H51.3V18.6701H51.588V20.1641H61.11C61.854 20.1641 62.418 20.3501 62.802 20.7221C63.174 21.0821 63.36 21.5921 63.36 22.2521C63.36 22.9001 63.12 23.4521 62.64 23.9081C62.148 24.3521 61.452 24.5741 60.552 24.5741C59.472 24.5741 58.656 24.2741 58.104 23.6741C57.552 23.0501 57.192 22.3061 57.024 21.4421C56.82 20.4221 56.694 19.0901 56.646 17.4461C56.61 16.1501 56.556 15.3401 56.484 15.0161C56.4 14.6801 56.316 14.3561 56.232 14.0441C56.148 13.7321 56.052 13.5041 55.944 13.3601C55.836 13.2161 55.698 13.0481 55.53 12.8561C55.362 12.6521 55.176 12.5021 54.972 12.4061C54.468 12.1901 53.946 12.0821 53.406 12.0821C52.866 12.0821 52.452 12.1421 52.164 12.2621C51.876 12.3821 51.732 12.5441 51.732 12.7481C51.732 13.1441 52.05 13.3421 52.686 13.3421H62.712V11.8481H63V16.5281H62.712V15.2141H53.01C52.314 15.2141 51.798 15.0581 51.462 14.7461C51.126 14.4221 50.958 13.9961 50.958 13.4681C50.958 12.9401 51.168 12.5201 51.588 12.2081C51.996 11.8841 52.56 11.7221 53.28 11.7221C53.988 11.7221 54.57 11.8421 55.026 12.0821C55.482 12.3101 55.83 12.5741 56.07 12.8741C56.298 13.1621 56.484 13.6121 56.628 14.2241C56.76 14.8361 56.844 15.3401 56.88 15.7361C56.904 16.1321 56.934 16.7321 56.97 17.5361Z" fill="#151515"/>
<path d="M90.448 84.2102C90.928 84.3862 91.4 84.4742 91.864 84.4742C92.312 84.4742 92.656 84.3942 92.896 84.2342C93.136 84.0582 93.304 83.7862 93.4 83.4182C93.544 82.8582 93.616 82.1142 93.616 81.1862V80.7782H94V87.8822H93.616C93.616 87.0342 93.384 86.3942 92.92 85.9622C92.44 85.5142 91.696 85.1222 90.688 84.7862L79.384 80.8742C79.032 80.7622 78.768 80.6582 78.592 80.5622C78.144 80.3382 77.92 79.9702 77.92 79.4582V79.3862L93.616 74.5382V72.8342H94V78.9782H93.616V77.2022L81.376 80.9462V81.0902L90.448 84.2102ZM85.456 84.7862C85.456 84.0982 85.672 83.3542 86.104 82.5542C86.536 81.7382 87.104 81.0262 87.808 80.4182C89.168 79.2022 90.6 78.2822 92.104 77.6582L92.008 77.2742C89.848 78.1222 88.144 79.2502 86.896 80.6582C85.648 82.0502 85.024 83.4982 85.024 85.0022C85.024 85.8342 85.256 86.5222 85.72 87.0662C86.184 87.5942 86.712 87.8582 87.304 87.8582C87.88 87.8582 88.344 87.6902 88.696 87.3542C89.048 87.0022 89.224 86.6102 89.224 86.1782C89.224 85.7302 89.08 85.3462 88.792 85.0262C88.504 84.7062 88.136 84.5462 87.688 84.5462C87.24 84.5462 86.896 84.6662 86.656 84.9062C86.416 85.1462 86.296 85.4422 86.296 85.7942C86.296 86.3542 86.544 86.7302 87.04 86.9222C87.168 86.9702 87.232 87.0502 87.232 87.1622C87.232 87.3222 87.152 87.3862 86.992 87.3542C86.512 87.2902 86.136 87.0182 85.864 86.5382C85.592 86.0582 85.456 85.4742 85.456 84.7862ZM91.912 71.4484C92.584 71.1764 93.104 70.6644 93.472 69.9124C93.84 69.1604 94.024 68.2884 94.024 67.2964C94.024 66.2884 93.744 65.3924 93.184 64.6084C92.624 63.8244 91.816 63.4324 90.76 63.4324C89.944 63.4324 89.264 63.7124 88.72 64.2724C88.176 64.8324 87.744 65.5124 87.424 66.3124C87.088 67.0964 86.736 67.8884 86.368 68.6884C86 69.4724 85.472 70.1444 84.784 70.7044C84.096 71.2644 83.248 71.5444 82.24 71.5444C80.912 71.5444 79.864 71.0804 79.096 70.1524C78.312 69.2084 77.92 68.0724 77.92 66.7444C77.92 65.4004 78.208 64.3364 78.784 63.5524C79.344 62.7684 80.056 62.3764 80.92 62.3764C81.464 62.3764 81.912 62.5524 82.264 62.9044C82.616 63.2404 82.792 63.6324 82.792 64.0804C82.792 64.5284 82.656 64.9124 82.384 65.2324C82.112 65.5524 81.752 65.7124 81.304 65.7124C80.856 65.7124 80.504 65.5924 80.248 65.3524C79.992 65.0964 79.864 64.7924 79.864 64.4404C79.864 63.8804 80.112 63.5044 80.608 63.3124C80.736 63.2644 80.8 63.1844 80.8 63.0724C80.8 62.8964 80.72 62.8244 80.56 62.8564C79.984 62.9364 79.48 63.2964 79.048 63.9364C78.6 64.5604 78.376 65.3524 78.376 66.3124C78.376 67.2564 78.64 68.0644 79.168 68.7364C79.68 69.3924 80.352 69.7204 81.184 69.7204C82 69.7204 82.68 69.4404 83.224 68.8804C83.768 68.3204 84.208 67.6484 84.544 66.8644C84.864 66.0644 85.208 65.2724 85.576 64.4884C85.944 63.6884 86.472 63.0084 87.16 62.4484C87.848 61.8884 88.696 61.6084 89.704 61.6084C91.24 61.6084 92.424 62.1684 93.256 63.2884C94.072 64.4084 94.48 65.6804 94.48 67.1044C94.48 68.5124 94.168 69.6964 93.544 70.6564C92.904 71.6004 92.04 72.0724 90.952 72.0724C90.408 72.0724 89.96 71.9044 89.608 71.5684C89.256 71.2164 89.08 70.8164 89.08 70.3684C89.08 69.9204 89.216 69.5364 89.488 69.2164C89.76 68.8964 90.12 68.7364 90.568 68.7364C91.016 68.7364 91.368 68.8644 91.624 69.1204C91.88 69.3604 92.008 69.6564 92.008 70.0084C92.008 70.5844 91.76 70.9684 91.264 71.1604C91.136 71.2084 91.072 71.2964 91.072 71.4244C91.072 71.5524 91.136 71.6164 91.264 71.6164C91.392 71.6164 91.608 71.5604 91.912 71.4484ZM93.616 46.7132V44.7212H94V50.9612H93.616V49.2092H87.256L78.784 53.5052V55.2572H78.4V48.8252H78.784V50.8172L87.016 46.7132H93.616ZM78.664 44.0732C78.664 43.8652 78.8 43.6332 79.072 43.3772C79.328 43.1052 79.64 42.9692 80.008 42.9692C80.36 42.9692 80.704 43.0172 81.04 43.1132C81.152 43.1452 81.28 43.2013 81.424 43.2812C81.552 43.3452 81.648 43.4012 81.712 43.4492C81.776 43.4812 81.864 43.5372 81.976 43.6172C82.088 43.6972 82.16 43.7452 82.192 43.7612L87.16 47.3372L87.592 47.0972L82.264 43.2812C81.56 42.7692 80.896 42.5132 80.272 42.5132C79.632 42.5132 79.12 42.6972 78.736 43.0652C78.352 43.4172 78.16 43.8812 78.16 44.4572C78.16 45.0332 78.336 45.4972 78.688 45.8492C79.024 46.2012 79.416 46.3772 79.864 46.3772C80.312 46.3772 80.696 46.2412 81.016 45.9692C81.336 45.6972 81.496 45.3372 81.496 44.8892C81.496 44.4412 81.376 44.0892 81.136 43.8332C80.88 43.5772 80.576 43.4492 80.224 43.4492C79.68 43.4492 79.312 43.6972 79.12 44.1932C79.072 44.3212 78.984 44.3852 78.856 44.3852C78.728 44.3852 78.664 44.2812 78.664 44.0732ZM81.04 28.4189C80.448 28.4989 79.864 28.9389 79.288 29.7389C78.712 30.5389 78.424 31.3949 78.424 32.3069C78.424 33.2189 78.552 33.9629 78.808 34.5389C79.064 35.1149 79.408 35.5789 79.84 35.9309C80.272 36.2829 80.824 36.5709 81.496 36.7949C82.712 37.1789 84.256 37.3709 86.128 37.3709C88.848 37.3709 90.64 37.1949 91.504 36.8429C91.936 36.6669 92.368 36.4429 92.8 36.1709C93.616 35.6429 94.024 34.7549 94.024 33.5069C94.024 32.3069 93.608 31.4349 92.776 30.8909C91.912 30.3149 90.912 29.9629 89.776 29.8349C88.704 29.7069 87.648 29.6429 86.608 29.6429C85.552 29.6429 84.832 29.6509 84.448 29.6669C84.448 29.6029 84.448 29.4669 84.448 29.2589C84.448 29.0509 84.328 28.6829 84.088 28.1549C83.848 27.6269 83.456 27.3069 82.912 27.1949C83.984 26.8749 85.056 26.7149 86.128 26.7149C88.48 26.7149 90.464 27.3149 92.08 28.5149C93.68 29.6989 94.48 31.3629 94.48 33.5069C94.48 35.6509 93.68 37.3229 92.08 38.5229C90.464 39.7069 88.44 40.2989 86.008 40.2989C83.576 40.2989 81.624 39.6589 80.152 38.3789C78.664 37.0829 77.92 35.2989 77.92 33.0269C77.92 31.6509 78.28 30.4589 79 29.4509C79.72 28.4429 80.52 27.9389 81.4 27.9389C81.944 27.9389 82.392 28.1149 82.744 28.4669C83.096 28.8029 83.272 29.1949 83.272 29.6429C83.272 30.0909 83.136 30.4749 82.864 30.7949C82.592 31.1149 82.232 31.2749 81.784 31.2749C81.336 31.2749 80.984 31.1549 80.728 30.9149C80.472 30.6589 80.344 30.3549 80.344 30.0029C80.344 29.4429 80.592 29.0669 81.088 28.8749C81.216 28.8269 81.28 28.7469 81.28 28.6349C81.28 28.4589 81.2 28.3869 81.04 28.4189ZM93.904 16.2287C93.904 15.2047 93.44 14.3407 92.512 13.6367C91.568 12.9167 90.408 12.4207 89.032 12.1487C87.64 11.8767 86.072 11.7407 84.328 11.7407C82.584 11.7407 81.192 11.9807 80.152 12.4607C79.112 12.9407 78.592 13.6607 78.592 14.6207C78.592 15.1487 78.736 15.5647 79.024 15.8687C79.312 16.1567 79.568 16.3007 79.792 16.3007C80.016 16.3007 80.128 16.2367 80.128 16.1087C80.128 15.9807 80.064 15.8927 79.936 15.8447C79.44 15.6527 79.192 15.2847 79.192 14.7407C79.192 14.3887 79.32 14.0927 79.576 13.8527C79.832 13.5967 80.184 13.4688 80.632 13.4688C81.08 13.4688 81.44 13.6287 81.712 13.9487C81.984 14.2687 82.12 14.6527 82.12 15.1007C82.12 15.5487 81.944 15.9487 81.592 16.3007C81.24 16.6367 80.792 16.8047 80.248 16.8047C79.688 16.8047 79.2 16.6047 78.784 16.2047C78.368 15.8047 78.16 15.3007 78.16 14.6927C78.16 12.4207 80.184 11.2847 84.232 11.2847C87.112 11.2847 89.32 11.5967 90.856 12.2207C92.44 12.8447 93.488 13.6767 94 14.7167C94.32 15.3247 94.48 16.1087 94.48 17.0687C94.48 18.0127 94.296 18.8767 93.928 19.6607C93.544 20.4287 92.984 21.0367 92.248 21.4847C90.904 22.2847 89.024 22.6847 86.608 22.6847H78.784V24.4367H78.4V18.1967H78.784V20.1887H86.608C88.864 20.1887 90.384 20.0767 91.168 19.8527C92.144 19.5807 92.808 19.2127 93.16 18.7487C93.656 18.0927 93.904 17.2527 93.904 16.2287Z" fill="#151515"/>
<path d="M112.282 65.5215C111.876 65.3861 111.47 65.3185 111.064 65.3185C110.639 65.3185 110.271 65.4828 109.962 65.8115C109.633 66.1208 109.469 66.4011 109.469 66.6525C109.469 66.9038 109.546 67.0295 109.701 67.0295C109.856 67.0295 109.962 66.9521 110.02 66.7975C110.252 66.1981 110.697 65.8985 111.354 65.8985C111.779 65.8985 112.147 66.0531 112.456 66.3625C112.746 66.6718 112.891 67.0971 112.891 67.6385C112.891 68.1798 112.698 68.6148 112.311 68.9435C111.924 69.2721 111.46 69.4365 110.919 69.4365C110.378 69.4365 109.904 69.2238 109.498 68.7985C109.073 68.3731 108.86 67.8125 108.86 67.1165C108.86 66.4205 109.092 65.8598 109.556 65.4345C110.02 64.9898 110.513 64.7675 111.035 64.7675C111.538 64.7675 111.973 64.8351 112.34 64.9705L126.811 69.9295C127.236 70.0648 127.555 70.1808 127.768 70.2775C128.309 70.5675 128.58 71.0218 128.58 71.6405V71.7275L115.53 75.7585L126.811 79.5285C127.236 79.6638 127.555 79.7895 127.768 79.9055C128.309 80.1761 128.58 80.6208 128.58 81.2395V81.3265L109.614 87.1845V89.2435H109.15V81.7035H109.614V83.8495L124.578 79.4995V79.3255L114.602 76.0485L109.614 77.5855V79.6445H109.15V72.1045H109.614V74.2505L124.578 69.9005V69.7265L112.282 65.5215ZM123.708 59.6517C124.288 59.8643 124.858 59.9707 125.419 59.9707C125.96 59.9707 126.376 59.874 126.666 59.6807C126.956 59.468 127.159 59.1393 127.275 58.6947C127.449 58.018 127.536 57.119 127.536 55.9977V55.5047H128V64.0887H127.536C127.536 63.064 127.256 62.2907 126.695 61.7687C126.115 61.2273 125.216 60.7537 123.998 60.3477L110.339 55.6207C109.914 55.4853 109.595 55.3597 109.382 55.2437C108.841 54.973 108.57 54.5283 108.57 53.9097V53.8227L127.536 47.9647V45.9057H128V53.3297H127.536V51.1837L112.746 55.7077V55.8817L123.708 59.6517ZM117.676 60.3477C117.676 59.5163 117.937 58.6173 118.459 57.6507C118.981 56.6647 119.667 55.8043 120.518 55.0697C122.161 53.6003 123.892 52.4887 125.709 51.7347L125.593 51.2707C122.983 52.2953 120.924 53.6583 119.416 55.3597C117.908 57.0417 117.154 58.7913 117.154 60.6087C117.154 61.614 117.434 62.4453 117.995 63.1027C118.556 63.7407 119.194 64.0597 119.909 64.0597C120.605 64.0597 121.166 63.8567 121.591 63.4507C122.016 63.0253 122.229 62.5517 122.229 62.0297C122.229 61.4883 122.055 61.0243 121.707 60.6377C121.359 60.251 120.914 60.0577 120.373 60.0577C119.832 60.0577 119.416 60.2027 119.126 60.4927C118.836 60.7827 118.691 61.1403 118.691 61.5657C118.691 62.2423 118.991 62.6967 119.59 62.9287C119.745 62.9867 119.822 63.0833 119.822 63.2187C119.822 63.412 119.725 63.4893 119.532 63.4507C118.952 63.3733 118.498 63.0447 118.169 62.4647C117.84 61.8847 117.676 61.179 117.676 60.3477ZM113.297 30.1082H128.203V30.5722C128.203 31.2102 128 31.7322 127.594 32.1382C127.188 32.5248 126.415 33.0468 125.274 33.7042L112.108 41.3602V41.4762H125.68C126.608 41.4762 127.323 41.7178 127.826 42.2012C128.329 42.6845 128.58 43.2838 128.58 43.9992C128.58 44.6952 128.377 45.2558 127.971 45.6812C127.546 46.1065 127.062 46.3192 126.521 46.3192C125.98 46.3192 125.516 46.1548 125.129 45.8262C124.742 45.4975 124.549 45.0625 124.549 44.5212C124.549 43.9798 124.704 43.5545 125.013 43.2452C125.303 42.9358 125.661 42.7812 126.086 42.7812C126.743 42.7812 127.188 43.0808 127.42 43.6802C127.478 43.8348 127.584 43.9122 127.739 43.9122C127.894 43.9122 127.971 43.7768 127.971 43.5062C127.971 43.2162 127.787 42.9068 127.42 42.5782C127.033 42.2302 126.453 42.0562 125.68 42.0562H110.919C110.03 42.5782 109.585 43.5932 109.585 45.1012H109.15V42.0852C109.15 41.1572 109.314 40.4612 109.643 39.9972C109.952 39.5138 110.513 39.0305 111.325 38.5472L124.52 30.8622V30.6882H113.297C111.886 30.6882 110.919 30.9588 110.397 31.5002C109.875 32.0222 109.614 32.9888 109.614 34.4002V34.6032H109.15L109.15 26.3092H109.614C109.614 27.7205 109.885 28.7065 110.426 29.2672C110.948 29.8278 111.905 30.1082 113.297 30.1082ZM128 22.333H127.536V20.216H109.324L109.15 20.709C109.073 20.9216 108.947 21.2696 108.773 21.753C108.599 22.217 108.464 22.6036 108.367 22.913C108.077 23.841 107.932 24.6143 107.932 25.233C107.932 25.8516 108.096 26.3736 108.425 26.799C108.734 27.2243 109.102 27.437 109.527 27.437C109.701 27.437 109.788 27.3596 109.788 27.205C109.788 27.0503 109.711 26.944 109.556 26.886C108.957 26.654 108.657 26.2093 108.657 25.552C108.657 25.1266 108.812 24.769 109.121 24.479C109.43 24.1696 109.856 24.015 110.397 24.015C110.938 24.015 111.373 24.2083 111.702 24.595C112.031 24.9816 112.195 25.4456 112.195 25.987C112.195 26.5283 111.982 27.002 111.557 27.408C111.132 27.8333 110.542 28.046 109.788 28.046C109.015 28.046 108.377 27.6786 107.874 26.944C107.565 26.4606 107.41 25.9193 107.41 25.32C107.41 24.7013 107.497 24.0826 107.671 23.464C107.826 22.826 108.067 22.0816 108.396 21.231C108.705 20.3803 108.899 19.8196 108.976 19.549C109.885 16.591 110.339 14.5513 110.339 13.43C110.339 12.3086 110.049 11.429 109.469 10.791C108.87 10.153 108.232 9.83398 107.555 9.83398C106.878 9.83398 106.366 10.008 106.018 10.356C105.651 10.704 105.467 11.0133 105.467 11.284C105.467 11.5546 105.544 11.69 105.699 11.69C105.854 11.69 105.96 11.6126 106.018 11.458C106.25 10.8586 106.695 10.559 107.352 10.559C107.777 10.559 108.145 10.7136 108.454 11.023C108.744 11.3323 108.889 11.7576 108.889 12.299C108.889 12.8403 108.696 13.2753 108.309 13.604C107.922 13.9326 107.458 14.097 106.917 14.097C106.376 14.097 105.902 13.8843 105.496 13.459C105.071 13.0336 104.858 12.473 104.858 11.777C104.858 11.081 105.109 10.501 105.612 10.037C106.095 9.55365 106.743 9.31198 107.555 9.31198C108.367 9.31198 109.131 9.66965 109.846 10.385C110.542 11.081 110.89 12.0186 110.89 13.198C110.89 14.358 110.677 15.692 110.252 17.2H127.536L127.536 14.793H128V22.333Z" fill="#151515"/>
</svg>
