<svg width="215" height="85" viewBox="0 0 215 85" fill="none" xmlns="http://www.w3.org/2000/svg">
<rect width="215" height="85" fill="#151515"/>
<g filter="url(#filter0_d_51_7355)">
<path d="M20.8873 43V7.8H34.9013V12.266H25.9253V22.958H34.4613V27.424H25.9253V43H20.8873ZM43.1829 43.374C41.4083 43.374 40.0223 42.868 39.0249 41.856C38.0423 40.844 37.5509 39.1793 37.5509 36.862V16.6H42.6329L42.6769 37.302C42.6769 38.1087 42.8603 38.7027 43.2269 39.084C43.6083 39.4653 44.2169 39.656 45.0529 39.656C45.8449 39.656 46.6003 39.458 47.3189 39.062C48.0523 38.6513 48.5656 38.1013 48.8589 37.412V16.6H53.9849V43H48.8589V40.338H48.1109C47.4949 41.4233 46.7836 42.2007 45.9769 42.67C45.1849 43.1393 44.2536 43.374 43.1829 43.374ZM58.5238 43V7.8H63.5618V43H58.5238ZM68.0629 43V7.8H73.1009V43H68.0629ZM87.1881 43V7.8H94.9541C97.6968 7.8 99.6768 8.35 100.894 9.45C102.126 10.55 102.786 12.376 102.874 14.928C102.918 16.0427 102.94 17.04 102.94 17.92C102.955 18.7853 102.955 19.636 102.94 20.472C102.94 21.308 102.918 22.2173 102.874 23.2C102.815 24.8427 102.522 26.1773 101.994 27.204C101.481 28.216 100.681 28.9787 99.5961 29.492L103.446 43H98.1221L94.8221 30.328H92.2261V43H87.1881ZM92.2261 25.862H94.9321C95.9294 25.862 96.6481 25.664 97.0881 25.268C97.5428 24.872 97.7921 24.2633 97.8361 23.442C97.8801 22.4153 97.9094 21.4327 97.9241 20.494C97.9388 19.5407 97.9388 18.5947 97.9241 17.656C97.9241 16.7027 97.8948 15.7127 97.8361 14.686C97.7921 13.85 97.5428 13.2413 97.0881 12.86C96.6481 12.464 95.9368 12.266 94.9541 12.266H92.2261V25.862ZM114.346 43.374C111.559 43.374 109.564 42.8387 108.362 41.768C107.174 40.6973 106.506 38.974 106.36 36.598C106.33 35.718 106.301 34.684 106.272 33.496C106.257 32.2933 106.25 31.0467 106.25 29.756C106.25 28.4653 106.257 27.2333 106.272 26.06C106.301 24.8867 106.33 23.8893 106.36 23.068C106.521 20.604 107.218 18.8513 108.45 17.81C109.682 16.754 111.625 16.226 114.28 16.226C116.964 16.226 118.9 16.7467 120.088 17.788C121.276 18.8293 121.928 20.5233 122.046 22.87C122.06 23.222 122.068 23.838 122.068 24.718C122.082 25.5833 122.082 26.5587 122.068 27.644C122.068 28.7293 122.046 29.7487 122.002 30.702H111.376C111.376 31.7287 111.383 32.7773 111.398 33.848C111.427 34.904 111.456 36.004 111.486 37.148C111.515 38.028 111.75 38.6513 112.19 39.018C112.63 39.37 113.341 39.546 114.324 39.546C115.277 39.546 115.944 39.37 116.326 39.018C116.722 38.6513 116.942 38.0207 116.986 37.126C117.015 36.686 117.03 36.1433 117.03 35.498C117.044 34.838 117.03 34.09 116.986 33.254H122.002C122.031 33.5913 122.053 34.112 122.068 34.816C122.082 35.52 122.075 36.114 122.046 36.598C121.928 39.018 121.276 40.756 120.088 41.812C118.914 42.8533 117 43.374 114.346 43.374ZM111.398 27.094H117.03C117.044 26.434 117.052 25.7813 117.052 25.136C117.052 24.476 117.044 23.8967 117.03 23.398C117.03 22.8993 117.015 22.5473 116.986 22.342C116.942 21.4913 116.707 20.8973 116.282 20.56C115.871 20.208 115.204 20.032 114.28 20.032C113.268 20.032 112.556 20.2227 112.146 20.604C111.735 20.9707 111.515 21.55 111.486 22.342C111.471 23.1487 111.449 23.948 111.42 24.74C111.405 25.532 111.398 26.3167 111.398 27.094ZM125.856 51.8V16.6H130.982V19.24H131.752C132.339 18.2427 132.969 17.4947 133.644 16.996C134.319 16.4827 135.338 16.226 136.702 16.226C138.462 16.226 139.811 16.7247 140.75 17.722C141.689 18.7193 142.202 20.384 142.29 22.716C142.319 23.5373 142.341 24.5787 142.356 25.84C142.385 27.1013 142.4 28.4287 142.4 29.822C142.4 31.2153 142.385 32.5427 142.356 33.804C142.341 35.0507 142.319 36.0773 142.29 36.884C142.202 39.2013 141.645 40.866 140.618 41.878C139.591 42.8753 138.198 43.374 136.438 43.374C135.397 43.374 134.517 43.1467 133.798 42.692C133.079 42.2227 132.397 41.438 131.752 40.338H130.982V51.8H125.856ZM134.48 39.656C135.316 39.656 135.961 39.4653 136.416 39.084C136.885 38.7027 137.135 38.1087 137.164 37.302C137.237 35.894 137.281 34.5373 137.296 33.232C137.325 31.9267 137.34 30.658 137.34 29.426C137.34 28.1793 137.325 26.962 137.296 25.774C137.267 24.5713 137.223 23.3687 137.164 22.166C137.135 21.418 136.929 20.8607 136.548 20.494C136.167 20.1273 135.573 19.944 134.766 19.944C133.945 19.944 133.182 20.142 132.478 20.538C131.789 20.9193 131.29 21.462 130.982 22.166V37.412C131.334 38.2333 131.789 38.8127 132.346 39.15C132.903 39.4873 133.615 39.656 134.48 39.656ZM154.073 43.374C152.166 43.374 150.634 43.1247 149.475 42.626C148.331 42.1273 147.488 41.328 146.945 40.228C146.402 39.128 146.08 37.676 145.977 35.872C145.948 35.1387 145.918 34.2587 145.889 33.232C145.874 32.1907 145.867 31.0907 145.867 29.932C145.867 28.7733 145.874 27.6513 145.889 26.566C145.918 25.4807 145.948 24.5273 145.977 23.706C146.094 21.8873 146.424 20.428 146.967 19.328C147.51 18.228 148.353 17.436 149.497 16.952C150.641 16.468 152.166 16.226 154.073 16.226C156.024 16.226 157.564 16.4827 158.693 16.996C159.837 17.4947 160.666 18.294 161.179 19.394C161.707 20.494 162.022 21.9313 162.125 23.706C162.154 24.4833 162.176 25.4 162.191 26.456C162.22 27.4973 162.235 28.59 162.235 29.734C162.235 30.8633 162.22 31.9633 162.191 33.034C162.176 34.1047 162.154 35.0507 162.125 35.872C162.022 37.676 161.707 39.128 161.179 40.228C160.651 41.328 159.815 42.1273 158.671 42.626C157.542 43.1247 156.009 43.374 154.073 43.374ZM154.073 39.568C155.158 39.568 155.921 39.3627 156.361 38.952C156.801 38.5267 157.036 37.9033 157.065 37.082C157.109 35.762 157.138 34.5007 157.153 33.298C157.182 32.0807 157.197 30.8927 157.197 29.734C157.197 28.5607 157.182 27.38 157.153 26.192C157.138 25.004 157.109 23.772 157.065 22.496C157.036 21.6453 156.794 21.022 156.339 20.626C155.899 20.23 155.144 20.032 154.073 20.032C153.017 20.032 152.247 20.2447 151.763 20.67C151.294 21.0953 151.044 21.7187 151.015 22.54C150.986 23.5667 150.956 24.6667 150.927 25.84C150.912 27.0133 150.905 28.2233 150.905 29.47C150.905 30.7167 150.912 31.978 150.927 33.254C150.956 34.5153 151 35.7767 151.059 37.038C151.088 37.9033 151.33 38.5413 151.785 38.952C152.254 39.3627 153.017 39.568 154.073 39.568ZM166.246 43V16.6H171.416V19.57H172.384C172.604 18.4113 173.044 17.6047 173.704 17.15C174.379 16.6953 175.266 16.468 176.366 16.468C176.704 16.468 177.034 16.4827 177.356 16.512C177.679 16.5267 177.965 16.5413 178.214 16.556V20.45H176.432C174.995 20.45 173.858 20.6627 173.022 21.088C172.201 21.5133 171.666 22.2613 171.416 23.332V43H166.246ZM189.681 43.374C186.733 43.374 184.636 42.8533 183.389 41.812C182.157 40.7707 181.541 39.0107 181.541 36.532L181.497 20.45H179.143V16.6H181.629V9.12H186.733V16.6H191.507V20.45H186.601L186.645 37.126C186.645 38.094 186.865 38.7467 187.305 39.084C187.745 39.4213 188.544 39.59 189.703 39.59C190.128 39.59 190.51 39.5827 190.847 39.568C191.199 39.5387 191.588 39.5167 192.013 39.502V43.154C191.661 43.2127 191.294 43.264 190.913 43.308C190.546 43.352 190.136 43.374 189.681 43.374Z" fill="#EEE8DC"/>
</g>
<path d="M120.497 61.624V79.8906H116.546V58.6787H120.2L120.497 61.624ZM128.455 65.8154V66.835C128.455 68.0339 128.351 69.0959 128.144 70.021C127.936 70.9367 127.624 71.7155 127.209 72.3574C126.803 72.9899 126.293 73.4714 125.68 73.8018C125.066 74.1227 124.349 74.2832 123.527 74.2832C122.763 74.2832 122.102 74.1038 121.545 73.7451C120.997 73.377 120.535 72.8719 120.157 72.23C119.78 71.5881 119.478 70.8376 119.251 69.9785C119.024 69.1195 118.85 68.1991 118.727 67.2173V65.6313C118.84 64.5835 119.006 63.6206 119.223 62.7427C119.44 61.8553 119.737 61.0859 120.115 60.4346C120.502 59.7832 120.969 59.2829 121.517 58.9336C122.074 58.5749 122.734 58.3955 123.499 58.3955C124.33 58.3955 125.052 58.5465 125.666 58.8486C126.289 59.1507 126.803 59.6086 127.209 60.2222C127.624 60.8263 127.936 61.5957 128.144 62.5303C128.351 63.4648 128.455 64.5599 128.455 65.8154ZM124.49 66.835V65.8154C124.49 65.0791 124.448 64.4513 124.363 63.9321C124.287 63.4129 124.165 62.9881 123.995 62.6577C123.825 62.3273 123.603 62.0866 123.329 61.9355C123.055 61.7845 122.72 61.709 122.324 61.709C121.937 61.709 121.597 61.7845 121.304 61.9355C121.021 62.0866 120.79 62.3084 120.61 62.6011C120.431 62.8843 120.294 63.2336 120.2 63.6489C120.105 64.0549 120.053 64.5174 120.044 65.0366V67.812C120.063 68.4256 120.143 68.9684 120.285 69.4404C120.436 69.9124 120.676 70.29 121.007 70.5732C121.337 70.847 121.786 70.9839 122.352 70.9839C122.758 70.9839 123.093 70.8989 123.357 70.729C123.631 70.5591 123.853 70.3042 124.023 69.9644C124.193 69.6245 124.311 69.195 124.377 68.6758C124.452 68.1566 124.49 67.543 124.49 66.835ZM137.645 70.4741V63.394C137.645 62.9315 137.588 62.5633 137.475 62.2896C137.371 62.0158 137.211 61.8175 136.994 61.6948C136.786 61.5627 136.531 61.4966 136.229 61.4966C135.889 61.4966 135.606 61.5674 135.379 61.709C135.153 61.8506 134.983 62.0535 134.87 62.3179C134.766 62.5822 134.714 62.8984 134.714 63.2666H130.735C130.735 62.6058 130.862 61.9827 131.117 61.3975C131.372 60.8027 131.745 60.2835 132.236 59.8398C132.736 59.3867 133.331 59.0327 134.02 58.7778C134.709 58.5229 135.483 58.3955 136.342 58.3955C137.362 58.3955 138.268 58.5701 139.061 58.9194C139.854 59.2593 140.482 59.8021 140.944 60.5479C141.407 61.2936 141.638 62.2612 141.638 63.4507V70.2759C141.638 71.1349 141.681 71.8335 141.766 72.3716C141.86 72.9097 141.997 73.3722 142.176 73.7593V74H138.183C138.004 73.5752 137.867 73.0465 137.772 72.4141C137.688 71.7721 137.645 71.1255 137.645 70.4741ZM138.126 64.6401L138.141 67.019H136.682C136.305 67.019 135.974 67.0804 135.691 67.2031C135.417 67.3258 135.186 67.5005 134.997 67.7271C134.808 67.9442 134.667 68.1991 134.572 68.4917C134.487 68.7843 134.445 69.0959 134.445 69.4263C134.445 69.7944 134.497 70.106 134.601 70.3608C134.704 70.6157 134.86 70.8092 135.068 70.9414C135.276 71.0736 135.521 71.1396 135.804 71.1396C136.238 71.1396 136.616 71.05 136.937 70.8706C137.258 70.6912 137.494 70.4741 137.645 70.2192C137.806 69.9644 137.857 69.7284 137.801 69.5112L138.707 71.0547C138.594 71.404 138.438 71.7674 138.24 72.145C138.051 72.5226 137.81 72.8719 137.518 73.1929C137.225 73.5138 136.861 73.7782 136.427 73.9858C136.002 74.1841 135.497 74.2832 134.912 74.2832C134.091 74.2832 133.34 74.0944 132.661 73.7168C131.981 73.3392 131.443 72.8105 131.046 72.1309C130.659 71.4512 130.466 70.644 130.466 69.7095C130.466 68.9354 130.589 68.2368 130.834 67.6138C131.089 66.9813 131.466 66.4479 131.967 66.0137C132.467 65.57 133.1 65.2301 133.864 64.9941C134.629 64.7581 135.526 64.6401 136.555 64.6401H138.126ZM152.626 58.6787H156.223V74C156.223 75.3971 155.954 76.5394 155.416 77.4268C154.887 78.3236 154.146 78.9797 153.193 79.395C152.249 79.8198 151.144 80.0322 149.879 80.0322C149.398 80.0322 148.855 79.9661 148.251 79.834C147.656 79.7018 147.08 79.4989 146.523 79.2251C145.966 78.9608 145.509 78.6398 145.15 78.2622L146.495 75.5151C146.863 75.8833 147.345 76.1948 147.939 76.4497C148.534 76.714 149.119 76.8462 149.695 76.8462C150.252 76.8462 150.715 76.7565 151.083 76.5771C151.461 76.4072 151.744 76.1146 151.933 75.6992C152.131 75.2839 152.23 74.7269 152.23 74.0283V62.2329L152.626 58.6787ZM144.074 66.8774V65.8579C144.074 64.6118 144.192 63.5215 144.428 62.5869C144.664 61.6523 145.004 60.8735 145.447 60.2505C145.891 59.6274 146.434 59.1649 147.076 58.8628C147.727 58.5513 148.454 58.3955 149.256 58.3955C150.097 58.3955 150.8 58.5796 151.366 58.9478C151.933 59.3065 152.39 59.8115 152.74 60.4629C153.098 61.1143 153.372 61.8836 153.561 62.771C153.759 63.6584 153.91 64.6307 154.014 65.688V67.1606C153.91 68.1613 153.74 69.0959 153.504 69.9644C153.278 70.8328 152.976 71.5881 152.598 72.23C152.221 72.8719 151.758 73.377 151.21 73.7451C150.663 74.1038 150.002 74.2832 149.228 74.2832C148.435 74.2832 147.718 74.1227 147.076 73.8018C146.443 73.4808 145.9 73.0088 145.447 72.3857C145.004 71.7533 144.664 70.9792 144.428 70.0635C144.192 69.1383 144.074 68.0763 144.074 66.8774ZM148.053 65.8579V66.8774C148.053 67.5949 148.095 68.2132 148.18 68.7324C148.275 69.2422 148.416 69.6623 148.605 69.9927C148.794 70.3136 149.035 70.5544 149.327 70.7148C149.629 70.8659 149.983 70.9414 150.389 70.9414C150.965 70.9414 151.423 70.8092 151.763 70.5449C152.112 70.2712 152.367 69.8983 152.527 69.4263C152.697 68.9448 152.792 68.3926 152.811 67.7695V65.0933C152.801 64.5741 152.74 64.1068 152.626 63.6914C152.523 63.276 152.376 62.922 152.188 62.6294C151.999 62.3368 151.753 62.1102 151.451 61.9497C151.159 61.7892 150.814 61.709 150.417 61.709C150.012 61.709 149.662 61.7892 149.37 61.9497C149.077 62.1102 148.832 62.3604 148.633 62.7002C148.444 63.0306 148.298 63.4601 148.194 63.9888C148.1 64.508 148.053 65.131 148.053 65.8579ZM165.356 74.2832C164.309 74.2832 163.379 74.1227 162.567 73.8018C161.764 73.4808 161.085 73.0182 160.528 72.4141C159.971 71.8005 159.546 71.0594 159.253 70.1909C158.961 69.3224 158.814 68.3312 158.814 67.2173V65.957C158.814 64.7109 158.956 63.6206 159.239 62.686C159.522 61.742 159.924 60.9491 160.443 60.3071C160.962 59.6652 161.599 59.1885 162.354 58.877C163.119 58.556 163.983 58.3955 164.946 58.3955C165.909 58.3955 166.754 58.556 167.48 58.877C168.217 59.1885 168.826 59.6605 169.307 60.293C169.789 60.916 170.152 61.6901 170.397 62.6152C170.643 63.5404 170.766 64.6165 170.766 65.8438V67.6562H160.5V64.8667H166.872V64.5127C166.872 63.8896 166.806 63.3704 166.673 62.9551C166.541 62.5303 166.333 62.214 166.05 62.0063C165.767 61.7987 165.389 61.6948 164.917 61.6948C164.521 61.6948 164.186 61.7751 163.912 61.9355C163.638 62.096 163.421 62.3462 163.261 62.686C163.1 63.0259 162.982 63.4696 162.907 64.0171C162.831 64.5552 162.793 65.2018 162.793 65.957V67.2173C162.793 67.9253 162.855 68.52 162.978 69.0015C163.1 69.4735 163.28 69.8605 163.516 70.1626C163.761 70.4552 164.058 70.6676 164.408 70.7998C164.757 70.9225 165.163 70.9839 165.625 70.9839C166.324 70.9839 166.952 70.8612 167.509 70.6157C168.075 70.3608 168.557 70.0163 168.953 69.582L170.539 71.9893C170.265 72.348 169.888 72.7067 169.406 73.0654C168.925 73.4242 168.349 73.7168 167.679 73.9434C167.008 74.1699 166.234 74.2832 165.356 74.2832ZM183.184 61.8647H185.11C185.61 61.8647 186.021 61.7515 186.342 61.5249C186.663 61.2889 186.899 60.9585 187.05 60.5337C187.201 60.1089 187.276 59.6133 187.276 59.0469C187.276 58.5182 187.206 58.0557 187.064 57.6592C186.922 57.2627 186.705 56.9512 186.413 56.7246C186.12 56.498 185.752 56.3848 185.308 56.3848C184.968 56.3848 184.652 56.4792 184.359 56.668C184.067 56.8568 183.831 57.1258 183.651 57.4751C183.481 57.8149 183.396 58.2256 183.396 58.707H179.403C179.403 57.5742 179.663 56.5877 180.182 55.7476C180.701 54.9074 181.4 54.2513 182.278 53.7793C183.156 53.3073 184.128 53.0713 185.195 53.0713C186.394 53.0713 187.446 53.2979 188.353 53.751C189.259 54.1947 189.967 54.8555 190.477 55.7334C190.986 56.6019 191.241 57.6781 191.241 58.9619C191.241 59.6227 191.114 60.2599 190.859 60.8735C190.613 61.4871 190.255 62.0394 189.783 62.5303C189.311 63.0117 188.735 63.394 188.055 63.6772C187.385 63.9604 186.62 64.1021 185.761 64.1021H183.184V61.8647ZM183.184 65.0791V62.9126H185.761C186.724 62.9126 187.564 63.04 188.282 63.2949C189.009 63.5404 189.608 63.8991 190.08 64.3711C190.562 64.8431 190.92 65.4048 191.156 66.0562C191.392 66.7075 191.51 67.425 191.51 68.2085C191.51 69.1714 191.35 70.0304 191.029 70.7856C190.708 71.5409 190.259 72.1781 189.684 72.6973C189.108 73.2165 188.438 73.613 187.673 73.8867C186.908 74.151 186.077 74.2832 185.181 74.2832C184.435 74.2832 183.703 74.1652 182.986 73.9292C182.278 73.6932 181.641 73.3298 181.074 72.8389C180.508 72.348 180.059 71.7297 179.729 70.9839C179.399 70.2381 179.233 69.3555 179.233 68.3359H183.198C183.198 68.8457 183.288 69.3035 183.467 69.7095C183.647 70.106 183.892 70.4175 184.204 70.644C184.525 70.8706 184.883 70.9839 185.28 70.9839C185.742 70.9839 186.144 70.8659 186.483 70.6299C186.823 70.3939 187.083 70.0635 187.262 69.6387C187.442 69.2139 187.531 68.7183 187.531 68.1519C187.531 67.425 187.437 66.8397 187.248 66.396C187.059 65.9429 186.785 65.6125 186.427 65.4048C186.068 65.1877 185.634 65.0791 185.124 65.0791H183.184Z" fill="#EEE8DC"/>
<defs>
<filter id="filter0_d_51_7355" x="20.8877" y="7.8" width="174.125" height="46" filterUnits="userSpaceOnUse" color-interpolation-filters="sRGB">
<feFlood flood-opacity="0" result="BackgroundImageFix"/>
<feColorMatrix in="SourceAlpha" type="matrix" values="0 0 0 0 0 0 0 0 0 0 0 0 0 0 0 0 0 0 127 0" result="hardAlpha"/>
<feOffset dx="3" dy="2"/>
<feComposite in2="hardAlpha" operator="out"/>
<feColorMatrix type="matrix" values="0 0 0 0 1 0 0 0 0 1 0 0 0 0 1 0 0 0 0.4 0"/>
<feBlend mode="normal" in2="BackgroundImageFix" result="effect1_dropShadow_51_7355"/>
<feBlend mode="normal" in="SourceGraphic" in2="effect1_dropShadow_51_7355" result="shape"/>
</filter>
</defs>
</svg>
