<svg width="605" height="685" viewBox="0 0 605 685" fill="none" xmlns="http://www.w3.org/2000/svg">
<path d="M71.017 0.132924C68.1226 0.502159 67.6057 0.963713 66.9855 3.91759C66.572 5.76376 66.4686 22.4716 66.572 41.0256L66.9855 74.7183L57.4752 74.9952C42.3828 75.3644 43.7266 78.5952 43.6232 42.1333C43.5199 25.0563 43.2097 8.71763 42.8996 5.94838L42.176 0.871393L24.706 0.594467C13.7485 0.502159 6.82257 0.686776 5.99559 1.33294C4.96186 2.0714 4.75512 22.287 4.85849 97.1492L4.96186 191.95L24.1892 192.227L43.4165 192.412L44.1401 189.458C44.4502 187.796 44.7603 169.335 44.7603 148.381C44.657 122.257 44.9671 109.703 45.7941 108.411C46.8278 106.657 47.7581 106.565 56.9583 106.749L66.9855 107.026L67.5023 149.211C67.8124 172.381 68.4327 191.673 68.8462 192.135C69.8799 193.058 106.267 193.15 107.301 192.227C107.714 191.858 107.611 165.642 106.991 134.073C106.37 102.411 105.957 76.1029 105.957 75.6413C105.957 75.0875 106.164 67.0566 106.37 57.6412C106.577 48.2257 106.474 31.8871 106.06 21.2716L105.233 1.88679L102.132 1.24063C98.5141 0.502159 75.6688 -0.328619 71.017 0.132924ZM88.1768 89.0261C88.1768 89.4876 87.4532 89.9492 86.6263 89.9492C85.7993 89.9492 85.0757 89.4876 85.0757 89.0261C85.0757 88.4722 85.7993 88.103 86.6263 88.103C87.4532 88.103 88.1768 88.4722 88.1768 89.0261ZM83.8352 137.211C83.215 138.873 80.9408 139.15 80.9408 137.58C80.9408 136.75 81.6644 136.103 82.5947 136.103C83.5251 136.103 84.0419 136.565 83.8352 137.211Z" fill="#151515"/>
<path d="M165.189 1.24046C159.504 1.51739 154.335 2.07124 153.715 2.44047C152.371 3.27125 150.51 14.6252 143.481 65.4872C140.38 87.8259 136.865 112.288 135.831 119.949C132.627 141.365 127.458 183.55 127.458 187.611V191.211L133.764 191.858C145.342 192.873 159.194 192.504 160.848 191.119C161.675 190.381 163.225 184.011 164.569 175.15C165.913 167.119 167.257 159.088 167.67 157.334L168.394 154.103H193.1L194.444 157.796C195.167 159.827 197.028 168.042 198.475 175.981C200.026 183.919 201.576 191.027 201.99 191.673C202.61 192.596 207.158 192.965 219.563 193.058L236.31 193.335L235.586 182.442C235.172 176.534 234.242 167.027 233.415 161.488C232.588 155.857 230.314 139.057 228.247 124.103C216.152 32.9946 211.81 4.28664 210.26 2.90201C208.089 0.963534 186.484 0.225066 165.189 1.24046ZM181.522 79.9797C181.832 81.6412 182.556 86.1643 183.176 89.949C183.796 93.7336 185.037 101.211 185.967 106.565C186.897 111.918 187.414 117.272 187.311 118.565C186.897 120.688 186.484 120.872 179.971 121.149L172.942 121.426V116.534C172.942 112.565 176.043 93.549 178.834 79.5181C179.558 76.1027 180.902 76.3796 181.522 79.9797Z" fill="#151515"/>
<path d="M262.36 1.33276C258.328 1.7943 258.225 1.88661 257.501 5.94818C256.467 12.2252 256.674 84.4105 257.708 84.4105C259.052 84.4105 262.049 89.8567 261.533 91.149C261.326 91.7951 260.292 90.9644 259.155 89.3951C257.191 86.5336 257.191 86.9028 257.191 132.78C257.191 158.257 257.294 182.073 257.501 185.673L257.708 192.411H295.956L296.059 188.442C296.162 186.319 296.266 168.319 296.369 148.565C296.369 128.719 296.783 112.103 297.196 111.549C298.333 110.072 310.014 111.734 314.046 113.949C315.803 114.872 317.767 116.718 318.388 117.826C319.111 119.118 319.835 128.903 320.248 142.103C320.972 167.304 322.212 180.504 324.59 187.611L326.244 192.411L345.988 192.227L365.732 191.95L365.422 185.95C365.215 182.627 364.492 177.642 363.665 174.873C362.838 172.011 361.701 162.042 361.08 152.719C359.53 126.042 358.186 118.565 354.051 112.103C351.26 107.672 350.226 106.657 341.543 100.841L335.961 97.0567L338.442 95.3952C339.786 94.4721 343.404 92.6259 346.298 91.3336C352.501 88.749 357.359 83.4874 359.116 77.5796C359.737 75.4565 360.357 65.6718 360.46 55.7948C360.564 36.3177 359.633 31.333 354.258 20.9945C349.296 11.6713 337.201 3.73278 326.141 2.53277C321.592 2.07122 320.765 2.25584 320.765 3.54816C320.765 4.47125 319.938 5.0251 318.284 5.0251C314.976 5.0251 313.943 3.54816 316.32 2.34815C318.594 1.14814 321.282 1.33276 290.787 1.05583C277.452 0.963522 264.634 1.05583 262.36 1.33276ZM338.338 12.4098C338.338 12.8713 337.615 13.3329 336.788 13.3329C335.961 13.3329 335.237 12.8713 335.237 12.4098C335.237 11.8559 335.961 11.4867 336.788 11.4867C337.615 11.4867 338.338 11.8559 338.338 12.4098ZM314.356 34.01C319.111 36.2254 320.042 40.4716 319.525 57.1794C318.801 77.1181 316.63 80.4412 303.709 81.4566L296.989 81.9181V61.241C297.093 49.8871 297.403 38.5331 297.713 36.0408L298.333 31.5177L304.639 31.9792C308.154 32.2561 312.495 33.1792 314.356 34.01ZM353.844 73.8873C353.844 74.6258 353.121 75.1796 352.294 75.1796C350.743 75.1796 350.123 73.2411 351.363 72.1334C352.397 71.3026 353.844 72.318 353.844 73.8873ZM305.259 91.4259C305.259 92.1644 304.536 92.7182 303.709 92.7182C302.158 92.7182 301.538 90.7798 302.778 89.6721C303.812 88.8413 305.259 89.8567 305.259 91.4259Z" fill="#151515"/>
<path d="M383.409 4.28671C382.479 8.53291 382.685 84.4105 383.719 84.4105C385.063 84.4105 387.957 90.7798 386.82 91.3337C386.303 91.7029 385.166 90.5029 384.443 88.8414C383.099 86.1644 382.995 92.5337 383.099 138.873L383.306 191.95L401.809 192.227C412.043 192.319 420.726 192.135 421.243 191.673C421.657 191.304 422.07 173.027 422.07 151.057C422.174 121.149 422.484 111.18 423.414 111.088C431.477 110.442 438.92 112.472 442.642 116.257L445.846 119.58V135.457C445.846 156.504 447.707 180.596 449.878 186.873L451.635 191.95L471.379 192.227C493.914 192.504 492.881 192.873 491.123 184.011C490.606 181.242 489.469 175.704 488.746 171.642C487.919 167.581 486.988 158.257 486.575 150.873C486.265 143.488 485.334 132.965 484.507 127.519C482.543 113.488 478.615 107.488 466.21 100.103C464.143 98.8107 462.386 97.5184 462.386 97.1491C462.386 96.226 467.348 93.3645 472.93 90.9645C478.822 88.4721 483.474 82.5644 485.024 75.8258C485.645 73.1489 486.265 63.918 486.368 55.3334C486.575 41.764 486.265 38.6255 484.301 31.9793C481.406 22.1946 477.685 16.0099 471.689 11.3022C462.592 4.1021 449.361 0.0405201 446.466 3.64055C445.122 5.30211 441.608 5.30211 440.988 3.45594C440.781 2.90209 441.401 2.25594 442.435 1.97901C443.468 1.70209 430.754 1.51747 414.214 1.42516L384.133 1.33285L383.409 4.28671ZM464.453 12.4099C464.453 12.8714 463.73 13.333 462.903 13.333C462.076 13.333 461.352 12.8714 461.352 12.4099C461.352 11.856 462.076 11.4868 462.903 11.4868C463.73 11.4868 464.453 11.856 464.453 12.4099ZM440.677 34.4716C445.122 37.3332 446.156 41.8563 445.536 56.9949C445.122 67.6104 444.502 71.3027 443.055 73.9797C440.161 79.2413 436.749 80.9951 429.1 81.0874L422.587 81.1797L423.001 56.718C423.207 43.2409 423.518 31.9793 423.724 31.7024C424.448 30.5947 438.196 32.8101 440.677 34.4716ZM479.752 73.6104C479.959 74.5335 479.442 75.1797 478.512 75.1797C476.651 75.1797 475.514 73.7028 476.341 72.3181C477.271 71.0258 479.339 71.7643 479.752 73.6104ZM431.374 91.426C431.374 92.1645 430.444 92.7183 429.306 92.7183C427.032 92.7183 426.619 91.7952 428.479 90.1337C429.823 88.9337 431.374 89.4875 431.374 91.426ZM477.892 142.103C477.892 142.842 477.478 143.488 476.858 143.488C476.341 143.488 475.824 142.842 475.824 142.103C475.824 141.365 476.341 140.719 476.858 140.719C477.478 140.719 477.892 141.365 477.892 142.103Z" fill="#151515"/>
<path d="M574.235 0.317362C571.134 0.778905 570.41 1.42506 568.343 6.1328C566.999 9.08668 564.932 14.7175 563.795 18.5945C557.386 40.3793 555.421 46.8409 555.008 47.3024C554.284 47.8563 551.803 42.1331 550.253 36.41C549.529 33.6408 548.496 30.5023 547.875 29.4869C547.255 28.4715 545.498 22.7483 543.947 16.8406C542.293 10.8405 540.329 4.65586 539.399 3.17893L537.745 0.409671H519.241C509.007 0.409671 500.634 0.778905 500.634 1.14814C500.634 2.80969 518.621 63.1795 526.167 86.7182C527.614 91.2413 529.165 95.3952 529.578 95.949C531.439 98.1644 531.852 106.657 532.266 147.18C532.473 170.811 532.886 190.658 533.196 191.211C533.506 192.135 538.158 192.411 551.597 192.411H569.687L570.307 189.642C570.617 188.073 571.237 180.688 571.548 173.119L572.271 159.457L569.79 158.811C567.516 158.257 567.516 158.165 569.17 157.242C570.721 156.411 570.927 154.288 570.927 134.903V113.488L575.476 99.6414C582.608 77.5796 590.465 51.8255 593.049 41.9485C593.876 38.6254 595.737 32.9946 597.081 29.4869C599.975 22.0099 605.661 1.60968 604.937 1.05583C604.213 0.409671 577.853 -0.144181 574.235 0.317362ZM507.353 3.17893C508.387 4.19432 508.904 5.30202 508.594 5.57895C507.767 6.31742 502.701 3.45585 502.701 2.25584C502.701 0.686597 505.389 1.24045 507.353 3.17893ZM543.017 29.9484C544.257 30.0407 544.154 30.3176 542.603 31.333C541.259 32.2561 540.122 32.3484 538.778 31.7023C535.987 30.41 536.298 28.6561 539.192 29.3946C540.432 29.6715 542.19 29.9484 543.017 29.9484ZM579.197 37.7946C580.644 39.3639 579.714 41.1177 577.647 40.5639C572.581 39.1793 572.685 39.1793 574.029 37.7946C575.683 36.0408 577.543 36.0408 579.197 37.7946ZM546.118 41.0254C546.118 41.8562 542.913 43.7947 541.466 43.7947C541.156 43.7947 541.363 42.9639 541.983 41.9485C543.12 40.1024 546.118 39.3639 546.118 41.0254ZM577.336 49.3332C577.957 52.9332 576.406 53.8563 575.062 50.7178C573.718 47.487 573.718 46.564 575.476 46.564C576.303 46.564 577.13 47.764 577.336 49.3332ZM568.24 48.964C570.307 49.7024 570.514 54.8717 568.446 54.8717C566.896 54.8717 565.759 52.9332 565.759 50.164C565.759 48.2255 565.862 48.1332 568.24 48.964ZM574.649 67.6103C574.235 67.8872 573.512 67.7026 572.788 67.0565C571.961 66.318 571.961 65.6718 573.098 64.4718C574.442 62.9949 574.545 62.9949 574.856 64.9334C575.062 66.1334 574.959 67.2411 574.649 67.6103ZM533.713 85.7951C533.713 86.5336 533.3 87.1797 532.679 87.1797C532.163 87.1797 531.646 86.5336 531.646 85.7951C531.646 85.0566 532.163 84.4105 532.679 84.4105C533.3 84.4105 533.713 85.0566 533.713 85.7951ZM573.512 89.0259C572.995 89.7644 572.375 89.7644 571.754 89.2105C571.134 88.6567 571.031 87.7336 571.444 87.1797C571.961 86.4413 572.581 86.4413 573.202 86.9951C573.822 87.549 573.925 88.472 573.512 89.0259Z" fill="#151515"/>
<path d="M5.58212 201.458L0 201.735L0.620236 255.828C1.03373 285.643 1.34384 323.582 1.34384 340.198V370.383L15.0924 371.029C22.6386 371.398 30.3916 371.306 32.3556 370.844L35.9737 370.013L36.1804 339.552C36.3872 322.844 36.6973 307.059 37.0074 304.474L37.6276 299.767L53.0302 299.213C76.1857 298.382 84.042 295.151 89.8308 283.982C93.6556 276.505 94.6894 267.92 94.0691 248.72C93.3455 226.012 90.5545 216.873 82.2846 209.766C76.0823 204.412 69.6732 202.381 57.6819 202.012C41.7626 201.458 11.7845 201.181 5.58212 201.458ZM51.2728 232.658C54.2706 233.489 55.0976 237.089 55.0976 250.197C55.0976 268.105 53.7538 270.135 42.176 270.32L38.0411 270.412L37.731 251.674C37.5243 233.027 37.5243 232.935 39.7985 232.104C41.9693 231.274 46.9312 231.55 51.2728 232.658Z" fill="#151515"/>
<path d="M145.239 201.735C128.389 203.673 119.499 208.842 112.78 220.566C109.575 226.012 109.472 226.381 108.645 244.751C108.128 255.089 107.921 270.689 108.024 279.366L108.335 295.336L111.229 295.613C113.813 295.889 115.364 297.643 112.986 297.643C112.469 297.643 111.953 298.289 111.953 299.028C111.953 300.874 110.195 300.782 108.851 298.751C106.991 296.074 108.231 338.444 110.195 344.536C114.847 358.936 125.908 367.336 143.791 370.106C150.821 371.213 152.061 371.213 154.232 369.921C156.506 368.629 156.816 368.629 157.643 369.921C158.264 370.936 159.504 371.213 162.398 370.936C175.837 369.275 186.381 365.305 192.687 359.398C194.857 357.367 197.649 353.398 198.992 350.444L201.37 345.182V290.259C201.37 242.166 201.163 234.504 199.613 228.689C196.925 218.35 190.102 209.858 181.109 205.796C173.459 202.289 156.61 200.35 145.239 201.735ZM162.812 232.197C164.673 234.135 164.673 237.089 164.466 285.643C164.156 334.474 164.052 337.244 162.192 339.09C159.091 342.136 154.129 343.244 149.89 341.582C146.376 340.29 146.272 340.013 145.549 334.013C144.308 323.859 145.549 236.535 146.893 234.227C149.477 230.073 151.338 229.15 156.299 229.612C159.504 229.889 161.571 230.72 162.812 232.197Z" fill="#151515"/>
<path d="M220.493 201.55L212.74 202.104L211.913 212.443C211.5 218.166 211.5 224.166 212.016 225.827C212.74 228.412 213.464 228.966 216.978 229.52C219.149 229.889 225.041 230.166 230.003 230.166C234.965 230.258 239.307 230.627 239.617 231.181C239.927 231.643 240.237 261.643 240.237 297.828C240.237 334.013 240.547 365.306 240.961 367.244L241.684 370.936H256.88C269.182 371.029 272.386 370.752 273.73 369.644C275.074 368.352 275.281 360.044 275.281 301.797C275.281 265.243 275.591 234.412 275.901 233.304C276.521 231.274 277.038 231.181 290.683 230.997L304.742 230.72V217.15C304.742 209.304 304.328 203.212 303.708 202.658C302.468 201.643 231.967 200.627 220.493 201.55ZM277.658 227.858C277.968 228.597 277.968 229.427 277.658 229.704C276.935 230.35 274.247 228.504 274.247 227.397C274.247 226.012 277.038 226.474 277.658 227.858Z" fill="#151515"/>
<path d="M317.147 201.366C314.356 201.55 311.461 202.196 310.738 202.75C308.67 204.227 308.877 226.843 310.944 228.412C311.875 229.15 317.147 229.797 324.693 230.074C331.826 230.35 337.098 230.904 337.511 231.55C337.925 232.104 338.338 263.397 338.338 300.966C338.338 354.69 338.648 369.552 339.682 370.198C341.439 371.398 370.073 371.213 371.314 370.106C372.038 369.459 372.658 345.644 373.071 301.336C373.381 264.043 373.795 232.935 374.105 232.289C374.312 231.458 378.137 231.181 388.474 231.181H402.532L402.222 216.966C402.016 209.119 401.706 202.473 401.292 202.196C400.672 201.55 324.486 200.812 317.147 201.366ZM375.035 228.227C375.035 229.889 372.968 229.612 372.658 227.858C372.348 226.935 372.761 226.473 373.692 226.75C374.415 227.027 375.035 227.673 375.035 228.227Z" fill="#151515"/>
<path d="M418.969 201.458C411.216 202.012 411.423 200.996 412.25 227.397C412.56 240.412 413.284 277.613 413.8 310.013C414.317 342.505 415.144 369.367 415.661 369.829C416.695 370.752 486.678 372.044 490.606 371.121L493.397 370.567V344.998L487.092 344.352C483.577 344.075 473.343 343.798 464.35 343.798C453.599 343.798 447.81 343.429 447.293 342.782C446.466 341.582 446.776 298.105 447.603 296.074C448.12 294.782 450.084 294.69 462.902 295.336C474.687 295.797 477.891 295.705 478.512 294.69C479.649 293.213 480.372 274.474 479.545 271.336L478.925 269.12L447.397 268.566L447.086 249.274C446.88 236.258 447.19 229.612 447.913 228.966C448.637 228.32 456.183 227.951 468.898 227.951H488.746L488.952 217.335C489.366 203.673 489.056 202.75 484.817 202.196C480.993 201.643 425.792 200.996 418.969 201.458ZM435.509 337.428C435.509 337.89 434.785 338.259 433.958 338.259C432.407 338.259 431.891 337.152 433.028 336.136C433.855 335.398 435.509 336.228 435.509 337.428ZM443.778 338.259C443.778 338.721 443.055 339.182 442.228 339.182C441.401 339.182 440.677 338.721 440.677 338.259C440.677 337.705 441.401 337.336 442.228 337.336C443.055 337.336 443.778 337.705 443.778 338.259Z" fill="#151515"/>
<path d="M505.906 204.227C505.285 205.242 504.769 220.012 504.665 240.043C504.459 273.366 504.562 274.197 506.733 277.335C509.11 280.935 509.42 281.951 507.87 281.951C507.353 281.951 506.319 280.935 505.596 279.735C504.458 277.797 504.252 285.643 504.562 323.767C504.769 358.936 505.079 370.198 506.112 370.752C507.766 371.675 535.884 371.675 537.538 370.752C538.468 370.198 538.882 361.152 538.985 334.844C539.088 309.828 539.502 299.489 540.329 299.213C542.706 298.382 551.08 300.136 554.698 302.166C556.868 303.274 558.729 305.12 558.936 306.228C559.246 307.336 559.866 319.243 560.486 332.721C561.727 359.398 561.934 361.982 564.001 367.429L565.448 371.029L581.885 371.306C595.426 371.49 598.528 371.306 599.458 370.198C600.285 369.182 600.182 366.782 599.148 361.613C596.977 349.613 595.737 340.013 595.737 333.182C595.737 329.582 595.013 321.828 594.186 315.736C592.429 302.351 589.534 297.274 580.024 291.182C573.098 286.566 573.098 286.474 582.298 282.135C593.359 276.874 595.633 271.058 595.737 247.704C595.737 229.427 591.085 217.519 580.851 210.227C572.684 204.319 561.624 201.458 560.176 204.873C559.556 206.535 556.868 206.719 555.835 205.242C555.525 204.689 555.835 203.858 556.558 203.396C557.385 202.935 547.462 202.565 532.472 202.565C508.8 202.565 506.836 202.658 505.906 204.227ZM555.318 231.366C559.143 233.489 559.763 236.812 559.349 250.751C558.832 264.597 557.489 269.858 553.664 271.612C550.976 272.905 541.673 273.828 540.329 272.997C539.605 272.443 539.398 265.612 539.709 250.658L540.225 229.058L546.738 229.612C550.253 229.889 554.181 230.72 555.318 231.366ZM589.844 265.705C590.465 267.181 587.88 268.474 586.95 267.181C586.226 266.166 587.157 264.412 588.5 264.412C588.914 264.412 589.534 264.966 589.844 265.705ZM547.151 281.397C547.151 282.135 546.428 282.874 545.601 283.243C544.05 283.705 543.43 281.951 544.774 280.751C545.911 279.643 547.151 280.012 547.151 281.397Z" fill="#151515"/>
<path d="M2.37737 414.598C2.37737 433.337 2.37737 460.845 2.37737 475.799C2.37737 490.753 2.37737 506.168 2.37737 510.138V517.153L143.068 517.245C246.337 517.338 284.171 517.061 285.205 516.322C286.239 515.584 286.652 515.584 286.652 516.322C286.652 517.061 329.242 517.245 444.502 517.061L602.456 516.876V380.721H2.37737V414.598ZM127.148 388.66C127.458 389.49 127.148 390.506 126.425 390.875C125.701 391.244 125.391 391.983 125.701 392.444C126.321 393.367 126.941 416.168 127.975 474.968L128.492 506.907L124.15 507.368C121.669 507.645 115.777 507.645 111.022 507.276L102.235 506.722L100.892 502.107C99.651 498.138 94.1723 474.691 91.0711 460.568C90.4509 457.983 89.6239 454.291 89.2104 452.26C88.6935 450.137 88.4868 461.214 88.5902 478.014L88.6935 507.461L80.0102 507.83C74.4281 508.015 70.8101 507.738 69.8797 506.999C68.846 506.261 68.4325 504.045 68.5359 499.43C68.6392 495.83 68.4325 469.799 68.019 441.645C67.3988 398.26 67.5021 390.137 68.7426 389.306C69.673 388.567 74.0146 388.29 81.4575 388.475L92.8284 388.66L95.1026 397.429C97.3768 406.291 99.5477 414.506 103.993 431.306C105.44 436.568 106.887 441.091 107.301 441.46C107.611 441.829 107.714 437.491 107.404 431.952C105.75 402.69 105.647 390.229 106.99 389.213C107.817 388.66 111.229 388.013 114.537 387.829C117.948 387.644 122.083 387.46 123.633 387.367C125.391 387.275 126.735 387.737 127.148 388.66ZM155.576 388.475C163.122 388.752 167.67 389.398 169.944 390.506C172.322 391.521 173.459 391.706 173.769 390.967C173.976 390.413 174.596 390.229 175.216 390.506C175.94 390.875 175.837 391.337 175.01 391.798C173.976 392.352 174.286 393.09 175.94 394.66C183.073 401.398 184.106 407.398 184.933 444.414C185.554 474.876 185.14 482.722 182.142 492.784C180.799 497.122 174.803 502.753 169.117 504.876C164.362 506.722 139.346 508.199 137.072 506.722C135.935 505.984 135.625 495.461 135.315 448.106C135.004 414.414 135.211 389.86 135.831 388.937C136.452 387.737 137.692 387.46 140.587 387.736C142.757 387.921 149.477 388.198 155.576 388.475ZM277.555 390.506C282.621 392.813 285.102 395.398 288.306 401.952C289.857 405.275 290.27 408.137 290.27 417.183V428.26L283.034 428.352C273.937 428.445 271.87 427.706 272.904 424.291C273.937 420.506 273.627 412.844 272.283 409.244C271.663 407.398 269.906 405.367 268.459 404.629C265.978 403.521 265.564 403.521 263.807 405.552C259.982 409.706 261.843 420.321 268.045 429.829C268.872 431.122 272.387 436.568 275.901 441.829C279.313 447.091 283.448 454.014 284.998 457.337C286.549 460.66 288.203 464.168 288.72 465.183C292.441 472.937 292.648 487.984 289.03 494.814C286.549 499.614 279.209 505.891 275.074 506.63C269.182 507.645 260.706 507.184 257.398 505.707C246.027 500.445 243.339 495.738 242.512 479.768C241.788 466.014 241.892 465.737 250.678 466.291C254.193 466.476 257.294 466.845 257.811 467.03C258.225 467.306 258.845 471.368 259.258 475.983C260.292 488.445 263.807 492.691 270.319 489.553C272.283 488.63 272.387 487.984 271.767 482.445C271.353 479.03 270.423 475.984 269.596 475.43C267.942 474.322 262.773 466.106 256.571 455.029C254.4 451.06 252.022 447.276 251.505 446.814C250.885 446.26 250.472 445.337 250.472 444.691C250.472 443.952 249.025 440.722 247.371 437.491C236.413 416.629 240.134 395.86 255.847 389.213C261.326 386.998 270.94 387.552 277.555 390.506ZM318.491 388.567C319.835 389.675 320.042 503.122 318.801 505.245C317.767 506.999 316.734 507.184 309.498 507.184C301.434 507.184 297.92 505.891 299.574 503.491C299.884 503.03 299.367 502.568 298.333 502.568C296.886 502.568 296.783 502.384 297.816 501.738C298.954 501.184 299.264 497.861 299.16 487.337C299.057 479.86 298.747 473.307 298.333 472.753C298.023 472.199 298.54 471.276 299.574 470.63C301.124 469.614 301.228 468.968 300.194 466.383C299.47 464.63 298.747 454.291 298.437 441.275C298.127 429.091 297.713 418.845 297.403 418.475C297.196 418.106 297.506 417.46 298.127 417.183C298.747 416.814 298.954 415.152 298.643 413.121C297.61 406.844 297.506 390.044 298.54 389.121C299.16 388.66 301.021 388.013 302.675 387.829C306.603 387.275 317.561 387.736 318.491 388.567ZM422.174 388.752C422.794 389.306 423.931 396.137 424.758 403.891C425.585 411.737 427.342 427.06 428.79 437.952C430.133 448.845 432.097 464.445 432.924 472.568C433.855 480.691 435.199 491.307 435.922 496.107C437.059 503.861 437.059 504.968 435.716 505.984C433.751 507.368 417.315 507.645 416.385 506.353C416.075 505.799 415.248 501.091 414.628 495.737C413.594 487.707 413.077 486.045 411.526 485.676C409.252 485.122 403.257 485.861 402.119 486.784C401.706 487.153 401.086 491.491 400.672 496.384C400.362 501.368 399.535 505.891 398.915 506.63C397.468 508.199 381.135 509.492 380.204 508.107C379.894 507.645 375.553 507.184 370.591 507.184C358.496 507.184 357.152 506.722 355.912 502.661C355.395 500.814 354.878 490.753 354.982 480.414C354.982 462.137 354.878 461.399 352.707 459.829C351.467 458.999 349.813 458.26 348.986 458.26C347.642 458.26 347.435 461.214 347.952 481.707C348.366 498.322 348.159 505.43 347.332 506.168C345.678 507.645 329.552 507.553 328.311 505.984C327.691 505.338 327.278 483.276 327.174 449.676C327.071 419.306 326.761 393.644 326.451 392.721C326.141 391.798 326.554 390.413 327.588 389.583C329.035 388.29 331.516 388.106 344.231 388.29C359.013 388.475 359.22 388.567 363.872 391.337C366.973 393.09 369.66 395.767 371.418 398.721C375.966 406.383 376.69 410.444 376.173 425.491C375.759 440.629 374.829 443.306 369.247 447.645C367.49 448.937 366.766 449.952 367.49 449.952C369.557 449.952 374.105 454.476 375.553 457.799C376.276 459.553 376.69 467.122 376.69 477.645C376.69 487.06 377.103 496.199 377.517 497.953C378.24 500.907 378.344 500.63 379.067 494.722C379.481 491.122 380.411 483.091 381.238 476.722C381.962 470.353 382.582 463.891 382.582 462.414C382.479 458.814 384.649 440.537 385.89 435.183C386.407 432.875 387.027 428.352 387.441 425.029C387.751 421.706 388.681 415.706 389.508 411.644C390.335 407.583 390.955 401.49 391.059 398.167C391.059 389.121 392.299 388.198 403.98 387.829C416.592 387.46 420.933 387.644 422.174 388.752ZM236.827 397.244C237.033 403.614 236.723 406.198 235.793 406.752C235.069 407.121 229.694 407.491 223.905 407.491C211.294 407.491 212.224 406.106 212.534 424.106L212.741 436.568L222.044 437.029C227.213 437.306 231.865 437.768 232.485 438.137C233.622 438.783 233.415 455.306 232.278 456.322C232.071 456.599 227.42 456.691 222.148 456.506L212.431 456.229L212.637 471.922C212.637 480.599 212.947 487.891 213.258 488.168C213.568 488.445 218.736 488.814 224.835 488.999C230.831 489.276 236.31 489.737 236.93 490.014C238.274 490.845 237.86 504.968 236.413 506.261C235.379 507.184 194.34 507.645 192.686 506.815C192.17 506.445 191.653 489.368 191.653 467.768C191.549 446.537 191.343 420.875 191.032 410.721C190.722 395.675 190.929 391.89 192.17 390.137C193.72 388.106 193.824 388.106 215.118 388.29L236.516 388.567L236.827 397.244ZM478.719 391.521C488.022 398.167 490.813 405.644 490.09 422.168C489.573 434.168 487.919 439.337 483.577 442.568C482.13 443.583 482.13 443.952 483.474 445.245C484.301 446.076 486.265 449.029 487.919 451.799C490.71 456.783 490.813 457.153 490.606 472.291C490.503 487.337 490.4 487.891 487.505 493.522C483.68 500.815 479.442 504.876 474.17 506.261C468.588 507.83 442.952 508.661 441.401 507.276C439.85 505.891 439.23 391.06 440.781 389.306C441.711 388.383 445.536 388.198 458.458 388.475C474.894 388.844 474.894 388.844 478.719 391.521ZM517.793 393.183C518 398.075 519.137 473.307 519.241 482.907V488.63L543.533 489.184L543.843 498.138C544.153 506.999 544.05 507.184 541.776 507.276C532.989 507.645 500.013 506.907 499.393 506.353C498.98 505.984 498.359 491.214 498.153 473.491C497.843 455.676 497.326 429.737 496.912 415.706C496.499 401.675 496.602 389.675 497.016 389.121C497.429 388.383 501.047 388.106 507.663 388.29L517.69 388.567L517.793 393.183ZM594.496 397.244C594.703 403.614 594.393 406.198 593.462 406.752C592.739 407.121 587.57 407.398 581.988 407.306C576.509 407.306 571.651 407.398 571.34 407.675C570.513 408.414 569.997 427.706 570.617 432.875L571.237 437.029H579.817C591.188 437.029 591.602 437.399 590.981 447.829C590.775 452.26 590.361 456.045 590.051 456.229C589.844 456.506 585.296 456.599 579.92 456.506L570.307 456.322L570.72 472.291C570.927 481.06 571.237 488.353 571.34 488.445C571.444 488.537 576.509 488.814 582.505 489.091C588.604 489.276 594.082 489.737 594.703 490.107C596.253 490.937 595.84 505.061 594.186 506.261C592.945 507.184 552.113 507.738 550.459 506.815C549.942 506.538 549.425 487.984 549.219 462.23C549.115 437.952 548.909 411.552 548.702 403.614C548.598 395.583 548.909 389.306 549.322 389.583C549.839 389.86 550.252 389.583 550.252 389.029C550.252 388.383 556.972 388.106 572.271 388.29L594.186 388.567L594.496 397.244ZM31.0116 390.137C31.6318 390.875 32.1487 408.414 32.3554 435.645C32.6656 488.907 32.6656 488.63 34.3195 489.645C36.1802 490.661 39.2814 489.737 40.1084 487.984C40.4185 487.061 40.6253 474.599 40.5219 460.106C40.3151 445.614 40.2118 423.829 40.2118 411.644L40.1084 389.49L48.8951 389.213C53.7536 389.121 58.302 389.306 58.9222 389.767C59.9559 390.321 60.2661 402.414 60.4728 441.183L60.7829 491.953L58.1986 496.476C53.2367 505.245 43.5197 509.676 32.9757 508.107C23.1553 506.722 17.3664 502.753 14.1619 495.184C12.6113 491.491 12.3011 485.03 11.7843 441.645C11.3708 414.506 11.4742 391.521 11.991 390.598C12.6113 389.306 14.1619 389.029 21.3979 389.029C27.0834 389.029 30.3914 389.398 31.0116 390.137Z" fill="#151515"/>
<path d="M156.299 407.029C155.989 407.214 155.886 418.752 156.092 432.598C156.196 446.445 156.402 464.537 156.402 472.753V487.799H159.4C164.982 487.799 164.982 488.168 164.466 448.199C164.052 415.614 163.742 411.091 162.191 408.967C160.641 406.844 157.54 405.829 156.299 407.029Z" fill="#151515"/>
<path d="M347.021 423.091C347.228 432.783 347.642 440.999 347.952 441.368C348.365 441.737 349.916 441.645 351.466 441.091C353.43 440.537 354.568 439.245 355.188 437.029C356.325 433.337 355.395 408.506 354.154 407.398C353.637 406.937 351.776 406.383 350.019 406.014L346.815 405.46L347.021 423.091Z" fill="#151515"/>
<path d="M407.392 437.491C406.978 439.983 406.668 442.752 406.668 443.491C406.565 444.229 406.151 447.737 405.634 451.337C403.464 466.199 403.36 469.614 405.118 468.968C406.048 468.691 407.702 468.414 408.839 468.414C411.217 468.414 411.217 470.814 408.736 440.722C408.115 433.06 408.012 432.968 407.392 437.491Z" fill="#151515"/>
<path d="M462.696 407.767C462.179 408.321 461.766 415.337 461.766 423.183C461.869 436.937 461.973 437.491 463.937 437.214C465.074 437.029 466.521 436.291 467.141 435.552C469.519 432.875 469.932 419.121 467.968 410.537C467.451 407.86 464.04 406.106 462.696 407.767Z" fill="#151515"/>
<path d="M461.351 471.645C461.351 489.922 461.455 490.199 466.624 487.799C468.484 486.876 468.588 485.676 468.588 472.568C468.588 459.46 468.381 458.076 466.52 456.414C465.383 455.399 463.729 454.568 462.902 454.568C461.558 454.568 461.351 457.06 461.351 471.645Z" fill="#151515"/>
<path d="M2.06752 527.215C1.03379 528.046 1.24054 562.754 2.17089 564.138C2.79113 564.969 8.26988 565.338 21.5016 565.523L40.1087 565.8V645.185L21.5016 645.462C8.26988 645.647 2.79113 646.016 2.17089 646.847C1.7574 647.4 1.34391 655.893 1.34391 665.585C1.34391 679.062 1.65403 683.493 2.68775 684.232C3.61811 684.97 21.605 685.155 63.2641 684.878C95.9299 684.693 122.703 684.324 123.014 684.139C123.84 683.401 123.427 647.216 122.6 646.477C122.083 646.016 112.883 645.554 102.132 645.462L82.4914 645.185L82.2847 613.985C82.1813 590.631 82.3881 582.877 83.3184 582.969C84.3522 582.969 91.4849 590.723 112.47 614.631C129.113 633.554 175.217 684.416 175.837 684.509C176.25 684.509 199.303 684.601 227.006 684.693C262.463 684.786 277.762 684.601 278.486 683.862C279.003 683.309 279.52 657.647 279.623 624.323L279.933 565.8L317.147 564.877V527.03H198.269V564.877L236.517 565.8L236.723 593.492L237.034 621.185L234.139 618.323C232.589 616.754 228.971 612.877 225.973 609.554C213.051 595.338 190.826 570.415 188.448 567.646C184.417 562.846 161.675 537.738 156.093 531.83L151.028 526.569H76.9093C36.0771 526.569 2.37763 526.846 2.06752 527.215Z" fill="#151515"/>
<path d="M513.038 533.123C511.074 536.723 507.973 540.877 506.112 542.353L502.598 545.03H473.86C448.534 545.03 444.916 545.215 444.399 546.507C443.158 549.369 443.675 578.723 445.019 579.923C445.846 580.662 451.738 581.031 464.66 581.031H483.06V647.493H464.04C446.673 647.493 444.916 647.678 444.399 649.154C443.572 651.37 444.399 683.493 445.329 684.232C446.363 685.155 599.148 685.063 600.595 684.139C601.836 683.309 602.559 651.924 601.319 648.97C600.802 647.678 598.424 647.493 582.195 647.493H563.691V526.569H516.656L513.038 533.123Z" fill="#151515"/>
<path d="M341.439 580.2C331.929 581.307 326.347 582.692 319.421 585.923C296.059 596.815 298.126 621.369 323.246 631.893C331.929 635.493 338.235 636.416 355.395 636.416C371.521 636.416 377.206 635.769 386.407 632.631C394.056 630.046 402.429 622.939 404.29 617.4C406.151 611.769 405.841 603.369 403.566 598.938C396.33 584.723 370.384 576.877 341.439 580.2ZM362.114 596.908C367.386 600.138 369.557 603.277 369.557 607.985C369.867 621.554 349.916 626.908 342.68 615.277C335.134 603.277 349.813 589.431 362.114 596.908Z" fill="#151515"/>
<path d="M323.246 646.847C322.936 647.585 322.832 651.185 323.039 654.97L323.349 661.801H387.44V646.108L355.602 645.831C329.552 645.647 323.763 645.831 323.246 646.847Z" fill="#151515"/>
</svg>
