<svg width="1010" height="72" viewBox="0 0 1010 72" fill="none" xmlns="http://www.w3.org/2000/svg">
<mask id="path-1-inside-1_51_7354" fill="white">
<path d="M0 0H1010V72H0V0Z"/>
</mask>
<path d="M0 8H1010V-8H0V8Z" fill="black" mask="url(#path-1-inside-1_51_7354)"/>
<path d="M53.3281 52.2344C52.4609 52.2344 51.6914 52.1016 51.0195 51.8359C50.3555 51.5703 49.793 51.1875 49.332 50.6875C48.8711 50.1797 48.5195 49.5664 48.2773 48.8477C48.0352 48.1289 47.9141 47.3086 47.9141 46.3867V45.3438C47.9141 44.3125 48.0312 43.4102 48.2656 42.6367C48.5 41.8555 48.832 41.1992 49.2617 40.668C49.6914 40.1367 50.2188 39.7422 50.8438 39.4844C51.4766 39.2188 52.1914 39.0859 52.9883 39.0859C53.7852 39.0859 54.4844 39.2188 55.0859 39.4844C55.6953 39.7422 56.1992 40.1328 56.5977 40.6562C56.9961 41.1719 57.2969 41.8125 57.5 42.5781C57.7031 43.3438 57.8047 44.2344 57.8047 45.25V46.75H49.3086V44.4414H54.582V44.1484C54.582 43.6328 54.5273 43.2031 54.418 42.8594C54.3086 42.5078 54.1367 42.2461 53.9023 42.0742C53.668 41.9023 53.3555 41.8164 52.9648 41.8164C52.6367 41.8164 52.3594 41.8828 52.1328 42.0156C51.9062 42.1484 51.7266 42.3555 51.5938 42.6367C51.4609 42.918 51.3633 43.2852 51.3008 43.7383C51.2383 44.1836 51.207 44.7188 51.207 45.3438V46.3867C51.207 46.9727 51.2578 47.4648 51.3594 47.8633C51.4609 48.2539 51.6094 48.5742 51.8047 48.8242C52.0078 49.0664 52.2539 49.2422 52.543 49.3516C52.832 49.4531 53.168 49.5039 53.5508 49.5039C54.1289 49.5039 54.6484 49.4023 55.1094 49.1992C55.5781 48.9883 55.9766 48.7031 56.3047 48.3438L57.6172 50.3359C57.3906 50.6328 57.0781 50.9297 56.6797 51.2266C56.2812 51.5234 55.8047 51.7656 55.25 51.9531C54.6953 52.1406 54.0547 52.2344 53.3281 52.2344ZM59.9727 50.3242C59.9727 49.8086 60.1445 49.3789 60.4883 49.0352C60.832 48.6836 61.2969 48.5078 61.8828 48.5078C62.4688 48.5078 62.9336 48.6836 63.2773 49.0352C63.6211 49.3789 63.793 49.8086 63.793 50.3242C63.793 50.8398 63.6211 51.2695 63.2773 51.6133C62.9336 51.957 62.4688 52.1289 61.8828 52.1289C61.2969 52.1289 60.832 51.957 60.4883 51.6133C60.1445 51.2695 59.9727 50.8398 59.9727 50.3242ZM75.6641 34V52H72.3711V34H75.6641ZM81.7109 39.3203V52H78.418V39.3203H81.7109ZM78.2656 36.0391C78.2656 35.5312 78.4258 35.1133 78.7461 34.7852C79.0742 34.4492 79.5117 34.2812 80.0586 34.2812C80.6133 34.2812 81.0508 34.4492 81.3711 34.7852C81.6914 35.1133 81.8516 35.5312 81.8516 36.0391C81.8516 36.5391 81.6875 36.957 81.3594 37.293C81.0391 37.6211 80.6094 37.7852 80.0703 37.7852C79.5156 37.7852 79.0742 37.6211 78.7461 37.293C78.4258 36.957 78.2656 36.5391 78.2656 36.0391ZM87.6172 41.9453V52H84.3242V39.3203H87.418L87.6172 41.9453ZM87.1484 45.2266L86.2461 45.25C86.2305 44.3594 86.3086 43.5391 86.4805 42.7891C86.6523 42.0391 86.9102 41.3867 87.2539 40.832C87.6055 40.2773 88.0469 39.8477 88.5781 39.543C89.1094 39.2383 89.7305 39.0859 90.4414 39.0859C90.9023 39.0859 91.3281 39.1719 91.7188 39.3438C92.1094 39.5078 92.4492 39.7695 92.7383 40.1289C93.0273 40.4805 93.25 40.9414 93.4062 41.5117C93.5625 42.0742 93.6406 42.75 93.6406 43.5391V52H90.3594V43.9375C90.3594 43.375 90.3047 42.9453 90.1953 42.6484C90.0859 42.3438 89.9297 42.1328 89.7266 42.0156C89.5234 41.8906 89.2734 41.8281 88.9766 41.8281C88.6641 41.8281 88.3906 41.9141 88.1562 42.0859C87.9219 42.2578 87.7305 42.5 87.582 42.8125C87.4414 43.1172 87.332 43.4766 87.2539 43.8906C87.1836 44.3047 87.1484 44.75 87.1484 45.2266ZM93.3242 44.8984L92.1406 45.0508C92.125 44.2148 92.1992 43.4375 92.3633 42.7188C92.5273 41.9922 92.7812 41.3594 93.125 40.8203C93.4688 40.2734 93.8984 39.8477 94.4141 39.543C94.9375 39.2383 95.543 39.0859 96.2305 39.0859C96.7461 39.0859 97.2148 39.1719 97.6367 39.3438C98.0586 39.5156 98.418 39.793 98.7148 40.1758C99.0195 40.5508 99.25 41.0469 99.4062 41.6641C99.5703 42.2812 99.6523 43.0312 99.6523 43.9141V52H96.3594V43.9258C96.3594 43.3555 96.3047 42.918 96.1953 42.6133C96.0859 42.3086 95.9297 42.1016 95.7266 41.9922C95.5234 41.8828 95.2812 41.8281 95 41.8281C94.7188 41.8281 94.4727 41.9062 94.2617 42.0625C94.0586 42.2188 93.8867 42.4375 93.7461 42.7188C93.6055 42.9922 93.5 43.3164 93.4297 43.6914C93.3594 44.0586 93.3242 44.4609 93.3242 44.8984ZM108.254 48.9531V39.3203H111.547V52H108.453L108.254 48.9531ZM108.629 46.3398L109.543 46.3164C109.543 47.168 109.461 47.957 109.297 48.6836C109.133 49.4023 108.887 50.0273 108.559 50.5586C108.23 51.0898 107.82 51.5039 107.328 51.8008C106.836 52.0898 106.254 52.2344 105.582 52.2344C105.066 52.2344 104.59 52.1484 104.152 51.9766C103.723 51.7969 103.352 51.5195 103.039 51.1445C102.727 50.7617 102.48 50.2734 102.301 49.6797C102.129 49.0781 102.043 48.3555 102.043 47.5117V39.3203H105.336V47.5469C105.336 47.8906 105.367 48.1875 105.43 48.4375C105.492 48.6797 105.578 48.8789 105.688 49.0352C105.797 49.1914 105.926 49.3047 106.074 49.375C106.223 49.4375 106.391 49.4688 106.578 49.4688C107.094 49.4688 107.5 49.3359 107.797 49.0703C108.102 48.7969 108.316 48.4258 108.441 47.957C108.566 47.4805 108.629 46.9414 108.629 46.3398ZM119.562 48.5781C119.562 48.3594 119.488 48.1641 119.34 47.9922C119.191 47.8203 118.957 47.6445 118.637 47.4648C118.316 47.2773 117.891 47.0703 117.359 46.8438C116.781 46.6094 116.27 46.3672 115.824 46.1172C115.379 45.8672 115 45.5898 114.688 45.2852C114.383 44.9805 114.152 44.6328 113.996 44.2422C113.84 43.8516 113.762 43.4062 113.762 42.9062C113.762 42.3672 113.859 41.8711 114.055 41.418C114.258 40.957 114.547 40.5547 114.922 40.2109C115.297 39.8594 115.754 39.5859 116.293 39.3906C116.84 39.1875 117.453 39.0859 118.133 39.0859C119.086 39.0859 119.902 39.2539 120.582 39.5898C121.27 39.918 121.797 40.3789 122.164 40.9727C122.531 41.5664 122.715 42.2578 122.715 43.0469H119.434C119.434 42.7656 119.391 42.5156 119.305 42.2969C119.219 42.0703 119.078 41.8945 118.883 41.7695C118.695 41.6445 118.441 41.582 118.121 41.582C117.887 41.582 117.676 41.6328 117.488 41.7344C117.309 41.8359 117.164 41.9727 117.055 42.1445C116.953 42.3086 116.902 42.5039 116.902 42.7305C116.902 42.9023 116.938 43.0547 117.008 43.1875C117.086 43.3203 117.207 43.4492 117.371 43.5742C117.535 43.6992 117.754 43.832 118.027 43.9727C118.309 44.1055 118.652 44.2539 119.059 44.418C119.902 44.7305 120.594 45.0664 121.133 45.4258C121.68 45.7852 122.086 46.207 122.352 46.6914C122.617 47.168 122.75 47.7578 122.75 48.4609C122.75 49.0234 122.641 49.5352 122.422 49.9961C122.211 50.457 121.902 50.8555 121.496 51.1914C121.09 51.5273 120.602 51.7852 120.031 51.9648C119.469 52.1445 118.84 52.2344 118.145 52.2344C117.121 52.2344 116.258 52.0312 115.555 51.625C114.852 51.2188 114.32 50.6992 113.961 50.0664C113.602 49.4258 113.422 48.7617 113.422 48.0742H116.539C116.555 48.4961 116.633 48.8281 116.773 49.0703C116.922 49.3047 117.121 49.4688 117.371 49.5625C117.621 49.6562 117.898 49.7031 118.203 49.7031C118.508 49.7031 118.758 49.6641 118.953 49.5859C119.156 49.5 119.309 49.3711 119.41 49.1992C119.512 49.0195 119.562 48.8125 119.562 48.5781Z" fill="#151515"/>
<path d="M142.44 56.88C143.08 56.88 143.64 56.752 144.12 56.496C144.6 56.208 145.016 55.792 145.368 55.248C145.72 54.704 145.976 54.016 146.136 53.184C146.328 52.352 146.424 51.392 146.424 50.304C146.424 48.736 146.264 47.472 145.944 46.512C145.624 45.52 145.176 44.8 144.6 44.352C144.024 43.872 143.304 43.632 142.44 43.632C141.608 43.632 140.888 43.872 140.28 44.352C139.704 44.8 139.256 45.52 138.936 46.512C138.616 47.472 138.456 48.736 138.456 50.304C138.456 51.392 138.536 52.352 138.696 53.184C138.888 54.016 139.16 54.704 139.512 55.248C139.864 55.792 140.28 56.208 140.76 56.496C141.272 56.752 141.832 56.88 142.44 56.88ZM142.44 40.272C143.144 40.272 143.736 40.08 144.216 39.696C144.696 39.28 145.064 38.656 145.32 37.824C145.576 36.992 145.704 35.92 145.704 34.608C145.704 33.296 145.576 32.24 145.32 31.44C145.064 30.608 144.696 30 144.216 29.616C143.736 29.232 143.144 29.04 142.44 29.04C141.768 29.04 141.176 29.232 140.664 29.616C140.184 30 139.816 30.608 139.56 31.44C139.304 32.24 139.176 33.296 139.176 34.608C139.176 35.92 139.304 36.992 139.56 37.824C139.816 38.656 140.184 39.28 140.664 39.696C141.176 40.08 141.768 40.272 142.44 40.272ZM142.44 25.44C144.68 25.44 146.632 25.808 148.296 26.544C149.96 27.28 151.24 28.304 152.136 29.616C153.032 30.896 153.48 32.384 153.48 34.08C153.48 35.52 153.16 36.816 152.52 37.968C151.912 39.088 151.016 40.016 149.832 40.752C148.68 41.488 147.304 42 145.704 42.288L146.712 41.136V42.624L145.704 41.328C147.56 41.616 149.176 42.16 150.552 42.96C151.96 43.76 153.032 44.8 153.768 46.08C154.536 47.328 154.92 48.784 154.92 50.448C154.92 52.432 154.408 54.176 153.384 55.68C152.392 57.184 150.952 58.368 149.064 59.232C147.208 60.064 145 60.48 142.44 60.48C139.88 60.48 137.656 60.064 135.768 59.232C133.912 58.368 132.472 57.184 131.448 55.68C130.456 54.176 129.96 52.432 129.96 50.448C129.96 48.784 130.328 47.328 131.064 46.08C131.832 44.8 132.904 43.76 134.28 42.96C135.688 42.16 137.32 41.616 139.176 41.328L138.168 42.624V41.136L139.176 42.288C137.576 42 136.184 41.488 135 40.752C133.848 40.016 132.952 39.088 132.312 37.968C131.704 36.816 131.4 35.52 131.4 34.08C131.4 32.384 131.848 30.896 132.744 29.616C133.64 28.304 134.92 27.28 136.584 26.544C138.248 25.808 140.2 25.44 142.44 25.44Z" fill="#151515"/>
<rect x="11" y="43" width="30" height="9" fill="#151515"/>
<path d="M225.602 49.5117C225.602 49.207 225.574 48.9297 225.52 48.6797C225.465 48.4297 225.348 48.1992 225.168 47.9883C224.996 47.7773 224.742 47.5664 224.406 47.3555C224.078 47.1445 223.648 46.9258 223.117 46.6992C222.484 46.4336 221.871 46.1523 221.277 45.8555C220.684 45.5508 220.148 45.1992 219.672 44.8008C219.195 44.4023 218.816 43.9336 218.535 43.3945C218.262 42.8477 218.125 42.207 218.125 41.4727C218.125 40.7539 218.254 40.1016 218.512 39.5156C218.777 38.9297 219.152 38.4297 219.637 38.0156C220.121 37.5938 220.688 37.2695 221.336 37.043C221.992 36.8164 222.723 36.7031 223.527 36.7031C224.621 36.7031 225.566 36.9297 226.363 37.3828C227.168 37.8359 227.789 38.457 228.227 39.2461C228.672 40.0352 228.895 40.9414 228.895 41.9648H225.473C225.473 41.4805 225.402 41.0547 225.262 40.6875C225.129 40.3125 224.914 40.0195 224.617 39.8086C224.32 39.5977 223.938 39.4922 223.469 39.4922C223.031 39.4922 222.668 39.582 222.379 39.7617C222.098 39.9336 221.887 40.1719 221.746 40.4766C221.613 40.7734 221.547 41.1094 221.547 41.4844C221.547 41.7656 221.613 42.0195 221.746 42.2461C221.887 42.4648 222.078 42.6641 222.32 42.8438C222.562 43.0156 222.848 43.1836 223.176 43.3477C223.512 43.5117 223.879 43.6719 224.277 43.8281C225.051 44.1328 225.734 44.4688 226.328 44.8359C226.922 45.1953 227.418 45.6016 227.816 46.0547C228.215 46.5 228.516 47.0039 228.719 47.5664C228.922 48.1289 229.023 48.7695 229.023 49.4883C229.023 50.1992 228.898 50.8477 228.648 51.4336C228.406 52.0117 228.051 52.5117 227.582 52.9336C227.113 53.3477 226.547 53.668 225.883 53.8945C225.227 54.1211 224.492 54.2344 223.68 54.2344C222.891 54.2344 222.145 54.125 221.441 53.9062C220.738 53.6797 220.117 53.3398 219.578 52.8867C219.047 52.4258 218.629 51.8438 218.324 51.1406C218.02 50.4297 217.867 49.5898 217.867 48.6211H221.301C221.301 49.1367 221.352 49.5781 221.453 49.9453C221.555 50.3047 221.711 50.5938 221.922 50.8125C222.133 51.0234 222.391 51.1836 222.695 51.293C223.008 51.3945 223.363 51.4453 223.762 51.4453C224.215 51.4453 224.574 51.3594 224.84 51.1875C225.113 51.0156 225.309 50.7852 225.426 50.4961C225.543 50.207 225.602 49.8789 225.602 49.5117ZM237.156 47.9883H233.664V45.1406H237.156C237.641 45.1406 238.035 45.0312 238.34 44.8125C238.652 44.5938 238.879 44.293 239.02 43.9102C239.16 43.5195 239.23 43.082 239.23 42.5977C239.23 42.1055 239.156 41.6484 239.008 41.2266C238.867 40.7969 238.645 40.4492 238.34 40.1836C238.043 39.918 237.648 39.7852 237.156 39.7852H234.766V54H231.344V36.9375H237.156C238.305 36.9375 239.293 37.1797 240.121 37.6641C240.949 38.1484 241.582 38.8164 242.02 39.668C242.465 40.5117 242.688 41.4805 242.688 42.5742C242.688 43.6758 242.465 44.6328 242.02 45.4453C241.582 46.25 240.949 46.875 240.121 47.3203C239.293 47.7656 238.305 47.9883 237.156 47.9883ZM256.973 44.1445V46.9922C256.973 48.1953 256.824 49.25 256.527 50.1562C256.238 51.0547 255.824 51.8086 255.285 52.418C254.754 53.0195 254.109 53.4727 253.352 53.7773C252.602 54.082 251.77 54.2344 250.855 54.2344C249.941 54.2344 249.105 54.082 248.348 53.7773C247.598 53.4727 246.949 53.0195 246.402 52.418C245.863 51.8086 245.445 51.0547 245.148 50.1562C244.852 49.25 244.703 48.1953 244.703 46.9922V44.1445C244.703 42.9102 244.848 41.832 245.137 40.9102C245.426 39.9805 245.844 39.207 246.391 38.5898C246.938 37.9648 247.586 37.4961 248.336 37.1836C249.086 36.8633 249.918 36.7031 250.832 36.7031C251.746 36.7031 252.578 36.8633 253.328 37.1836C254.078 37.4961 254.727 37.9648 255.273 38.5898C255.82 39.207 256.238 39.9805 256.527 40.9102C256.824 41.832 256.973 42.9102 256.973 44.1445ZM253.562 46.9922V44.1211C253.562 43.3086 253.504 42.6172 253.387 42.0469C253.27 41.4688 253.094 40.9961 252.859 40.6289C252.625 40.2617 252.34 39.9922 252.004 39.8203C251.668 39.6484 251.277 39.5625 250.832 39.5625C250.387 39.5625 249.992 39.6484 249.648 39.8203C249.312 39.9922 249.027 40.2617 248.793 40.6289C248.566 40.9961 248.395 41.4688 248.277 42.0469C248.168 42.6172 248.113 43.3086 248.113 44.1211V46.9922C248.113 47.7734 248.172 48.4414 248.289 48.9961C248.406 49.5508 248.582 50.0039 248.816 50.3555C249.051 50.707 249.336 50.9688 249.672 51.1406C250.016 51.3047 250.41 51.3867 250.855 51.3867C251.293 51.3867 251.68 51.3047 252.016 51.1406C252.359 50.9688 252.645 50.707 252.871 50.3555C253.098 50.0039 253.27 49.5508 253.387 48.9961C253.504 48.4414 253.562 47.7734 253.562 46.9922ZM259.48 36.9375H264.953C266.094 36.9375 267.066 37.1328 267.871 37.5234C268.676 37.9141 269.293 38.4922 269.723 39.2578C270.152 40.0234 270.367 40.9688 270.367 42.0938C270.367 43.0156 270.242 43.8047 269.992 44.4609C269.742 45.1094 269.387 45.6523 268.926 46.0898C268.465 46.5195 267.914 46.8633 267.273 47.1211L266.23 47.7422H261.789L261.777 44.8945H264.859C265.328 44.8945 265.715 44.793 266.02 44.5898C266.332 44.3789 266.562 44.0859 266.711 43.7109C266.867 43.3281 266.945 42.8828 266.945 42.375C266.945 41.8359 266.875 41.375 266.734 40.9922C266.602 40.6016 266.387 40.3047 266.09 40.1016C265.801 39.8906 265.422 39.7852 264.953 39.7852H262.914V54H259.48V36.9375ZM267.227 54L264.098 46.3945L267.695 46.3828L270.895 53.8359V54H267.227ZM278.945 36.9375V54H275.535V36.9375H278.945ZM283.188 36.9375V39.7852H271.375V36.9375H283.188ZM292.211 49.5117C292.211 49.207 292.184 48.9297 292.129 48.6797C292.074 48.4297 291.957 48.1992 291.777 47.9883C291.605 47.7773 291.352 47.5664 291.016 47.3555C290.688 47.1445 290.258 46.9258 289.727 46.6992C289.094 46.4336 288.48 46.1523 287.887 45.8555C287.293 45.5508 286.758 45.1992 286.281 44.8008C285.805 44.4023 285.426 43.9336 285.145 43.3945C284.871 42.8477 284.734 42.207 284.734 41.4727C284.734 40.7539 284.863 40.1016 285.121 39.5156C285.387 38.9297 285.762 38.4297 286.246 38.0156C286.73 37.5938 287.297 37.2695 287.945 37.043C288.602 36.8164 289.332 36.7031 290.137 36.7031C291.23 36.7031 292.176 36.9297 292.973 37.3828C293.777 37.8359 294.398 38.457 294.836 39.2461C295.281 40.0352 295.504 40.9414 295.504 41.9648H292.082C292.082 41.4805 292.012 41.0547 291.871 40.6875C291.738 40.3125 291.523 40.0195 291.227 39.8086C290.93 39.5977 290.547 39.4922 290.078 39.4922C289.641 39.4922 289.277 39.582 288.988 39.7617C288.707 39.9336 288.496 40.1719 288.355 40.4766C288.223 40.7734 288.156 41.1094 288.156 41.4844C288.156 41.7656 288.223 42.0195 288.355 42.2461C288.496 42.4648 288.688 42.6641 288.93 42.8438C289.172 43.0156 289.457 43.1836 289.785 43.3477C290.121 43.5117 290.488 43.6719 290.887 43.8281C291.66 44.1328 292.344 44.4688 292.938 44.8359C293.531 45.1953 294.027 45.6016 294.426 46.0547C294.824 46.5 295.125 47.0039 295.328 47.5664C295.531 48.1289 295.633 48.7695 295.633 49.4883C295.633 50.1992 295.508 50.8477 295.258 51.4336C295.016 52.0117 294.66 52.5117 294.191 52.9336C293.723 53.3477 293.156 53.668 292.492 53.8945C291.836 54.1211 291.102 54.2344 290.289 54.2344C289.5 54.2344 288.754 54.125 288.051 53.9062C287.348 53.6797 286.727 53.3398 286.188 52.8867C285.656 52.4258 285.238 51.8438 284.934 51.1406C284.629 50.4297 284.477 49.5898 284.477 48.6211H287.91C287.91 49.1367 287.961 49.5781 288.062 49.9453C288.164 50.3047 288.32 50.5938 288.531 50.8125C288.742 51.0234 289 51.1836 289.305 51.293C289.617 51.3945 289.973 51.4453 290.371 51.4453C290.824 51.4453 291.184 51.3594 291.449 51.1875C291.723 51.0156 291.918 50.7852 292.035 50.4961C292.152 50.207 292.211 49.8789 292.211 49.5117Z" fill="#151515"/>
<path d="M309.896 32.816C308.776 32.816 307.864 32.864 307.16 32.96C306.456 33.056 305.928 33.264 305.576 33.584C305.256 33.904 305.048 34.368 304.952 34.976L304.52 38.816H301.496V26.768H324.728V32C323.416 33.824 322.2 35.632 321.08 37.424C319.96 39.184 318.968 41.104 318.104 43.184C317.272 45.232 316.6 47.6 316.088 50.288C315.576 52.944 315.224 56.08 315.032 59.696H306.824C307.112 56.88 307.688 54.224 308.552 51.728C309.416 49.232 310.44 46.912 311.624 44.768C312.808 42.592 314.04 40.64 315.32 38.912C316.632 37.184 317.848 35.696 318.968 34.448C320.12 33.168 321.064 32.16 321.8 31.424L322.568 32.816H309.896Z" fill="#151515"/>
<rect x="182" y="43" width="33" height="9" fill="#151515"/>
<rect x="347" y="43" width="10" height="10" fill="#151515"/>
<path d="M367.555 49.7227C367.555 49.4492 367.462 49.2051 367.276 48.9902C367.091 48.7754 366.798 48.5557 366.397 48.3311C365.997 48.0967 365.465 47.8379 364.801 47.5547C364.078 47.2617 363.438 46.959 362.882 46.6465C362.325 46.334 361.852 45.9873 361.461 45.6064C361.08 45.2256 360.792 44.791 360.597 44.3027C360.401 43.8145 360.304 43.2578 360.304 42.6328C360.304 41.959 360.426 41.3389 360.67 40.7725C360.924 40.1963 361.285 39.6934 361.754 39.2637C362.223 38.8242 362.794 38.4824 363.468 38.2383C364.151 37.9844 364.918 37.8574 365.768 37.8574C366.959 37.8574 367.979 38.0674 368.829 38.4873C369.688 38.8975 370.348 39.4736 370.807 40.2158C371.266 40.958 371.495 41.8223 371.495 42.8086H367.394C367.394 42.457 367.34 42.1445 367.232 41.8711C367.125 41.5879 366.949 41.3682 366.705 41.2119C366.471 41.0557 366.153 40.9775 365.753 40.9775C365.46 40.9775 365.196 41.041 364.962 41.168C364.737 41.2949 364.557 41.4658 364.42 41.6807C364.293 41.8857 364.229 42.1299 364.229 42.4131C364.229 42.6279 364.273 42.8184 364.361 42.9844C364.459 43.1504 364.61 43.3115 364.815 43.4678C365.021 43.624 365.294 43.79 365.636 43.9658C365.987 44.1318 366.417 44.3174 366.925 44.5225C367.979 44.9131 368.844 45.333 369.518 45.7822C370.201 46.2314 370.709 46.7588 371.041 47.3643C371.373 47.96 371.539 48.6973 371.539 49.5762C371.539 50.2793 371.402 50.9189 371.129 51.4951C370.865 52.0713 370.479 52.5693 369.972 52.9893C369.464 53.4092 368.854 53.7314 368.141 53.9561C367.438 54.1807 366.651 54.293 365.782 54.293C364.503 54.293 363.424 54.0391 362.545 53.5312C361.666 53.0234 361.002 52.374 360.553 51.583C360.104 50.7822 359.879 49.9521 359.879 49.0928H363.775C363.795 49.6201 363.893 50.0352 364.068 50.3379C364.254 50.6309 364.503 50.8359 364.815 50.9531C365.128 51.0703 365.475 51.1289 365.855 51.1289C366.236 51.1289 366.549 51.0801 366.793 50.9824C367.047 50.875 367.237 50.7139 367.364 50.499C367.491 50.2744 367.555 50.0156 367.555 49.7227ZM380.533 54.293C379.449 54.293 378.487 54.127 377.647 53.7949C376.817 53.4629 376.114 52.9844 375.538 52.3594C374.962 51.7246 374.522 50.958 374.22 50.0596C373.917 49.1611 373.766 48.1357 373.766 46.9834V45.6797C373.766 44.3906 373.912 43.2627 374.205 42.2959C374.498 41.3193 374.913 40.499 375.45 39.835C375.987 39.1709 376.646 38.6777 377.428 38.3555C378.219 38.0234 379.112 37.8574 380.108 37.8574C381.104 37.8574 381.979 38.0234 382.73 38.3555C383.492 38.6777 384.122 39.166 384.62 39.8203C385.118 40.4648 385.494 41.2656 385.748 42.2227C386.002 43.1797 386.129 44.293 386.129 45.5625V47.4375H375.509V44.5518H382.101V44.1855C382.101 43.541 382.032 43.0039 381.896 42.5742C381.759 42.1348 381.544 41.8076 381.251 41.5928C380.958 41.3779 380.567 41.2705 380.079 41.2705C379.669 41.2705 379.322 41.3535 379.039 41.5195C378.756 41.6855 378.531 41.9443 378.365 42.2959C378.199 42.6475 378.077 43.1064 377.999 43.6729C377.921 44.2295 377.882 44.8984 377.882 45.6797V46.9834C377.882 47.7158 377.945 48.3311 378.072 48.8291C378.199 49.3174 378.385 49.7178 378.629 50.0303C378.883 50.333 379.19 50.5527 379.552 50.6895C379.913 50.8164 380.333 50.8799 380.812 50.8799C381.534 50.8799 382.184 50.7529 382.76 50.499C383.346 50.2354 383.844 49.8789 384.254 49.4297L385.895 51.9199C385.611 52.291 385.221 52.6621 384.723 53.0332C384.225 53.4043 383.629 53.707 382.936 53.9414C382.242 54.1758 381.441 54.293 380.533 54.293ZM394.229 50.8799C394.61 50.8799 394.938 50.8018 395.211 50.6455C395.494 50.4893 395.709 50.2354 395.855 49.8838C396.002 49.5322 396.08 49.0781 396.09 48.5215H399.942C399.942 49.7129 399.688 50.7432 399.181 51.6123C398.683 52.4717 398.009 53.1357 397.159 53.6045C396.319 54.0635 395.367 54.293 394.303 54.293C393.238 54.293 392.311 54.1221 391.52 53.7803C390.729 53.4385 390.074 52.9404 389.557 52.2861C389.049 51.6318 388.663 50.8359 388.399 49.8984C388.146 48.9512 388.019 47.8672 388.019 46.6465V45.4893C388.019 44.2881 388.146 43.2139 388.399 42.2666C388.663 41.3193 389.049 40.5186 389.557 39.8643C390.074 39.21 390.724 38.7119 391.505 38.3701C392.296 38.0283 393.224 37.8574 394.288 37.8574C395.431 37.8574 396.422 38.0967 397.262 38.5752C398.102 39.0439 398.756 39.7373 399.225 40.6553C399.703 41.5732 399.942 42.7061 399.942 44.0537H396.09C396.08 43.4482 396.007 42.9453 395.87 42.5449C395.743 42.1348 395.543 41.8223 395.27 41.6074C395.006 41.3828 394.654 41.2705 394.215 41.2705C393.756 41.2705 393.385 41.3682 393.102 41.5635C392.828 41.749 392.618 42.0225 392.472 42.3838C392.335 42.7354 392.242 43.1748 392.193 43.7021C392.145 44.2295 392.12 44.8252 392.12 45.4893V46.6465C392.12 47.3594 392.14 47.9795 392.179 48.5068C392.228 49.0244 392.32 49.4639 392.457 49.8252C392.604 50.1768 392.813 50.4404 393.087 50.6162C393.37 50.792 393.751 50.8799 394.229 50.8799ZM409.962 50.1914V38.1504H414.078V54H410.211L409.962 50.1914ZM410.431 46.9248L411.573 46.8955C411.573 47.96 411.471 48.9463 411.266 49.8545C411.061 50.7529 410.753 51.5342 410.343 52.1982C409.933 52.8623 409.42 53.3799 408.805 53.751C408.189 54.1123 407.462 54.293 406.622 54.293C405.978 54.293 405.382 54.1855 404.835 53.9707C404.298 53.7461 403.834 53.3994 403.443 52.9307C403.053 52.4521 402.745 51.8418 402.521 51.0996C402.306 50.3477 402.198 49.4443 402.198 48.3896V38.1504H406.314V48.4336C406.314 48.8633 406.354 49.2344 406.432 49.5469C406.51 49.8496 406.617 50.0986 406.754 50.2939C406.891 50.4893 407.052 50.6309 407.237 50.7188C407.423 50.7969 407.633 50.8359 407.867 50.8359C408.512 50.8359 409.02 50.6699 409.391 50.3379C409.771 49.9961 410.04 49.5322 410.196 48.9463C410.353 48.3506 410.431 47.6768 410.431 46.9248ZM421.168 41.6807V54H417.066V38.1504H420.934L421.168 41.6807ZM424.903 38.0332L424.845 42.1201C424.659 42.0811 424.435 42.0518 424.171 42.0322C423.917 42.0127 423.692 42.0029 423.497 42.0029C423.038 42.0029 422.647 42.0762 422.325 42.2227C422.003 42.3594 421.734 42.5693 421.52 42.8525C421.314 43.126 421.158 43.4678 421.051 43.8779C420.943 44.2881 420.88 44.752 420.86 45.2695L420.084 44.9766C420.084 43.9414 420.162 42.9941 420.318 42.1348C420.484 41.2656 420.729 40.5137 421.051 39.8789C421.373 39.2344 421.759 38.7363 422.208 38.3848C422.667 38.0332 423.185 37.8574 423.761 37.8574C423.956 37.8574 424.161 37.877 424.376 37.916C424.601 37.9453 424.776 37.9844 424.903 38.0332ZM431.305 38.1504V54H427.188V38.1504H431.305ZM426.998 34.0488C426.998 33.4141 427.198 32.8916 427.599 32.4814C428.009 32.0615 428.556 31.8516 429.239 31.8516C429.933 31.8516 430.479 32.0615 430.88 32.4814C431.28 32.8916 431.48 33.4141 431.48 34.0488C431.48 34.6738 431.275 35.1963 430.865 35.6162C430.465 36.0264 429.928 36.2314 429.254 36.2314C428.561 36.2314 428.009 36.0264 427.599 35.6162C427.198 35.1963 426.998 34.6738 426.998 34.0488ZM441.471 38.1504V41.2412H433.385V38.1504H441.471ZM435.245 34.2393H439.332V49.166C439.332 49.6055 439.376 49.9424 439.464 50.1768C439.552 50.4111 439.684 50.5771 439.859 50.6748C440.045 50.7627 440.289 50.8066 440.592 50.8066C440.797 50.8066 440.987 50.7969 441.163 50.7773C441.339 50.748 441.471 50.7188 441.559 50.6895V53.8975C441.236 54.0244 440.895 54.1221 440.533 54.1904C440.182 54.2588 439.762 54.293 439.273 54.293C438.453 54.293 437.74 54.1367 437.135 53.8242C436.539 53.5117 436.075 53.0137 435.743 52.3301C435.411 51.6367 435.245 50.7285 435.245 49.6055V34.2393ZM447.74 52.1836L451.051 38.1504H455.328L450.113 56.373C449.996 56.7734 449.835 57.2031 449.63 57.6621C449.425 58.1309 449.151 58.5703 448.81 58.9805C448.478 59.4004 448.058 59.7422 447.55 60.0059C447.042 60.2695 446.432 60.4014 445.719 60.4014C445.357 60.4014 445.064 60.377 444.84 60.3281C444.625 60.2891 444.352 60.2207 444.02 60.123V56.9297C444.107 56.9297 444.19 56.9297 444.269 56.9297C444.356 56.9395 444.439 56.9443 444.518 56.9443C444.977 56.9443 445.343 56.8809 445.616 56.7539C445.89 56.6367 446.109 56.4512 446.275 56.1973C446.451 55.9434 446.598 55.626 446.715 55.2451L447.74 52.1836ZM446.891 38.1504L449.352 49.5176L449.908 54.1465L447.14 54.4102L442.496 38.1504H446.891Z" fill="#151515"/>
<path d="M464.96 57V30.2L466.24 31.56H458.36V29H467.84V57H464.96ZM482.893 57.24C480.866 57.24 478.946 56.92 477.133 56.28C475.346 55.6133 473.906 54.7333 472.813 53.64L474.213 51.36C475.12 52.2933 476.333 53.0667 477.853 53.68C479.4 54.2933 481.08 54.6 482.893 54.6C485.213 54.6 486.986 54.0933 488.213 53.08C489.466 52.0667 490.093 50.7067 490.093 49C490.093 47.2933 489.48 45.9333 488.253 44.92C487.053 43.9067 485.146 43.4 482.533 43.4H480.533V41.28L489.173 30.44L489.573 31.56H473.973V29H491.973V31.04L483.333 41.88L481.933 40.96H483.013C486.373 40.96 488.88 41.7067 490.533 43.2C492.213 44.6933 493.053 46.6133 493.053 48.96C493.053 50.5333 492.68 51.9467 491.933 53.2C491.186 54.4533 490.053 55.44 488.533 56.16C487.04 56.88 485.16 57.24 482.893 57.24Z" fill="#151515"/>
<path d="M593.337 40.334H592.387V48.884H593.337V52H586.155V48.884H587.067V42.234L583.837 52H581.025L577.7 42.329V48.884H578.612V52H572.38V48.884H573.33V40.334H572.38V37.218H581.082L583.058 43.146L584.958 37.218H593.337V40.334ZM594.089 52V48.884H595.039V40.334H594.089V37.218H601.309V40.334H600.359V48.884H601.309V52H594.089ZM613.012 37.218H619.244V40.334H618.294V52H612.955L607.388 43.431V48.884H608.3V52H602.068V48.884H603.018V40.334H602.068V37.218H608.927L613.924 44.837V40.334H613.012V37.218ZM619.973 52V48.884H620.923V40.334H619.973V37.218H627.193V40.334H626.243V48.884H627.193V52H619.973ZM633.841 52.266C632.625 52.266 631.473 52.1647 630.383 51.962C629.307 51.7467 628.477 51.506 627.894 51.24V47.478H632.074C632.074 47.8707 632.163 48.1557 632.34 48.333C632.518 48.5103 632.841 48.599 633.309 48.599C633.702 48.599 633.981 48.542 634.145 48.428C634.323 48.3013 634.411 48.1177 634.411 47.877C634.411 47.6743 634.329 47.5033 634.164 47.364C634 47.212 633.715 47.06 633.309 46.908L631.675 46.338C630.269 45.806 629.256 45.179 628.635 44.457C628.027 43.735 627.723 42.7597 627.723 41.531C627.723 40.0363 628.211 38.9027 629.186 38.13C630.174 37.3447 631.815 36.952 634.107 36.952C635.209 36.952 636.242 37.066 637.204 37.294C638.18 37.5093 638.965 37.8007 639.56 38.168V41.569H635.76C635.76 40.9357 635.368 40.619 634.582 40.619C634.202 40.619 633.93 40.6697 633.765 40.771C633.613 40.8597 633.537 41.0243 633.537 41.265C633.537 41.4803 633.626 41.6513 633.803 41.778C633.993 41.9047 634.297 42.0377 634.715 42.177L636.368 42.747C637.711 43.203 638.686 43.7983 639.294 44.533C639.915 45.255 640.225 46.205 640.225 47.383C640.225 48.9917 639.681 50.2077 638.591 51.031C637.515 51.8543 635.931 52.266 633.841 52.266ZM654.928 41.816H651.66V40.334H650.444V48.884H651.774V52H643.794V48.884H645.124V40.334H643.908V41.816H640.64V37.218H654.928V41.816ZM655.579 48.884H656.529V40.334H655.579V37.218H664.3C665.934 37.218 667.182 37.5537 668.043 38.225C668.905 38.8963 669.335 39.9857 669.335 41.493C669.335 42.3417 669.164 43.0763 668.822 43.697C668.48 44.3177 667.993 44.7483 667.359 44.989L667.378 45.179C668.594 45.369 669.202 46.1163 669.202 47.421V48.884H670.095V52H664.072V47.535C664.072 47.041 663.996 46.6673 663.844 46.414C663.705 46.1607 663.477 45.9897 663.16 45.901C662.856 45.8123 662.419 45.768 661.849 45.768V48.884H663.103V52H655.579V48.884ZM662.875 43.45C663.243 43.45 663.515 43.355 663.692 43.165C663.882 42.9623 663.977 42.652 663.977 42.234V41.55C663.977 41.132 663.882 40.828 663.692 40.638C663.515 40.4353 663.243 40.334 662.875 40.334H661.849V43.45H662.875ZM678.318 37.218H684.151V40.334H683.391L679.724 46.908V48.884H680.674V52H673.454V48.884H674.404V46.908L670.623 40.334H669.863V37.218H677.216V40.334H676.551L677.672 43.279H677.862L678.983 40.334H678.318V37.218ZM704.408 48.884H705.168V52H697.72V48.884H698.86L698.556 47.364H695.972L695.668 48.884H696.808V52H690.31V48.884H691.07L694.281 37.218H701.197L704.408 48.884ZM696.39 45.35H698.138L697.359 41.569H697.169L696.39 45.35ZM705.77 52V48.884H706.72V40.334H705.77V37.218H717.132V42.139H713.769V40.334H712.04V43.488H714.909V45.654H712.04V48.884H714.529V52H705.77ZM717.775 52V48.884H718.725V40.334H717.775V37.218H729.137V42.139H725.774V40.334H724.045V43.488H726.914V45.654H724.045V48.884H726.534V52H717.775ZM741.833 48.884H742.593V52H735.145V48.884H736.285L735.981 47.364H733.397L733.093 48.884H734.233V52H727.735V48.884H728.495L731.706 37.218H738.622L741.833 48.884ZM733.815 45.35H735.563L734.784 41.569H734.594L733.815 45.35ZM743.194 52V48.884H744.144V40.334H743.194V37.218H750.414V40.334H749.464V48.884H750.414V52H743.194ZM751.173 48.884H752.123V40.334H751.173V37.218H759.894C761.528 37.218 762.776 37.5537 763.637 38.225C764.498 38.8963 764.929 39.9857 764.929 41.493C764.929 42.3417 764.758 43.0763 764.416 43.697C764.074 44.3177 763.586 44.7483 762.953 44.989L762.972 45.179C764.188 45.369 764.796 46.1163 764.796 47.421V48.884H765.689V52H759.666V47.535C759.666 47.041 759.59 46.6673 759.438 46.414C759.299 46.1607 759.071 45.9897 758.754 45.901C758.45 45.8123 758.013 45.768 757.443 45.768V48.884H758.697V52H751.173V48.884ZM758.469 43.45C758.836 43.45 759.109 43.355 759.286 43.165C759.476 42.9623 759.571 42.652 759.571 42.234V41.55C759.571 41.132 759.476 40.828 759.286 40.638C759.109 40.4353 758.836 40.334 758.469 40.334H757.443V43.45H758.469ZM772.259 52.266C771.043 52.266 769.891 52.1647 768.801 51.962C767.725 51.7467 766.895 51.506 766.312 51.24V47.478H770.492C770.492 47.8707 770.581 48.1557 770.758 48.333C770.936 48.5103 771.259 48.599 771.727 48.599C772.12 48.599 772.399 48.542 772.563 48.428C772.741 48.3013 772.829 48.1177 772.829 47.877C772.829 47.6743 772.747 47.5033 772.582 47.364C772.418 47.212 772.133 47.06 771.727 46.908L770.093 46.338C768.687 45.806 767.674 45.179 767.053 44.457C766.445 43.735 766.141 42.7597 766.141 41.531C766.141 40.0363 766.629 38.9027 767.604 38.13C768.592 37.3447 770.233 36.952 772.525 36.952C773.627 36.952 774.66 37.066 775.622 37.294C776.598 37.5093 777.383 37.8007 777.978 38.168V41.569H774.178C774.178 40.9357 773.786 40.619 773 40.619C772.62 40.619 772.348 40.6697 772.183 40.771C772.031 40.8597 771.955 41.0243 771.955 41.265C771.955 41.4803 772.044 41.6513 772.221 41.778C772.411 41.9047 772.715 42.0377 773.133 42.177L774.786 42.747C776.129 43.203 777.104 43.7983 777.712 44.533C778.333 45.255 778.643 46.205 778.643 47.383C778.643 48.9917 778.099 50.2077 777.009 51.031C775.933 51.8543 774.349 52.266 772.259 52.266Z" fill="#151515"/>
<path d="M797.68 57V51.864C798.784 50.168 799.856 48.384 800.896 46.512C801.936 44.64 802.872 42.76 803.704 40.872C804.552 38.968 805.224 37.128 805.72 35.352C806.216 33.576 806.464 31.944 806.464 30.456C806.464 29.4 806.36 28.416 806.152 27.504C805.944 26.592 805.472 26.136 804.736 26.136C804 26.136 803.528 26.592 803.32 27.504C803.112 28.4 803.008 29.384 803.008 30.456V32.904H797.824V30.456C797.824 29.048 797.944 27.784 798.184 26.664C798.44 25.528 798.84 24.568 799.384 23.784C799.928 22.984 800.64 22.376 801.52 21.96C802.4 21.544 803.472 21.336 804.736 21.336C806 21.336 807.072 21.544 807.952 21.96C808.832 22.376 809.544 22.968 810.088 23.736C810.632 24.504 811.024 25.432 811.264 26.52C811.52 27.592 811.648 28.792 811.648 30.12C811.648 31.704 811.408 33.416 810.928 35.256C810.464 37.08 809.84 38.96 809.056 40.896C808.288 42.816 807.424 44.712 806.464 46.584C805.504 48.44 804.528 50.2 803.536 51.864H811.744V57H797.68ZM821.598 57.384C820.094 57.384 818.83 57.08 817.806 56.472C816.782 55.848 816.006 54.976 815.478 53.856C814.95 52.736 814.686 51.432 814.686 49.944V43.656C814.686 42.328 814.91 41.264 815.358 40.464C815.822 39.664 816.494 38.968 817.374 38.376C816.59 37.816 815.99 37.184 815.574 36.48C815.174 35.76 814.974 34.792 814.974 33.576V27.96C814.974 26.52 815.23 25.312 815.742 24.336C816.254 23.344 816.998 22.6 817.974 22.104C818.966 21.592 820.174 21.336 821.598 21.336C823.07 21.336 824.294 21.592 825.27 22.104C826.246 22.6 826.982 23.344 827.478 24.336C827.974 25.312 828.222 26.52 828.222 27.96V33.576C828.222 34.792 828.022 35.76 827.622 36.48C827.222 37.184 826.622 37.816 825.822 38.376C826.718 38.968 827.39 39.664 827.838 40.464C828.286 41.264 828.51 42.328 828.51 43.656V49.944C828.51 51.448 828.246 52.76 827.718 53.88C827.19 55 826.414 55.864 825.39 56.472C824.366 57.08 823.102 57.384 821.598 57.384ZM821.598 52.632C822.062 52.632 822.43 52.512 822.702 52.272C822.99 52.032 823.166 51.688 823.23 51.24C823.31 50.776 823.366 50.144 823.398 49.344C823.446 48.544 823.47 47.736 823.47 46.92C823.47 46.168 823.446 45.4 823.398 44.616C823.366 43.832 823.31 43.192 823.23 42.696C823.134 42.184 822.95 41.8 822.678 41.544C822.422 41.288 822.062 41.16 821.598 41.16C821.15 41.16 820.79 41.288 820.518 41.544C820.262 41.8 820.094 42.184 820.014 42.696C819.934 43.144 819.87 43.776 819.822 44.592C819.774 45.392 819.75 46.176 819.75 46.944C819.75 47.728 819.766 48.528 819.798 49.344C819.846 50.144 819.902 50.776 819.966 51.24C820.03 51.688 820.23 52.032 820.566 52.272C820.902 52.512 821.246 52.632 821.598 52.632ZM821.598 36.072C821.934 36.072 822.206 35.968 822.414 35.76C822.638 35.536 822.798 35.208 822.894 34.776C822.974 34.36 823.03 33.816 823.062 33.144C823.11 32.472 823.134 31.672 823.134 30.744C823.134 29.928 823.11 29.216 823.062 28.608C823.03 28 822.974 27.496 822.894 27.096C822.798 26.68 822.638 26.376 822.414 26.184C822.206 25.992 821.934 25.896 821.598 25.896C821.31 25.896 821.07 25.984 820.878 26.16C820.686 26.32 820.542 26.584 820.446 26.952C820.334 27.336 820.246 27.928 820.182 28.728C820.118 29.512 820.086 30.328 820.086 31.176C820.086 31.896 820.11 32.584 820.158 33.24C820.206 33.88 820.27 34.392 820.35 34.776C820.43 35.208 820.574 35.536 820.782 35.76C820.99 35.968 821.262 36.072 821.598 36.072Z" fill="#151515"/>
<rect x="515" y="43" width="50" height="9" fill="#151515"/>
<path d="M889.9 63.768V37.308H893.536V38.604C893.992 38.172 894.472 37.8 894.976 37.488C895.48 37.176 895.96 37.02 896.416 37.02C897.04 37.02 897.556 37.212 897.964 37.596C898.384 37.968 898.696 38.448 898.9 39.036C899.116 39.624 899.224 40.236 899.224 40.872V53.436C899.224 54.072 899.116 54.69 898.9 55.29C898.684 55.878 898.366 56.358 897.946 56.73C897.526 57.102 897.016 57.288 896.416 57.288C895.912 57.288 895.42 57.132 894.94 56.82C894.46 56.496 893.992 56.124 893.536 55.704V63.768H889.9ZM894.796 53.868C895.072 53.868 895.27 53.784 895.39 53.616C895.522 53.448 895.588 53.196 895.588 52.86V41.808C895.588 41.352 895.522 41.01 895.39 40.782C895.27 40.554 895.072 40.44 894.796 40.44C894.532 40.44 894.256 40.554 893.968 40.782C893.68 40.998 893.536 41.28 893.536 41.628V52.68C893.536 52.968 893.68 53.238 893.968 53.49C894.256 53.742 894.532 53.868 894.796 53.868ZM905.316 57.252C903.864 57.252 902.724 56.766 901.896 55.794C901.068 54.81 900.654 53.568 900.654 52.068V42.204C900.654 40.704 901.068 39.468 901.896 38.496C902.724 37.512 903.864 37.02 905.316 37.02C906.756 37.02 907.89 37.512 908.718 38.496C909.558 39.468 909.978 40.704 909.978 42.204V52.068C909.978 53.568 909.558 54.81 908.718 55.794C907.89 56.766 906.756 57.252 905.316 57.252ZM905.316 54.084C905.784 54.084 906.108 53.898 906.288 53.526C906.468 53.142 906.558 52.656 906.558 52.068V42.204C906.558 41.604 906.468 41.118 906.288 40.746C906.108 40.374 905.784 40.188 905.316 40.188C904.848 40.188 904.524 40.374 904.344 40.746C904.164 41.118 904.074 41.604 904.074 42.204V52.068C904.074 52.668 904.164 53.154 904.344 53.526C904.524 53.898 904.848 54.084 905.316 54.084ZM916.708 57.288C915.568 57.288 914.698 57.036 914.098 56.532C913.498 56.028 913.084 55.308 912.856 54.372C912.64 53.436 912.532 52.32 912.532 51.024V40.584H910.696V37.308H912.532V32.448H916.168V37.308H918.67V40.584H916.168V51.546C916.168 52.314 916.282 52.884 916.51 53.256C916.738 53.616 917.11 53.796 917.626 53.796C917.854 53.796 918.052 53.778 918.22 53.742C918.4 53.706 918.544 53.664 918.652 53.616V56.946C918.412 57.042 918.148 57.12 917.86 57.18C917.584 57.252 917.2 57.288 916.708 57.288ZM919.928 57V37.308H923.564V57H919.928ZM919.928 34.176V30.54H923.564V34.176H919.928ZM930.03 57.252C928.578 57.252 927.438 56.766 926.61 55.794C925.782 54.81 925.368 53.568 925.368 52.068V42.204C925.368 40.704 925.782 39.468 926.61 38.496C927.438 37.512 928.578 37.02 930.03 37.02C931.47 37.02 932.604 37.512 933.432 38.496C934.272 39.468 934.692 40.704 934.692 42.204V52.068C934.692 53.568 934.272 54.81 933.432 55.794C932.604 56.766 931.47 57.252 930.03 57.252ZM930.03 54.084C930.498 54.084 930.822 53.898 931.002 53.526C931.182 53.142 931.272 52.656 931.272 52.068V42.204C931.272 41.604 931.182 41.118 931.002 40.746C930.822 40.374 930.498 40.188 930.03 40.188C929.562 40.188 929.238 40.374 929.058 40.746C928.878 41.118 928.788 41.604 928.788 42.204V52.068C928.788 52.668 928.878 53.154 929.058 53.526C929.238 53.898 929.562 54.084 930.03 54.084ZM936.306 57V37.308H939.942V38.964C940.374 38.544 940.86 38.118 941.4 37.686C941.94 37.242 942.438 37.02 942.894 37.02C943.494 37.02 943.998 37.212 944.406 37.596C944.814 37.98 945.12 38.466 945.324 39.054C945.528 39.642 945.63 40.248 945.63 40.872V57H941.994V41.592C941.994 41.208 941.928 40.938 941.796 40.782C941.664 40.626 941.442 40.548 941.13 40.548C940.866 40.548 940.638 40.644 940.446 40.836C940.266 41.016 940.098 41.232 939.942 41.484V57H936.306ZM952.132 57.288C951.28 57.288 950.536 57.144 949.9 56.856C949.264 56.568 948.736 56.16 948.316 55.632C947.896 55.092 947.578 54.456 947.362 53.724C947.158 52.992 947.056 52.176 947.056 51.276H950.44C950.44 52.08 950.566 52.782 950.818 53.382C951.082 53.97 951.52 54.264 952.132 54.264C952.66 54.264 953.002 54.042 953.158 53.598C953.314 53.154 953.392 52.644 953.392 52.068C953.392 51.396 953.128 50.712 952.6 50.016C952.084 49.308 951.544 48.678 950.98 48.126C950.008 47.166 949.198 46.218 948.55 45.282C947.914 44.346 947.596 43.248 947.596 41.988C947.596 40.5 947.986 39.3 948.766 38.388C949.546 37.476 950.656 37.02 952.096 37.02C952.96 37.02 953.686 37.134 954.274 37.362C954.874 37.59 955.354 37.932 955.714 38.388C956.074 38.844 956.332 39.402 956.488 40.062C956.656 40.722 956.74 41.484 956.74 42.348H953.356C953.356 41.724 953.29 41.184 953.158 40.728C953.026 40.272 952.696 40.044 952.168 40.044C951.736 40.044 951.43 40.23 951.25 40.602C951.07 40.962 950.98 41.424 950.98 41.988C950.98 42.648 951.136 43.236 951.448 43.752C951.772 44.256 952.306 44.874 953.05 45.606C953.986 46.518 954.838 47.49 955.606 48.522C956.386 49.554 956.776 50.676 956.776 51.888C956.776 52.68 956.668 53.406 956.452 54.066C956.248 54.726 955.942 55.296 955.534 55.776C955.138 56.256 954.652 56.628 954.076 56.892C953.512 57.156 952.864 57.288 952.132 57.288Z" fill="#151515"/>
<path d="M970.416 61V33.352H966.96V30.04C968.176 29.8 969.264 29.312 970.224 28.576C971.184 27.84 971.936 26.888 972.48 25.72H975.6V61H970.416ZM985.739 61.384C984.251 61.384 983.003 61.056 981.995 60.4C980.987 59.744 980.227 58.84 979.715 57.688C979.219 56.536 978.971 55.224 978.971 53.752V33.928C978.971 32.648 979.091 31.488 979.331 30.448C979.587 29.392 979.979 28.488 980.507 27.736C981.051 26.968 981.755 26.376 982.619 25.96C983.483 25.544 984.523 25.336 985.739 25.336C986.971 25.336 988.011 25.536 988.859 25.936C989.723 26.32 990.419 26.88 990.947 27.616C991.491 28.352 991.883 29.232 992.123 30.256C992.379 31.28 992.507 32.424 992.507 33.688V35.416H987.323C987.323 34.28 987.291 33.296 987.227 32.464C987.163 31.632 987.019 30.992 986.795 30.544C986.571 30.08 986.219 29.848 985.739 29.848C985.259 29.848 984.907 30.04 984.683 30.424C984.459 30.808 984.315 31.312 984.251 31.936C984.187 32.56 984.155 33.224 984.155 33.928V39.352C984.379 39.048 984.731 38.776 985.211 38.536C985.707 38.28 986.299 38.152 986.987 38.152C987.835 38.152 988.595 38.304 989.267 38.608C989.955 38.912 990.539 39.36 991.019 39.952C991.499 40.528 991.867 41.248 992.123 42.112C992.379 42.976 992.507 43.976 992.507 45.112V53.752C992.507 55.24 992.251 56.56 991.739 57.712C991.227 58.848 990.467 59.744 989.459 60.4C988.451 61.056 987.211 61.384 985.739 61.384ZM985.739 56.872C986.299 56.872 986.699 56.6 986.939 56.056C987.195 55.496 987.323 54.92 987.323 54.328V44.776C987.323 44.2 987.203 43.664 986.963 43.168C986.723 42.672 986.323 42.424 985.763 42.424C985.219 42.424 984.811 42.672 984.539 43.168C984.283 43.648 984.155 44.2 984.155 44.824V54.328C984.155 54.92 984.267 55.496 984.491 56.056C984.731 56.6 985.147 56.872 985.739 56.872Z" fill="#151515"/>
<rect x="849" y="42" width="36" height="9" fill="#151515"/>
</svg>
