<svg width="108" height="92" viewBox="0 0 108 92" fill="none" xmlns="http://www.w3.org/2000/svg">
<path d="M81.8449 0.554357C81.7945 1.3103 80.3834 1.41109 69.5986 1.71347C50.0449 2.21743 5.59563 2.31822 3.57979 1.86465L1.66474 1.46149V3.57812C1.66474 4.88842 1.31197 6.09792 0.80801 6.65228C-0.653475 8.31535 -0.19991 10.18 2.72306 14.1109C4.23494 16.1771 6.65395 18.9993 8.06504 20.4608L10.736 23.0814L10.8368 30.3384C10.9376 34.2693 10.8368 38.6034 10.6352 39.9137C10.4337 41.2744 10.4841 42.4335 10.7864 42.5847C11.6936 43.1894 10.988 58.3586 9.67771 66.674C9.07296 70.5545 8.77059 70.8065 3.68058 72.0664C0.757614 72.8223 0.404842 73.0239 0.253654 74.2334C0.102466 75.4933 0.203258 75.5437 1.76554 75.2917C8.46821 74.0822 11.9455 71.0584 12.9535 65.4645C13.1046 64.4565 13.3566 55.0325 13.4574 44.5501C13.8102 15.5724 13.0039 11.7423 5.89801 8.06337C4.28534 7.25703 3.83177 6.80347 4.03336 6.04753C4.23494 5.24119 4.63811 5.09 5.74682 5.29159C7.3091 5.59396 68.1875 4.73723 83.4575 4.18287L92.8816 3.8805V2.72139C92.8816 1.56228 92.7808 1.51188 88.5979 1.51188C84.8686 1.51188 84.3143 1.41109 84.3143 0.604753C84.2639 -0.201584 84.2639 -0.201584 83.6087 0.604753C83.2559 1.10871 82.8024 1.51188 82.6512 1.51188C82.5 1.51188 82.248 1.10871 82.1472 0.604753C81.9456 -0.100792 81.8953 -0.151188 81.8449 0.554357Z" fill="#151515"/>
<path d="M97.1145 2.06629C96.9633 2.36866 97.0641 2.87262 97.3664 3.175C97.6688 3.47737 97.9208 4.23332 97.9208 4.88846C97.9208 5.99718 97.6688 6.14837 92.8812 7.25708C90.311 7.86183 88.4463 9.4745 87.0352 12.4479L85.5738 15.3708L85.6242 38.301C85.6746 57.9051 85.7753 61.7352 86.4809 64.6582C88.144 71.3105 89.9582 73.0743 95.1994 73.0743C98.1224 73.0743 98.324 73.1751 98.6263 74.3846C98.8279 75.1406 98.9287 75.7453 98.8279 75.8461C98.4752 76.0981 45.5593 77.2572 23.9394 77.4588L0.656425 77.7108L0.354049 78.9203C0.00127657 80.1802 0.202861 80.5833 5.04088 87.79L7.20791 91.0153L17.8919 90.9145C23.7882 90.8641 39.159 90.6121 52.0604 90.4106C78.7199 89.9066 83.4571 89.9066 96.3081 90.3602L105.531 90.7129L106.79 89.453C107.798 88.4451 108 87.7396 108 85.4213C108 82.0448 107.849 81.692 103.364 75.9973C101.449 73.5279 99.6847 70.9073 99.3823 70.1513C99.0799 69.4458 98.8783 67.2284 98.9287 65.2629C98.9791 63.3479 98.8783 52.8151 98.7271 41.8792C98.3744 19.5537 98.2232 20.6624 102.154 19.6041C103.313 19.3017 104.472 18.8482 104.825 18.5458C105.883 17.6891 106.639 12.8006 106.035 10.936C105.48 9.37371 100.491 2.67104 99.2815 1.9151C98.4248 1.36074 97.5176 1.41114 97.1145 2.06629Z" fill="#151515"/>
<path d="M66.0714 7.40827C62.4932 7.50906 59.6207 7.71065 59.6207 7.91223C59.6207 8.06342 60.4774 8.92015 61.4853 9.82728C63.2492 11.3392 63.4004 11.6415 63.7027 15.4212C63.9043 17.5883 64.1059 27.4659 64.1059 37.3939C64.1563 55.0829 64.1563 55.3349 65.1642 55.0829C65.7186 54.9317 66.1721 54.9317 66.1721 55.1333C66.1721 55.2845 65.7186 56.2924 65.1642 57.3004C64.5091 58.5099 64.1563 60.1729 64.1563 61.8864C64.1563 63.3983 63.5515 66.4724 62.846 68.8915C61.2333 73.9311 61.4349 74.3846 64.9122 73.5279C66.5753 73.1247 70.1534 73.0239 76.5537 73.2255C82.5509 73.3767 85.8266 73.3263 85.8266 73.0239C85.8266 72.7216 85.2218 71.7136 84.5163 70.7561C82.8028 68.5387 82.2989 65.9685 81.8453 56.746C81.4925 50.2953 81.3414 49.1362 80.535 48.5818C79.6783 47.9267 79.6783 47.8763 80.4342 47.8763C81.2406 47.8763 81.291 46.9692 81.2406 36.7388L81.1902 25.5509L78.368 25.8532L75.4954 26.1052L78.368 25.2989C81.5933 24.3917 81.7949 23.9886 81.7949 18.445C81.7949 13.1534 82.3493 10.1297 83.3068 9.82728C83.8108 9.67609 84.3147 8.97055 84.4659 8.3154L84.6675 7.0555L78.5696 7.15629C75.2434 7.20668 69.5991 7.35787 66.0714 7.40827ZM72.7236 26.7604C71.2117 27.0123 69.0951 27.6675 68.0872 28.2722C65.8698 29.4817 65.517 29.2802 67.5328 27.9195C69.1959 26.8611 71.3125 26.3068 73.7315 26.3068C74.9915 26.3068 74.7395 26.458 72.7236 26.7604ZM80.787 30.2881C80.787 30.5401 80.5854 30.6409 80.283 30.4897C80.0311 30.3385 79.7791 30.3889 79.7791 30.6912C79.7791 31.296 74.3363 35.5293 73.9835 35.1765C73.7316 34.9245 79.7791 29.8345 80.4342 29.7841C80.6358 29.7337 80.787 29.9857 80.787 30.2881ZM75.6466 50.2449C74.8403 51.2024 67.8856 51.152 67.5328 50.1441C67.2809 49.5394 67.9864 49.4386 71.6653 49.5394C75.193 49.6402 76.0498 49.7914 75.6466 50.2449ZM77.8136 55.6373C78.0656 55.4861 78.2672 55.6373 78.2672 55.8893C78.2672 56.1917 78.0152 56.4436 77.7128 56.4436C77.4609 56.4436 77.3601 56.746 77.5617 57.0484C77.7632 57.4012 77.7128 57.5523 77.5113 57.3004C77.2593 57.0988 77.0073 56.3932 76.9569 55.7885C76.8561 55.1837 76.9569 54.9821 77.0577 55.3349C77.2089 55.6373 77.5617 55.8389 77.8136 55.6373ZM75.6466 70.4033C75.1426 70.5041 74.2355 70.5041 73.6308 70.4033C72.9756 70.3025 73.3788 70.2018 74.4875 70.2018C75.5962 70.1514 76.1002 70.2521 75.6466 70.4033Z" fill="#151515"/>
<path d="M12.9534 8.66836C15.6244 12.4481 16.7835 16.3286 16.7835 21.6705C16.7835 23.9888 17.0355 25.7526 17.3883 26.1054C17.8418 26.559 17.8418 26.8613 17.3883 27.3149C16.9347 27.7685 16.7835 31.5986 16.7835 41.325C16.7331 48.6828 16.5315 57.6029 16.2796 61.2314C15.8764 67.2286 15.7252 67.9845 14.1125 71.1595L12.3487 74.536L20.2608 74.3848C24.5949 74.284 30.3401 74.1832 33.1118 74.1328C36.8411 74.0824 38.0003 73.9312 37.7987 73.4777C34.9765 67.0774 34.4221 65.2127 34.4221 62.2898C34.4221 58.0061 33.8678 53.8736 33.3638 54.2264C33.1118 54.3776 32.9102 54.2264 32.9102 53.9744C32.9102 53.672 33.1622 53.42 33.4142 53.42C34.1198 53.42 34.0694 47.5237 33.3134 47.2717C33.011 47.1709 32.8599 46.667 33.0614 46.2134C33.2126 45.7599 33.4646 39.6619 33.6158 32.6569C33.9182 18.9995 34.6237 13.3048 36.3876 10.3818C36.9923 9.4747 37.4459 8.46677 37.4459 8.114C37.4459 7.71083 33.8678 7.55964 24.7965 7.55964H12.1471L12.9534 8.66836ZM33.9182 9.87786C33.9182 10.281 33.7166 10.4826 33.4142 10.3314C33.1622 10.1802 32.9102 9.67628 32.9102 9.27311C32.9102 8.86994 33.1622 8.66836 33.4142 8.81955C33.7166 8.97073 33.9182 9.4747 33.9182 9.87786ZM20.6136 10.9362C20.0593 11.4905 19.7569 10.7346 20.16 9.77707C20.5128 8.86994 20.5632 8.86994 20.7144 9.72668C20.8152 10.2306 20.7648 10.785 20.6136 10.9362ZM24.1917 37.3941C24.0909 38.0493 23.9901 37.6461 23.9901 36.5374C23.9398 35.4287 24.0405 34.9247 24.1917 35.3783C24.2925 35.8822 24.2925 36.7894 24.1917 37.3941ZM24.3429 44.4496C24.3429 44.7519 23.8894 44.8527 23.335 44.7015C22.7806 44.5503 22.3271 44.6511 22.3271 44.9031C22.3271 45.4575 21.7727 45.4575 20.8656 44.9031C20.5128 44.6511 20.3112 44.248 20.4624 43.996C20.8656 43.3912 24.3429 43.7944 24.3429 44.4496ZM27.8706 46.1126C27.8706 46.5158 27.6691 46.8686 27.3667 46.8686C27.1147 46.8686 26.8627 46.5158 26.8627 46.1126C26.8627 45.7095 27.1147 45.3567 27.3667 45.3567C27.6691 45.3567 27.8706 45.7095 27.8706 46.1126ZM25.9556 52.9665C26.1068 56.9982 25.8548 57.4013 22.4279 58.4093C20.5632 58.9132 20.3112 59.1652 20.5128 60.2235C20.664 60.9291 20.916 61.7354 21.1176 62.0882C21.3192 62.4409 21.1176 62.3905 20.7144 61.9874C19.7569 61.0802 19.1521 58.1069 19.8073 57.7037C20.1097 57.5525 20.3112 56.7462 20.3112 55.9398C20.3112 54.3272 20.8656 53.8232 22.831 53.5712C23.9901 53.4704 24.2421 53.7224 24.6453 55.3351C25.1493 57.099 25.1493 56.9478 25.2501 53.5208C25.3004 51.253 25.1493 49.8923 24.7965 49.8923C24.5445 49.8923 24.4437 50.1443 24.6453 50.4971C24.8973 50.8498 24.7965 50.9002 24.3429 50.6483C23.839 50.3459 23.7382 50.4467 23.9901 51.1018C24.1917 51.6058 24.1413 51.8578 23.839 51.6562C22.831 51.0514 23.335 49.5899 24.5445 49.4892C25.7036 49.3884 25.8044 49.5396 25.9556 52.9665ZM30.3904 52.2609C30.3904 54.2768 30.2393 54.9319 29.8865 54.428C29.6345 54.0248 29.1305 53.672 28.7778 53.6216C28.425 53.6216 27.7195 53.5208 27.2659 53.5208C26.7619 53.4704 26.3588 53.2689 26.3588 53.0169C26.3588 52.4121 29.2817 49.3884 29.8361 49.3884C30.1889 49.3884 30.3904 50.5979 30.3904 52.2609ZM30.3904 58.6108C30.1889 58.8124 29.1809 59.1148 28.173 59.3164C26.4092 59.6188 26.258 59.518 26.4596 58.4093C26.5603 57.6029 27.2155 56.8974 28.3746 56.2926L30.1385 55.4359L30.4408 56.7966C30.592 57.6029 30.592 58.4093 30.3904 58.6108ZM25.8548 60.6267C25.8548 62.6929 24.3933 64.2552 22.8814 63.7512C21.3192 63.2473 21.42 60.9795 23.0326 60.9795C23.7886 60.9795 24.3429 60.6267 24.4941 59.9715C24.8973 58.3589 25.8548 58.8124 25.8548 60.6267ZM30.6424 63.4993C30.7936 63.8016 30.3904 64.0032 29.6849 64.0032C28.9794 64.0032 28.2738 64.2048 28.1226 64.5072C27.7195 65.1623 26.8627 65.1623 26.8627 64.5576C26.8627 64.3056 27.4675 63.852 28.2738 63.6001C30.0881 62.8945 30.2897 62.8945 30.6424 63.4993ZM27.3667 66.1199C27.3667 66.3214 27.0643 66.523 26.6611 66.523C26.258 66.523 25.8044 67.027 25.7036 67.6317C25.5524 68.5389 25.4516 68.4381 25.4012 67.279C25.3508 66.0191 25.5524 65.7167 26.3588 65.7167C26.9131 65.7167 27.3667 65.9183 27.3667 66.1199ZM29.8865 70.5547C29.8865 70.8067 29.3825 71.0587 28.7778 71.0587C27.8202 71.0587 27.7699 70.9579 28.3746 70.5547C29.3321 69.8996 29.8865 69.8996 29.8865 70.5547ZM29.7857 71.613C32.3559 71.5122 31.6503 72.369 28.7274 72.8729C26.1068 73.3769 26.0564 73.3265 25.9556 72.1674C25.8548 71.1091 26.006 71.0083 27.0139 71.3106C27.6187 71.5122 28.8786 71.613 29.7857 71.613Z" fill="#151515"/>
<path d="M43.4433 8.71862C42.4353 9.37376 41.125 11.0872 40.2683 12.7503C38.8572 15.4717 38.7564 16.1268 38.3533 24.3414C38.1013 29.129 38.0509 34.1686 38.2021 35.5797L38.5045 38.1499L44.6024 38.4523C47.9789 38.6539 52.9177 38.8051 55.6391 38.8051C60.5779 38.8051 60.6283 38.8051 60.9307 37.4444C61.3339 35.8821 60.7291 19.5034 60.1747 16.026C59.6708 13.1031 58.0077 10.5833 55.3871 8.8698C53.6233 7.71069 52.8169 7.55951 49.2388 7.55951C45.8119 7.55951 44.8544 7.76109 43.4433 8.71862ZM57.1006 18.5458C58.1589 19.4026 58.2093 19.8057 58.2597 27.9699C58.3605 37.7467 58.7133 37.142 53.3713 36.5372L50.2971 36.2349L50.2467 30.5905C50.2467 27.4659 50.0451 23.8878 49.7932 22.6279C49.4404 20.3097 49.4404 20.2593 51.3554 18.949C53.6233 17.4371 55.5383 17.2859 57.1006 18.5458Z" fill="#151515"/>
<path d="M38.7056 54.0246C39.0583 67.1276 39.3103 68.2363 41.7797 70.7561C44.8539 73.7798 49.2887 74.7877 54.3787 73.5278C56.9993 72.8727 59.368 70.4537 60.0735 67.6819C60.3255 66.6236 60.6279 60.5257 60.7286 54.1758L60.8798 42.5847L56.5962 42.2319C54.2276 42.0807 49.188 41.9295 45.3075 41.8791L38.3024 41.8287L38.7056 54.0246ZM57.1505 52.9159C58.612 52.9159 58.612 52.9159 58.612 56.0404C58.612 60.6769 57.3017 67.9843 56.2938 69.093C55.1347 70.4033 51.2542 70.4537 50.851 69.1434C50.7502 68.6898 50.4983 65.3133 50.2967 61.7352C50.1455 58.1067 49.8431 54.5285 49.6919 53.7222L49.4399 52.2607L52.5645 52.5631C54.3284 52.7647 56.3946 52.9159 57.1505 52.9159Z" fill="#151515"/>
</svg>
