<svg width="59" height="285" viewBox="0 0 59 285" fill="none" xmlns="http://www.w3.org/2000/svg">
<rect width="59" height="285" fill="#151515"/>
<path d="M35.82 244.609L13.5 240.469V228.769C14.79 228.529 15.705 228.409 16.245 228.409C16.755 229.849 17.145 231.094 17.415 232.144L40.68 228.949L41.085 225.844C42.315 225.844 43.62 226.189 45 226.879V237.814L42.525 238.219C41.835 236.539 41.4 235.279 41.22 234.439L22.86 237.904L42.795 242.494V247.084L20.79 254.194L40.68 258.019L41.085 254.914C42.315 254.914 43.62 255.259 45 255.949V266.884L42.525 267.289C41.835 265.609 41.4 264.349 41.22 263.509L17.415 260.314L16.245 264.049L13.5 263.689L13.5 251.089L35.82 245.059V244.609ZM28.665 198.408L17.415 198.588L16.245 202.323L13.5 201.963L13.5 190.263C13.5 190.293 13.53 190.293 13.59 190.263C13.65 190.203 13.785 190.143 13.995 190.083C14.175 189.993 14.4 189.903 14.67 189.813C15.15 189.633 15.945 189.513 17.055 189.453C17.295 190.983 17.445 191.988 17.505 192.468L28.935 192.558C34.665 192.618 38.865 193.668 41.535 195.708C44.205 197.718 45.54 201.168 45.54 206.058C45.54 210.948 44.295 214.353 41.805 216.273C39.315 218.193 35.295 219.183 29.745 219.243C24.165 219.303 20.055 219.363 17.415 219.423L16.245 223.158L13.5 222.798V211.098C13.5 211.128 13.53 211.128 13.59 211.098C13.65 211.038 13.785 210.978 13.995 210.918C14.175 210.828 14.4 210.738 14.67 210.648C15.15 210.468 15.945 210.348 17.055 210.288C17.295 211.818 17.445 212.823 17.505 213.303L28.935 213.438C32.265 213.438 34.635 213.258 36.045 212.898C37.425 212.538 38.4 212.088 38.97 211.548C40.17 210.378 40.77 208.518 40.77 205.968C40.77 203.508 40.08 201.648 38.7 200.388C37.59 199.368 35.64 198.753 32.85 198.543C31.74 198.453 30.345 198.408 28.665 198.408ZM28.575 161.737C35.175 161.737 39.765 163.312 42.345 166.462C43.365 167.752 44.07 169.147 44.46 170.647C44.82 172.147 45 174.112 45 176.542V188.197L42.525 188.602C41.685 186.322 41.25 185.062 41.22 184.822C41.13 184.822 33.195 184.957 17.415 185.227C17.085 186.547 16.695 187.792 16.245 188.962C14.685 188.782 13.77 188.662 13.5 188.602V176.677C13.5 173.737 13.8 171.397 14.4 169.657C15 167.887 16.065 166.327 17.595 164.977C20.115 162.817 23.775 161.737 28.575 161.737ZM40.635 176.137C40.635 172.717 39.81 170.452 38.16 169.342C36.51 168.202 33.66 167.632 29.61 167.632C25.56 167.632 22.62 168.262 20.79 169.522C18.93 170.782 18 172.882 18 175.822V179.107C28.11 179.227 35.655 179.302 40.635 179.332V176.137ZM40.86 146.843C40.86 142.193 39.195 139.868 35.865 139.868C33.435 139.868 31.905 140.438 31.275 141.578C30.615 142.688 30.285 145.208 30.285 149.138L40.77 149.318C40.83 148.298 40.86 147.473 40.86 146.843ZM26.595 147.113C26.535 144.803 26.235 143.168 25.695 142.208C25.155 141.248 24.03 140.768 22.32 140.768C20.58 140.768 19.425 141.323 18.855 142.433C18.285 143.543 18 145.223 18 147.473V149.093C21.78 149.153 24.63 149.183 26.55 149.183L26.595 147.113ZM45.045 147.068V158.183L42.57 158.588C41.94 157.028 41.505 155.768 41.265 154.808C41.175 154.808 33.24 154.943 17.46 155.213C17.34 155.693 16.95 156.938 16.29 158.948L13.545 158.588V146.123C13.545 142.553 14.235 139.778 15.615 137.798C16.995 135.818 18.99 134.828 21.6 134.828C22.86 134.828 24.225 135.173 25.695 135.863C27.165 136.523 28.035 137.288 28.305 138.158C29.025 136.838 30.03 135.803 31.32 135.053C32.61 134.303 34.095 133.928 35.775 133.928C38.535 133.928 40.77 135.053 42.48 137.303C44.19 139.553 45.045 142.808 45.045 147.068ZM36.81 110.938C36.69 110.218 36.63 109.678 36.63 109.318C36.63 108.928 36.735 108.103 36.945 106.843C37.185 106.723 37.95 106.558 39.24 106.348C40.53 106.108 41.58 105.988 42.39 105.988C43.17 105.988 44.04 106.078 45 106.258V128.083L42.525 128.488C41.925 127.018 41.49 125.758 41.22 124.708C41.13 124.708 33.195 124.843 17.415 125.113L16.245 128.848L13.5 128.488V116.788C13.5 116.818 13.53 116.818 13.59 116.788C13.65 116.728 13.785 116.668 13.995 116.608C14.175 116.518 14.4 116.428 14.67 116.338C15.15 116.158 15.945 116.038 17.055 115.978C17.295 117.508 17.445 118.513 17.505 118.993C27.855 119.113 35.58 119.188 40.68 119.218V111.928L36.81 110.938ZM40.77 90.4723C40.77 85.4923 36.945 83.0023 29.295 83.0023C21.645 83.0023 17.82 85.4923 17.82 90.4723C17.82 92.6323 18.15 94.5223 18.81 96.1423C21.69 97.5223 25.035 98.2123 28.845 98.2123C32.625 98.2123 35.565 97.6423 37.665 96.5023C39.735 95.3623 40.77 93.3523 40.77 90.4723ZM12.96 90.4723C12.96 85.4623 14.28 81.9373 16.92 79.8973C19.53 77.8573 23.535 76.8373 28.935 76.8373C32.325 76.8373 35.22 77.2723 37.62 78.1423C40.02 79.0123 41.94 80.4823 43.38 82.5523C44.82 84.6223 45.54 87.2623 45.54 90.4723C45.54 95.3623 44.175 98.9173 41.445 101.137C38.715 103.327 34.74 104.422 29.52 104.422C18.48 104.422 12.96 99.7723 12.96 90.4723ZM40.77 61.3365C40.77 56.3565 36.945 53.8665 29.295 53.8665C21.645 53.8665 17.82 56.3565 17.82 61.3365C17.82 63.4965 18.15 65.3865 18.81 67.0065C21.69 68.3865 25.035 69.0765 28.845 69.0765C32.625 69.0765 35.565 68.5065 37.665 67.3665C39.735 66.2265 40.77 64.2165 40.77 61.3365ZM12.96 61.3365C12.96 56.3265 14.28 52.8015 16.92 50.7615C19.53 48.7215 23.535 47.7015 28.935 47.7015C32.325 47.7015 35.22 48.1365 37.62 49.0065C40.02 49.8765 41.94 51.3465 43.38 53.4165C44.82 55.4865 45.54 58.1265 45.54 61.3365C45.54 66.2265 44.175 69.7815 41.445 72.0015C38.715 74.1915 34.74 75.2865 29.52 75.2865C18.48 75.2865 12.96 70.6365 12.96 61.3365ZM28.575 18.4758C35.175 18.4758 39.765 20.0508 42.345 23.2008C43.365 24.4908 44.07 25.8858 44.46 27.3858C44.82 28.8858 45 30.8508 45 33.2808V44.9358L42.525 45.3408C41.685 43.0608 41.25 41.8008 41.22 41.5608C41.13 41.5608 33.195 41.6958 17.415 41.9658C17.085 43.2858 16.695 44.5308 16.245 45.7008C14.685 45.5208 13.77 45.4008 13.5 45.3408V33.4158C13.5 30.4758 13.8 28.1358 14.4 26.3958C15 24.6258 16.065 23.0658 17.595 21.7158C20.115 19.5558 23.775 18.4758 28.575 18.4758ZM40.635 32.8758C40.635 29.4558 39.81 27.1908 38.16 26.0808C36.51 24.9408 33.66 24.3708 29.61 24.3708C25.56 24.3708 22.62 25.0008 20.79 26.2608C18.93 27.5208 18 29.6208 18 32.5608V35.8458C28.11 35.9658 35.655 36.0408 40.635 36.0708V32.8758Z" fill="#EDE7DC"/>
</svg>
