<svg width="453" height="83" viewBox="0 0 453 83" fill="none" xmlns="http://www.w3.org/2000/svg">
<path d="M71.868 9.476C72.2493 9.476 72.572 9.57133 72.836 9.762C73.1 9.938 73.232 10.158 73.232 10.422C73.232 10.8913 73.0853 11.2727 72.792 11.566C72.4987 11.8447 72.0807 11.984 71.538 11.984C70.6873 11.984 70.042 11.9913 69.602 12.006C69.5727 12.182 69.4407 12.974 69.206 14.382C68.942 15.9513 68.7807 16.912 68.722 17.264L68.26 20.146C67.9373 22.302 67.6807 24.106 67.49 25.558C67.798 25.5433 68.216 25.536 68.744 25.536C69.5213 25.536 70.0493 25.6387 70.328 25.844C70.6067 26.0493 70.746 26.3573 70.746 26.768C70.746 27.1493 70.592 27.472 70.284 27.736C69.9907 28 69.5727 28.132 69.03 28.132C68.6633 28.132 68.084 28.1173 67.292 28.088C66.5587 28.0587 66.0747 28.044 65.84 28.044C64.916 28.044 63.904 28.1247 62.804 28.286C62.32 28.3593 61.9753 28.396 61.77 28.396C61.4473 28.396 61.176 28.308 60.956 28.132C60.736 27.956 60.626 27.6993 60.626 27.362C60.626 26.834 60.8607 26.4233 61.33 26.13C61.7993 25.8367 62.4593 25.6827 63.31 25.668L64.344 25.646L64.41 25.162C64.762 22.8153 65.0187 21.158 65.18 20.19L65.664 17.308C65.9573 15.6067 66.2213 13.854 66.456 12.05L64.608 12.072C64.08 12.072 63.7133 11.9913 63.508 11.83C63.3173 11.654 63.222 11.412 63.222 11.104C63.222 10.1067 63.9407 9.57133 65.378 9.498C66.0527 9.46867 66.874 9.454 67.842 9.454L71.868 9.476ZM97.5368 9.74C97.9915 9.828 98.3288 9.982 98.5488 10.202C98.7835 10.422 98.9008 10.6787 98.9008 10.972C98.9008 11.456 98.7615 11.808 98.4828 12.028C98.2188 12.248 97.7935 12.336 97.2068 12.292C95.8868 12.1893 94.8528 12.1233 94.1048 12.094C93.3715 12.05 92.4035 12.0207 91.2008 12.006C90.6582 14.7047 90.1595 17.418 89.7048 20.146C89.5435 21.1433 89.3748 22.302 89.1988 23.622C89.0228 24.9273 88.9055 25.9833 88.8468 26.79C88.8175 27.2153 88.6415 27.5453 88.3188 27.78C87.9962 28 87.6075 28.11 87.1528 28.11C86.6688 28.11 86.2948 27.9927 86.0308 27.758C85.7668 27.5233 85.6348 27.2153 85.6348 26.834C85.6348 26.482 85.6862 25.9027 85.7888 25.096C85.9062 24.2747 86.0382 23.4167 86.1848 22.522C86.3462 21.6273 86.4708 20.85 86.5588 20.19C86.7202 19.0753 86.9035 17.968 87.1088 16.868C87.3142 15.768 87.5195 14.7267 87.7248 13.744C87.7688 13.524 87.8202 13.2747 87.8788 12.996C87.9375 12.7027 88.0035 12.38 88.0768 12.028C86.6395 12.072 85.5102 12.1893 84.6888 12.38C83.8675 12.5707 83.2808 12.842 82.9288 13.194C82.5915 13.5313 82.4228 13.9713 82.4228 14.514C82.4228 15.0127 82.5695 15.4893 82.8628 15.944C82.9215 16.0467 82.9508 16.1567 82.9508 16.274C82.9508 16.5527 82.7822 16.8167 82.4448 17.066C82.1222 17.3007 81.7848 17.418 81.4328 17.418C81.1835 17.418 80.9782 17.3447 80.8168 17.198C80.5235 16.9487 80.2815 16.5967 80.0908 16.142C79.9002 15.6727 79.8048 15.1447 79.8048 14.558C79.8048 13.3113 80.2082 12.314 81.0148 11.566C81.8362 10.8033 83.0755 10.246 84.7328 9.894C86.4048 9.542 88.5462 9.366 91.1568 9.366C92.7702 9.366 94.0535 9.39533 95.0068 9.454C95.9748 9.51267 96.8182 9.608 97.5368 9.74ZM101.635 28.11C100.623 28.11 99.706 27.8607 98.8847 27.362C98.078 26.8633 97.44 26.1447 96.9707 25.206C96.5014 24.2527 96.2667 23.1307 96.2667 21.84C96.2667 19.6107 96.7434 17.55 97.6967 15.658C98.65 13.7513 100.058 12.226 101.921 11.082C103.783 9.92333 106.02 9.344 108.631 9.344C109.305 9.344 110.024 9.39533 110.787 9.498C111.564 9.60067 112.268 9.75467 112.899 9.96C113.309 10.0773 113.515 10.3707 113.515 10.84C113.515 11.2213 113.368 11.5807 113.075 11.918C112.796 12.2553 112.466 12.424 112.085 12.424C111.967 12.424 111.879 12.4167 111.821 12.402C111.058 12.226 110.405 12.1013 109.863 12.028C109.32 11.94 108.748 11.896 108.147 11.896C106.284 11.896 104.7 12.3507 103.395 13.26C102.089 14.1547 101.114 15.3427 100.469 16.824C99.8234 18.3053 99.5007 19.904 99.5007 21.62C99.5007 22.8667 99.7427 23.8347 100.227 24.524C100.725 25.1987 101.371 25.536 102.163 25.536C103.057 25.536 103.842 25.1693 104.517 24.436C105.191 23.7027 105.807 22.5147 106.365 20.872C106.922 19.2293 107.472 17 108.015 14.184C108.103 13.7733 108.279 13.4947 108.543 13.348C108.807 13.2013 109.159 13.128 109.599 13.128C110.64 13.128 111.161 13.4653 111.161 14.14C111.161 14.2573 111.139 14.404 111.095 14.58C110.713 16.0027 110.361 17.5793 110.039 19.31C109.731 21.026 109.577 22.3313 109.577 23.226C109.577 24.018 109.694 24.5973 109.929 24.964C110.163 25.316 110.523 25.492 111.007 25.492C111.476 25.492 111.923 25.338 112.349 25.03C112.774 24.7073 113.309 24.1647 113.955 23.402C114.131 23.1967 114.329 23.094 114.549 23.094C114.739 23.094 114.886 23.182 114.989 23.358C115.106 23.534 115.165 23.776 115.165 24.084C115.165 24.656 115.025 25.1107 114.747 25.448C114.028 26.3133 113.324 26.9733 112.635 27.428C111.945 27.8827 111.102 28.11 110.105 28.11C109.078 28.11 108.249 27.8167 107.619 27.23C106.988 26.6287 106.592 25.7853 106.431 24.7C105.345 26.9733 103.747 28.11 101.635 28.11ZM120.294 28.11C119.062 28.11 118.13 27.7727 117.5 27.098C116.869 26.4087 116.554 25.492 116.554 24.348C116.554 23.7027 116.649 22.918 116.84 21.994L118.204 15.702C118.233 15.5847 118.299 15.262 118.402 14.734C118.519 14.206 118.578 13.634 118.578 13.018C118.578 12.666 118.504 12.402 118.358 12.226C118.226 12.05 118.042 11.962 117.808 11.962C117.368 11.962 116.854 12.1747 116.268 12.6C115.681 13.0107 115.065 13.6487 114.42 14.514C114.214 14.7927 113.987 14.932 113.738 14.932C113.532 14.932 113.349 14.8367 113.188 14.646C113.041 14.4407 112.968 14.2133 112.968 13.964C112.968 13.5093 113.173 12.996 113.584 12.424C115.08 10.3707 116.832 9.344 118.842 9.344C119.736 9.344 120.433 9.61533 120.932 10.158C121.445 10.7007 121.702 11.5 121.702 12.556C121.702 13.304 121.65 13.9933 121.548 14.624C121.445 15.2547 121.269 16.1127 121.02 17.198L120.118 21.224C120.088 21.356 120.037 21.5907 119.964 21.928C119.89 22.2653 119.832 22.588 119.788 22.896C119.744 23.1893 119.722 23.4827 119.722 23.776C119.722 24.2453 119.854 24.6193 120.118 24.898C120.382 25.1767 120.756 25.316 121.24 25.316C122.12 25.316 123.007 24.8467 123.902 23.908C124.811 22.9693 125.647 21.4587 126.41 19.376C127.187 17.2787 127.788 14.602 128.214 11.346C128.316 10.598 128.463 10.0773 128.654 9.784C128.859 9.49067 129.248 9.344 129.82 9.344C130.333 9.344 130.714 9.498 130.964 9.806C131.213 10.114 131.338 10.6127 131.338 11.302C131.338 11.698 131.286 12.2187 131.184 12.864C131.096 13.5093 130.956 14.4113 130.766 15.57C130.37 17.814 130.054 19.8747 129.82 21.752C129.702 22.6027 129.644 23.2333 129.644 23.644C129.644 24.2453 129.776 24.7073 130.04 25.03C130.318 25.338 130.685 25.492 131.14 25.492C131.624 25.492 132.093 25.3307 132.548 25.008C133.017 24.6853 133.567 24.15 134.198 23.402C134.374 23.1967 134.572 23.094 134.792 23.094C134.982 23.094 135.129 23.182 135.232 23.358C135.349 23.534 135.408 23.776 135.408 24.084C135.408 24.656 135.268 25.1107 134.99 25.448C134.227 26.372 133.472 27.0467 132.724 27.472C131.976 27.8973 131.191 28.11 130.37 28.11C129.152 28.11 128.221 27.802 127.576 27.186C126.93 26.5553 126.608 25.7413 126.608 24.744C126.608 24.1867 126.725 23.1013 126.96 21.488C126.226 23.644 125.295 25.2867 124.166 26.416C123.051 27.5453 121.76 28.11 120.294 28.11ZM152.846 23.138C153.037 23.138 153.183 23.2333 153.286 23.424C153.403 23.6 153.462 23.8273 153.462 24.106C153.462 24.4433 153.411 24.7073 153.308 24.898C153.205 25.0887 153.044 25.2573 152.824 25.404C151.959 25.976 150.58 26.9147 148.688 28.22C148.116 31.256 147.375 33.6467 146.466 35.392C145.557 37.1373 144.405 38.01 143.012 38.01C142.264 38.01 141.655 37.7753 141.186 37.306C140.717 36.8513 140.482 36.25 140.482 35.502C140.482 34.8127 140.636 34.116 140.944 33.412C141.252 32.708 141.824 31.894 142.66 30.97C143.511 30.046 144.706 28.99 146.246 27.802L146.312 27.384C145.153 27.868 144.017 28.11 142.902 28.11C141.259 28.11 139.815 27.7947 138.568 27.164C137.321 26.5187 136.353 25.6093 135.664 24.436C134.975 23.2627 134.63 21.8987 134.63 20.344C134.63 18.1733 135.041 16.2593 135.862 14.602C136.683 12.93 137.813 11.6393 139.25 10.73C140.702 9.806 142.323 9.344 144.112 9.344C145.828 9.344 147.111 9.74733 147.962 10.554C148.827 11.346 149.26 12.402 149.26 13.722C149.26 14.5873 149.099 15.284 148.776 15.812C148.468 16.3253 148.021 16.582 147.434 16.582C147.038 16.582 146.715 16.4867 146.466 16.296C146.231 16.1053 146.114 15.8413 146.114 15.504C146.114 15.3573 146.143 15.108 146.202 14.756C146.29 14.3453 146.334 14.0227 146.334 13.788C146.334 13.172 146.143 12.6953 145.762 12.358C145.395 12.0207 144.772 11.852 143.892 11.852C142.821 11.852 141.824 12.16 140.9 12.776C139.991 13.392 139.257 14.316 138.7 15.548C138.143 16.7653 137.864 18.232 137.864 19.948C137.864 21.708 138.341 23.072 139.294 24.04C140.262 24.9933 141.655 25.47 143.474 25.47C144.486 25.47 145.542 25.2427 146.642 24.788L146.95 22.104H144.706C144.295 22.104 143.98 22.0087 143.76 21.818C143.54 21.6127 143.43 21.2827 143.43 20.828C143.43 20.4173 143.54 20.0947 143.76 19.86C143.98 19.6253 144.273 19.508 144.64 19.508H148.754C149.077 19.508 149.341 19.618 149.546 19.838C149.766 20.0433 149.854 20.344 149.81 20.74C149.766 21.2093 149.619 22.2727 149.37 23.93L149.128 25.602C150.301 24.722 151.372 23.9593 152.34 23.314C152.531 23.1967 152.699 23.138 152.846 23.138ZM143.254 35.876C143.635 35.876 144.053 35.4433 144.508 34.578C144.963 33.7127 145.388 32.3193 145.784 30.398C144.669 31.3513 143.863 32.2093 143.364 32.972C142.88 33.7493 142.638 34.4313 142.638 35.018C142.638 35.59 142.843 35.876 143.254 35.876ZM173.142 23.094C173.333 23.094 173.479 23.182 173.582 23.358C173.699 23.534 173.758 23.776 173.758 24.084C173.758 24.656 173.619 25.1107 173.34 25.448C171.888 27.2227 170.341 28.11 168.698 28.11C167.275 28.11 166.139 27.56 165.288 26.46C164.437 25.36 164.012 23.7833 164.012 21.73C164.012 21.2313 164.034 20.7327 164.078 20.234C163.11 20.41 162.054 20.542 160.91 20.63C160.147 20.6887 159.627 20.7253 159.348 20.74C159.055 22.236 158.644 24.0693 158.116 26.24C157.808 27.516 157.221 28.154 156.356 28.154C155.417 28.154 154.948 27.7287 154.948 26.878C154.948 26.6873 154.985 26.4233 155.058 26.086C155.557 24.0767 155.953 22.3753 156.246 20.982L155.19 21.026C154.706 21.026 154.354 20.9453 154.134 20.784C153.914 20.608 153.804 20.3293 153.804 19.948C153.804 19.464 153.943 19.112 154.222 18.892C154.501 18.6573 154.963 18.5253 155.608 18.496L156.774 18.452C157.155 16.384 157.346 14.8073 157.346 13.722C157.346 13.0327 157.243 12.5633 157.038 12.314C156.833 12.0647 156.561 11.94 156.224 11.94C155.197 11.94 154.039 12.798 152.748 14.514C152.557 14.7633 152.345 14.888 152.11 14.888C151.905 14.888 151.729 14.7927 151.582 14.602C151.435 14.4113 151.362 14.1693 151.362 13.876C151.362 13.4213 151.545 12.9373 151.912 12.424C152.557 11.5293 153.371 10.796 154.354 10.224C155.337 9.63733 156.334 9.344 157.346 9.344C158.299 9.344 159.033 9.674 159.546 10.334C160.074 10.9793 160.338 11.9913 160.338 13.37C160.338 14.5873 160.162 16.2373 159.81 18.32L161.966 18.21C162.89 18.166 163.682 18.0927 164.342 17.99C164.606 16.3767 165.009 14.866 165.552 13.458C166.095 12.05 166.769 10.906 167.576 10.026C168.383 9.146 169.285 8.706 170.282 8.706C171.015 8.706 171.595 8.99933 172.02 9.586C172.445 10.158 172.658 10.9133 172.658 11.852C172.658 15.4893 170.803 18.012 167.092 19.42C167.048 20.0067 167.026 20.6153 167.026 21.246C167.026 22.786 167.217 23.8787 167.598 24.524C167.979 25.1693 168.515 25.492 169.204 25.492C169.805 25.492 170.355 25.338 170.854 25.03C171.353 24.7073 171.917 24.1647 172.548 23.402C172.724 23.1967 172.922 23.094 173.142 23.094ZM170.172 10.62C169.849 10.62 169.505 10.9133 169.138 11.5C168.786 12.0867 168.449 12.886 168.126 13.898C167.803 14.91 167.547 16.0173 167.356 17.22C168.529 16.736 169.395 16.0467 169.952 15.152C170.509 14.2573 170.788 13.106 170.788 11.698C170.788 11.3607 170.729 11.0967 170.612 10.906C170.495 10.7153 170.348 10.62 170.172 10.62ZM190.083 9.74C190.538 9.828 190.875 9.982 191.095 10.202C191.33 10.422 191.447 10.6787 191.447 10.972C191.447 11.456 191.308 11.808 191.029 12.028C190.765 12.248 190.34 12.336 189.753 12.292C188.433 12.1893 187.399 12.1233 186.651 12.094C185.918 12.05 184.95 12.0207 183.747 12.006C183.204 14.7047 182.706 17.418 182.251 20.146C182.09 21.1433 181.921 22.302 181.745 23.622C181.569 24.9273 181.452 25.9833 181.393 26.79C181.364 27.2153 181.188 27.5453 180.865 27.78C180.542 28 180.154 28.11 179.699 28.11C179.215 28.11 178.841 27.9927 178.577 27.758C178.313 27.5233 178.181 27.2153 178.181 26.834C178.181 26.482 178.232 25.9027 178.335 25.096C178.452 24.2747 178.584 23.4167 178.731 22.522C178.892 21.6273 179.017 20.85 179.105 20.19C179.266 19.0753 179.45 17.968 179.655 16.868C179.86 15.768 180.066 14.7267 180.271 13.744C180.315 13.524 180.366 13.2747 180.425 12.996C180.484 12.7027 180.55 12.38 180.623 12.028C179.186 12.072 178.056 12.1893 177.235 12.38C176.414 12.5707 175.827 12.842 175.475 13.194C175.138 13.5313 174.969 13.9713 174.969 14.514C174.969 15.0127 175.116 15.4893 175.409 15.944C175.468 16.0467 175.497 16.1567 175.497 16.274C175.497 16.5527 175.328 16.8167 174.991 17.066C174.668 17.3007 174.331 17.418 173.979 17.418C173.73 17.418 173.524 17.3447 173.363 17.198C173.07 16.9487 172.828 16.5967 172.637 16.142C172.446 15.6727 172.351 15.1447 172.351 14.558C172.351 13.3113 172.754 12.314 173.561 11.566C174.382 10.8033 175.622 10.246 177.279 9.894C178.951 9.542 181.092 9.366 183.703 9.366C185.316 9.366 186.6 9.39533 187.553 9.454C188.521 9.51267 189.364 9.608 190.083 9.74ZM215.491 23.094C215.682 23.094 215.828 23.182 215.931 23.358C216.048 23.534 216.107 23.776 216.107 24.084C216.107 24.656 215.968 25.1107 215.689 25.448C214.237 27.2227 212.69 28.11 211.047 28.11C209.624 28.11 208.488 27.56 207.637 26.46C206.786 25.36 206.361 23.7833 206.361 21.73C206.361 21.2313 206.383 20.7327 206.427 20.234C205.459 20.41 204.403 20.542 203.259 20.63C202.496 20.6887 201.976 20.7253 201.697 20.74C201.404 22.236 200.993 24.0693 200.465 26.24C200.157 27.516 199.57 28.154 198.705 28.154C197.766 28.154 197.297 27.7287 197.297 26.878C197.297 26.6873 197.334 26.4233 197.407 26.086C197.906 24.0767 198.302 22.3753 198.595 20.982L197.539 21.026C197.055 21.026 196.703 20.9453 196.483 20.784C196.263 20.608 196.153 20.3293 196.153 19.948C196.153 19.464 196.292 19.112 196.571 18.892C196.85 18.6573 197.312 18.5253 197.957 18.496L199.123 18.452C199.504 16.384 199.695 14.8073 199.695 13.722C199.695 13.0327 199.592 12.5633 199.387 12.314C199.182 12.0647 198.91 11.94 198.573 11.94C197.546 11.94 196.388 12.798 195.097 14.514C194.906 14.7633 194.694 14.888 194.459 14.888C194.254 14.888 194.078 14.7927 193.931 14.602C193.784 14.4113 193.711 14.1693 193.711 13.876C193.711 13.4213 193.894 12.9373 194.261 12.424C194.906 11.5293 195.72 10.796 196.703 10.224C197.686 9.63733 198.683 9.344 199.695 9.344C200.648 9.344 201.382 9.674 201.895 10.334C202.423 10.9793 202.687 11.9913 202.687 13.37C202.687 14.5873 202.511 16.2373 202.159 18.32L204.315 18.21C205.239 18.166 206.031 18.0927 206.691 17.99C206.955 16.3767 207.358 14.866 207.901 13.458C208.444 12.05 209.118 10.906 209.925 10.026C210.732 9.146 211.634 8.706 212.631 8.706C213.364 8.706 213.944 8.99933 214.369 9.586C214.794 10.158 215.007 10.9133 215.007 11.852C215.007 15.4893 213.152 18.012 209.441 19.42C209.397 20.0067 209.375 20.6153 209.375 21.246C209.375 22.786 209.566 23.8787 209.947 24.524C210.328 25.1693 210.864 25.492 211.553 25.492C212.154 25.492 212.704 25.338 213.203 25.03C213.702 24.7073 214.266 24.1647 214.897 23.402C215.073 23.1967 215.271 23.094 215.491 23.094ZM212.521 10.62C212.198 10.62 211.854 10.9133 211.487 11.5C211.135 12.0867 210.798 12.886 210.475 13.898C210.152 14.91 209.896 16.0173 209.705 17.22C210.878 16.736 211.744 16.0467 212.301 15.152C212.858 14.2573 213.137 13.106 213.137 11.698C213.137 11.3607 213.078 11.0967 212.961 10.906C212.844 10.7153 212.697 10.62 212.521 10.62ZM230.54 23.996C230.76 23.908 230.943 23.864 231.09 23.864C231.325 23.864 231.501 23.952 231.618 24.128C231.735 24.304 231.794 24.5313 231.794 24.81C231.794 25.25 231.684 25.624 231.464 25.932C231.259 26.24 230.899 26.5187 230.386 26.768C229.521 27.1787 228.399 27.5087 227.02 27.758C225.641 27.9927 224.285 28.11 222.95 28.11C221.102 28.11 219.555 27.9047 218.308 27.494C217.061 27.0687 216.13 26.4893 215.514 25.756C214.913 25.0227 214.612 24.194 214.612 23.27C214.612 22.0087 215.015 20.938 215.822 20.058C216.643 19.1633 217.846 18.518 219.43 18.122C218.565 17.8727 217.897 17.4327 217.428 16.802C216.973 16.1713 216.746 15.4673 216.746 14.69C216.746 13.634 217.076 12.7027 217.736 11.896C218.411 11.0747 219.313 10.444 220.442 10.004C221.571 9.564 222.811 9.344 224.16 9.344C225.979 9.344 227.343 9.74 228.252 10.532C229.161 11.3093 229.616 12.3213 229.616 13.568C229.616 14.4333 229.455 15.1373 229.132 15.68C228.824 16.208 228.377 16.472 227.79 16.472C227.379 16.472 227.057 16.384 226.822 16.208C226.587 16.0173 226.47 15.7387 226.47 15.372C226.47 15.1227 226.507 14.8513 226.58 14.558C226.653 14.074 226.69 13.744 226.69 13.568C226.69 13.04 226.492 12.6147 226.096 12.292C225.7 11.9547 225.04 11.786 224.116 11.786C222.869 11.786 221.872 12.05 221.124 12.578C220.376 13.106 220.002 13.8173 220.002 14.712C220.002 15.4013 220.281 15.9733 220.838 16.428C221.41 16.868 222.334 17.11 223.61 17.154C223.933 17.1687 224.16 17.242 224.292 17.374C224.424 17.506 224.49 17.726 224.49 18.034C224.49 19.002 224.05 19.4933 223.17 19.508C221.953 19.5373 220.941 19.706 220.134 20.014C219.342 20.322 218.763 20.718 218.396 21.202C218.044 21.6713 217.868 22.1773 217.868 22.72C217.868 23.6293 218.293 24.3187 219.144 24.788C219.995 25.2427 221.344 25.47 223.192 25.47C224.409 25.47 225.693 25.3307 227.042 25.052C228.406 24.7587 229.572 24.4067 230.54 23.996ZM251.254 23.094C251.445 23.094 251.591 23.182 251.694 23.358C251.811 23.534 251.87 23.776 251.87 24.084C251.87 24.656 251.731 25.1107 251.452 25.448C250.748 26.2987 250.037 26.9587 249.318 27.428C248.599 27.8827 247.749 28.11 246.766 28.11C245.813 28.11 244.999 27.8533 244.324 27.34C243.664 26.8267 243.033 25.9467 242.432 24.7C241.948 23.7027 241.567 22.9693 241.288 22.5C241.009 22.016 240.731 21.6713 240.452 21.466C240.188 21.2607 239.858 21.136 239.462 21.092C239.403 21.4 239.235 22.368 238.956 23.996C238.839 24.7293 238.765 25.1767 238.736 25.338C238.589 26.2327 238.296 26.922 237.856 27.406C237.416 27.8753 236.749 28.11 235.854 28.11C234.871 28.11 233.999 27.824 233.236 27.252C232.488 26.6653 231.909 25.8587 231.498 24.832C231.087 23.7907 230.882 22.61 230.882 21.29C230.882 18.826 231.307 16.6993 232.158 14.91C233.023 13.1207 234.226 11.7567 235.766 10.818C237.321 9.86467 239.11 9.388 241.134 9.388C242.542 9.388 243.723 9.60067 244.676 10.026C245.629 10.4513 246.333 11.038 246.788 11.786C247.257 12.534 247.492 13.3773 247.492 14.316C247.492 15.1373 247.294 15.944 246.898 16.736C246.517 17.5133 245.937 18.2027 245.16 18.804C244.383 19.4053 243.437 19.8527 242.322 20.146C243.026 20.3367 243.569 20.6447 243.95 21.07C244.331 21.4953 244.713 22.1187 245.094 22.94C245.505 23.82 245.908 24.4653 246.304 24.876C246.715 25.2867 247.184 25.492 247.712 25.492C248.181 25.492 248.629 25.338 249.054 25.03C249.479 24.7073 250.015 24.1647 250.66 23.402C250.836 23.1967 251.034 23.094 251.254 23.094ZM236.426 21.07C235.927 21.07 235.583 20.9527 235.392 20.718C235.216 20.4833 235.128 20.2193 235.128 19.926C235.128 19.574 235.238 19.2953 235.458 19.09C235.693 18.8847 235.957 18.782 236.25 18.782H236.8C237.035 17.3447 237.255 16.1053 237.46 15.064C237.651 14.1107 238.267 13.634 239.308 13.634C240.144 13.634 240.562 14.008 240.562 14.756C240.562 14.9173 240.555 15.042 240.54 15.13L239.88 18.782C240.672 18.738 241.391 18.5473 242.036 18.21C242.696 17.8727 243.217 17.4033 243.598 16.802C243.994 16.2007 244.192 15.5187 244.192 14.756C244.192 13.832 243.877 13.106 243.246 12.578C242.615 12.05 241.691 11.786 240.474 11.786C239.037 11.786 237.775 12.1453 236.69 12.864C235.619 13.568 234.783 14.624 234.182 16.032C233.581 17.4253 233.28 19.1267 233.28 21.136C233.28 22.0747 233.375 22.8813 233.566 23.556C233.757 24.2307 233.991 24.7367 234.27 25.074C234.549 25.4113 234.813 25.58 235.062 25.58C235.253 25.58 235.407 25.4847 235.524 25.294C235.656 25.1033 235.759 24.7953 235.832 24.37L236.426 21.07ZM262.772 28.11C261.76 28.11 260.843 27.8607 260.022 27.362C259.215 26.8633 258.577 26.1447 258.108 25.206C257.638 24.2527 257.404 23.1307 257.404 21.84C257.404 19.6107 257.88 17.55 258.834 15.658C259.787 13.7513 261.195 12.226 263.058 11.082C264.92 9.92333 267.157 9.344 269.768 9.344C270.442 9.344 271.161 9.39533 271.924 9.498C272.701 9.60067 273.405 9.75467 274.036 9.96C274.446 10.0773 274.652 10.3707 274.652 10.84C274.652 11.2213 274.505 11.5807 274.212 11.918C273.933 12.2553 273.603 12.424 273.222 12.424C273.104 12.424 273.016 12.4167 272.958 12.402C272.195 12.226 271.542 12.1013 271 12.028C270.457 11.94 269.885 11.896 269.284 11.896C267.421 11.896 265.837 12.3507 264.532 13.26C263.226 14.1547 262.251 15.3427 261.606 16.824C260.96 18.3053 260.638 19.904 260.638 21.62C260.638 22.8667 260.88 23.8347 261.364 24.524C261.862 25.1987 262.508 25.536 263.3 25.536C264.194 25.536 264.979 25.1693 265.654 24.436C266.328 23.7027 266.944 22.5147 267.502 20.872C268.059 19.2293 268.609 17 269.152 14.184C269.24 13.7733 269.416 13.4947 269.68 13.348C269.944 13.2013 270.296 13.128 270.736 13.128C271.777 13.128 272.298 13.4653 272.298 14.14C272.298 14.2573 272.276 14.404 272.232 14.58C271.85 16.0027 271.498 17.5793 271.176 19.31C270.868 21.026 270.714 22.3313 270.714 23.226C270.714 24.018 270.831 24.5973 271.066 24.964C271.3 25.316 271.66 25.492 272.144 25.492C272.613 25.492 273.06 25.338 273.486 25.03C273.911 24.7073 274.446 24.1647 275.092 23.402C275.268 23.1967 275.466 23.094 275.686 23.094C275.876 23.094 276.023 23.182 276.126 23.358C276.243 23.534 276.302 23.776 276.302 24.084C276.302 24.656 276.162 25.1107 275.884 25.448C275.165 26.3133 274.461 26.9733 273.772 27.428C273.082 27.8827 272.239 28.11 271.242 28.11C270.215 28.11 269.386 27.8167 268.756 27.23C268.125 26.6287 267.729 25.7853 267.568 24.7C266.482 26.9733 264.884 28.11 262.772 28.11ZM292.629 9.74C293.083 9.828 293.421 9.982 293.641 10.202C293.875 10.422 293.993 10.6787 293.993 10.972C293.993 11.456 293.853 11.808 293.575 12.028C293.311 12.248 292.885 12.336 292.299 12.292C290.979 12.1893 289.945 12.1233 289.197 12.094C288.463 12.05 287.495 12.0207 286.293 12.006C285.75 14.7047 285.251 17.418 284.797 20.146C284.635 21.1433 284.467 22.302 284.291 23.622C284.115 24.9273 283.997 25.9833 283.939 26.79C283.909 27.2153 283.733 27.5453 283.411 27.78C283.088 28 282.699 28.11 282.245 28.11C281.761 28.11 281.387 27.9927 281.123 27.758C280.859 27.5233 280.727 27.2153 280.727 26.834C280.727 26.482 280.778 25.9027 280.881 25.096C280.998 24.2747 281.13 23.4167 281.277 22.522C281.438 21.6273 281.563 20.85 281.651 20.19C281.812 19.0753 281.995 17.968 282.201 16.868C282.406 15.768 282.611 14.7267 282.817 13.744C282.861 13.524 282.912 13.2747 282.971 12.996C283.029 12.7027 283.095 12.38 283.169 12.028C281.731 12.072 280.602 12.1893 279.781 12.38C278.959 12.5707 278.373 12.842 278.021 13.194C277.683 13.5313 277.515 13.9713 277.515 14.514C277.515 15.0127 277.661 15.4893 277.955 15.944C278.013 16.0467 278.043 16.1567 278.043 16.274C278.043 16.5527 277.874 16.8167 277.537 17.066C277.214 17.3007 276.877 17.418 276.525 17.418C276.275 17.418 276.07 17.3447 275.909 17.198C275.615 16.9487 275.373 16.5967 275.183 16.142C274.992 15.6727 274.897 15.1447 274.897 14.558C274.897 13.3113 275.3 12.314 276.107 11.566C276.928 10.8033 278.167 10.246 279.825 9.894C281.497 9.542 283.638 9.366 286.249 9.366C287.862 9.366 289.145 9.39533 290.099 9.454C291.067 9.51267 291.91 9.608 292.629 9.74ZM318.037 23.094C318.227 23.094 318.374 23.182 318.477 23.358C318.594 23.534 318.653 23.776 318.653 24.084C318.653 24.656 318.513 25.1107 318.235 25.448C316.783 27.2227 315.235 28.11 313.593 28.11C312.17 28.11 311.033 27.56 310.183 26.46C309.332 25.36 308.907 23.7833 308.907 21.73C308.907 21.2313 308.929 20.7327 308.973 20.234C308.005 20.41 306.949 20.542 305.805 20.63C305.042 20.6887 304.521 20.7253 304.243 20.74C303.949 22.236 303.539 24.0693 303.011 26.24C302.703 27.516 302.116 28.154 301.251 28.154C300.312 28.154 299.843 27.7287 299.843 26.878C299.843 26.6873 299.879 26.4233 299.953 26.086C300.451 24.0767 300.847 22.3753 301.141 20.982L300.085 21.026C299.601 21.026 299.249 20.9453 299.029 20.784C298.809 20.608 298.699 20.3293 298.699 19.948C298.699 19.464 298.838 19.112 299.117 18.892C299.395 18.6573 299.857 18.5253 300.503 18.496L301.669 18.452C302.05 16.384 302.241 14.8073 302.241 13.722C302.241 13.0327 302.138 12.5633 301.933 12.314C301.727 12.0647 301.456 11.94 301.119 11.94C300.092 11.94 298.933 12.798 297.643 14.514C297.452 14.7633 297.239 14.888 297.005 14.888C296.799 14.888 296.623 14.7927 296.477 14.602C296.33 14.4113 296.257 14.1693 296.257 13.876C296.257 13.4213 296.44 12.9373 296.807 12.424C297.452 11.5293 298.266 10.796 299.249 10.224C300.231 9.63733 301.229 9.344 302.241 9.344C303.194 9.344 303.927 9.674 304.441 10.334C304.969 10.9793 305.233 11.9913 305.233 13.37C305.233 14.5873 305.057 16.2373 304.705 18.32L306.861 18.21C307.785 18.166 308.577 18.0927 309.237 17.99C309.501 16.3767 309.904 14.866 310.447 13.458C310.989 12.05 311.664 10.906 312.471 10.026C313.277 9.146 314.179 8.706 315.177 8.706C315.91 8.706 316.489 8.99933 316.915 9.586C317.34 10.158 317.553 10.9133 317.553 11.852C317.553 15.4893 315.697 18.012 311.987 19.42C311.943 20.0067 311.921 20.6153 311.921 21.246C311.921 22.786 312.111 23.8787 312.493 24.524C312.874 25.1693 313.409 25.492 314.099 25.492C314.7 25.492 315.25 25.338 315.749 25.03C316.247 24.7073 316.812 24.1647 317.443 23.402C317.619 23.1967 317.817 23.094 318.037 23.094ZM315.067 10.62C314.744 10.62 314.399 10.9133 314.033 11.5C313.681 12.0867 313.343 12.886 313.021 13.898C312.698 14.91 312.441 16.0173 312.251 17.22C313.424 16.736 314.289 16.0467 314.847 15.152C315.404 14.2573 315.683 13.106 315.683 11.698C315.683 11.3607 315.624 11.0967 315.507 10.906C315.389 10.7153 315.243 10.62 315.067 10.62ZM324.836 28.11C323.531 28.11 322.35 27.8167 321.294 27.23C320.253 26.6433 319.424 25.7853 318.808 24.656C318.192 23.512 317.884 22.148 317.884 20.564C317.884 18.3347 318.287 16.3693 319.094 14.668C319.915 12.9667 321.023 11.654 322.416 10.73C323.824 9.806 325.379 9.344 327.08 9.344C328.385 9.344 329.559 9.63733 330.6 10.224C331.656 10.8107 332.492 11.676 333.108 12.82C333.724 13.9493 334.032 15.306 334.032 16.89C334.032 19.1193 333.621 21.0847 332.8 22.786C331.993 24.4873 330.886 25.8 329.478 26.724C328.085 27.648 326.537 28.11 324.836 28.11ZM325.056 25.514C326.2 25.514 327.205 25.162 328.07 24.458C328.95 23.754 329.625 22.7787 330.094 21.532C330.563 20.2707 330.798 18.848 330.798 17.264C330.798 15.5187 330.431 14.1987 329.698 13.304C328.965 12.3947 328.019 11.94 326.86 11.94C325.731 11.94 324.733 12.292 323.868 12.996C323.003 13.6853 322.328 14.6607 321.844 15.922C321.36 17.1687 321.118 18.5913 321.118 20.19C321.118 21.9353 321.485 23.2627 322.218 24.172C322.951 25.0667 323.897 25.514 325.056 25.514ZM354.721 23.138C354.911 23.138 355.058 23.2333 355.161 23.424C355.278 23.6 355.337 23.8273 355.337 24.106C355.337 24.4433 355.285 24.7073 355.183 24.898C355.08 25.0887 354.919 25.2573 354.699 25.404C353.833 25.976 352.455 26.9147 350.563 28.22C349.991 31.256 349.25 33.6467 348.341 35.392C347.431 37.1373 346.28 38.01 344.887 38.01C344.139 38.01 343.53 37.7753 343.061 37.306C342.591 36.8513 342.357 36.25 342.357 35.502C342.357 34.8127 342.511 34.116 342.819 33.412C343.127 32.708 343.699 31.894 344.535 30.97C345.385 30.046 346.581 28.99 348.121 27.802L348.187 27.384C347.028 27.868 345.891 28.11 344.777 28.11C343.134 28.11 341.689 27.7947 340.443 27.164C339.196 26.5187 338.228 25.6093 337.539 24.436C336.849 23.2627 336.505 21.8987 336.505 20.344C336.505 18.1733 336.915 16.2593 337.737 14.602C338.558 12.93 339.687 11.6393 341.125 10.73C342.577 9.806 344.197 9.344 345.987 9.344C347.703 9.344 348.986 9.74733 349.837 10.554C350.702 11.346 351.135 12.402 351.135 13.722C351.135 14.5873 350.973 15.284 350.651 15.812C350.343 16.3253 349.895 16.582 349.309 16.582C348.913 16.582 348.59 16.4867 348.341 16.296C348.106 16.1053 347.989 15.8413 347.989 15.504C347.989 15.3573 348.018 15.108 348.077 14.756C348.165 14.3453 348.209 14.0227 348.209 13.788C348.209 13.172 348.018 12.6953 347.637 12.358C347.27 12.0207 346.647 11.852 345.767 11.852C344.696 11.852 343.699 12.16 342.775 12.776C341.865 13.392 341.132 14.316 340.575 15.548C340.017 16.7653 339.739 18.232 339.739 19.948C339.739 21.708 340.215 23.072 341.169 24.04C342.137 24.9933 343.53 25.47 345.349 25.47C346.361 25.47 347.417 25.2427 348.517 24.788L348.825 22.104H346.581C346.17 22.104 345.855 22.0087 345.635 21.818C345.415 21.6127 345.305 21.2827 345.305 20.828C345.305 20.4173 345.415 20.0947 345.635 19.86C345.855 19.6253 346.148 19.508 346.515 19.508H350.629C350.951 19.508 351.215 19.618 351.421 19.838C351.641 20.0433 351.729 20.344 351.685 20.74C351.641 21.2093 351.494 22.2727 351.245 23.93L351.003 25.602C352.176 24.722 353.247 23.9593 354.215 23.314C354.405 23.1967 354.574 23.138 354.721 23.138ZM345.129 35.876C345.51 35.876 345.928 35.4433 346.383 34.578C346.837 33.7127 347.263 32.3193 347.659 30.398C346.544 31.3513 345.737 32.2093 345.239 32.972C344.755 33.7493 344.513 34.4313 344.513 35.018C344.513 35.59 344.718 35.876 345.129 35.876ZM382.585 18.496C382.922 18.496 383.164 18.5693 383.311 18.716C383.472 18.8627 383.553 19.0533 383.553 19.288C383.553 19.6693 383.436 20.0067 383.201 20.3C382.981 20.5933 382.629 20.7473 382.145 20.762C380.986 20.7767 379.945 20.6887 379.021 20.498C377.994 22.6833 376.755 24.502 375.303 25.954C373.866 27.3913 372.443 28.11 371.035 28.11C369.744 28.11 368.776 27.428 368.131 26.064C367.486 24.6853 367.119 22.8447 367.031 20.542C366.151 23.094 365.154 24.9933 364.039 26.24C362.939 27.4867 361.766 28.11 360.519 28.11C359.111 28.11 358.048 27.2373 357.329 25.492C356.61 23.732 356.251 21.3707 356.251 18.408C356.251 16.252 356.442 13.8833 356.823 11.302C356.926 10.5687 357.109 10.0627 357.373 9.784C357.652 9.49067 358.084 9.344 358.671 9.344C359.111 9.344 359.448 9.43933 359.683 9.63C359.932 9.82067 360.057 10.1727 360.057 10.686C360.057 10.7887 360.042 10.9867 360.013 11.28C359.573 14.2867 359.353 16.846 359.353 18.958C359.353 20.9233 359.522 22.4413 359.859 23.512C360.196 24.5827 360.651 25.118 361.223 25.118C361.736 25.118 362.352 24.5827 363.071 23.512C363.804 22.4267 364.53 20.828 365.249 18.716C365.968 16.5893 366.576 14.0593 367.075 11.126C367.192 10.4513 367.405 9.98933 367.713 9.74C368.036 9.476 368.468 9.344 369.011 9.344C369.466 9.344 369.796 9.44667 370.001 9.652C370.221 9.84267 370.331 10.136 370.331 10.532C370.331 10.7667 370.316 10.95 370.287 11.082C369.876 13.4727 369.671 15.8633 369.671 18.254C369.671 19.882 369.722 21.18 369.825 22.148C369.942 23.116 370.155 23.8567 370.463 24.37C370.786 24.8687 371.248 25.118 371.849 25.118C372.553 25.118 373.338 24.59 374.203 23.534C375.068 22.4633 375.86 21.136 376.579 19.552C375.684 18.9947 375.01 18.276 374.555 17.396C374.1 16.5013 373.873 15.4747 373.873 14.316C373.873 13.1573 374.049 12.182 374.401 11.39C374.768 10.5833 375.259 9.982 375.875 9.586C376.506 9.19 377.202 8.992 377.965 8.992C378.904 8.992 379.644 9.32933 380.187 10.004C380.744 10.6787 381.023 11.6027 381.023 12.776C381.023 14.4333 380.664 16.274 379.945 18.298C380.693 18.43 381.573 18.496 382.585 18.496ZM376.095 14.162C376.095 15.5993 376.557 16.6627 377.481 17.352C378.053 15.7093 378.339 14.3527 378.339 13.282C378.339 12.666 378.258 12.2187 378.097 11.94C377.936 11.6467 377.716 11.5 377.437 11.5C377.041 11.5 376.718 11.7347 376.469 12.204C376.22 12.6587 376.095 13.3113 376.095 14.162ZM387.618 28.11C386.606 28.11 385.69 27.8607 384.868 27.362C384.062 26.8633 383.424 26.1447 382.954 25.206C382.485 24.2527 382.25 23.1307 382.25 21.84C382.25 19.6107 382.727 17.55 383.68 15.658C384.634 13.7513 386.042 12.226 387.904 11.082C389.767 9.92333 392.004 9.344 394.614 9.344C395.289 9.344 396.008 9.39533 396.77 9.498C397.548 9.60067 398.252 9.75467 398.882 9.96C399.293 10.0773 399.498 10.3707 399.498 10.84C399.498 11.2213 399.352 11.5807 399.058 11.918C398.78 12.2553 398.45 12.424 398.068 12.424C397.951 12.424 397.863 12.4167 397.804 12.402C397.042 12.226 396.389 12.1013 395.846 12.028C395.304 11.94 394.732 11.896 394.13 11.896C392.268 11.896 390.684 12.3507 389.378 13.26C388.073 14.1547 387.098 15.3427 386.452 16.824C385.807 18.3053 385.484 19.904 385.484 21.62C385.484 22.8667 385.726 23.8347 386.21 24.524C386.709 25.1987 387.354 25.536 388.146 25.536C389.041 25.536 389.826 25.1693 390.5 24.436C391.175 23.7027 391.791 22.5147 392.348 20.872C392.906 19.2293 393.456 17 393.998 14.184C394.086 13.7733 394.262 13.4947 394.526 13.348C394.79 13.2013 395.142 13.128 395.582 13.128C396.624 13.128 397.144 13.4653 397.144 14.14C397.144 14.2573 397.122 14.404 397.078 14.58C396.697 16.0027 396.345 17.5793 396.022 19.31C395.714 21.026 395.56 22.3313 395.56 23.226C395.56 24.018 395.678 24.5973 395.912 24.964C396.147 25.316 396.506 25.492 396.99 25.492C397.46 25.492 397.907 25.338 398.332 25.03C398.758 24.7073 399.293 24.1647 399.938 23.402C400.114 23.1967 400.312 23.094 400.532 23.094C400.723 23.094 400.87 23.182 400.972 23.358C401.09 23.534 401.148 23.776 401.148 24.084C401.148 24.656 401.009 25.1107 400.73 25.448C400.012 26.3133 399.308 26.9733 398.618 27.428C397.929 27.8827 397.086 28.11 396.088 28.11C395.062 28.11 394.233 27.8167 393.602 27.23C392.972 26.6287 392.576 25.7853 392.414 24.7C391.329 26.9733 389.73 28.11 387.618 28.11ZM420.555 23.094C420.746 23.094 420.893 23.182 420.995 23.358C421.113 23.534 421.171 23.776 421.171 24.084C421.171 24.656 421.032 25.1107 420.753 25.448C420.049 26.2987 419.338 26.9587 418.619 27.428C417.901 27.8827 417.05 28.11 416.067 28.11C415.114 28.11 414.3 27.8533 413.625 27.34C412.965 26.8267 412.335 25.9467 411.733 24.7C411.249 23.7027 410.868 22.9693 410.589 22.5C410.311 22.016 410.032 21.6713 409.753 21.466C409.489 21.2607 409.159 21.136 408.763 21.092C408.705 21.4 408.536 22.368 408.257 23.996C408.14 24.7293 408.067 25.1767 408.037 25.338C407.891 26.2327 407.597 26.922 407.157 27.406C406.717 27.8753 406.05 28.11 405.155 28.11C404.173 28.11 403.3 27.824 402.537 27.252C401.789 26.6653 401.21 25.8587 400.799 24.832C400.389 23.7907 400.183 22.61 400.183 21.29C400.183 18.826 400.609 16.6993 401.459 14.91C402.325 13.1207 403.527 11.7567 405.067 10.818C406.622 9.86467 408.411 9.388 410.435 9.388C411.843 9.388 413.024 9.60067 413.977 10.026C414.931 10.4513 415.635 11.038 416.089 11.786C416.559 12.534 416.793 13.3773 416.793 14.316C416.793 15.1373 416.595 15.944 416.199 16.736C415.818 17.5133 415.239 18.2027 414.461 18.804C413.684 19.4053 412.738 19.8527 411.623 20.146C412.327 20.3367 412.87 20.6447 413.251 21.07C413.633 21.4953 414.014 22.1187 414.395 22.94C414.806 23.82 415.209 24.4653 415.605 24.876C416.016 25.2867 416.485 25.492 417.013 25.492C417.483 25.492 417.93 25.338 418.355 25.03C418.781 24.7073 419.316 24.1647 419.961 23.402C420.137 23.1967 420.335 23.094 420.555 23.094ZM405.727 21.07C405.229 21.07 404.884 20.9527 404.693 20.718C404.517 20.4833 404.429 20.2193 404.429 19.926C404.429 19.574 404.539 19.2953 404.759 19.09C404.994 18.8847 405.258 18.782 405.551 18.782H406.101C406.336 17.3447 406.556 16.1053 406.761 15.064C406.952 14.1107 407.568 13.634 408.609 13.634C409.445 13.634 409.863 14.008 409.863 14.756C409.863 14.9173 409.856 15.042 409.841 15.13L409.181 18.782C409.973 18.738 410.692 18.5473 411.337 18.21C411.997 17.8727 412.518 17.4033 412.899 16.802C413.295 16.2007 413.493 15.5187 413.493 14.756C413.493 13.832 413.178 13.106 412.547 12.578C411.917 12.05 410.993 11.786 409.775 11.786C408.338 11.786 407.077 12.1453 405.991 12.864C404.921 13.568 404.085 14.624 403.483 16.032C402.882 17.4253 402.581 19.1267 402.581 21.136C402.581 22.0747 402.677 22.8813 402.867 23.556C403.058 24.2307 403.293 24.7367 403.571 25.074C403.85 25.4113 404.114 25.58 404.363 25.58C404.554 25.58 404.708 25.4847 404.825 25.294C404.957 25.1033 405.06 24.7953 405.133 24.37L405.727 21.07ZM437.493 9.74C437.947 9.828 438.285 9.982 438.505 10.202C438.739 10.422 438.857 10.6787 438.857 10.972C438.857 11.456 438.717 11.808 438.439 12.028C438.175 12.248 437.749 12.336 437.163 12.292C435.843 12.1893 434.809 12.1233 434.061 12.094C433.327 12.05 432.359 12.0207 431.157 12.006C430.614 14.7047 430.115 17.418 429.661 20.146C429.499 21.1433 429.331 22.302 429.155 23.622C428.979 24.9273 428.861 25.9833 428.803 26.79C428.773 27.2153 428.597 27.5453 428.275 27.78C427.952 28 427.563 28.11 427.109 28.11C426.625 28.11 426.251 27.9927 425.987 27.758C425.723 27.5233 425.591 27.2153 425.591 26.834C425.591 26.482 425.642 25.9027 425.745 25.096C425.862 24.2747 425.994 23.4167 426.141 22.522C426.302 21.6273 426.427 20.85 426.515 20.19C426.676 19.0753 426.859 17.968 427.065 16.868C427.27 15.768 427.475 14.7267 427.681 13.744C427.725 13.524 427.776 13.2747 427.835 12.996C427.893 12.7027 427.959 12.38 428.033 12.028C426.595 12.072 425.466 12.1893 424.645 12.38C423.823 12.5707 423.237 12.842 422.885 13.194C422.547 13.5313 422.379 13.9713 422.379 14.514C422.379 15.0127 422.525 15.4893 422.819 15.944C422.877 16.0467 422.907 16.1567 422.907 16.274C422.907 16.5527 422.738 16.8167 422.401 17.066C422.078 17.3007 421.741 17.418 421.389 17.418C421.139 17.418 420.934 17.3447 420.773 17.198C420.479 16.9487 420.237 16.5967 420.047 16.142C419.856 15.6727 419.761 15.1447 419.761 14.558C419.761 13.3113 420.164 12.314 420.971 11.566C421.792 10.8033 423.031 10.246 424.689 9.894C426.361 9.542 428.502 9.366 431.113 9.366C432.726 9.366 434.009 9.39533 434.963 9.454C435.931 9.51267 436.774 9.608 437.493 9.74ZM442.185 28.176C440.234 28.176 438.672 27.8093 437.499 27.076C436.325 26.328 435.739 25.1913 435.739 23.666C435.739 22.8593 435.878 22.2433 436.157 21.818C436.435 21.3927 436.846 21.18 437.389 21.18C437.785 21.18 438.107 21.2827 438.357 21.488C438.606 21.6933 438.731 21.9573 438.731 22.28C438.731 22.5733 438.709 22.83 438.665 23.05C438.665 23.1087 438.65 23.2113 438.621 23.358C438.606 23.5047 438.599 23.6587 438.599 23.82C438.599 24.48 438.929 24.9713 439.589 25.294C440.263 25.6167 441.202 25.778 442.405 25.778C443.651 25.778 444.627 25.558 445.331 25.118C446.035 24.6633 446.387 24.0327 446.387 23.226C446.387 22.7273 446.225 22.302 445.903 21.95C445.58 21.5833 445.177 21.2827 444.693 21.048C444.209 20.7987 443.527 20.498 442.647 20.146C441.517 19.706 440.593 19.288 439.875 18.892C439.171 18.496 438.562 17.9607 438.049 17.286C437.55 16.5967 437.301 15.746 437.301 14.734C437.301 13.678 437.579 12.7393 438.137 11.918C438.709 11.0967 439.523 10.4587 440.579 10.004C441.649 9.54933 442.903 9.322 444.341 9.322C445.411 9.322 446.394 9.48333 447.289 9.806C448.183 10.114 448.895 10.5907 449.423 11.236C449.965 11.8813 450.237 12.6733 450.237 13.612C450.237 14.536 450.097 15.2327 449.819 15.702C449.54 16.1713 449.129 16.406 448.587 16.406C448.205 16.406 447.883 16.2887 447.619 16.054C447.369 15.8193 447.245 15.5407 447.245 15.218C447.245 14.9393 447.267 14.6827 447.311 14.448C447.355 14.008 447.377 13.7293 447.377 13.612C447.377 12.996 447.076 12.5267 446.475 12.204C445.873 11.8813 445.125 11.72 444.231 11.72C442.969 11.72 442.001 11.9547 441.327 12.424C440.667 12.8787 440.337 13.524 440.337 14.36C440.337 14.9173 440.505 15.394 440.843 15.79C441.195 16.186 441.627 16.516 442.141 16.78C442.654 17.044 443.373 17.3593 444.297 17.726C445.411 18.1807 446.306 18.5913 446.981 18.958C447.655 19.3247 448.227 19.8233 448.697 20.454C449.181 21.0847 449.423 21.862 449.423 22.786C449.423 24.5167 448.763 25.8513 447.443 26.79C446.137 27.714 444.385 28.176 442.185 28.176Z" fill="#151515"/>
<path d="M8.424 72.16C7.63467 72.16 7.06933 71.9893 6.728 71.648C6.38667 71.2853 6.216 70.6133 6.216 69.632C6.216 68.9707 6.28 68.1707 6.408 67.232C6.536 66.2933 6.76 64.8747 7.08 62.976C7.12267 62.72 7.29333 61.6853 7.592 59.872C7.89067 58.0373 8.15733 56.1173 8.392 54.112C8.60533 52.4053 8.712 51.1253 8.712 50.272C8.712 49.312 8.36 48.832 7.656 48.832C7.12267 48.832 6.45067 49.12 5.64 49.696C4.85067 50.2507 3.99733 51.1467 3.08 52.384C2.78133 52.7893 2.45067 52.992 2.088 52.992C1.78933 52.992 1.52267 52.8533 1.288 52.576C1.07467 52.2773 0.968 51.9467 0.968 51.584C0.968 51.2213 1.032 50.88 1.16 50.56C1.288 50.2187 1.52267 49.8133 1.864 49.344C2.90933 47.9147 4.072 46.816 5.352 46.048C6.632 45.2587 7.976 44.864 9.384 44.864C10.5573 44.864 11.432 45.2267 12.008 45.952C12.6053 46.6773 12.904 47.7333 12.904 49.12C12.904 50.3573 12.7333 52.1493 12.392 54.496C13.4587 51.3387 14.8133 48.9493 16.456 47.328C18.0987 45.6853 20.0293 44.864 22.248 44.864C23.9973 44.864 25.3093 45.3653 26.184 46.368C27.08 47.3493 27.528 48.672 27.528 50.336C27.528 51.2747 27.3893 52.416 27.112 53.76L25.16 62.912C24.9467 63.9787 24.84 64.896 24.84 65.664C24.84 66.56 25.0427 67.232 25.448 67.68C25.8747 68.128 26.4613 68.352 27.208 68.352C27.912 68.352 28.5947 68.1173 29.256 67.648C29.9387 67.1787 30.7387 66.4 31.656 65.312C31.912 65.0133 32.2 64.864 32.52 64.864C32.7973 64.864 33.0107 64.992 33.16 65.248C33.3307 65.504 33.416 65.856 33.416 66.304C33.416 67.136 33.2133 67.7973 32.808 68.288C31.6987 69.632 30.6 70.6133 29.512 71.232C28.424 71.8507 27.2827 72.16 26.088 72.16C24.2747 72.16 22.856 71.6267 21.832 70.56C20.808 69.472 20.296 68.0213 20.296 66.208C20.296 65.504 20.3493 64.736 20.456 63.904C20.584 63.072 20.7867 62.016 21.064 60.736L22.344 54.88C22.3867 54.688 22.4613 54.3467 22.568 53.856C22.6747 53.3653 22.76 52.9067 22.824 52.48C22.888 52.032 22.92 51.5947 22.92 51.168C22.92 50.4853 22.728 49.9413 22.344 49.536C21.96 49.1307 21.416 48.928 20.712 48.928C19.432 48.928 18.152 49.6107 16.872 50.976C15.592 52.3413 14.408 54.5493 13.32 57.6C12.232 60.6293 11.3787 64.512 10.76 69.248C10.6107 70.336 10.3867 71.0933 10.088 71.52C9.81067 71.9467 9.256 72.16 8.424 72.16ZM39.8412 72.16C38.3692 72.16 37.0359 71.7973 35.8412 71.072C34.6679 70.3467 33.7399 69.3013 33.0572 67.936C32.3746 66.5493 32.0332 64.9173 32.0332 63.04C32.0332 59.7973 32.7266 56.8 34.1132 54.048C35.4999 51.2747 37.5479 49.056 40.2572 47.392C42.9666 45.7067 46.2199 44.864 50.0173 44.864C50.9986 44.864 52.0439 44.9387 53.1532 45.088C54.2839 45.2373 55.3079 45.4613 56.2253 45.76C56.8226 45.9307 57.1213 46.3573 57.1213 47.04C57.1213 47.5947 56.9079 48.1173 56.4813 48.608C56.0759 49.0987 55.5959 49.344 55.0413 49.344C54.8706 49.344 54.7426 49.3333 54.6572 49.312C53.5479 49.056 52.5986 48.8747 51.8092 48.768C51.0199 48.64 50.1879 48.576 49.3132 48.576C46.6039 48.576 44.2999 49.2373 42.4012 50.56C40.5026 51.8613 39.0839 53.5893 38.1452 55.744C37.2066 57.8987 36.7372 60.224 36.7372 62.72C36.7372 64.5333 37.0892 65.9413 37.7932 66.944C38.5186 67.9253 39.4572 68.416 40.6092 68.416C41.9106 68.416 43.0519 67.8827 44.0332 66.816C45.0146 65.7493 45.9106 64.0213 46.7213 61.632C47.5319 59.2427 48.3319 56 49.1213 51.904C49.2492 51.3067 49.5052 50.9013 49.8892 50.688C50.2732 50.4747 50.7853 50.368 51.4253 50.368C52.9399 50.368 53.6973 50.8587 53.6973 51.84C53.6973 52.0107 53.6653 52.224 53.6012 52.48C53.0466 54.5493 52.5346 56.8427 52.0653 59.36C51.6172 61.856 51.3932 63.7547 51.3932 65.056C51.3932 66.208 51.5639 67.0507 51.9053 67.584C52.2466 68.096 52.7692 68.352 53.4732 68.352C54.1559 68.352 54.8066 68.128 55.4253 67.68C56.0439 67.2107 56.8226 66.4213 57.7612 65.312C58.0173 65.0133 58.3053 64.864 58.6252 64.864C58.9026 64.864 59.1159 64.992 59.2653 65.248C59.4359 65.504 59.5212 65.856 59.5212 66.304C59.5212 67.136 59.3186 67.7973 58.9132 68.288C57.8679 69.5467 56.8439 70.5067 55.8412 71.168C54.8386 71.8293 53.6119 72.16 52.1613 72.16C50.6679 72.16 49.4626 71.7333 48.5452 70.88C47.6279 70.0053 47.0519 68.7787 46.8172 67.2C45.2386 70.5067 42.9132 72.16 39.8412 72.16ZM66.8215 72.256C63.9842 72.256 61.7122 71.7227 60.0055 70.656C58.2988 69.568 57.4455 67.9147 57.4455 65.696C57.4455 64.5227 57.6482 63.6267 58.0535 63.008C58.4588 62.3893 59.0562 62.08 59.8455 62.08C60.4215 62.08 60.8908 62.2293 61.2535 62.528C61.6162 62.8267 61.7975 63.2107 61.7975 63.68C61.7975 64.1067 61.7655 64.48 61.7015 64.8C61.7015 64.8853 61.6802 65.0347 61.6375 65.248C61.6162 65.4613 61.6055 65.6853 61.6055 65.92C61.6055 66.88 62.0855 67.5947 63.0455 68.064C64.0268 68.5333 65.3922 68.768 67.1415 68.768C68.9548 68.768 70.3735 68.448 71.3975 67.808C72.4215 67.1467 72.9335 66.2293 72.9335 65.056C72.9335 64.3307 72.6988 63.712 72.2295 63.2C71.7602 62.6667 71.1735 62.2293 70.4695 61.888C69.7655 61.5253 68.7735 61.088 67.4935 60.576C65.8508 59.936 64.5068 59.328 63.4615 58.752C62.4375 58.176 61.5522 57.3973 60.8055 56.416C60.0802 55.4133 59.7175 54.176 59.7175 52.704C59.7175 51.168 60.1228 49.8027 60.9335 48.608C61.7655 47.4133 62.9495 46.4853 64.4855 45.824C66.0428 45.1627 67.8668 44.832 69.9575 44.832C71.5148 44.832 72.9442 45.0667 74.2455 45.536C75.5468 45.984 76.5815 46.6773 77.3495 47.616C78.1388 48.5547 78.5335 49.7067 78.5335 51.072C78.5335 52.416 78.3308 53.4293 77.9255 54.112C77.5202 54.7947 76.9228 55.136 76.1335 55.136C75.5788 55.136 75.1095 54.9653 74.7255 54.624C74.3628 54.2827 74.1815 53.8773 74.1815 53.408C74.1815 53.0027 74.2135 52.6293 74.2775 52.288C74.3415 51.648 74.3735 51.2427 74.3735 51.072C74.3735 50.176 73.9362 49.4933 73.0615 49.024C72.1868 48.5547 71.0988 48.32 69.7975 48.32C67.9628 48.32 66.5548 48.6613 65.5735 49.344C64.6135 50.0053 64.1335 50.944 64.1335 52.16C64.1335 52.9707 64.3788 53.664 64.8695 54.24C65.3815 54.816 66.0108 55.296 66.7575 55.68C67.5042 56.064 68.5495 56.5227 69.8935 57.056C71.5148 57.7173 72.8162 58.3147 73.7975 58.848C74.7788 59.3813 75.6108 60.1067 76.2935 61.024C76.9975 61.9413 77.3495 63.072 77.3495 64.416C77.3495 66.9333 76.3895 68.8747 74.4695 70.24C72.5708 71.584 70.0215 72.256 66.8215 72.256ZM106.417 45.44C107.078 45.568 107.569 45.792 107.889 46.112C108.23 46.432 108.401 46.8053 108.401 47.232C108.401 47.936 108.198 48.448 107.793 48.768C107.409 49.088 106.79 49.216 105.937 49.152C104.017 49.0027 102.513 48.9067 101.425 48.864C100.358 48.8 98.9503 48.7573 97.201 48.736C96.4117 52.6613 95.6863 56.608 95.025 60.576C94.7903 62.0267 94.545 63.712 94.289 65.632C94.033 67.5307 93.8623 69.0667 93.777 70.24C93.7343 70.8587 93.4783 71.3387 93.009 71.68C92.5397 72 91.9743 72.16 91.313 72.16C90.609 72.16 90.065 71.9893 89.681 71.648C89.297 71.3067 89.105 70.8587 89.105 70.304C89.105 69.792 89.1797 68.9493 89.329 67.776C89.4997 66.5813 89.6917 65.3333 89.905 64.032C90.1397 62.7307 90.321 61.6 90.449 60.64C90.6837 59.0187 90.9503 57.408 91.249 55.808C91.5477 54.208 91.8463 52.6933 92.145 51.264C92.209 50.944 92.2837 50.5813 92.369 50.176C92.4543 49.7493 92.5503 49.28 92.657 48.768C90.5663 48.832 88.9237 49.0027 87.729 49.28C86.5343 49.5573 85.681 49.952 85.169 50.464C84.6783 50.9547 84.433 51.5947 84.433 52.384C84.433 53.1093 84.6463 53.8027 85.073 54.464C85.1583 54.6133 85.201 54.7733 85.201 54.944C85.201 55.3493 84.9557 55.7333 84.465 56.096C83.9957 56.4373 83.505 56.608 82.993 56.608C82.6303 56.608 82.3317 56.5013 82.097 56.288C81.6703 55.9253 81.3183 55.4133 81.041 54.752C80.7637 54.0693 80.625 53.3013 80.625 52.448C80.625 50.6347 81.2117 49.184 82.385 48.096C83.5797 46.9867 85.3823 46.176 87.793 45.664C90.225 45.152 93.3397 44.896 97.137 44.896C99.4837 44.896 101.35 44.9387 102.737 45.024C104.145 45.1093 105.372 45.248 106.417 45.44ZM131.833 64.832C131.961 64.7893 132.153 64.768 132.409 64.768C133.135 64.768 133.497 65.2373 133.497 66.176C133.497 66.688 133.38 67.1253 133.145 67.488C132.932 67.8293 132.591 68.0427 132.121 68.128C130.18 68.4907 128.271 68.896 126.393 69.344L126.297 70.112C125.7 74.3147 124.505 77.4187 122.713 79.424C120.943 81.4507 118.724 82.464 116.057 82.464C114.287 82.464 112.911 82.0267 111.929 81.152C110.969 80.2987 110.489 79.2 110.489 77.856C110.489 75.616 111.492 73.6213 113.497 71.872C115.503 70.1227 118.543 68.576 122.617 67.232L123.257 62.72C123.343 62.208 123.449 61.5253 123.577 60.672C122.575 63.3173 121.295 65.2907 119.737 66.592C118.18 67.8933 116.441 68.544 114.521 68.544C112.687 68.544 111.289 67.9893 110.329 66.88C109.369 65.7493 108.889 64.2987 108.889 62.528C108.889 61.7387 108.975 60.8747 109.145 59.936C109.316 58.976 109.583 57.6853 109.945 56.064C110.265 54.592 110.5 53.4187 110.649 52.544C110.82 51.6693 110.905 50.8907 110.905 50.208C110.905 49.184 110.511 48.672 109.721 48.672C109.103 48.672 108.367 48.9813 107.513 49.6C106.681 50.1973 105.796 51.1253 104.857 52.384C104.559 52.7893 104.228 52.992 103.865 52.992C103.567 52.992 103.3 52.8533 103.065 52.576C102.852 52.2773 102.745 51.9467 102.745 51.584C102.745 50.9227 103.044 50.176 103.641 49.344C105.817 46.3573 108.367 44.864 111.289 44.864C112.591 44.864 113.604 45.2587 114.329 46.048C115.076 46.8373 115.449 48 115.449 49.536C115.449 50.6453 115.343 51.7867 115.129 52.96C114.937 54.112 114.639 55.584 114.233 57.376C113.977 58.4427 113.785 59.3067 113.657 59.968C113.529 60.608 113.465 61.1413 113.465 61.568C113.465 62.656 113.657 63.4347 114.041 63.904C114.425 64.3733 115.097 64.608 116.057 64.608C117.209 64.608 118.383 63.9787 119.577 62.72C120.793 61.44 121.881 59.5093 122.841 56.928C123.823 54.3467 124.527 51.1893 124.953 47.456C125.06 46.5173 125.305 45.856 125.689 45.472C126.073 45.0667 126.628 44.864 127.353 44.864C128.847 44.864 129.593 45.6107 129.593 47.104C129.593 47.36 129.583 47.5627 129.561 47.712C129.113 50.8907 128.697 53.76 128.313 56.32C128.1 57.856 127.865 59.4347 127.609 61.056C127.375 62.6773 127.14 64.32 126.905 65.984C128.463 65.5573 130.105 65.1733 131.833 64.832ZM122.137 70.592C116.975 72.384 114.393 74.56 114.393 77.12C114.393 77.7173 114.575 78.208 114.937 78.592C115.321 78.9973 115.855 79.2 116.537 79.2C119.503 79.2 121.359 76.4053 122.105 70.816L122.137 70.592ZM166.721 52.928C166.721 54.7413 166.252 56.4053 165.313 57.92C164.374 59.4347 163.009 60.672 161.217 61.632C159.425 62.592 157.292 63.1573 154.817 63.328L153.441 71.04C152.908 74.0053 151.457 75.488 149.089 75.488C147.788 75.488 146.582 75.104 145.473 74.336C144.385 73.568 143.51 72.3947 142.849 70.816C142.188 69.2373 141.857 67.296 141.857 64.992C141.857 60.6613 142.55 56.992 143.937 53.984C145.345 50.9547 147.222 48.6933 149.569 47.2C151.937 45.6853 154.54 44.928 157.377 44.928C159.382 44.928 161.078 45.28 162.465 45.984C163.873 46.688 164.929 47.648 165.633 48.864C166.358 50.0587 166.721 51.4133 166.721 52.928ZM155.393 60.032C159.766 59.4773 161.953 57.2053 161.953 53.216C161.953 51.808 161.484 50.6667 160.545 49.792C159.628 48.896 158.198 48.448 156.257 48.448C154.06 48.448 152.14 49.1413 150.497 50.528C148.876 51.9147 147.617 53.8453 146.721 56.32C145.846 58.7733 145.409 61.5787 145.409 64.736C145.409 66.0587 145.537 67.232 145.793 68.256C146.07 69.28 146.412 70.08 146.817 70.656C147.244 71.2107 147.649 71.488 148.033 71.488C148.566 71.488 148.972 70.752 149.249 69.28L150.305 63.232C149.473 63.104 149.11 63.0507 149.217 63.072C148.577 62.9653 148.161 62.7733 147.969 62.496C147.777 62.1973 147.681 61.824 147.681 61.376C147.681 60.9067 147.809 60.5333 148.065 60.256C148.342 59.9787 148.716 59.84 149.185 59.84C149.398 59.84 149.558 59.8507 149.665 59.872C150.177 59.9573 150.572 60.0107 150.849 60.032C151.126 58.368 151.521 56.1387 152.033 53.344C152.161 52.6187 152.449 52.1067 152.897 51.808C153.366 51.488 153.91 51.328 154.529 51.328C155.233 51.328 155.734 51.4667 156.033 51.744C156.353 52 156.513 52.416 156.513 52.992C156.513 53.3333 156.492 53.6107 156.449 53.824L155.393 60.032ZM182.903 45.056C183.458 45.056 183.927 45.1947 184.311 45.472C184.695 45.728 184.887 46.048 184.887 46.432C184.887 47.1147 184.674 47.6693 184.247 48.096C183.82 48.5013 183.212 48.704 182.423 48.704C181.186 48.704 180.247 48.7147 179.607 48.736C179.564 48.992 179.372 50.144 179.031 52.192C178.647 54.4747 178.412 55.872 178.327 56.384L177.655 60.576C177.186 63.712 176.812 66.336 176.535 68.448C176.983 68.4267 177.591 68.416 178.359 68.416C179.49 68.416 180.258 68.5653 180.663 68.864C181.068 69.1627 181.271 69.6107 181.271 70.208C181.271 70.7627 181.047 71.232 180.599 71.616C180.172 72 179.564 72.192 178.775 72.192C178.242 72.192 177.399 72.1707 176.247 72.128C175.18 72.0853 174.476 72.064 174.135 72.064C172.791 72.064 171.319 72.1813 169.719 72.416C169.015 72.5227 168.514 72.576 168.215 72.576C167.746 72.576 167.351 72.448 167.031 72.192C166.711 71.936 166.551 71.5627 166.551 71.072C166.551 70.304 166.892 69.7067 167.575 69.28C168.258 68.8533 169.218 68.6293 170.455 68.608L171.959 68.576L172.055 67.872C172.567 64.4587 172.94 62.048 173.175 60.64L173.879 56.448C174.306 53.9733 174.69 51.424 175.031 48.8L172.343 48.832C171.575 48.832 171.042 48.7147 170.743 48.48C170.466 48.224 170.327 47.872 170.327 47.424C170.327 45.9733 171.372 45.1947 173.463 45.088C174.444 45.0453 175.639 45.024 177.047 45.024L182.903 45.056ZM208.059 66.176C208.379 66.048 208.645 65.984 208.859 65.984C209.2 65.984 209.456 66.112 209.627 66.368C209.797 66.624 209.883 66.9547 209.883 67.36C209.883 68 209.723 68.544 209.403 68.992C209.104 69.44 208.581 69.8453 207.835 70.208C206.576 70.8053 204.944 71.2853 202.939 71.648C200.933 71.9893 198.96 72.16 197.019 72.16C194.331 72.16 192.08 71.8613 190.267 71.264C188.453 70.6453 187.099 69.8027 186.203 68.736C185.328 67.6693 184.891 66.464 184.891 65.12C184.891 63.2853 185.477 61.728 186.651 60.448C187.845 59.1467 189.595 58.208 191.899 57.632C190.64 57.2693 189.669 56.6293 188.987 55.712C188.325 54.7947 187.995 53.7707 187.995 52.64C187.995 51.104 188.475 49.7493 189.435 48.576C190.416 47.3813 191.728 46.464 193.371 45.824C195.013 45.184 196.816 44.864 198.779 44.864C201.424 44.864 203.408 45.44 204.731 46.592C206.053 47.7227 206.715 49.1947 206.715 51.008C206.715 52.2667 206.48 53.2907 206.011 54.08C205.563 54.848 204.912 55.232 204.059 55.232C203.461 55.232 202.992 55.104 202.651 54.848C202.309 54.5707 202.139 54.1653 202.139 53.632C202.139 53.2693 202.192 52.8747 202.299 52.448C202.405 51.744 202.459 51.264 202.459 51.008C202.459 50.24 202.171 49.6213 201.595 49.152C201.019 48.6613 200.059 48.416 198.715 48.416C196.901 48.416 195.451 48.8 194.363 49.568C193.275 50.336 192.731 51.3707 192.731 52.672C192.731 53.6747 193.136 54.5067 193.947 55.168C194.779 55.808 196.123 56.16 197.979 56.224C198.448 56.2453 198.779 56.352 198.971 56.544C199.163 56.736 199.259 57.056 199.259 57.504C199.259 58.912 198.619 59.6267 197.339 59.648C195.568 59.6907 194.096 59.936 192.923 60.384C191.771 60.832 190.928 61.408 190.395 62.112C189.883 62.7947 189.627 63.5307 189.627 64.32C189.627 65.6427 190.245 66.6453 191.483 67.328C192.72 67.9893 194.683 68.32 197.371 68.32C199.141 68.32 201.008 68.1173 202.971 67.712C204.955 67.2853 206.651 66.7733 208.059 66.176ZM221.292 72.16C218.754 72.16 216.546 71.7013 214.668 70.784C212.791 69.8453 211.351 68.5227 210.348 66.816C209.346 65.1093 208.844 63.1253 208.844 60.864C208.844 57.728 209.431 54.944 210.604 52.512C211.799 50.08 213.41 48.2027 215.436 46.88C217.463 45.536 219.714 44.864 222.188 44.864C224.492 44.864 226.242 45.4613 227.436 46.656C228.631 47.8293 229.228 49.3867 229.228 51.328C229.228 52.6293 228.994 53.6747 228.524 54.464C228.076 55.2533 227.426 55.648 226.572 55.648C225.975 55.648 225.506 55.5093 225.164 55.232C224.823 54.9547 224.652 54.5493 224.652 54.016C224.652 53.824 224.695 53.472 224.78 52.96C224.908 52.32 224.972 51.808 224.972 51.424C224.972 49.4827 223.938 48.512 221.868 48.512C220.46 48.512 219.116 48.9707 217.836 49.888C216.556 50.8053 215.522 52.16 214.732 53.952C213.943 55.7227 213.548 57.8347 213.548 60.288C213.548 62.848 214.263 64.832 215.692 66.24C217.122 67.6267 219.234 68.32 222.028 68.32C223.415 68.32 224.812 68.1493 226.22 67.808C227.65 67.4453 229.228 66.9013 230.956 66.176C231.276 66.048 231.543 65.984 231.756 65.984C232.098 65.984 232.354 66.112 232.524 66.368C232.695 66.624 232.78 66.9547 232.78 67.36C232.78 68.6613 232.076 69.6213 230.668 70.24C229.154 70.9013 227.575 71.392 225.932 71.712C224.311 72.0107 222.764 72.16 221.292 72.16ZM253.854 66.176C254.174 66.048 254.44 65.984 254.654 65.984C254.995 65.984 255.251 66.112 255.422 66.368C255.592 66.624 255.678 66.9547 255.678 67.36C255.678 68 255.518 68.544 255.198 68.992C254.899 69.44 254.376 69.8453 253.63 70.208C252.371 70.8053 250.739 71.2853 248.734 71.648C246.728 71.9893 244.755 72.16 242.814 72.16C240.126 72.16 237.875 71.8613 236.062 71.264C234.248 70.6453 232.894 69.8027 231.998 68.736C231.123 67.6693 230.686 66.464 230.686 65.12C230.686 63.2853 231.272 61.728 232.446 60.448C233.64 59.1467 235.39 58.208 237.694 57.632C236.435 57.2693 235.464 56.6293 234.782 55.712C234.12 54.7947 233.79 53.7707 233.79 52.64C233.79 51.104 234.27 49.7493 235.23 48.576C236.211 47.3813 237.523 46.464 239.166 45.824C240.808 45.184 242.611 44.864 244.574 44.864C247.219 44.864 249.203 45.44 250.526 46.592C251.848 47.7227 252.51 49.1947 252.51 51.008C252.51 52.2667 252.275 53.2907 251.806 54.08C251.358 54.848 250.707 55.232 249.854 55.232C249.256 55.232 248.787 55.104 248.446 54.848C248.104 54.5707 247.934 54.1653 247.934 53.632C247.934 53.2693 247.987 52.8747 248.094 52.448C248.2 51.744 248.254 51.264 248.254 51.008C248.254 50.24 247.966 49.6213 247.39 49.152C246.814 48.6613 245.854 48.416 244.51 48.416C242.696 48.416 241.246 48.8 240.158 49.568C239.07 50.336 238.526 51.3707 238.526 52.672C238.526 53.6747 238.931 54.5067 239.742 55.168C240.574 55.808 241.918 56.16 243.774 56.224C244.243 56.2453 244.574 56.352 244.766 56.544C244.958 56.736 245.054 57.056 245.054 57.504C245.054 58.912 244.414 59.6267 243.134 59.648C241.363 59.6907 239.891 59.936 238.718 60.384C237.566 60.832 236.723 61.408 236.19 62.112C235.678 62.7947 235.422 63.5307 235.422 64.32C235.422 65.6427 236.04 66.6453 237.278 67.328C238.515 67.9893 240.478 68.32 243.166 68.32C244.936 68.32 246.803 68.1173 248.766 67.712C250.75 67.2853 252.446 66.7733 253.854 66.176ZM274.18 72.16C272.281 72.16 270.564 71.7333 269.028 70.88C267.513 70.0267 266.308 68.7787 265.412 67.136C264.516 65.472 264.068 63.488 264.068 61.184C264.068 57.9413 264.655 55.0827 265.828 52.608C267.023 50.1333 268.633 48.224 270.66 46.88C272.708 45.536 274.969 44.864 277.444 44.864C279.343 44.864 281.049 45.2907 282.564 46.144C284.1 46.9973 285.316 48.256 286.212 49.92C287.108 51.5627 287.556 53.536 287.556 55.84C287.556 59.0827 286.959 61.9413 285.764 64.416C284.591 66.8907 282.98 68.8 280.932 70.144C278.905 71.488 276.655 72.16 274.18 72.16ZM274.5 68.384C276.164 68.384 277.625 67.872 278.884 66.848C280.164 65.824 281.145 64.4053 281.828 62.592C282.511 60.7573 282.852 58.688 282.852 56.384C282.852 53.8453 282.319 51.9253 281.252 50.624C280.185 49.3013 278.809 48.64 277.124 48.64C275.481 48.64 274.031 49.152 272.772 50.176C271.513 51.1787 270.532 52.5973 269.828 54.432C269.124 56.2453 268.772 58.3147 268.772 60.64C268.772 63.1787 269.305 65.1093 270.372 66.432C271.439 67.7333 272.815 68.384 274.5 68.384ZM317.489 45.472C318.086 45.5573 318.492 45.7387 318.705 46.016C318.94 46.2933 319.057 46.656 319.057 47.104C319.057 48.576 318.268 49.2587 316.689 49.152L315.569 49.056C314.31 48.9493 313.052 48.864 311.793 48.8C310.556 48.736 309.254 48.704 307.889 48.704H306.449C306.193 51.8613 305.926 54.7413 305.649 57.344L311.153 57.248C311.942 57.248 312.465 57.3867 312.721 57.664C312.998 57.9413 313.137 58.3147 313.137 58.784C313.137 59.5093 312.924 60.0853 312.497 60.512C312.07 60.9173 311.462 61.12 310.673 61.12H305.201L305.009 62.496C304.561 66.016 303.601 68.5227 302.129 70.016C300.678 71.5093 298.673 72.256 296.113 72.256C294.662 72.256 293.329 71.9467 292.113 71.328C290.897 70.688 290.001 69.92 289.425 69.024C289.19 68.6613 289.073 68.224 289.073 67.712C289.073 67.2 289.19 66.752 289.425 66.368C289.681 65.984 289.99 65.792 290.353 65.792C290.609 65.792 290.854 65.8773 291.089 66.048C291.345 66.2187 291.665 66.5493 292.049 67.04C293.073 68.384 294.342 69.056 295.857 69.056C297.073 69.056 298.086 68.5653 298.897 67.584C299.729 66.5813 300.262 65.0133 300.497 62.88L300.689 61.12H299.153C298.662 61.12 298.236 60.9813 297.873 60.704C297.532 60.4267 297.361 60.032 297.361 59.52C297.361 58.8587 297.532 58.3573 297.873 58.016C298.214 57.6533 298.716 57.472 299.377 57.472C299.974 57.472 300.561 57.4613 301.137 57.44C301.393 55.0933 301.67 52.2453 301.969 48.896C299.665 49.1093 298.044 49.4827 297.105 50.016C296.166 50.5493 295.697 51.3387 295.697 52.384C295.697 53.1093 295.91 53.8027 296.337 54.464C296.465 54.656 296.529 54.848 296.529 55.04C296.529 55.424 296.316 55.7653 295.889 56.064C295.462 56.3413 294.982 56.48 294.449 56.48C293.873 56.48 293.382 56.3093 292.977 55.968C292.721 55.7547 292.476 55.3173 292.241 54.656C292.006 53.9947 291.889 53.2587 291.889 52.448C291.889 49.8027 293.244 47.8827 295.953 46.688C298.684 45.4933 302.662 44.896 307.889 44.896C311.516 44.896 314.716 45.088 317.489 45.472ZM364.451 58.176C364.942 58.176 365.294 58.2827 365.507 58.496C365.742 58.7093 365.859 58.9867 365.859 59.328C365.859 59.8827 365.688 60.3733 365.347 60.8C365.027 61.2267 364.515 61.4507 363.811 61.472C362.126 61.4933 360.611 61.3653 359.267 61.088C357.774 64.2667 355.971 66.912 353.859 69.024C351.768 71.1147 349.699 72.16 347.651 72.16C345.774 72.16 344.366 71.168 343.427 69.184C342.488 67.1787 341.955 64.5013 341.827 61.152C340.547 64.864 339.096 67.6267 337.475 69.44C335.875 71.2533 334.168 72.16 332.355 72.16C330.307 72.16 328.76 70.8907 327.715 68.352C326.67 65.792 326.147 62.3573 326.147 58.048C326.147 54.912 326.424 51.4667 326.979 47.712C327.128 46.6453 327.395 45.9093 327.779 45.504C328.184 45.0773 328.814 44.864 329.667 44.864C330.307 44.864 330.798 45.0027 331.139 45.28C331.502 45.5573 331.683 46.0693 331.683 46.816C331.683 46.9653 331.662 47.2533 331.619 47.68C330.979 52.0533 330.659 55.776 330.659 58.848C330.659 61.7067 330.904 63.9147 331.395 65.472C331.886 67.0293 332.547 67.808 333.379 67.808C334.126 67.808 335.022 67.0293 336.067 65.472C337.134 63.8933 338.19 61.568 339.235 58.496C340.28 55.4027 341.166 51.7227 341.891 47.456C342.062 46.4747 342.371 45.8027 342.819 45.44C343.288 45.056 343.918 44.864 344.707 44.864C345.368 44.864 345.848 45.0133 346.147 45.312C346.467 45.5893 346.627 46.016 346.627 46.592C346.627 46.9333 346.606 47.2 346.563 47.392C345.966 50.8693 345.667 54.3467 345.667 57.824C345.667 60.192 345.742 62.08 345.891 63.488C346.062 64.896 346.371 65.9733 346.819 66.72C347.288 67.4453 347.96 67.808 348.835 67.808C349.859 67.808 351 67.04 352.259 65.504C353.518 63.9467 354.67 62.016 355.715 59.712C354.414 58.9013 353.432 57.856 352.771 56.576C352.11 55.2747 351.779 53.7813 351.779 52.096C351.779 50.4107 352.035 48.992 352.547 47.84C353.08 46.6667 353.795 45.792 354.691 45.216C355.608 44.64 356.622 44.352 357.731 44.352C359.096 44.352 360.174 44.8427 360.963 45.824C361.774 46.8053 362.179 48.1493 362.179 49.856C362.179 52.2667 361.656 54.944 360.611 57.888C361.699 58.08 362.979 58.176 364.451 58.176ZM355.011 51.872C355.011 53.9627 355.683 55.5093 357.027 56.512C357.859 54.1227 358.275 52.1493 358.275 50.592C358.275 49.696 358.158 49.0453 357.923 48.64C357.688 48.2133 357.368 48 356.963 48C356.387 48 355.918 48.3413 355.555 49.024C355.192 49.6853 355.011 50.6347 355.011 51.872ZM374.332 72.16C372.434 72.16 370.716 71.7333 369.18 70.88C367.666 70.0267 366.46 68.7787 365.564 67.136C364.668 65.472 364.22 63.488 364.22 61.184C364.22 57.9413 364.807 55.0827 365.98 52.608C367.175 50.1333 368.786 48.224 370.812 46.88C372.86 45.536 375.122 44.864 377.596 44.864C379.495 44.864 381.202 45.2907 382.716 46.144C384.252 46.9973 385.468 48.256 386.364 49.92C387.26 51.5627 387.708 53.536 387.708 55.84C387.708 59.0827 387.111 61.9413 385.916 64.416C384.743 66.8907 383.132 68.8 381.084 70.144C379.058 71.488 376.807 72.16 374.332 72.16ZM374.652 68.384C376.316 68.384 377.778 67.872 379.036 66.848C380.316 65.824 381.298 64.4053 381.98 62.592C382.663 60.7573 383.004 58.688 383.004 56.384C383.004 53.8453 382.471 51.9253 381.404 50.624C380.338 49.3013 378.962 48.64 377.276 48.64C375.634 48.64 374.183 49.152 372.924 50.176C371.666 51.1787 370.684 52.5973 369.98 54.432C369.276 56.2453 368.924 58.3147 368.924 60.64C368.924 63.1787 369.458 65.1093 370.524 66.432C371.591 67.7333 372.967 68.384 374.652 68.384ZM420.65 64.864C420.927 64.864 421.14 64.992 421.29 65.248C421.46 65.504 421.546 65.856 421.546 66.304C421.546 67.136 421.343 67.7973 420.938 68.288C419.914 69.5253 418.879 70.4853 417.834 71.168C416.788 71.8293 415.551 72.16 414.122 72.16C412.735 72.16 411.551 71.7867 410.57 71.04C409.61 70.2933 408.692 69.0133 407.818 67.2C407.114 65.7493 406.559 64.6827 406.154 64C405.748 63.296 405.343 62.7947 404.938 62.496C404.554 62.1973 404.074 62.016 403.498 61.952C403.412 62.4 403.167 63.808 402.762 66.176C402.591 67.2427 402.484 67.8933 402.442 68.128C402.228 69.4293 401.802 70.432 401.162 71.136C400.522 71.8187 399.551 72.16 398.25 72.16C396.82 72.16 395.551 71.744 394.442 70.912C393.354 70.0587 392.511 68.8853 391.914 67.392C391.316 65.8773 391.018 64.16 391.018 62.24C391.018 58.656 391.636 55.5627 392.874 52.96C394.132 50.3573 395.882 48.3733 398.122 47.008C400.383 45.6213 402.986 44.928 405.93 44.928C407.978 44.928 409.695 45.2373 411.082 45.856C412.468 46.4747 413.492 47.328 414.154 48.416C414.836 49.504 415.178 50.7307 415.178 52.096C415.178 53.2907 414.89 54.464 414.314 55.616C413.759 56.7467 412.916 57.7493 411.786 58.624C410.655 59.4987 409.279 60.1493 407.658 60.576C408.682 60.8533 409.471 61.3013 410.026 61.92C410.58 62.5387 411.135 63.4453 411.69 64.64C412.287 65.92 412.874 66.8587 413.45 67.456C414.047 68.0533 414.73 68.352 415.498 68.352C416.18 68.352 416.831 68.128 417.45 67.68C418.068 67.2107 418.847 66.4213 419.786 65.312C420.042 65.0133 420.33 64.864 420.65 64.864ZM399.082 61.92C398.356 61.92 397.855 61.7493 397.578 61.408C397.322 61.0667 397.194 60.6827 397.194 60.256C397.194 59.744 397.354 59.3387 397.674 59.04C398.015 58.7413 398.399 58.592 398.826 58.592H399.626C399.967 56.5013 400.287 54.6987 400.586 53.184C400.863 51.7973 401.759 51.104 403.274 51.104C404.49 51.104 405.098 51.648 405.098 52.736C405.098 52.9707 405.087 53.152 405.066 53.28L404.106 58.592C405.258 58.528 406.303 58.2507 407.242 57.76C408.202 57.2693 408.959 56.5867 409.514 55.712C410.09 54.8373 410.378 53.8453 410.378 52.736C410.378 51.392 409.919 50.336 409.002 49.568C408.084 48.8 406.74 48.416 404.97 48.416C402.879 48.416 401.044 48.9387 399.466 49.984C397.908 51.008 396.692 52.544 395.818 54.592C394.943 56.6187 394.506 59.0933 394.506 62.016C394.506 63.3813 394.644 64.5547 394.922 65.536C395.199 66.5173 395.54 67.2533 395.946 67.744C396.351 68.2347 396.735 68.48 397.098 68.48C397.375 68.48 397.599 68.3413 397.77 68.064C397.962 67.7867 398.111 67.3387 398.218 66.72L399.082 61.92ZM451.59 64.864C451.867 64.864 452.08 64.992 452.23 65.248C452.4 65.504 452.486 65.856 452.486 66.304C452.486 67.136 452.283 67.7973 451.878 68.288C450.854 69.5253 449.819 70.4853 448.774 71.168C447.728 71.8293 446.491 72.16 445.062 72.16C443.483 72.16 442.192 71.7013 441.19 70.784C440.187 69.8453 439.248 68.3947 438.374 66.432C437.734 65.024 437.2 63.9787 436.774 63.296C436.368 62.592 435.963 62.1013 435.558 61.824C435.152 61.5253 434.64 61.344 434.022 61.28L433.67 63.648C433.222 66.6987 432.347 68.896 431.046 70.24C429.766 71.584 427.995 72.256 425.734 72.256C424.262 72.256 422.95 71.904 421.798 71.2C420.667 70.4747 419.878 69.5573 419.43 68.448C419.28 68.064 419.206 67.648 419.206 67.2C419.206 66.56 419.355 66.0053 419.654 65.536C419.952 65.0667 420.336 64.832 420.806 64.832C421.083 64.832 421.318 64.9067 421.51 65.056C421.702 65.184 421.883 65.4187 422.054 65.76C422.715 66.9973 423.291 67.8613 423.782 68.352C424.294 68.8427 424.923 69.088 425.67 69.088C426.523 69.088 427.248 68.704 427.846 67.936C428.464 67.1467 428.902 65.9413 429.158 64.32L429.606 61.28H429.094C428.603 61.28 428.219 61.1413 427.942 60.864C427.664 60.5867 427.526 60.2027 427.526 59.712C427.526 59.1573 427.664 58.72 427.942 58.4C428.24 58.0587 428.603 57.888 429.03 57.888H430.086C430.235 56.8427 430.342 56.1173 430.406 55.712L431.398 48.512C430.843 48.448 430.32 48.416 429.83 48.416C428.016 48.416 426.64 48.736 425.702 49.376C424.763 49.9947 424.294 50.8907 424.294 52.064C424.294 52.5973 424.347 53.0347 424.454 53.376C424.582 53.696 424.742 54.0587 424.934 54.464C425.019 54.6347 425.062 54.8267 425.062 55.04C425.062 55.5093 424.838 55.9253 424.39 56.288C423.963 56.6293 423.483 56.8 422.95 56.8C422.267 56.8 421.766 56.5013 421.446 55.904C420.806 54.7733 420.486 53.5573 420.486 52.256C420.486 50.912 420.848 49.6853 421.574 48.576C422.32 47.4667 423.44 46.5813 424.934 45.92C426.427 45.2373 428.272 44.896 430.47 44.896C431.43 44.896 432.304 44.9493 433.094 45.056C433.904 45.1627 434.79 45.3653 435.75 45.664C436.795 45.984 437.318 46.5813 437.318 47.456C437.318 48.6293 436.816 49.216 435.814 49.216L434.566 57.824C437.062 57.568 439.088 56.5013 440.646 54.624C442.224 52.7253 443.536 50.1547 444.582 46.912C444.774 46.3147 445.094 45.856 445.542 45.536C446.011 45.216 446.598 45.056 447.302 45.056C447.899 45.056 448.358 45.1947 448.678 45.472C449.019 45.728 449.19 46.1013 449.19 46.592C449.19 46.7413 449.147 46.9867 449.062 47.328C447.995 50.848 446.47 53.6427 444.486 55.712C442.502 57.7813 440.336 59.1573 437.99 59.84C438.8 60.032 439.462 60.32 439.974 60.704C440.507 61.088 440.955 61.568 441.318 62.144C441.68 62.6987 442.096 63.4773 442.566 64.48C443.227 65.888 443.846 66.8907 444.422 67.488C444.998 68.064 445.67 68.352 446.438 68.352C447.12 68.352 447.771 68.128 448.39 67.68C449.008 67.2107 449.787 66.4213 450.726 65.312C450.982 65.0133 451.27 64.864 451.59 64.864Z" fill="#151515"/>
<path d="M19.7656 0.647202C14.8653 2.40389 8.02349 13.4988 7.09891 21.1727C6.45171 26.7202 9.04052 33.0073 13.1086 35.9659L15.9748 38L20.2279 34.1168C26.7924 28.1071 26.9773 27.1825 22.5393 24.9635C17.1768 22.1898 15.3276 18.0292 16.8994 12.2044C17.5466 9.89294 19.0259 6.56448 20.3203 4.90024C23.4639 0.739659 23.279 -0.647202 19.7656 0.647202Z" fill="#151515"/>
<path d="M44.4517 1.38686C40.8459 3.23601 38.6269 6.00973 35.3909 12.4818C30.9529 21.635 31.97 30.2336 38.2571 35.4112C41.1233 37.9075 41.3082 37.9075 43.2498 36.3358C48.2425 32.1752 51.2011 29.1241 51.2011 28.0146C51.2011 27.3674 49.5369 25.7956 47.5028 24.5012C43.2498 21.82 41.9554 19.6934 41.9554 15.5328C41.9554 12.0195 44.6366 5.6399 46.8556 3.79075C48.4274 2.49635 48.9821 0 47.7802 0C47.3179 0 45.8386 0.647202 44.4517 1.38686Z" fill="#151515"/>
</svg>
