<svg width="310" height="105" viewBox="0 0 310 105" fill="none" xmlns="http://www.w3.org/2000/svg">
<mask id="path-1-outside-1_133_2" maskUnits="userSpaceOnUse" x="0" y="-1" width="279" height="25" fill="black">
<rect fill="white" y="-1" width="279" height="25"/>
<path d="M11.44 22H1.3V20.96H3.38V2.24H1.3V1.2H17.16L19.578 3.618V9.442L17.42 11.6L19.578 13.758V20.96H21.658V22H15.756L13.598 19.842V12.12H9.36V20.96H11.44V22ZM9.36 2.24V11.08H13.598V2.24H9.36ZM39.1562 22H22.4382V20.96H24.5182V2.24H22.4382V1.2H39.1562V7.18H37.9862V2.24H30.4982V10.82H37.2062V11.86H30.4982V20.96H37.9862V16.02H39.1562V22ZM57.4773 20.96V16.02H58.6473V22H41.4873V20.96H43.5673V2.24H41.4873V1.2H51.6273V2.24H49.5473V20.96H57.4773ZM82.5403 20.96V22H71.7762V20.96H74.5582L72.3742 14.2H65.1722L62.9622 20.96H65.6142V22H59.9462V20.96H61.7142L68.1362 1.2H74.3502L80.7723 20.96H82.5403ZM72.0362 13.16L68.7602 3.124L65.5102 13.16H72.0362ZM85.5217 7.18H84.3517V1.2H102.032V7.18H100.862V2.24H96.1817V20.96H98.2617V22H88.1217V20.96H90.2017V2.24H85.5217V7.18ZM114.259 1.2V2.24H112.179V20.96H114.259V22H104.119V20.96H106.199V2.24H104.119V1.2H114.259ZM119.009 22L116.331 19.322V3.878L119.009 1.2H130.683L133.361 3.878V19.322L130.683 22H119.009ZM122.311 2.24V20.96H127.381V2.24H122.311ZM157.642 2.24H155.562V22H148.542L138.688 2.24V20.96H140.768V22H135.438V20.96H137.518V2.24H135.438V1.2H144.538L154.392 20.96V2.24H152.312V1.2H157.642V2.24ZM159.71 15.76H160.88V18.568L163.272 20.96H171.644L159.97 7.206V3.618L162.388 1.2H172.606L174.426 3.02V0.939998H175.596V7.44H174.426V4.632L172.034 2.24H164.442L176.116 15.994V19.582L173.698 22H162.7L160.88 20.18V22.26H159.71V15.76ZM200.308 1.2V2.24H198.228V20.96H200.308V22H190.428V20.96H192.248V11.86H186.268V20.96H188.088V22H178.208V20.96H180.288V2.24H178.208V1.2H188.088V2.24H186.268V10.82H192.248V2.24H190.428V1.2H200.308ZM211.739 1.2V2.24H209.659V20.96H211.739V22H201.599V20.96H203.679V2.24H201.599V1.2H211.739ZM232.348 3.618V10.482L229.67 13.16H221.87V20.96H223.95V22H213.81V20.96H215.89V2.24H213.81V1.2H229.93L232.348 3.618ZM221.87 12.12H226.368V2.24H221.87V12.12ZM244.913 22L242.235 19.322V3.878L244.913 1.2H256.587L259.265 3.878V19.322L256.587 22H244.913ZM248.215 2.24V20.96H253.285V2.24H248.215ZM271.482 22H261.342V20.96H263.422V2.24H261.342V1.2H277.8V7.18H276.63V2.24H269.402V11.34H275.59V12.38H269.402V20.96H271.482V22Z"/>
</mask>
<path d="M11.44 22H1.3V20.96H3.38V2.24H1.3V1.2H17.16L19.578 3.618V9.442L17.42 11.6L19.578 13.758V20.96H21.658V22H15.756L13.598 19.842V12.12H9.36V20.96H11.44V22ZM9.36 2.24V11.08H13.598V2.24H9.36ZM39.1562 22H22.4382V20.96H24.5182V2.24H22.4382V1.2H39.1562V7.18H37.9862V2.24H30.4982V10.82H37.2062V11.86H30.4982V20.96H37.9862V16.02H39.1562V22ZM57.4773 20.96V16.02H58.6473V22H41.4873V20.96H43.5673V2.24H41.4873V1.2H51.6273V2.24H49.5473V20.96H57.4773ZM82.5403 20.96V22H71.7762V20.96H74.5582L72.3742 14.2H65.1722L62.9622 20.96H65.6142V22H59.9462V20.96H61.7142L68.1362 1.2H74.3502L80.7723 20.96H82.5403ZM72.0362 13.16L68.7602 3.124L65.5102 13.16H72.0362ZM85.5217 7.18H84.3517V1.2H102.032V7.18H100.862V2.24H96.1817V20.96H98.2617V22H88.1217V20.96H90.2017V2.24H85.5217V7.18ZM114.259 1.2V2.24H112.179V20.96H114.259V22H104.119V20.96H106.199V2.24H104.119V1.2H114.259ZM119.009 22L116.331 19.322V3.878L119.009 1.2H130.683L133.361 3.878V19.322L130.683 22H119.009ZM122.311 2.24V20.96H127.381V2.24H122.311ZM157.642 2.24H155.562V22H148.542L138.688 2.24V20.96H140.768V22H135.438V20.96H137.518V2.24H135.438V1.2H144.538L154.392 20.96V2.24H152.312V1.2H157.642V2.24ZM159.71 15.76H160.88V18.568L163.272 20.96H171.644L159.97 7.206V3.618L162.388 1.2H172.606L174.426 3.02V0.939998H175.596V7.44H174.426V4.632L172.034 2.24H164.442L176.116 15.994V19.582L173.698 22H162.7L160.88 20.18V22.26H159.71V15.76ZM200.308 1.2V2.24H198.228V20.96H200.308V22H190.428V20.96H192.248V11.86H186.268V20.96H188.088V22H178.208V20.96H180.288V2.24H178.208V1.2H188.088V2.24H186.268V10.82H192.248V2.24H190.428V1.2H200.308ZM211.739 1.2V2.24H209.659V20.96H211.739V22H201.599V20.96H203.679V2.24H201.599V1.2H211.739ZM232.348 3.618V10.482L229.67 13.16H221.87V20.96H223.95V22H213.81V20.96H215.89V2.24H213.81V1.2H229.93L232.348 3.618ZM221.87 12.12H226.368V2.24H221.87V12.12ZM244.913 22L242.235 19.322V3.878L244.913 1.2H256.587L259.265 3.878V19.322L256.587 22H244.913ZM248.215 2.24V20.96H253.285V2.24H248.215ZM271.482 22H261.342V20.96H263.422V2.24H261.342V1.2H277.8V7.18H276.63V2.24H269.402V11.34H275.59V12.38H269.402V20.96H271.482V22Z" fill="url(#paint0_linear_133_2)"/>
<path d="M11.44 22V23H12.44V22H11.44ZM1.3 22H0.3V23H1.3V22ZM1.3 20.96V19.96H0.3V20.96H1.3ZM3.38 20.96V21.96H4.38V20.96H3.38ZM3.38 2.24H4.38V1.24H3.38V2.24ZM1.3 2.24H0.3V3.24H1.3V2.24ZM1.3 1.2V0.2H0.3V1.2H1.3ZM17.16 1.2L17.8671 0.492893L17.5742 0.2H17.16V1.2ZM19.578 3.618H20.578V3.20379L20.2851 2.91089L19.578 3.618ZM19.578 9.442L20.2851 10.1491L20.578 9.85621V9.442H19.578ZM17.42 11.6L16.7129 10.8929L16.0058 11.6L16.7129 12.3071L17.42 11.6ZM19.578 13.758H20.578V13.3438L20.2851 13.0509L19.578 13.758ZM19.578 20.96H18.578V21.96H19.578V20.96ZM21.658 20.96H22.658V19.96H21.658V20.96ZM21.658 22V23H22.658V22H21.658ZM15.756 22L15.0489 22.7071L15.3418 23H15.756V22ZM13.598 19.842H12.598V20.2562L12.8909 20.5491L13.598 19.842ZM13.598 12.12H14.598V11.12H13.598V12.12ZM9.36 12.12V11.12H8.36V12.12H9.36ZM9.36 20.96H8.36V21.96H9.36V20.96ZM11.44 20.96H12.44V19.96H11.44V20.96ZM9.36 2.24V1.24H8.36V2.24H9.36ZM9.36 11.08H8.36V12.08H9.36V11.08ZM13.598 11.08V12.08H14.598V11.08H13.598ZM13.598 2.24H14.598V1.24H13.598V2.24ZM11.44 21H1.3V23H11.44V21ZM2.3 22V20.96H0.3V22H2.3ZM1.3 21.96H3.38V19.96H1.3V21.96ZM4.38 20.96V2.24H2.38V20.96H4.38ZM3.38 1.24H1.3V3.24H3.38V1.24ZM2.3 2.24V1.2H0.3V2.24H2.3ZM1.3 2.2H17.16V0.2H1.3V2.2ZM16.4529 1.90711L18.8709 4.32511L20.2851 2.91089L17.8671 0.492893L16.4529 1.90711ZM18.578 3.618V9.442H20.578V3.618H18.578ZM18.8709 8.73489L16.7129 10.8929L18.1271 12.3071L20.2851 10.1491L18.8709 8.73489ZM16.7129 12.3071L18.8709 14.4651L20.2851 13.0509L18.1271 10.8929L16.7129 12.3071ZM18.578 13.758V20.96H20.578V13.758H18.578ZM19.578 21.96H21.658V19.96H19.578V21.96ZM20.658 20.96V22H22.658V20.96H20.658ZM21.658 21H15.756V23H21.658V21ZM16.4631 21.2929L14.3051 19.1349L12.8909 20.5491L15.0489 22.7071L16.4631 21.2929ZM14.598 19.842V12.12H12.598V19.842H14.598ZM13.598 11.12H9.36V13.12H13.598V11.12ZM8.36 12.12V20.96H10.36V12.12H8.36ZM9.36 21.96H11.44V19.96H9.36V21.96ZM10.44 20.96V22H12.44V20.96H10.44ZM8.36 2.24V11.08H10.36V2.24H8.36ZM9.36 12.08H13.598V10.08H9.36V12.08ZM14.598 11.08V2.24H12.598V11.08H14.598ZM13.598 1.24H9.36V3.24H13.598V1.24ZM39.1562 22V23H40.1562V22H39.1562ZM22.4382 22H21.4382V23H22.4382V22ZM22.4382 20.96V19.96H21.4382V20.96H22.4382ZM24.5182 20.96V21.96H25.5182V20.96H24.5182ZM24.5182 2.24H25.5182V1.24H24.5182V2.24ZM22.4382 2.24H21.4382V3.24H22.4382V2.24ZM22.4382 1.2V0.2H21.4382V1.2H22.4382ZM39.1562 1.2H40.1562V0.2H39.1562V1.2ZM39.1562 7.18V8.18H40.1562V7.18H39.1562ZM37.9862 7.18H36.9862V8.18H37.9862V7.18ZM37.9862 2.24H38.9862V1.24H37.9862V2.24ZM30.4982 2.24V1.24H29.4982V2.24H30.4982ZM30.4982 10.82H29.4982V11.82H30.4982V10.82ZM37.2062 10.82H38.2062V9.82H37.2062V10.82ZM37.2062 11.86V12.86H38.2062V11.86H37.2062ZM30.4982 11.86V10.86H29.4982V11.86H30.4982ZM30.4982 20.96H29.4982V21.96H30.4982V20.96ZM37.9862 20.96V21.96H38.9862V20.96H37.9862ZM37.9862 16.02V15.02H36.9862V16.02H37.9862ZM39.1562 16.02H40.1562V15.02H39.1562V16.02ZM39.1562 21H22.4382V23H39.1562V21ZM23.4382 22V20.96H21.4382V22H23.4382ZM22.4382 21.96H24.5182V19.96H22.4382V21.96ZM25.5182 20.96V2.24H23.5182V20.96H25.5182ZM24.5182 1.24H22.4382V3.24H24.5182V1.24ZM23.4382 2.24V1.2H21.4382V2.24H23.4382ZM22.4382 2.2H39.1562V0.2H22.4382V2.2ZM38.1562 1.2V7.18H40.1562V1.2H38.1562ZM39.1562 6.18H37.9862V8.18H39.1562V6.18ZM38.9862 7.18V2.24H36.9862V7.18H38.9862ZM37.9862 1.24H30.4982V3.24H37.9862V1.24ZM29.4982 2.24V10.82H31.4982V2.24H29.4982ZM30.4982 11.82H37.2062V9.82H30.4982V11.82ZM36.2062 10.82V11.86H38.2062V10.82H36.2062ZM37.2062 10.86H30.4982V12.86H37.2062V10.86ZM29.4982 11.86V20.96H31.4982V11.86H29.4982ZM30.4982 21.96H37.9862V19.96H30.4982V21.96ZM38.9862 20.96V16.02H36.9862V20.96H38.9862ZM37.9862 17.02H39.1562V15.02H37.9862V17.02ZM38.1562 16.02V22H40.1562V16.02H38.1562ZM57.4773 20.96V21.96H58.4773V20.96H57.4773ZM57.4773 16.02V15.02H56.4773V16.02H57.4773ZM58.6473 16.02H59.6473V15.02H58.6473V16.02ZM58.6473 22V23H59.6473V22H58.6473ZM41.4873 22H40.4873V23H41.4873V22ZM41.4873 20.96V19.96H40.4873V20.96H41.4873ZM43.5673 20.96V21.96H44.5673V20.96H43.5673ZM43.5673 2.24H44.5673V1.24H43.5673V2.24ZM41.4873 2.24H40.4873V3.24H41.4873V2.24ZM41.4873 1.2V0.2H40.4873V1.2H41.4873ZM51.6273 1.2H52.6273V0.2H51.6273V1.2ZM51.6273 2.24V3.24H52.6273V2.24H51.6273ZM49.5473 2.24V1.24H48.5473V2.24H49.5473ZM49.5473 20.96H48.5473V21.96H49.5473V20.96ZM58.4773 20.96V16.02H56.4773V20.96H58.4773ZM57.4773 17.02H58.6473V15.02H57.4773V17.02ZM57.6473 16.02V22H59.6473V16.02H57.6473ZM58.6473 21H41.4873V23H58.6473V21ZM42.4873 22V20.96H40.4873V22H42.4873ZM41.4873 21.96H43.5673V19.96H41.4873V21.96ZM44.5673 20.96V2.24H42.5673V20.96H44.5673ZM43.5673 1.24H41.4873V3.24H43.5673V1.24ZM42.4873 2.24V1.2H40.4873V2.24H42.4873ZM41.4873 2.2H51.6273V0.2H41.4873V2.2ZM50.6273 1.2V2.24H52.6273V1.2H50.6273ZM51.6273 1.24H49.5473V3.24H51.6273V1.24ZM48.5473 2.24V20.96H50.5473V2.24H48.5473ZM49.5473 21.96H57.4773V19.96H49.5473V21.96ZM82.5403 20.96H83.5403V19.96H82.5403V20.96ZM82.5403 22V23H83.5403V22H82.5403ZM71.7763 22H70.7763V23H71.7763V22ZM71.7763 20.96V19.96H70.7763V20.96H71.7763ZM74.5583 20.96V21.96H75.9322L75.5098 20.6526L74.5583 20.96ZM72.3743 14.2L73.3258 13.8926L73.1021 13.2H72.3743V14.2ZM65.1722 14.2V13.2H64.4471L64.2218 13.8893L65.1722 14.2ZM62.9622 20.96L62.0118 20.6493L61.5832 21.96H62.9622V20.96ZM65.6143 20.96H66.6143V19.96H65.6143V20.96ZM65.6143 22V23H66.6143V22H65.6143ZM59.9462 22H58.9462V23H59.9462V22ZM59.9462 20.96V19.96H58.9462V20.96H59.9462ZM61.7142 20.96V21.96H62.4407L62.6653 21.2691L61.7142 20.96ZM68.1362 1.2V0.2H67.4098L67.1852 0.890914L68.1362 1.2ZM74.3503 1.2L75.3013 0.890914L75.0767 0.2H74.3503V1.2ZM80.7722 20.96L79.8212 21.2691L80.0458 21.96H80.7722V20.96ZM72.0362 13.16V14.16H73.4146L72.9869 12.8497L72.0362 13.16ZM68.7602 3.124L69.7109 2.81369L68.7565 -0.110181L67.8089 2.81592L68.7602 3.124ZM65.5102 13.16L64.5589 12.8519L64.1353 14.16H65.5102V13.16ZM81.5403 20.96V22H83.5403V20.96H81.5403ZM82.5403 21H71.7763V23H82.5403V21ZM72.7763 22V20.96H70.7763V22H72.7763ZM71.7763 21.96H74.5583V19.96H71.7763V21.96ZM75.5098 20.6526L73.3258 13.8926L71.4227 14.5074L73.6067 21.2674L75.5098 20.6526ZM72.3743 13.2H65.1722V15.2H72.3743V13.2ZM64.2218 13.8893L62.0118 20.6493L63.9127 21.2707L66.1227 14.5107L64.2218 13.8893ZM62.9622 21.96H65.6143V19.96H62.9622V21.96ZM64.6143 20.96V22H66.6143V20.96H64.6143ZM65.6143 21H59.9462V23H65.6143V21ZM60.9462 22V20.96H58.9462V22H60.9462ZM59.9462 21.96H61.7142V19.96H59.9462V21.96ZM62.6653 21.2691L69.0873 1.50909L67.1852 0.890914L60.7632 20.6509L62.6653 21.2691ZM68.1362 2.2H74.3503V0.2H68.1362V2.2ZM73.3992 1.50909L79.8212 21.2691L81.7233 20.6509L75.3013 0.890914L73.3992 1.50909ZM80.7722 21.96H82.5403V19.96H80.7722V21.96ZM72.9869 12.8497L69.7109 2.81369L67.8096 3.43431L71.0856 13.4703L72.9869 12.8497ZM67.8089 2.81592L64.5589 12.8519L66.4616 13.4681L69.7116 3.43208L67.8089 2.81592ZM65.5102 14.16H72.0362V12.16H65.5102V14.16ZM85.5217 7.18V8.18H86.5217V7.18H85.5217ZM84.3517 7.18H83.3517V8.18H84.3517V7.18ZM84.3517 1.2V0.2H83.3517V1.2H84.3517ZM102.032 1.2H103.032V0.2H102.032V1.2ZM102.032 7.18V8.18H103.032V7.18H102.032ZM100.862 7.18H99.8617V8.18H100.862V7.18ZM100.862 2.24H101.862V1.24H100.862V2.24ZM96.1817 2.24V1.24H95.1817V2.24H96.1817ZM96.1817 20.96H95.1817V21.96H96.1817V20.96ZM98.2617 20.96H99.2617V19.96H98.2617V20.96ZM98.2617 22V23H99.2617V22H98.2617ZM88.1217 22H87.1217V23H88.1217V22ZM88.1217 20.96V19.96H87.1217V20.96H88.1217ZM90.2017 20.96V21.96H91.2017V20.96H90.2017ZM90.2017 2.24H91.2017V1.24H90.2017V2.24ZM85.5217 2.24V1.24H84.5217V2.24H85.5217ZM85.5217 6.18H84.3517V8.18H85.5217V6.18ZM85.3517 7.18V1.2H83.3517V7.18H85.3517ZM84.3517 2.2H102.032V0.2H84.3517V2.2ZM101.032 1.2V7.18H103.032V1.2H101.032ZM102.032 6.18H100.862V8.18H102.032V6.18ZM101.862 7.18V2.24H99.8617V7.18H101.862ZM100.862 1.24H96.1817V3.24H100.862V1.24ZM95.1817 2.24V20.96H97.1817V2.24H95.1817ZM96.1817 21.96H98.2617V19.96H96.1817V21.96ZM97.2617 20.96V22H99.2617V20.96H97.2617ZM98.2617 21H88.1217V23H98.2617V21ZM89.1217 22V20.96H87.1217V22H89.1217ZM88.1217 21.96H90.2017V19.96H88.1217V21.96ZM91.2017 20.96V2.24H89.2017V20.96H91.2017ZM90.2017 1.24H85.5217V3.24H90.2017V1.24ZM84.5217 2.24V7.18H86.5217V2.24H84.5217ZM114.259 1.2H115.259V0.2H114.259V1.2ZM114.259 2.24V3.24H115.259V2.24H114.259ZM112.179 2.24V1.24H111.179V2.24H112.179ZM112.179 20.96H111.179V21.96H112.179V20.96ZM114.259 20.96H115.259V19.96H114.259V20.96ZM114.259 22V23H115.259V22H114.259ZM104.119 22H103.119V23H104.119V22ZM104.119 20.96V19.96H103.119V20.96H104.119ZM106.199 20.96V21.96H107.199V20.96H106.199ZM106.199 2.24H107.199V1.24H106.199V2.24ZM104.119 2.24H103.119V3.24H104.119V2.24ZM104.119 1.2V0.2H103.119V1.2H104.119ZM113.259 1.2V2.24H115.259V1.2H113.259ZM114.259 1.24H112.179V3.24H114.259V1.24ZM111.179 2.24V20.96H113.179V2.24H111.179ZM112.179 21.96H114.259V19.96H112.179V21.96ZM113.259 20.96V22H115.259V20.96H113.259ZM114.259 21H104.119V23H114.259V21ZM105.119 22V20.96H103.119V22H105.119ZM104.119 21.96H106.199V19.96H104.119V21.96ZM107.199 20.96V2.24H105.199V20.96H107.199ZM106.199 1.24H104.119V3.24H106.199V1.24ZM105.119 2.24V1.2H103.119V2.24H105.119ZM104.119 2.2H114.259V0.2H104.119V2.2ZM119.009 22L118.302 22.7071L118.594 23H119.009V22ZM116.331 19.322H115.331V19.7362L115.624 20.0291L116.331 19.322ZM116.331 3.878L115.624 3.17089L115.331 3.46379V3.878H116.331ZM119.009 1.2V0.2H118.594L118.302 0.492893L119.009 1.2ZM130.683 1.2L131.39 0.492893L131.097 0.2H130.683V1.2ZM133.361 3.878H134.361V3.46379L134.068 3.17089L133.361 3.878ZM133.361 19.322L134.068 20.0291L134.361 19.7362V19.322H133.361ZM130.683 22V23H131.097L131.39 22.7071L130.683 22ZM122.311 2.24V1.24H121.311V2.24H122.311ZM122.311 20.96H121.311V21.96H122.311V20.96ZM127.381 20.96V21.96H128.381V20.96H127.381ZM127.381 2.24H128.381V1.24H127.381V2.24ZM119.716 21.2929L117.038 18.6149L115.624 20.0291L118.302 22.7071L119.716 21.2929ZM117.331 19.322V3.878H115.331V19.322H117.331ZM117.038 4.58511L119.716 1.90711L118.302 0.492893L115.624 3.17089L117.038 4.58511ZM119.009 2.2H130.683V0.2H119.009V2.2ZM129.976 1.90711L132.654 4.58511L134.068 3.17089L131.39 0.492893L129.976 1.90711ZM132.361 3.878V19.322H134.361V3.878H132.361ZM132.654 18.6149L129.976 21.2929L131.39 22.7071L134.068 20.0291L132.654 18.6149ZM130.683 21H119.009V23H130.683V21ZM121.311 2.24V20.96H123.311V2.24H121.311ZM122.311 21.96H127.381V19.96H122.311V21.96ZM128.381 20.96V2.24H126.381V20.96H128.381ZM127.381 1.24H122.311V3.24H127.381V1.24ZM157.642 2.24V3.24H158.642V2.24H157.642ZM155.562 2.24V1.24H154.562V2.24H155.562ZM155.562 22V23H156.562V22H155.562ZM148.542 22L147.647 22.4463L147.923 23H148.542V22ZM138.688 2.24L139.583 1.79373L137.688 2.24H138.688ZM138.688 20.96H137.688V21.96H138.688V20.96ZM140.768 20.96H141.768V19.96H140.768V20.96ZM140.768 22V23H141.768V22H140.768ZM135.438 22H134.438V23H135.438V22ZM135.438 20.96V19.96H134.438V20.96H135.438ZM137.518 20.96V21.96H138.518V20.96H137.518ZM137.518 2.24H138.518V1.24H137.518V2.24ZM135.438 2.24H134.438V3.24H135.438V2.24ZM135.438 1.2V0.2H134.438V1.2H135.438ZM144.538 1.2L145.433 0.753728L145.156 0.2H144.538V1.2ZM154.392 20.96L153.497 21.4063L155.392 20.96H154.392ZM154.392 2.24H155.392V1.24H154.392V2.24ZM152.312 2.24H151.312V3.24H152.312V2.24ZM152.312 1.2V0.2H151.312V1.2H152.312ZM157.642 1.2H158.642V0.2H157.642V1.2ZM157.642 1.24H155.562V3.24H157.642V1.24ZM154.562 2.24V22H156.562V2.24H154.562ZM155.562 21H148.542V23H155.562V21ZM149.437 21.5537L139.583 1.79373L137.793 2.68627L147.647 22.4463L149.437 21.5537ZM137.688 2.24V20.96H139.688V2.24H137.688ZM138.688 21.96H140.768V19.96H138.688V21.96ZM139.768 20.96V22H141.768V20.96H139.768ZM140.768 21H135.438V23H140.768V21ZM136.438 22V20.96H134.438V22H136.438ZM135.438 21.96H137.518V19.96H135.438V21.96ZM138.518 20.96V2.24H136.518V20.96H138.518ZM137.518 1.24H135.438V3.24H137.518V1.24ZM136.438 2.24V1.2H134.438V2.24H136.438ZM135.438 2.2H144.538V0.2H135.438V2.2ZM143.643 1.64627L153.497 21.4063L155.287 20.5137L145.433 0.753728L143.643 1.64627ZM155.392 20.96V2.24H153.392V20.96H155.392ZM154.392 1.24H152.312V3.24H154.392V1.24ZM153.312 2.24V1.2H151.312V2.24H153.312ZM152.312 2.2H157.642V0.2H152.312V2.2ZM156.642 1.2V2.24H158.642V1.2H156.642ZM159.71 15.76V14.76H158.71V15.76H159.71ZM160.88 15.76H161.88V14.76H160.88V15.76ZM160.88 18.568H159.88V18.9822L160.173 19.2751L160.88 18.568ZM163.272 20.96L162.565 21.6671L162.858 21.96H163.272V20.96ZM171.644 20.96V21.96H173.804L172.406 20.3129L171.644 20.96ZM159.97 7.206H158.97V7.57317L159.208 7.8531L159.97 7.206ZM159.97 3.618L159.263 2.91089L158.97 3.20379V3.618H159.97ZM162.388 1.2V0.2H161.974L161.681 0.492893L162.388 1.2ZM172.606 1.2L173.313 0.492893L173.02 0.2H172.606V1.2ZM174.426 3.02L173.719 3.72711L175.426 5.43421V3.02H174.426ZM174.426 0.939998V-0.0600016H173.426V0.939998H174.426ZM175.596 0.939998H176.596V-0.0600016H175.596V0.939998ZM175.596 7.44V8.44H176.596V7.44H175.596ZM174.426 7.44H173.426V8.44H174.426V7.44ZM174.426 4.632H175.426V4.21779L175.133 3.92489L174.426 4.632ZM172.034 2.24L172.741 1.53289L172.448 1.24H172.034V2.24ZM164.442 2.24V1.24H162.282L163.68 2.8871L164.442 2.24ZM176.116 15.994H177.116V15.6268L176.878 15.3469L176.116 15.994ZM176.116 19.582L176.823 20.2891L177.116 19.9962V19.582H176.116ZM173.698 22V23H174.112L174.405 22.7071L173.698 22ZM162.7 22L161.993 22.7071L162.286 23H162.7V22ZM160.88 20.18L161.587 19.4729L159.88 17.7658V20.18H160.88ZM160.88 22.26V23.26H161.88V22.26H160.88ZM159.71 22.26H158.71V23.26H159.71V22.26ZM159.71 16.76H160.88V14.76H159.71V16.76ZM159.88 15.76V18.568H161.88V15.76H159.88ZM160.173 19.2751L162.565 21.6671L163.979 20.2529L161.587 17.8609L160.173 19.2751ZM163.272 21.96H171.644V19.96H163.272V21.96ZM172.406 20.3129L160.732 6.5589L159.208 7.8531L170.882 21.6071L172.406 20.3129ZM160.97 7.206V3.618H158.97V7.206H160.97ZM160.677 4.32511L163.095 1.90711L161.681 0.492893L159.263 2.91089L160.677 4.32511ZM162.388 2.2H172.606V0.2H162.388V2.2ZM171.899 1.90711L173.719 3.72711L175.133 2.31289L173.313 0.492893L171.899 1.90711ZM175.426 3.02V0.939998H173.426V3.02H175.426ZM174.426 1.94H175.596V-0.0600016H174.426V1.94ZM174.596 0.939998V7.44H176.596V0.939998H174.596ZM175.596 6.44H174.426V8.44H175.596V6.44ZM175.426 7.44V4.632H173.426V7.44H175.426ZM175.133 3.92489L172.741 1.53289L171.327 2.94711L173.719 5.33911L175.133 3.92489ZM172.034 1.24H164.442V3.24H172.034V1.24ZM163.68 2.8871L175.354 16.6411L176.878 15.3469L165.204 1.59289L163.68 2.8871ZM175.116 15.994V19.582H177.116V15.994H175.116ZM175.409 18.8749L172.991 21.2929L174.405 22.7071L176.823 20.2891L175.409 18.8749ZM173.698 21H162.7V23H173.698V21ZM163.407 21.2929L161.587 19.4729L160.173 20.8871L161.993 22.7071L163.407 21.2929ZM159.88 20.18V22.26H161.88V20.18H159.88ZM160.88 21.26H159.71V23.26H160.88V21.26ZM160.71 22.26V15.76H158.71V22.26H160.71ZM200.308 1.2H201.308V0.2H200.308V1.2ZM200.308 2.24V3.24H201.308V2.24H200.308ZM198.228 2.24V1.24H197.228V2.24H198.228ZM198.228 20.96H197.228V21.96H198.228V20.96ZM200.308 20.96H201.308V19.96H200.308V20.96ZM200.308 22V23H201.308V22H200.308ZM190.428 22H189.428V23H190.428V22ZM190.428 20.96V19.96H189.428V20.96H190.428ZM192.248 20.96V21.96H193.248V20.96H192.248ZM192.248 11.86H193.248V10.86H192.248V11.86ZM186.268 11.86V10.86H185.268V11.86H186.268ZM186.268 20.96H185.268V21.96H186.268V20.96ZM188.088 20.96H189.088V19.96H188.088V20.96ZM188.088 22V23H189.088V22H188.088ZM178.208 22H177.208V23H178.208V22ZM178.208 20.96V19.96H177.208V20.96H178.208ZM180.288 20.96V21.96H181.288V20.96H180.288ZM180.288 2.24H181.288V1.24H180.288V2.24ZM178.208 2.24H177.208V3.24H178.208V2.24ZM178.208 1.2V0.2H177.208V1.2H178.208ZM188.088 1.2H189.088V0.2H188.088V1.2ZM188.088 2.24V3.24H189.088V2.24H188.088ZM186.268 2.24V1.24H185.268V2.24H186.268ZM186.268 10.82H185.268V11.82H186.268V10.82ZM192.248 10.82V11.82H193.248V10.82H192.248ZM192.248 2.24H193.248V1.24H192.248V2.24ZM190.428 2.24H189.428V3.24H190.428V2.24ZM190.428 1.2V0.2H189.428V1.2H190.428ZM199.308 1.2V2.24H201.308V1.2H199.308ZM200.308 1.24H198.228V3.24H200.308V1.24ZM197.228 2.24V20.96H199.228V2.24H197.228ZM198.228 21.96H200.308V19.96H198.228V21.96ZM199.308 20.96V22H201.308V20.96H199.308ZM200.308 21H190.428V23H200.308V21ZM191.428 22V20.96H189.428V22H191.428ZM190.428 21.96H192.248V19.96H190.428V21.96ZM193.248 20.96V11.86H191.248V20.96H193.248ZM192.248 10.86H186.268V12.86H192.248V10.86ZM185.268 11.86V20.96H187.268V11.86H185.268ZM186.268 21.96H188.088V19.96H186.268V21.96ZM187.088 20.96V22H189.088V20.96H187.088ZM188.088 21H178.208V23H188.088V21ZM179.208 22V20.96H177.208V22H179.208ZM178.208 21.96H180.288V19.96H178.208V21.96ZM181.288 20.96V2.24H179.288V20.96H181.288ZM180.288 1.24H178.208V3.24H180.288V1.24ZM179.208 2.24V1.2H177.208V2.24H179.208ZM178.208 2.2H188.088V0.2H178.208V2.2ZM187.088 1.2V2.24H189.088V1.2H187.088ZM188.088 1.24H186.268V3.24H188.088V1.24ZM185.268 2.24V10.82H187.268V2.24H185.268ZM186.268 11.82H192.248V9.82H186.268V11.82ZM193.248 10.82V2.24H191.248V10.82H193.248ZM192.248 1.24H190.428V3.24H192.248V1.24ZM191.428 2.24V1.2H189.428V2.24H191.428ZM190.428 2.2H200.308V0.2H190.428V2.2ZM211.739 1.2H212.739V0.2H211.739V1.2ZM211.739 2.24V3.24H212.739V2.24H211.739ZM209.659 2.24V1.24H208.659V2.24H209.659ZM209.659 20.96H208.659V21.96H209.659V20.96ZM211.739 20.96H212.739V19.96H211.739V20.96ZM211.739 22V23H212.739V22H211.739ZM201.599 22H200.599V23H201.599V22ZM201.599 20.96V19.96H200.599V20.96H201.599ZM203.679 20.96V21.96H204.679V20.96H203.679ZM203.679 2.24H204.679V1.24H203.679V2.24ZM201.599 2.24H200.599V3.24H201.599V2.24ZM201.599 1.2V0.2H200.599V1.2H201.599ZM210.739 1.2V2.24H212.739V1.2H210.739ZM211.739 1.24H209.659V3.24H211.739V1.24ZM208.659 2.24V20.96H210.659V2.24H208.659ZM209.659 21.96H211.739V19.96H209.659V21.96ZM210.739 20.96V22H212.739V20.96H210.739ZM211.739 21H201.599V23H211.739V21ZM202.599 22V20.96H200.599V22H202.599ZM201.599 21.96H203.679V19.96H201.599V21.96ZM204.679 20.96V2.24H202.679V20.96H204.679ZM203.679 1.24H201.599V3.24H203.679V1.24ZM202.599 2.24V1.2H200.599V2.24H202.599ZM201.599 2.2H211.739V0.2H201.599V2.2ZM232.348 3.618H233.348V3.20379L233.055 2.91089L232.348 3.618ZM232.348 10.482L233.055 11.1891L233.348 10.8962V10.482H232.348ZM229.67 13.16V14.16H230.085L230.378 13.8671L229.67 13.16ZM221.87 13.16V12.16H220.87V13.16H221.87ZM221.87 20.96H220.87V21.96H221.87V20.96ZM223.95 20.96H224.95V19.96H223.95V20.96ZM223.95 22V23H224.95V22H223.95ZM213.81 22H212.81V23H213.81V22ZM213.81 20.96V19.96H212.81V20.96H213.81ZM215.89 20.96V21.96H216.89V20.96H215.89ZM215.89 2.24H216.89V1.24H215.89V2.24ZM213.81 2.24H212.81V3.24H213.81V2.24ZM213.81 1.2V0.2H212.81V1.2H213.81ZM229.93 1.2L230.637 0.492893L230.345 0.2H229.93V1.2ZM221.87 12.12H220.87V13.12H221.87V12.12ZM226.368 12.12V13.12H227.368V12.12H226.368ZM226.368 2.24H227.368V1.24H226.368V2.24ZM221.87 2.24V1.24H220.87V2.24H221.87ZM231.348 3.618V10.482H233.348V3.618H231.348ZM231.641 9.77489L228.963 12.4529L230.378 13.8671L233.055 11.1891L231.641 9.77489ZM229.67 12.16H221.87V14.16H229.67V12.16ZM220.87 13.16V20.96H222.87V13.16H220.87ZM221.87 21.96H223.95V19.96H221.87V21.96ZM222.95 20.96V22H224.95V20.96H222.95ZM223.95 21H213.81V23H223.95V21ZM214.81 22V20.96H212.81V22H214.81ZM213.81 21.96H215.89V19.96H213.81V21.96ZM216.89 20.96V2.24H214.89V20.96H216.89ZM215.89 1.24H213.81V3.24H215.89V1.24ZM214.81 2.24V1.2H212.81V2.24H214.81ZM213.81 2.2H229.93V0.2H213.81V2.2ZM229.223 1.90711L231.641 4.32511L233.055 2.91089L230.637 0.492893L229.223 1.90711ZM221.87 13.12H226.368V11.12H221.87V13.12ZM227.368 12.12V2.24H225.368V12.12H227.368ZM226.368 1.24H221.87V3.24H226.368V1.24ZM220.87 2.24V12.12H222.87V2.24H220.87ZM244.913 22L244.206 22.7071L244.498 23H244.913V22ZM242.235 19.322H241.235V19.7362L241.528 20.0291L242.235 19.322ZM242.235 3.878L241.528 3.17089L241.235 3.46379V3.878H242.235ZM244.913 1.2V0.2H244.498L244.206 0.492893L244.913 1.2ZM256.587 1.2L257.294 0.492893L257.001 0.2H256.587V1.2ZM259.265 3.878H260.265V3.46379L259.972 3.17089L259.265 3.878ZM259.265 19.322L259.972 20.0291L260.265 19.7362V19.322H259.265ZM256.587 22V23H257.001L257.294 22.7071L256.587 22ZM248.215 2.24V1.24H247.215V2.24H248.215ZM248.215 20.96H247.215V21.96H248.215V20.96ZM253.285 20.96V21.96H254.285V20.96H253.285ZM253.285 2.24H254.285V1.24H253.285V2.24ZM245.62 21.2929L242.942 18.6149L241.528 20.0291L244.206 22.7071L245.62 21.2929ZM243.235 19.322V3.878H241.235V19.322H243.235ZM242.942 4.58511L245.62 1.90711L244.206 0.492893L241.528 3.17089L242.942 4.58511ZM244.913 2.2H256.587V0.2H244.913V2.2ZM255.88 1.90711L258.558 4.58511L259.972 3.17089L257.294 0.492893L255.88 1.90711ZM258.265 3.878V19.322H260.265V3.878H258.265ZM258.558 18.6149L255.88 21.2929L257.294 22.7071L259.972 20.0291L258.558 18.6149ZM256.587 21H244.913V23H256.587V21ZM247.215 2.24V20.96H249.215V2.24H247.215ZM248.215 21.96H253.285V19.96H248.215V21.96ZM254.285 20.96V2.24H252.285V20.96H254.285ZM253.285 1.24H248.215V3.24H253.285V1.24ZM271.482 22V23H272.482V22H271.482ZM261.342 22H260.342V23H261.342V22ZM261.342 20.96V19.96H260.342V20.96H261.342ZM263.422 20.96V21.96H264.422V20.96H263.422ZM263.422 2.24H264.422V1.24H263.422V2.24ZM261.342 2.24H260.342V3.24H261.342V2.24ZM261.342 1.2V0.2H260.342V1.2H261.342ZM277.8 1.2H278.8V0.2H277.8V1.2ZM277.8 7.18V8.18H278.8V7.18H277.8ZM276.63 7.18H275.63V8.18H276.63V7.18ZM276.63 2.24H277.63V1.24H276.63V2.24ZM269.402 2.24V1.24H268.402V2.24H269.402ZM269.402 11.34H268.402V12.34H269.402V11.34ZM275.59 11.34H276.59V10.34H275.59V11.34ZM275.59 12.38V13.38H276.59V12.38H275.59ZM269.402 12.38V11.38H268.402V12.38H269.402ZM269.402 20.96H268.402V21.96H269.402V20.96ZM271.482 20.96H272.482V19.96H271.482V20.96ZM271.482 21H261.342V23H271.482V21ZM262.342 22V20.96H260.342V22H262.342ZM261.342 21.96H263.422V19.96H261.342V21.96ZM264.422 20.96V2.24H262.422V20.96H264.422ZM263.422 1.24H261.342V3.24H263.422V1.24ZM262.342 2.24V1.2H260.342V2.24H262.342ZM261.342 2.2H277.8V0.2H261.342V2.2ZM276.8 1.2V7.18H278.8V1.2H276.8ZM277.8 6.18H276.63V8.18H277.8V6.18ZM277.63 7.18V2.24H275.63V7.18H277.63ZM276.63 1.24H269.402V3.24H276.63V1.24ZM268.402 2.24V11.34H270.402V2.24H268.402ZM269.402 12.34H275.59V10.34H269.402V12.34ZM274.59 11.34V12.38H276.59V11.34H274.59ZM275.59 11.38H269.402V13.38H275.59V11.38ZM268.402 12.38V20.96H270.402V12.38H268.402ZM269.402 21.96H271.482V19.96H269.402V21.96ZM270.482 20.96V22H272.482V20.96H270.482Z" fill="#151515" mask="url(#path-1-outside-1_133_2)"/>
<mask id="path-3-outside-2_133_2" maskUnits="userSpaceOnUse" x="0" y="34" width="174" height="19" fill="black">
<rect fill="white" y="34" width="174" height="19"/>
<path d="M1.6 38.06L3.66 36H11.76L13.16 37.4V35.8H14.06V40.8H13.16V38.64L11.32 36.8H6.2V51.2H8.7L10.2 49.7V44.6H8.6V43.8H16.1V44.6H14.7V52H12.16L10.66 50.48L9.14 52H3.66L1.6 49.94V38.06ZM25.4992 52H17.6992V51.2H19.2992V36.8H17.6992V36H29.8992L31.7592 37.86V42.34L30.0992 44L31.7592 45.66V51.2H33.3592V52H28.8192L27.1592 50.34V44.4H23.8992V51.2H25.4992V52ZM23.8992 36.8V43.6H27.1592V36.8H23.8992ZM50.9394 51.2V52H42.6594V51.2H44.7994L43.1194 46H37.5794L35.8794 51.2H37.9194V52H33.5594V51.2H34.9194L39.8594 36H44.6394L49.5794 51.2H50.9394ZM42.8594 45.2L40.3394 37.48L37.8394 45.2H42.8594ZM68.6128 36.8H67.0128V52H61.6128L54.0328 36.8V51.2H55.6328V52H51.5328V51.2H53.1328V36.8H51.5328V36H58.5328L66.1128 51.2V36.8H64.5128V36H68.6128V36.8ZM70.6039 38.06L72.6639 36H80.7639L82.1639 37.4V35.8H83.0639V40.8H82.1639V38.64L80.3239 36.8H75.2039V51.2H77.7039L79.2039 49.7V44.6H77.6039V43.8H85.1039V44.6H83.7039V52H81.1639L79.6639 50.48L78.1439 52H72.6639L70.6039 49.94V38.06ZM98.9631 52H86.1031V51.2H87.7031V36.8H86.1031V36H98.9631V40.6H98.0631V36.8H92.3031V43.4H97.4631V44.2H92.3031V51.2H98.0631V47.4H98.9631V52ZM108.956 52H101.156V51.2H102.756V36.8H101.156V36H113.356L115.216 37.86V42.34L113.556 44L115.216 45.66V51.2H116.816V52H112.276L110.616 50.34V44.4H107.356V51.2H108.956V52ZM107.356 36.8V43.6H110.616V36.8H107.356ZM139.592 51.2V52H131.312V51.2H133.452L131.772 46H126.232L124.532 51.2H126.572V52H122.212V51.2H123.572L128.512 36H133.292L138.232 51.2H139.592ZM131.512 45.2L128.992 37.48L126.492 45.2H131.512ZM157.265 36.8H155.665V52H150.265L142.685 36.8V51.2H144.285V52H140.185V51.2H141.785V36.8H140.185V36H147.185L154.765 51.2V36.8H153.165V36H157.265V36.8ZM172.456 38.06V49.94L170.396 52H158.056V51.2H159.656V36.8H158.056V36H170.396L172.456 38.06ZM164.256 36.8V51.2H167.856V36.8H164.256Z"/>
</mask>
<path d="M1.6 38.06L3.66 36H11.76L13.16 37.4V35.8H14.06V40.8H13.16V38.64L11.32 36.8H6.2V51.2H8.7L10.2 49.7V44.6H8.6V43.8H16.1V44.6H14.7V52H12.16L10.66 50.48L9.14 52H3.66L1.6 49.94V38.06ZM25.4992 52H17.6992V51.2H19.2992V36.8H17.6992V36H29.8992L31.7592 37.86V42.34L30.0992 44L31.7592 45.66V51.2H33.3592V52H28.8192L27.1592 50.34V44.4H23.8992V51.2H25.4992V52ZM23.8992 36.8V43.6H27.1592V36.8H23.8992ZM50.9394 51.2V52H42.6594V51.2H44.7994L43.1194 46H37.5794L35.8794 51.2H37.9194V52H33.5594V51.2H34.9194L39.8594 36H44.6394L49.5794 51.2H50.9394ZM42.8594 45.2L40.3394 37.48L37.8394 45.2H42.8594ZM68.6128 36.8H67.0128V52H61.6128L54.0328 36.8V51.2H55.6328V52H51.5328V51.2H53.1328V36.8H51.5328V36H58.5328L66.1128 51.2V36.8H64.5128V36H68.6128V36.8ZM70.6039 38.06L72.6639 36H80.7639L82.1639 37.4V35.8H83.0639V40.8H82.1639V38.64L80.3239 36.8H75.2039V51.2H77.7039L79.2039 49.7V44.6H77.6039V43.8H85.1039V44.6H83.7039V52H81.1639L79.6639 50.48L78.1439 52H72.6639L70.6039 49.94V38.06ZM98.9631 52H86.1031V51.2H87.7031V36.8H86.1031V36H98.9631V40.6H98.0631V36.8H92.3031V43.4H97.4631V44.2H92.3031V51.2H98.0631V47.4H98.9631V52ZM108.956 52H101.156V51.2H102.756V36.8H101.156V36H113.356L115.216 37.86V42.34L113.556 44L115.216 45.66V51.2H116.816V52H112.276L110.616 50.34V44.4H107.356V51.2H108.956V52ZM107.356 36.8V43.6H110.616V36.8H107.356ZM139.592 51.2V52H131.312V51.2H133.452L131.772 46H126.232L124.532 51.2H126.572V52H122.212V51.2H123.572L128.512 36H133.292L138.232 51.2H139.592ZM131.512 45.2L128.992 37.48L126.492 45.2H131.512ZM157.265 36.8H155.665V52H150.265L142.685 36.8V51.2H144.285V52H140.185V51.2H141.785V36.8H140.185V36H147.185L154.765 51.2V36.8H153.165V36H157.265V36.8ZM172.456 38.06V49.94L170.396 52H158.056V51.2H159.656V36.8H158.056V36H170.396L172.456 38.06ZM164.256 36.8V51.2H167.856V36.8H164.256Z" fill="url(#paint1_linear_133_2)"/>
<path d="M1.6 38.06L0.892893 37.3529L0.6 37.6458V38.06H1.6ZM3.66 36V35H3.24579L2.95289 35.2929L3.66 36ZM11.76 36L12.4671 35.2929L12.1742 35H11.76V36ZM13.16 37.4L12.4529 38.1071L14.16 39.8142V37.4H13.16ZM13.16 35.8V34.8H12.16V35.8H13.16ZM14.06 35.8H15.06V34.8H14.06V35.8ZM14.06 40.8V41.8H15.06V40.8H14.06ZM13.16 40.8H12.16V41.8H13.16V40.8ZM13.16 38.64H14.16V38.2258L13.8671 37.9329L13.16 38.64ZM11.32 36.8L12.0271 36.0929L11.7342 35.8H11.32V36.8ZM6.2 36.8V35.8H5.2V36.8H6.2ZM6.2 51.2H5.2V52.2H6.2V51.2ZM8.7 51.2V52.2H9.11421L9.40711 51.9071L8.7 51.2ZM10.2 49.7L10.9071 50.4071L11.2 50.1142V49.7H10.2ZM10.2 44.6H11.2V43.6H10.2V44.6ZM8.6 44.6H7.6V45.6H8.6V44.6ZM8.6 43.8V42.8H7.6V43.8H8.6ZM16.1 43.8H17.1V42.8H16.1V43.8ZM16.1 44.6V45.6H17.1V44.6H16.1ZM14.7 44.6V43.6H13.7V44.6H14.7ZM14.7 52V53H15.7V52H14.7ZM12.16 52L11.4482 52.7024L11.7419 53H12.16V52ZM10.66 50.48L11.3718 49.7776L10.6647 49.0611L9.95289 49.7729L10.66 50.48ZM9.14 52V53H9.55421L9.84711 52.7071L9.14 52ZM3.66 52L2.95289 52.7071L3.24579 53H3.66V52ZM1.6 49.94H0.6V50.3542L0.892893 50.6471L1.6 49.94ZM2.30711 38.7671L4.36711 36.7071L2.95289 35.2929L0.892893 37.3529L2.30711 38.7671ZM3.66 37H11.76V35H3.66V37ZM11.0529 36.7071L12.4529 38.1071L13.8671 36.6929L12.4671 35.2929L11.0529 36.7071ZM14.16 37.4V35.8H12.16V37.4H14.16ZM13.16 36.8H14.06V34.8H13.16V36.8ZM13.06 35.8V40.8H15.06V35.8H13.06ZM14.06 39.8H13.16V41.8H14.06V39.8ZM14.16 40.8V38.64H12.16V40.8H14.16ZM13.8671 37.9329L12.0271 36.0929L10.6129 37.5071L12.4529 39.3471L13.8671 37.9329ZM11.32 35.8H6.2V37.8H11.32V35.8ZM5.2 36.8V51.2H7.2V36.8H5.2ZM6.2 52.2H8.7V50.2H6.2V52.2ZM9.40711 51.9071L10.9071 50.4071L9.49289 48.9929L7.99289 50.4929L9.40711 51.9071ZM11.2 49.7V44.6H9.2V49.7H11.2ZM10.2 43.6H8.6V45.6H10.2V43.6ZM9.6 44.6V43.8H7.6V44.6H9.6ZM8.6 44.8H16.1V42.8H8.6V44.8ZM15.1 43.8V44.6H17.1V43.8H15.1ZM16.1 43.6H14.7V45.6H16.1V43.6ZM13.7 44.6V52H15.7V44.6H13.7ZM14.7 51H12.16V53H14.7V51ZM12.8718 51.2976L11.3718 49.7776L9.94823 51.1824L11.4482 52.7024L12.8718 51.2976ZM9.95289 49.7729L8.43289 51.2929L9.84711 52.7071L11.3671 51.1871L9.95289 49.7729ZM9.14 51H3.66V53H9.14V51ZM4.36711 51.2929L2.30711 49.2329L0.892893 50.6471L2.95289 52.7071L4.36711 51.2929ZM2.6 49.94V38.06H0.6V49.94H2.6ZM25.4992 52V53H26.4992V52H25.4992ZM17.6992 52H16.6992V53H17.6992V52ZM17.6992 51.2V50.2H16.6992V51.2H17.6992ZM19.2992 51.2V52.2H20.2992V51.2H19.2992ZM19.2992 36.8H20.2992V35.8H19.2992V36.8ZM17.6992 36.8H16.6992V37.8H17.6992V36.8ZM17.6992 36V35H16.6992V36H17.6992ZM29.8992 36L30.6063 35.2929L30.3134 35H29.8992V36ZM31.7592 37.86H32.7592V37.4458L32.4663 37.1529L31.7592 37.86ZM31.7592 42.34L32.4663 43.0471L32.7592 42.7542V42.34H31.7592ZM30.0992 44L29.3921 43.2929L28.685 44L29.3921 44.7071L30.0992 44ZM31.7592 45.66H32.7592V45.2458L32.4663 44.9529L31.7592 45.66ZM31.7592 51.2H30.7592V52.2H31.7592V51.2ZM33.3592 51.2H34.3592V50.2H33.3592V51.2ZM33.3592 52V53H34.3592V52H33.3592ZM28.8192 52L28.1121 52.7071L28.405 53H28.8192V52ZM27.1592 50.34H26.1592V50.7542L26.4521 51.0471L27.1592 50.34ZM27.1592 44.4H28.1592V43.4H27.1592V44.4ZM23.8992 44.4V43.4H22.8992V44.4H23.8992ZM23.8992 51.2H22.8992V52.2H23.8992V51.2ZM25.4992 51.2H26.4992V50.2H25.4992V51.2ZM23.8992 36.8V35.8H22.8992V36.8H23.8992ZM23.8992 43.6H22.8992V44.6H23.8992V43.6ZM27.1592 43.6V44.6H28.1592V43.6H27.1592ZM27.1592 36.8H28.1592V35.8H27.1592V36.8ZM25.4992 51H17.6992V53H25.4992V51ZM18.6992 52V51.2H16.6992V52H18.6992ZM17.6992 52.2H19.2992V50.2H17.6992V52.2ZM20.2992 51.2V36.8H18.2992V51.2H20.2992ZM19.2992 35.8H17.6992V37.8H19.2992V35.8ZM18.6992 36.8V36H16.6992V36.8H18.6992ZM17.6992 37H29.8992V35H17.6992V37ZM29.1921 36.7071L31.0521 38.5671L32.4663 37.1529L30.6063 35.2929L29.1921 36.7071ZM30.7592 37.86V42.34H32.7592V37.86H30.7592ZM31.0521 41.6329L29.3921 43.2929L30.8063 44.7071L32.4663 43.0471L31.0521 41.6329ZM29.3921 44.7071L31.0521 46.3671L32.4663 44.9529L30.8063 43.2929L29.3921 44.7071ZM30.7592 45.66V51.2H32.7592V45.66H30.7592ZM31.7592 52.2H33.3592V50.2H31.7592V52.2ZM32.3592 51.2V52H34.3592V51.2H32.3592ZM33.3592 51H28.8192V53H33.3592V51ZM29.5263 51.2929L27.8663 49.6329L26.4521 51.0471L28.1121 52.7071L29.5263 51.2929ZM28.1592 50.34V44.4H26.1592V50.34H28.1592ZM27.1592 43.4H23.8992V45.4H27.1592V43.4ZM22.8992 44.4V51.2H24.8992V44.4H22.8992ZM23.8992 52.2H25.4992V50.2H23.8992V52.2ZM24.4992 51.2V52H26.4992V51.2H24.4992ZM22.8992 36.8V43.6H24.8992V36.8H22.8992ZM23.8992 44.6H27.1592V42.6H23.8992V44.6ZM28.1592 43.6V36.8H26.1592V43.6H28.1592ZM27.1592 35.8H23.8992V37.8H27.1592V35.8ZM50.9394 51.2H51.9394V50.2H50.9394V51.2ZM50.9394 52V53H51.9394V52H50.9394ZM42.6594 52H41.6594V53H42.6594V52ZM42.6594 51.2V50.2H41.6594V51.2H42.6594ZM44.7994 51.2V52.2H46.1733L45.7509 50.8926L44.7994 51.2ZM43.1194 46L44.0709 45.6926L43.8472 45H43.1194V46ZM37.5794 46V45H36.8542L36.6289 45.6893L37.5794 46ZM35.8794 51.2L34.9289 50.8893L34.5004 52.2H35.8794V51.2ZM37.9194 51.2H38.9194V50.2H37.9194V51.2ZM37.9194 52V53H38.9194V52H37.9194ZM33.5594 52H32.5594V53H33.5594V52ZM33.5594 51.2V50.2H32.5594V51.2H33.5594ZM34.9194 51.2V52.2H35.6459L35.8704 51.5091L34.9194 51.2ZM39.8594 36V35H39.1329L38.9083 35.6909L39.8594 36ZM44.6394 36L45.5904 35.6909L45.3659 35H44.6394V36ZM49.5794 51.2L48.6283 51.5091L48.8529 52.2H49.5794V51.2ZM42.8594 45.2V46.2H44.2377L43.81 44.8897L42.8594 45.2ZM40.3394 37.48L41.29 37.1697L40.3356 34.2458L39.388 37.1719L40.3394 37.48ZM37.8394 45.2L36.888 44.8919L36.4644 46.2H37.8394V45.2ZM49.9394 51.2V52H51.9394V51.2H49.9394ZM50.9394 51H42.6594V53H50.9394V51ZM43.6594 52V51.2H41.6594V52H43.6594ZM42.6594 52.2H44.7994V50.2H42.6594V52.2ZM45.7509 50.8926L44.0709 45.6926L42.1678 46.3074L43.8478 51.5074L45.7509 50.8926ZM43.1194 45H37.5794V47H43.1194V45ZM36.6289 45.6893L34.9289 50.8893L36.8299 51.5107L38.5299 46.3107L36.6289 45.6893ZM35.8794 52.2H37.9194V50.2H35.8794V52.2ZM36.9194 51.2V52H38.9194V51.2H36.9194ZM37.9194 51H33.5594V53H37.9194V51ZM34.5594 52V51.2H32.5594V52H34.5594ZM33.5594 52.2H34.9194V50.2H33.5594V52.2ZM35.8704 51.5091L40.8104 36.3091L38.9083 35.6909L33.9683 50.8909L35.8704 51.5091ZM39.8594 37H44.6394V35H39.8594V37ZM43.6883 36.3091L48.6283 51.5091L50.5304 50.8909L45.5904 35.6909L43.6883 36.3091ZM49.5794 52.2H50.9394V50.2H49.5794V52.2ZM43.81 44.8897L41.29 37.1697L39.3887 37.7903L41.9087 45.5103L43.81 44.8897ZM39.388 37.1719L36.888 44.8919L38.7907 45.5081L41.2907 37.7881L39.388 37.1719ZM37.8394 46.2H42.8594V44.2H37.8394V46.2ZM68.6128 36.8V37.8H69.6128V36.8H68.6128ZM67.0128 36.8V35.8H66.0128V36.8H67.0128ZM67.0128 52V53H68.0128V52H67.0128ZM61.6128 52L60.7179 52.4463L60.9941 53H61.6128V52ZM54.0328 36.8L54.9277 36.3537L53.0328 36.8H54.0328ZM54.0328 51.2H53.0328V52.2H54.0328V51.2ZM55.6328 51.2H56.6328V50.2H55.6328V51.2ZM55.6328 52V53H56.6328V52H55.6328ZM51.5328 52H50.5328V53H51.5328V52ZM51.5328 51.2V50.2H50.5328V51.2H51.5328ZM53.1328 51.2V52.2H54.1328V51.2H53.1328ZM53.1328 36.8H54.1328V35.8H53.1328V36.8ZM51.5328 36.8H50.5328V37.8H51.5328V36.8ZM51.5328 36V35H50.5328V36H51.5328ZM58.5328 36L59.4277 35.5537L59.1516 35H58.5328V36ZM66.1128 51.2L65.2179 51.6463L67.1128 51.2H66.1128ZM66.1128 36.8H67.1128V35.8H66.1128V36.8ZM64.5128 36.8H63.5128V37.8H64.5128V36.8ZM64.5128 36V35H63.5128V36H64.5128ZM68.6128 36H69.6128V35H68.6128V36ZM68.6128 35.8H67.0128V37.8H68.6128V35.8ZM66.0128 36.8V52H68.0128V36.8H66.0128ZM67.0128 51H61.6128V53H67.0128V51ZM62.5077 51.5537L54.9277 36.3537L53.1379 37.2463L60.7179 52.4463L62.5077 51.5537ZM53.0328 36.8V51.2H55.0328V36.8H53.0328ZM54.0328 52.2H55.6328V50.2H54.0328V52.2ZM54.6328 51.2V52H56.6328V51.2H54.6328ZM55.6328 51H51.5328V53H55.6328V51ZM52.5328 52V51.2H50.5328V52H52.5328ZM51.5328 52.2H53.1328V50.2H51.5328V52.2ZM54.1328 51.2V36.8H52.1328V51.2H54.1328ZM53.1328 35.8H51.5328V37.8H53.1328V35.8ZM52.5328 36.8V36H50.5328V36.8H52.5328ZM51.5328 37H58.5328V35H51.5328V37ZM57.6379 36.4463L65.2179 51.6463L67.0077 50.7537L59.4277 35.5537L57.6379 36.4463ZM67.1128 51.2V36.8H65.1128V51.2H67.1128ZM66.1128 35.8H64.5128V37.8H66.1128V35.8ZM65.5128 36.8V36H63.5128V36.8H65.5128ZM64.5128 37H68.6128V35H64.5128V37ZM67.6128 36V36.8H69.6128V36H67.6128ZM70.6039 38.06L69.8968 37.3529L69.6039 37.6458V38.06H70.6039ZM72.6639 36V35H72.2497L71.9568 35.2929L72.6639 36ZM80.7639 36L81.471 35.2929L81.1781 35H80.7639V36ZM82.1639 37.4L81.4568 38.1071L83.1639 39.8142V37.4H82.1639ZM82.1639 35.8V34.8H81.1639V35.8H82.1639ZM83.0639 35.8H84.0639V34.8H83.0639V35.8ZM83.0639 40.8V41.8H84.0639V40.8H83.0639ZM82.1639 40.8H81.1639V41.8H82.1639V40.8ZM82.1639 38.64H83.1639V38.2258L82.871 37.9329L82.1639 38.64ZM80.3239 36.8L81.031 36.0929L80.7381 35.8H80.3239V36.8ZM75.2039 36.8V35.8H74.2039V36.8H75.2039ZM75.2039 51.2H74.2039V52.2H75.2039V51.2ZM77.7039 51.2V52.2H78.1181L78.411 51.9071L77.7039 51.2ZM79.2039 49.7L79.911 50.4071L80.2039 50.1142V49.7H79.2039ZM79.2039 44.6H80.2039V43.6H79.2039V44.6ZM77.6039 44.6H76.6039V45.6H77.6039V44.6ZM77.6039 43.8V42.8H76.6039V43.8H77.6039ZM85.1039 43.8H86.1039V42.8H85.1039V43.8ZM85.1039 44.6V45.6H86.1039V44.6H85.1039ZM83.7039 44.6V43.6H82.7039V44.6H83.7039ZM83.7039 52V53H84.7039V52H83.7039ZM81.1639 52L80.4521 52.7024L80.7458 53H81.1639V52ZM79.6639 50.48L80.3757 49.7776L79.6686 49.0611L78.9568 49.7729L79.6639 50.48ZM78.1439 52V53H78.5581L78.851 52.7071L78.1439 52ZM72.6639 52L71.9568 52.7071L72.2497 53H72.6639V52ZM70.6039 49.94H69.6039V50.3542L69.8968 50.6471L70.6039 49.94ZM71.311 38.7671L73.371 36.7071L71.9568 35.2929L69.8968 37.3529L71.311 38.7671ZM72.6639 37H80.7639V35H72.6639V37ZM80.0568 36.7071L81.4568 38.1071L82.871 36.6929L81.471 35.2929L80.0568 36.7071ZM83.1639 37.4V35.8H81.1639V37.4H83.1639ZM82.1639 36.8H83.0639V34.8H82.1639V36.8ZM82.0639 35.8V40.8H84.0639V35.8H82.0639ZM83.0639 39.8H82.1639V41.8H83.0639V39.8ZM83.1639 40.8V38.64H81.1639V40.8H83.1639ZM82.871 37.9329L81.031 36.0929L79.6168 37.5071L81.4568 39.3471L82.871 37.9329ZM80.3239 35.8H75.2039V37.8H80.3239V35.8ZM74.2039 36.8V51.2H76.2039V36.8H74.2039ZM75.2039 52.2H77.7039V50.2H75.2039V52.2ZM78.411 51.9071L79.911 50.4071L78.4968 48.9929L76.9968 50.4929L78.411 51.9071ZM80.2039 49.7V44.6H78.2039V49.7H80.2039ZM79.2039 43.6H77.6039V45.6H79.2039V43.6ZM78.6039 44.6V43.8H76.6039V44.6H78.6039ZM77.6039 44.8H85.1039V42.8H77.6039V44.8ZM84.1039 43.8V44.6H86.1039V43.8H84.1039ZM85.1039 43.6H83.7039V45.6H85.1039V43.6ZM82.7039 44.6V52H84.7039V44.6H82.7039ZM83.7039 51H81.1639V53H83.7039V51ZM81.8757 51.2976L80.3757 49.7776L78.9521 51.1824L80.4521 52.7024L81.8757 51.2976ZM78.9568 49.7729L77.4368 51.2929L78.851 52.7071L80.371 51.1871L78.9568 49.7729ZM78.1439 51H72.6639V53H78.1439V51ZM73.371 51.2929L71.311 49.2329L69.8968 50.6471L71.9568 52.7071L73.371 51.2929ZM71.6039 49.94V38.06H69.6039V49.94H71.6039ZM98.9631 52V53H99.9631V52H98.9631ZM86.1031 52H85.1031V53H86.1031V52ZM86.1031 51.2V50.2H85.1031V51.2H86.1031ZM87.7031 51.2V52.2H88.7031V51.2H87.7031ZM87.7031 36.8H88.7031V35.8H87.7031V36.8ZM86.1031 36.8H85.1031V37.8H86.1031V36.8ZM86.1031 36V35H85.1031V36H86.1031ZM98.9631 36H99.9631V35H98.9631V36ZM98.9631 40.6V41.6H99.9631V40.6H98.9631ZM98.0631 40.6H97.0631V41.6H98.0631V40.6ZM98.0631 36.8H99.0631V35.8H98.0631V36.8ZM92.3031 36.8V35.8H91.3031V36.8H92.3031ZM92.3031 43.4H91.3031V44.4H92.3031V43.4ZM97.4631 43.4H98.4631V42.4H97.4631V43.4ZM97.4631 44.2V45.2H98.4631V44.2H97.4631ZM92.3031 44.2V43.2H91.3031V44.2H92.3031ZM92.3031 51.2H91.3031V52.2H92.3031V51.2ZM98.0631 51.2V52.2H99.0631V51.2H98.0631ZM98.0631 47.4V46.4H97.0631V47.4H98.0631ZM98.9631 47.4H99.9631V46.4H98.9631V47.4ZM98.9631 51H86.1031V53H98.9631V51ZM87.1031 52V51.2H85.1031V52H87.1031ZM86.1031 52.2H87.7031V50.2H86.1031V52.2ZM88.7031 51.2V36.8H86.7031V51.2H88.7031ZM87.7031 35.8H86.1031V37.8H87.7031V35.8ZM87.1031 36.8V36H85.1031V36.8H87.1031ZM86.1031 37H98.9631V35H86.1031V37ZM97.9631 36V40.6H99.9631V36H97.9631ZM98.9631 39.6H98.0631V41.6H98.9631V39.6ZM99.0631 40.6V36.8H97.0631V40.6H99.0631ZM98.0631 35.8H92.3031V37.8H98.0631V35.8ZM91.3031 36.8V43.4H93.3031V36.8H91.3031ZM92.3031 44.4H97.4631V42.4H92.3031V44.4ZM96.4631 43.4V44.2H98.4631V43.4H96.4631ZM97.4631 43.2H92.3031V45.2H97.4631V43.2ZM91.3031 44.2V51.2H93.3031V44.2H91.3031ZM92.3031 52.2H98.0631V50.2H92.3031V52.2ZM99.0631 51.2V47.4H97.0631V51.2H99.0631ZM98.0631 48.4H98.9631V46.4H98.0631V48.4ZM97.9631 47.4V52H99.9631V47.4H97.9631ZM108.956 52V53H109.956V52H108.956ZM101.156 52H100.156V53H101.156V52ZM101.156 51.2V50.2H100.156V51.2H101.156ZM102.756 51.2V52.2H103.756V51.2H102.756ZM102.756 36.8H103.756V35.8H102.756V36.8ZM101.156 36.8H100.156V37.8H101.156V36.8ZM101.156 36V35H100.156V36H101.156ZM113.356 36L114.063 35.2929L113.77 35H113.356V36ZM115.216 37.86H116.216V37.4458L115.923 37.1529L115.216 37.86ZM115.216 42.34L115.923 43.0471L116.216 42.7542V42.34H115.216ZM113.556 44L112.849 43.2929L112.142 44L112.849 44.7071L113.556 44ZM115.216 45.66H116.216V45.2458L115.923 44.9529L115.216 45.66ZM115.216 51.2H114.216V52.2H115.216V51.2ZM116.816 51.2H117.816V50.2H116.816V51.2ZM116.816 52V53H117.816V52H116.816ZM112.276 52L111.569 52.7071L111.862 53H112.276V52ZM110.616 50.34H109.616V50.7542L109.909 51.0471L110.616 50.34ZM110.616 44.4H111.616V43.4H110.616V44.4ZM107.356 44.4V43.4H106.356V44.4H107.356ZM107.356 51.2H106.356V52.2H107.356V51.2ZM108.956 51.2H109.956V50.2H108.956V51.2ZM107.356 36.8V35.8H106.356V36.8H107.356ZM107.356 43.6H106.356V44.6H107.356V43.6ZM110.616 43.6V44.6H111.616V43.6H110.616ZM110.616 36.8H111.616V35.8H110.616V36.8ZM108.956 51H101.156V53H108.956V51ZM102.156 52V51.2H100.156V52H102.156ZM101.156 52.2H102.756V50.2H101.156V52.2ZM103.756 51.2V36.8H101.756V51.2H103.756ZM102.756 35.8H101.156V37.8H102.756V35.8ZM102.156 36.8V36H100.156V36.8H102.156ZM101.156 37H113.356V35H101.156V37ZM112.649 36.7071L114.509 38.5671L115.923 37.1529L114.063 35.2929L112.649 36.7071ZM114.216 37.86V42.34H116.216V37.86H114.216ZM114.509 41.6329L112.849 43.2929L114.263 44.7071L115.923 43.0471L114.509 41.6329ZM112.849 44.7071L114.509 46.3671L115.923 44.9529L114.263 43.2929L112.849 44.7071ZM114.216 45.66V51.2H116.216V45.66H114.216ZM115.216 52.2H116.816V50.2H115.216V52.2ZM115.816 51.2V52H117.816V51.2H115.816ZM116.816 51H112.276V53H116.816V51ZM112.983 51.2929L111.323 49.6329L109.909 51.0471L111.569 52.7071L112.983 51.2929ZM111.616 50.34V44.4H109.616V50.34H111.616ZM110.616 43.4H107.356V45.4H110.616V43.4ZM106.356 44.4V51.2H108.356V44.4H106.356ZM107.356 52.2H108.956V50.2H107.356V52.2ZM107.956 51.2V52H109.956V51.2H107.956ZM106.356 36.8V43.6H108.356V36.8H106.356ZM107.356 44.6H110.616V42.6H107.356V44.6ZM111.616 43.6V36.8H109.616V43.6H111.616ZM110.616 35.8H107.356V37.8H110.616V35.8ZM139.592 51.2H140.592V50.2H139.592V51.2ZM139.592 52V53H140.592V52H139.592ZM131.312 52H130.312V53H131.312V52ZM131.312 51.2V50.2H130.312V51.2H131.312ZM133.452 51.2V52.2H134.826L134.403 50.8926L133.452 51.2ZM131.772 46L132.723 45.6926L132.5 45H131.772V46ZM126.232 46V45H125.507L125.281 45.6893L126.232 46ZM124.532 51.2L123.581 50.8893L123.153 52.2H124.532V51.2ZM126.572 51.2H127.572V50.2H126.572V51.2ZM126.572 52V53H127.572V52H126.572ZM122.212 52H121.212V53H122.212V52ZM122.212 51.2V50.2H121.212V51.2H122.212ZM123.572 51.2V52.2H124.298L124.523 51.5091L123.572 51.2ZM128.512 36V35H127.785L127.561 35.6909L128.512 36ZM133.292 36L134.243 35.6909L134.018 35H133.292V36ZM138.232 51.2L137.281 51.5091L137.505 52.2H138.232V51.2ZM131.512 45.2V46.2H132.89L132.462 44.8897L131.512 45.2ZM128.992 37.48L129.942 37.1697L128.988 34.2458L128.04 37.1719L128.992 37.48ZM126.492 45.2L125.54 44.8919L125.117 46.2H126.492V45.2ZM138.592 51.2V52H140.592V51.2H138.592ZM139.592 51H131.312V53H139.592V51ZM132.312 52V51.2H130.312V52H132.312ZM131.312 52.2H133.452V50.2H131.312V52.2ZM134.403 50.8926L132.723 45.6926L130.82 46.3074L132.5 51.5074L134.403 50.8926ZM131.772 45H126.232V47H131.772V45ZM125.281 45.6893L123.581 50.8893L125.482 51.5107L127.182 46.3107L125.281 45.6893ZM124.532 52.2H126.572V50.2H124.532V52.2ZM125.572 51.2V52H127.572V51.2H125.572ZM126.572 51H122.212V53H126.572V51ZM123.212 52V51.2H121.212V52H123.212ZM122.212 52.2H123.572V50.2H122.212V52.2ZM124.523 51.5091L129.463 36.3091L127.561 35.6909L122.621 50.8909L124.523 51.5091ZM128.512 37H133.292V35H128.512V37ZM132.341 36.3091L137.281 51.5091L139.183 50.8909L134.243 35.6909L132.341 36.3091ZM138.232 52.2H139.592V50.2H138.232V52.2ZM132.462 44.8897L129.942 37.1697L128.041 37.7903L130.561 45.5103L132.462 44.8897ZM128.04 37.1719L125.54 44.8919L127.443 45.5081L129.943 37.7881L128.04 37.1719ZM126.492 46.2H131.512V44.2H126.492V46.2ZM157.265 36.8V37.8H158.265V36.8H157.265ZM155.665 36.8V35.8H154.665V36.8H155.665ZM155.665 52V53H156.665V52H155.665ZM150.265 52L149.37 52.4463L149.646 53H150.265V52ZM142.685 36.8L143.58 36.3537L141.685 36.8H142.685ZM142.685 51.2H141.685V52.2H142.685V51.2ZM144.285 51.2H145.285V50.2H144.285V51.2ZM144.285 52V53H145.285V52H144.285ZM140.185 52H139.185V53H140.185V52ZM140.185 51.2V50.2H139.185V51.2H140.185ZM141.785 51.2V52.2H142.785V51.2H141.785ZM141.785 36.8H142.785V35.8H141.785V36.8ZM140.185 36.8H139.185V37.8H140.185V36.8ZM140.185 36V35H139.185V36H140.185ZM147.185 36L148.08 35.5537L147.804 35H147.185V36ZM154.765 51.2L153.87 51.6463L155.765 51.2H154.765ZM154.765 36.8H155.765V35.8H154.765V36.8ZM153.165 36.8H152.165V37.8H153.165V36.8ZM153.165 36V35H152.165V36H153.165ZM157.265 36H158.265V35H157.265V36ZM157.265 35.8H155.665V37.8H157.265V35.8ZM154.665 36.8V52H156.665V36.8H154.665ZM155.665 51H150.265V53H155.665V51ZM151.16 51.5537L143.58 36.3537L141.79 37.2463L149.37 52.4463L151.16 51.5537ZM141.685 36.8V51.2H143.685V36.8H141.685ZM142.685 52.2H144.285V50.2H142.685V52.2ZM143.285 51.2V52H145.285V51.2H143.285ZM144.285 51H140.185V53H144.285V51ZM141.185 52V51.2H139.185V52H141.185ZM140.185 52.2H141.785V50.2H140.185V52.2ZM142.785 51.2V36.8H140.785V51.2H142.785ZM141.785 35.8H140.185V37.8H141.785V35.8ZM141.185 36.8V36H139.185V36.8H141.185ZM140.185 37H147.185V35H140.185V37ZM146.29 36.4463L153.87 51.6463L155.66 50.7537L148.08 35.5537L146.29 36.4463ZM155.765 51.2V36.8H153.765V51.2H155.765ZM154.765 35.8H153.165V37.8H154.765V35.8ZM154.165 36.8V36H152.165V36.8H154.165ZM153.165 37H157.265V35H153.165V37ZM156.265 36V36.8H158.265V36H156.265ZM172.456 38.06H173.456V37.6458L173.163 37.3529L172.456 38.06ZM172.456 49.94L173.163 50.6471L173.456 50.3542V49.94H172.456ZM170.396 52V53H170.81L171.103 52.7071L170.396 52ZM158.056 52H157.056V53H158.056V52ZM158.056 51.2V50.2H157.056V51.2H158.056ZM159.656 51.2V52.2H160.656V51.2H159.656ZM159.656 36.8H160.656V35.8H159.656V36.8ZM158.056 36.8H157.056V37.8H158.056V36.8ZM158.056 36V35H157.056V36H158.056ZM170.396 36L171.103 35.2929L170.81 35H170.396V36ZM164.256 36.8V35.8H163.256V36.8H164.256ZM164.256 51.2H163.256V52.2H164.256V51.2ZM167.856 51.2V52.2H168.856V51.2H167.856ZM167.856 36.8H168.856V35.8H167.856V36.8ZM171.456 38.06V49.94H173.456V38.06H171.456ZM171.749 49.2329L169.689 51.2929L171.103 52.7071L173.163 50.6471L171.749 49.2329ZM170.396 51H158.056V53H170.396V51ZM159.056 52V51.2H157.056V52H159.056ZM158.056 52.2H159.656V50.2H158.056V52.2ZM160.656 51.2V36.8H158.656V51.2H160.656ZM159.656 35.8H158.056V37.8H159.656V35.8ZM159.056 36.8V36H157.056V36.8H159.056ZM158.056 37H170.396V35H158.056V37ZM169.689 36.7071L171.749 38.7671L173.163 37.3529L171.103 35.2929L169.689 36.7071ZM163.256 36.8V51.2H165.256V36.8H163.256ZM164.256 52.2H167.856V50.2H164.256V52.2ZM168.856 51.2V36.8H166.856V51.2H168.856ZM167.856 35.8H164.256V37.8H167.856V35.8Z" fill="#151515" mask="url(#path-3-outside-2_133_2)"/>
<mask id="path-5-outside-3_133_2" maskUnits="userSpaceOnUse" x="0" y="64" width="119" height="22" fill="black">
<rect fill="white" y="64" width="119" height="22"/>
<path d="M19.075 67.325V73.925L16.5 76.5H9V84H11V85H1.25V84H3.25V66H1.25V65H16.75L19.075 67.325ZM9 75.5H13.325V66H9V75.5ZM24.1619 85L21.5869 82.425V67.575L24.1619 65H35.3869L37.9619 67.575V82.425L35.3869 85H24.1619ZM27.3369 66V84H32.2119V66H27.3369ZM41.584 70.75H40.459V65H57.459V70.75H56.334V66H51.834V84H53.834V85H44.084V84H46.084V66H41.584V70.75ZM61.0908 70.75H59.9658V65H76.9658V70.75H75.8408V66H71.3408V84H73.3408V85H63.5908V84H65.5908V66H61.0908V70.75ZM94.7977 85H78.7227V84H80.7227V66H78.7227V65H94.7977V70.75H93.6727V66H86.4727V74.25H92.9227V75.25H86.4727V84H93.6727V79.25H94.7977V85ZM107.289 85H97.5391V84H99.5391V66H97.5391V65H112.789L115.114 67.325V72.925L113.039 75L115.114 77.075V84H117.114V85H111.439L109.364 82.925V75.5H105.289V84H107.289V85ZM105.289 66V74.5H109.364V66H105.289Z"/>
</mask>
<path d="M19.075 67.325V73.925L16.5 76.5H9V84H11V85H1.25V84H3.25V66H1.25V65H16.75L19.075 67.325ZM9 75.5H13.325V66H9V75.5ZM24.1619 85L21.5869 82.425V67.575L24.1619 65H35.3869L37.9619 67.575V82.425L35.3869 85H24.1619ZM27.3369 66V84H32.2119V66H27.3369ZM41.584 70.75H40.459V65H57.459V70.75H56.334V66H51.834V84H53.834V85H44.084V84H46.084V66H41.584V70.75ZM61.0908 70.75H59.9658V65H76.9658V70.75H75.8408V66H71.3408V84H73.3408V85H63.5908V84H65.5908V66H61.0908V70.75ZM94.7977 85H78.7227V84H80.7227V66H78.7227V65H94.7977V70.75H93.6727V66H86.4727V74.25H92.9227V75.25H86.4727V84H93.6727V79.25H94.7977V85ZM107.289 85H97.5391V84H99.5391V66H97.5391V65H112.789L115.114 67.325V72.925L113.039 75L115.114 77.075V84H117.114V85H111.439L109.364 82.925V75.5H105.289V84H107.289V85ZM105.289 66V74.5H109.364V66H105.289Z" fill="url(#paint2_linear_133_2)"/>
<path d="M19.075 67.325H20.075V66.9108L19.7821 66.6179L19.075 67.325ZM19.075 73.925L19.7821 74.6321L20.075 74.3392V73.925H19.075ZM16.5 76.5V77.5H16.9142L17.2071 77.2071L16.5 76.5ZM9 76.5V75.5H8V76.5H9ZM9 84H8V85H9V84ZM11 84H12V83H11V84ZM11 85V86H12V85H11ZM1.25 85H0.25V86H1.25V85ZM1.25 84V83H0.25V84H1.25ZM3.25 84V85H4.25V84H3.25ZM3.25 66H4.25V65H3.25V66ZM1.25 66H0.25V67H1.25V66ZM1.25 65V64H0.25V65H1.25ZM16.75 65L17.4571 64.2929L17.1642 64H16.75V65ZM9 75.5H8V76.5H9V75.5ZM13.325 75.5V76.5H14.325V75.5H13.325ZM13.325 66H14.325V65H13.325V66ZM9 66V65H8V66H9ZM18.075 67.325V73.925H20.075V67.325H18.075ZM18.3679 73.2179L15.7929 75.7929L17.2071 77.2071L19.7821 74.6321L18.3679 73.2179ZM16.5 75.5H9V77.5H16.5V75.5ZM8 76.5V84H10V76.5H8ZM9 85H11V83H9V85ZM10 84V85H12V84H10ZM11 84H1.25V86H11V84ZM2.25 85V84H0.25V85H2.25ZM1.25 85H3.25V83H1.25V85ZM4.25 84V66H2.25V84H4.25ZM3.25 65H1.25V67H3.25V65ZM2.25 66V65H0.25V66H2.25ZM1.25 66H16.75V64H1.25V66ZM16.0429 65.7071L18.3679 68.0321L19.7821 66.6179L17.4571 64.2929L16.0429 65.7071ZM9 76.5H13.325V74.5H9V76.5ZM14.325 75.5V66H12.325V75.5H14.325ZM13.325 65H9V67H13.325V65ZM8 66V75.5H10V66H8ZM24.1619 85L23.4548 85.7071L23.7477 86H24.1619V85ZM21.5869 82.425H20.5869V82.8392L20.8798 83.1321L21.5869 82.425ZM21.5869 67.575L20.8798 66.8679L20.5869 67.1608V67.575H21.5869ZM24.1619 65V64H23.7477L23.4548 64.2929L24.1619 65ZM35.3869 65L36.094 64.2929L35.8011 64H35.3869V65ZM37.9619 67.575H38.9619V67.1608L38.669 66.8679L37.9619 67.575ZM37.9619 82.425L38.669 83.1321L38.9619 82.8392V82.425H37.9619ZM35.3869 85V86H35.8011L36.094 85.7071L35.3869 85ZM27.3369 66V65H26.3369V66H27.3369ZM27.3369 84H26.3369V85H27.3369V84ZM32.2119 84V85H33.2119V84H32.2119ZM32.2119 66H33.2119V65H32.2119V66ZM24.869 84.2929L22.294 81.7179L20.8798 83.1321L23.4548 85.7071L24.869 84.2929ZM22.5869 82.425V67.575H20.5869V82.425H22.5869ZM22.294 68.2821L24.869 65.7071L23.4548 64.2929L20.8798 66.8679L22.294 68.2821ZM24.1619 66H35.3869V64H24.1619V66ZM34.6798 65.7071L37.2548 68.2821L38.669 66.8679L36.094 64.2929L34.6798 65.7071ZM36.9619 67.575V82.425H38.9619V67.575H36.9619ZM37.2548 81.7179L34.6798 84.2929L36.094 85.7071L38.669 83.1321L37.2548 81.7179ZM35.3869 84H24.1619V86H35.3869V84ZM26.3369 66V84H28.3369V66H26.3369ZM27.3369 85H32.2119V83H27.3369V85ZM33.2119 84V66H31.2119V84H33.2119ZM32.2119 65H27.3369V67H32.2119V65ZM41.584 70.75V71.75H42.584V70.75H41.584ZM40.459 70.75H39.459V71.75H40.459V70.75ZM40.459 65V64H39.459V65H40.459ZM57.459 65H58.459V64H57.459V65ZM57.459 70.75V71.75H58.459V70.75H57.459ZM56.334 70.75H55.334V71.75H56.334V70.75ZM56.334 66H57.334V65H56.334V66ZM51.834 66V65H50.834V66H51.834ZM51.834 84H50.834V85H51.834V84ZM53.834 84H54.834V83H53.834V84ZM53.834 85V86H54.834V85H53.834ZM44.084 85H43.084V86H44.084V85ZM44.084 84V83H43.084V84H44.084ZM46.084 84V85H47.084V84H46.084ZM46.084 66H47.084V65H46.084V66ZM41.584 66V65H40.584V66H41.584ZM41.584 69.75H40.459V71.75H41.584V69.75ZM41.459 70.75V65H39.459V70.75H41.459ZM40.459 66H57.459V64H40.459V66ZM56.459 65V70.75H58.459V65H56.459ZM57.459 69.75H56.334V71.75H57.459V69.75ZM57.334 70.75V66H55.334V70.75H57.334ZM56.334 65H51.834V67H56.334V65ZM50.834 66V84H52.834V66H50.834ZM51.834 85H53.834V83H51.834V85ZM52.834 84V85H54.834V84H52.834ZM53.834 84H44.084V86H53.834V84ZM45.084 85V84H43.084V85H45.084ZM44.084 85H46.084V83H44.084V85ZM47.084 84V66H45.084V84H47.084ZM46.084 65H41.584V67H46.084V65ZM40.584 66V70.75H42.584V66H40.584ZM61.0908 70.75V71.75H62.0908V70.75H61.0908ZM59.9658 70.75H58.9658V71.75H59.9658V70.75ZM59.9658 65V64H58.9658V65H59.9658ZM76.9658 65H77.9658V64H76.9658V65ZM76.9658 70.75V71.75H77.9658V70.75H76.9658ZM75.8408 70.75H74.8408V71.75H75.8408V70.75ZM75.8408 66H76.8408V65H75.8408V66ZM71.3408 66V65H70.3408V66H71.3408ZM71.3408 84H70.3408V85H71.3408V84ZM73.3408 84H74.3408V83H73.3408V84ZM73.3408 85V86H74.3408V85H73.3408ZM63.5908 85H62.5908V86H63.5908V85ZM63.5908 84V83H62.5908V84H63.5908ZM65.5908 84V85H66.5908V84H65.5908ZM65.5908 66H66.5908V65H65.5908V66ZM61.0908 66V65H60.0908V66H61.0908ZM61.0908 69.75H59.9658V71.75H61.0908V69.75ZM60.9658 70.75V65H58.9658V70.75H60.9658ZM59.9658 66H76.9658V64H59.9658V66ZM75.9658 65V70.75H77.9658V65H75.9658ZM76.9658 69.75H75.8408V71.75H76.9658V69.75ZM76.8408 70.75V66H74.8408V70.75H76.8408ZM75.8408 65H71.3408V67H75.8408V65ZM70.3408 66V84H72.3408V66H70.3408ZM71.3408 85H73.3408V83H71.3408V85ZM72.3408 84V85H74.3408V84H72.3408ZM73.3408 84H63.5908V86H73.3408V84ZM64.5908 85V84H62.5908V85H64.5908ZM63.5908 85H65.5908V83H63.5908V85ZM66.5908 84V66H64.5908V84H66.5908ZM65.5908 65H61.0908V67H65.5908V65ZM60.0908 66V70.75H62.0908V66H60.0908ZM94.7977 85V86H95.7977V85H94.7977ZM78.7227 85H77.7227V86H78.7227V85ZM78.7227 84V83H77.7227V84H78.7227ZM80.7227 84V85H81.7227V84H80.7227ZM80.7227 66H81.7227V65H80.7227V66ZM78.7227 66H77.7227V67H78.7227V66ZM78.7227 65V64H77.7227V65H78.7227ZM94.7977 65H95.7977V64H94.7977V65ZM94.7977 70.75V71.75H95.7977V70.75H94.7977ZM93.6727 70.75H92.6727V71.75H93.6727V70.75ZM93.6727 66H94.6727V65H93.6727V66ZM86.4727 66V65H85.4727V66H86.4727ZM86.4727 74.25H85.4727V75.25H86.4727V74.25ZM92.9227 74.25H93.9227V73.25H92.9227V74.25ZM92.9227 75.25V76.25H93.9227V75.25H92.9227ZM86.4727 75.25V74.25H85.4727V75.25H86.4727ZM86.4727 84H85.4727V85H86.4727V84ZM93.6727 84V85H94.6727V84H93.6727ZM93.6727 79.25V78.25H92.6727V79.25H93.6727ZM94.7977 79.25H95.7977V78.25H94.7977V79.25ZM94.7977 84H78.7227V86H94.7977V84ZM79.7227 85V84H77.7227V85H79.7227ZM78.7227 85H80.7227V83H78.7227V85ZM81.7227 84V66H79.7227V84H81.7227ZM80.7227 65H78.7227V67H80.7227V65ZM79.7227 66V65H77.7227V66H79.7227ZM78.7227 66H94.7977V64H78.7227V66ZM93.7977 65V70.75H95.7977V65H93.7977ZM94.7977 69.75H93.6727V71.75H94.7977V69.75ZM94.6727 70.75V66H92.6727V70.75H94.6727ZM93.6727 65H86.4727V67H93.6727V65ZM85.4727 66V74.25H87.4727V66H85.4727ZM86.4727 75.25H92.9227V73.25H86.4727V75.25ZM91.9227 74.25V75.25H93.9227V74.25H91.9227ZM92.9227 74.25H86.4727V76.25H92.9227V74.25ZM85.4727 75.25V84H87.4727V75.25H85.4727ZM86.4727 85H93.6727V83H86.4727V85ZM94.6727 84V79.25H92.6727V84H94.6727ZM93.6727 80.25H94.7977V78.25H93.6727V80.25ZM93.7977 79.25V85H95.7977V79.25H93.7977ZM107.289 85V86H108.289V85H107.289ZM97.5391 85H96.5391V86H97.5391V85ZM97.5391 84V83H96.5391V84H97.5391ZM99.5391 84V85H100.539V84H99.5391ZM99.5391 66H100.539V65H99.5391V66ZM97.5391 66H96.5391V67H97.5391V66ZM97.5391 65V64H96.5391V65H97.5391ZM112.789 65L113.496 64.2929L113.203 64H112.789V65ZM115.114 67.325H116.114V66.9108L115.821 66.6179L115.114 67.325ZM115.114 72.925L115.821 73.6321L116.114 73.3392V72.925H115.114ZM113.039 75L112.332 74.2929L111.625 75L112.332 75.7071L113.039 75ZM115.114 77.075H116.114V76.6608L115.821 76.3679L115.114 77.075ZM115.114 84H114.114V85H115.114V84ZM117.114 84H118.114V83H117.114V84ZM117.114 85V86H118.114V85H117.114ZM111.439 85L110.732 85.7071L111.025 86H111.439V85ZM109.364 82.925H108.364V83.3392L108.657 83.6321L109.364 82.925ZM109.364 75.5H110.364V74.5H109.364V75.5ZM105.289 75.5V74.5H104.289V75.5H105.289ZM105.289 84H104.289V85H105.289V84ZM107.289 84H108.289V83H107.289V84ZM105.289 66V65H104.289V66H105.289ZM105.289 74.5H104.289V75.5H105.289V74.5ZM109.364 74.5V75.5H110.364V74.5H109.364ZM109.364 66H110.364V65H109.364V66ZM107.289 84H97.5391V86H107.289V84ZM98.5391 85V84H96.5391V85H98.5391ZM97.5391 85H99.5391V83H97.5391V85ZM100.539 84V66H98.5391V84H100.539ZM99.5391 65H97.5391V67H99.5391V65ZM98.5391 66V65H96.5391V66H98.5391ZM97.5391 66H112.789V64H97.5391V66ZM112.082 65.7071L114.407 68.0321L115.821 66.6179L113.496 64.2929L112.082 65.7071ZM114.114 67.325V72.925H116.114V67.325H114.114ZM114.407 72.2179L112.332 74.2929L113.746 75.7071L115.821 73.6321L114.407 72.2179ZM112.332 75.7071L114.407 77.7821L115.821 76.3679L113.746 74.2929L112.332 75.7071ZM114.114 77.075V84H116.114V77.075H114.114ZM115.114 85H117.114V83H115.114V85ZM116.114 84V85H118.114V84H116.114ZM117.114 84H111.439V86H117.114V84ZM112.146 84.2929L110.071 82.2179L108.657 83.6321L110.732 85.7071L112.146 84.2929ZM110.364 82.925V75.5H108.364V82.925H110.364ZM109.364 74.5H105.289V76.5H109.364V74.5ZM104.289 75.5V84H106.289V75.5H104.289ZM105.289 85H107.289V83H105.289V85ZM106.289 84V85H108.289V84H106.289ZM104.289 66V74.5H106.289V66H104.289ZM105.289 75.5H109.364V73.5H105.289V75.5ZM110.364 74.5V66H108.364V74.5H110.364ZM109.364 65H105.289V67H109.364V65Z" fill="#151515" mask="url(#path-5-outside-3_133_2)"/>
<path fill-rule="evenodd" clip-rule="evenodd" d="M280.355 38.2958C278.151 41.0008 277.65 42.3533 277.3 46.0101C277.149 47.563 276.548 50.268 275.997 52.0213C275.288 54.1194 272.449 59.4861 271.457 62.7022C269.968 65.8469 268.385 65.8726 266.823 65.8469C264.669 65.5965 264.307 63.3311 264.175 63.0419C263.774 62.6412 263.524 60.7877 263.474 58.1328C263.373 53.3238 263.373 53.2236 268.032 46.6614C271.188 42.2533 271.489 41.4017 270.386 39.8488C269.735 38.9972 269.585 39.0974 268.232 40.8506C265.027 45.0585 262.722 47.2125 260.168 48.4147C258.715 49.116 253.615 50.6187 253.615 50.9693C253.615 51.32 256.131 52.0213 258.565 52.322C259.566 53.5743 259.617 53.925 259.065 56.4797C258.665 58.5335 258.665 60.1365 259.065 62.6412C259.717 66.5484 258.965 70.1551 256.761 73.4112C255.258 75.5652 255.409 77.4186 257.062 77.9196C258.765 78.4706 260.368 76.8676 262.422 72.6598L264.375 68.6523L264.976 70.6561C266.028 74.1125 268.283 75.3147 271.989 74.3128C273.041 74.0624 273.142 73.8119 272.891 71.4575C272.741 69.7544 271.983 67.4276 272.484 66.4759C273.742 65.218 277.6 58.7338 278.352 58.1827C279.103 57.5816 279.955 57.1308 280.305 57.1308C281.758 57.1308 283.712 59.4852 285.765 63.8433C287.018 66.398 288.671 69.2032 289.472 70.0548C290.875 71.5576 291.225 71.6578 294.281 71.6578C296.686 71.6578 298.188 71.3572 299.641 70.6559C301.895 69.5038 302.346 68.7023 301.895 66.8489L301.891 66.8351C301.545 65.5962 301.531 65.5477 297.838 65.8971L294.131 66.2477L291.476 63.7431C288.971 61.3386 288.821 61.0881 288.871 58.7839C288.921 55.6781 290.073 52.7226 291.877 51.2699C292.678 50.6187 293.129 50.1178 292.828 50.1178C292.578 50.1178 291.777 50.5686 291.075 51.1196C290.374 51.6706 289.472 52.1215 289.021 52.1215C287.519 52.1215 285.315 48.9155 283.812 44.5574L282.359 40.8506L283.812 38.2959C288.871 33.5 283.161 34.8894 280.355 38.2958ZM280.906 49.6168C280.656 50.6187 281.708 51.6205 282.359 50.9693C282.559 50.8191 282.309 50.2179 281.908 49.6168L281.207 48.5649L280.906 49.6168Z" fill="#151515"/>
<path fill-rule="evenodd" clip-rule="evenodd" d="M249.498 76.7673C249.498 77.4687 250.399 77.2182 250.7 76.4167C250.85 76.0159 250.8 75.6653 250.55 75.6653C250.049 75.6653 249.498 76.2163 249.498 76.7673Z" fill="#151515"/>
<path fill-rule="evenodd" clip-rule="evenodd" d="M212.729 39.448C213.781 39.8487 213.581 42.3033 212.128 45.7597C211.126 48.1642 210.776 49.8173 210.726 52.923C210.676 56.68 210.525 57.231 208.772 60.0362C207.77 61.6893 206.919 63.5428 206.919 64.194C206.919 64.8953 207.82 66.1476 209.373 67.6003C211.928 70.0048 212.93 72.1087 212.93 75.1143C212.93 77.7191 211.427 79.7729 208.321 81.5262C204.564 83.6802 204.013 84.4316 204.915 86.0847C205.867 87.7377 207.971 88.3389 209.373 87.337C209.974 86.9362 211.527 86.285 212.93 85.8843L215.434 85.1329L215.134 83.2294C214.933 81.9269 215.084 80.8249 215.635 79.7729C216.186 78.721 216.587 76.2163 216.787 72.6597C217.087 67.3498 217.138 67.0994 218.29 66.8489C221.546 65.9973 226.555 69.8044 233.017 77.9195C234.62 80.0234 236.273 81.426 238.177 82.4279C239.729 83.2294 241.483 84.3815 242.184 84.9826C242.835 85.6338 246.141 87.8379 249.548 89.9919C252.954 92.0958 257.262 94.851 259.065 96.0532C264.626 99.8102 273.442 104.291 285.765 104.842C288.415 104.804 289.806 104.695 291.981 104.213L295.755 102.955C297.012 102.326 297.838 102.326 299.641 101.068C301.444 99.8101 301.694 99.3593 304.45 96.5541C308.357 92.5968 310.31 88.7897 309.96 85.9845C309.459 82.478 306.604 81.5763 304.049 84.131C303.247 84.9325 302.596 86.0847 302.596 86.6858C302.596 88.1385 301.344 90.9437 300.142 92.1459C298.532 93.4371 296.673 95.9252 294.281 96.5541C291.889 97.1831 289.472 97.2943 286.32 97.2943C285.068 96.9937 283.137 97.0488 280.031 96.5541C276.886 96.0532 276.257 95.7025 271.457 94.1495C265.914 92.3561 261.163 90.3759 259.366 88.6895C258.114 88.6895 251.201 83.7804 249.097 81.3759C247.394 79.4724 247.093 78.8713 247.544 78.1199C248.095 77.0679 248.546 76.9176 249.297 77.669C250.049 78.4204 251.551 76.567 251.602 74.8638C251.602 74.0623 251.351 72.0085 251.05 70.2552C250.7 68.4519 250.499 64.0437 250.6 60.2366C250.65 56.4796 250.55 53.0733 250.349 52.7227C249.397 51.32 247.494 52.1215 244.138 55.3776L240.781 58.5835L241.883 59.7858C242.535 60.4871 243.787 61.3888 244.689 61.8897C246.338 62.7894 246.342 62.8412 246.64 67.1713L246.642 67.1996C246.943 71.4074 246.893 71.758 245.59 73.9621C244.839 75.2646 243.837 76.567 243.386 76.8675C242.134 77.6189 239.98 76.4167 234.52 71.8582C231.915 69.6541 228.909 67.1996 227.757 66.348C224.151 63.643 224.1 63.4927 226.104 60.5372C232.216 51.2199 232.416 49.0659 227.607 42.4536C225.052 38.947 220.644 36.4925 216.436 36.2921C214.633 36.1919 212.679 36.2921 212.028 36.5927C208.548 37.8196 205.55 39.0558 203.3 40.1343C202.832 40.362 202.4 40.5768 201.996 40.7843C199.85 41.8864 198.469 42.7827 196.399 44.3069C192.392 46.9618 190.839 48.5147 188.234 52.3719C186.531 54.8265 186.13 55.8784 186.03 58.1326C185.93 59.8358 186.08 61.1883 186.481 61.6892C187.483 62.9415 191.49 65.6466 192.242 65.6466C193.494 65.6466 196.399 64.0436 196.95 63.0918C197.351 62.2903 197.051 61.9898 194.897 60.8877C192.091 59.4851 191.59 58.333 192.091 55.0268C192.592 51.8209 193.339 49.1697 197.251 46.0602C198.024 45.3451 198.828 44.9719 199.526 44.4627C200.784 43.5449 202.037 42.6433 204.116 41.9989C204.287 41.9457 204.464 41.8926 204.646 41.8395C208.347 40.7216 212.507 39.3644 212.729 39.448ZM225.603 47.3627C224.551 45.5092 223.049 43.205 222.197 42.3033C219.993 39.7485 215.835 39.448 215.234 41.7523C214.382 45.1586 214.332 49.4666 215.134 50.9694C215.585 51.8711 215.885 53.6243 215.885 55.077C215.785 57.8321 216.436 58.9843 218.34 59.6856C220.844 60.6374 225.453 56.6299 227.006 52.1716C227.457 50.8692 227.256 50.2681 225.603 47.3627ZM249.498 76.7673C249.498 77.4687 250.399 77.2182 250.7 76.4167C250.85 76.0159 250.8 75.6653 250.55 75.6653C250.049 75.6653 249.498 76.2163 249.498 76.7673Z" fill="#151515"/>
<path fill-rule="evenodd" clip-rule="evenodd" d="M250.7 76.4167C250.399 77.2182 249.498 77.4687 249.498 76.7673C249.498 76.2163 250.049 75.6653 250.55 75.6653C250.8 75.6653 250.85 76.0159 250.7 76.4167Z" fill="#151515"/>
<defs>
<linearGradient id="paint0_linear_133_2" x1="139.5" y1="1" x2="139.5" y2="22" gradientUnits="userSpaceOnUse">
<stop offset="0.27"/>
<stop offset="0.915" stop-opacity="0"/>
</linearGradient>
<linearGradient id="paint1_linear_133_2" x1="87" y1="36" x2="87" y2="52" gradientUnits="userSpaceOnUse">
<stop offset="0.27"/>
<stop offset="0.915" stop-opacity="0"/>
</linearGradient>
<linearGradient id="paint2_linear_133_2" x1="59" y1="65" x2="59" y2="85" gradientUnits="userSpaceOnUse">
<stop offset="0.27"/>
<stop offset="0.915" stop-opacity="0"/>
</linearGradient>
</defs>
</svg>
